<?xml version="1.0" encoding="UTF-8"?><svg xmlns="http://www.w3.org/2000/svg" viewBox="0 0 31 31"><defs><style>.d{fill:#fff;fill-rule:evenodd;}</style></defs><g id="a"/><g id="b"><g id="c"><path class="d" d="M15.5,0C6.95,0,0,6.95,0,15.5s6.95,15.5,15.5,15.5,15.5-6.95,15.5-15.5S24.05,0,15.5,0Zm-3.8,22.14h-3.19V11.89h3.19v10.25Zm.26-13.5c0,1.01-.83,1.85-1.85,1.85h0c-1.01,0-1.85-.83-1.85-1.85s.83-1.85,1.85-1.85,1.85,.83,1.85,1.85h0Zm11.68,13.5h-3.18v-4.98c0-1.19-.02-2.72-1.66-2.72s-1.91,1.3-1.91,2.63v5.07h-3.18V11.89h3.06v1.4h.04c.62-1.06,1.78-1.7,3.01-1.66,3.23,0,3.82,2.12,3.82,4.88v5.62Z"/></g></g></svg>