<svg width="31" height="31" viewBox="0 0 31 31" fill="none" xmlns="http://www.w3.org/2000/svg">
<path fill-rule="evenodd" clip-rule="evenodd" d="M15.5 0C24.0547 0 31 6.94533 31 15.5C31 24.0547 24.0547 31 15.5 31C6.94533 31 0 24.0547 0 15.5C0 6.94533 6.94533 0 15.5 0ZM12.7699 23.7439C19.6288 23.7439 23.3791 18.0604 23.3791 13.1347C23.3791 12.9723 23.3791 12.81 23.3714 12.6553C24.0983 12.1295 24.7324 11.4722 25.235 10.7221C24.57 11.016 23.8508 11.217 23.093 11.3098C23.8663 10.8458 24.454 10.119 24.7324 9.24521C24.0132 9.67049 23.2168 9.97976 22.3661 10.1499C21.6857 9.42303 20.7191 8.97456 19.6443 8.97456C17.5874 8.97456 15.9171 10.6448 15.9171 12.7017C15.9171 12.9955 15.948 13.2816 16.0176 13.5523C12.9168 13.3976 10.1717 11.913 8.33137 9.65499C8.01429 10.204 7.82871 10.8458 7.82871 11.5263C7.82871 12.8177 8.48601 13.9621 9.49127 14.6271C8.88035 14.6117 8.30812 14.4415 7.80552 14.1632V14.2096C7.80552 16.019 9.08912 17.5191 10.7981 17.8671C10.4888 17.9521 10.1563 17.9986 9.81604 17.9986C9.57628 17.9986 9.34432 17.9754 9.11237 17.929C9.58403 19.4136 10.9604 20.4885 12.5921 20.5194C11.3162 21.517 9.70778 22.1124 7.96016 22.1124C7.65857 22.1124 7.36474 22.0969 7.07091 22.0583C8.70252 23.1253 10.6666 23.7439 12.7699 23.7439Z" fill="white"/>
</svg>
