<svg width="31" height="31" viewBox="0 0 31 31" fill="none" xmlns="http://www.w3.org/2000/svg">
<path fill-rule="evenodd" clip-rule="evenodd" d="M15.5 0C24.0547 0 31 6.94533 31 15.5C31 24.0547 24.0547 31 15.5 31C6.94533 31 0 24.0547 0 15.5C0 6.94533 6.94533 0 15.5 0ZM24.7827 10.8366C24.5599 10.0029 23.9035 9.3465 23.0699 9.12369C21.5587 8.71875 15.5 8.71875 15.5 8.71875C15.5 8.71875 9.44126 8.71875 7.93013 9.12369C7.0967 9.3465 6.44007 10.0029 6.21726 10.8366C5.8125 12.3475 5.8125 15.5001 5.8125 15.5001C5.8125 15.5001 5.8125 18.6526 6.21726 20.1634C6.44007 20.9971 7.0967 21.6537 7.93013 21.8765C9.44126 22.2812 15.5 22.2812 15.5 22.2812C15.5 22.2812 21.5587 22.2812 23.0699 21.8765C23.9035 21.6537 24.5599 20.9971 24.7827 20.1634C25.1875 18.6526 25.1875 15.5001 25.1875 15.5001C25.1875 15.5001 25.1875 12.3475 24.7827 10.8366ZM13.5624 18.4064V12.5938L18.5961 15.5001L13.5624 18.4064Z" fill="white"/>
</svg>
