<svg xmlns="http://www.w3.org/2000/svg">
<defs>
<font id="GTHaptikZS-Bold" horiz-adv-x="640" >
  <font-face 
    font-family="GT Haptik ZS"
    font-weight="700"
    font-stretch="normal"
    units-per-em="1000"
    panose-1="0 0 8 0 0 0 0 0 0 0"
    ascent="800"
    descent="-200"
    x-height="500"
    cap-height="700"
    bbox="-444 -254 1277 955"
    underline-thickness="50"
    underline-position="-100"
    unicode-range="U+000D-FB02"
  />
<missing-glyph horiz-adv-x="873" 
d="M68.5 702q10.5 10 26.5 10q15 0 26 -10.5t11 -25.5q0 -10 -4.5 -19.5t-13.5 -14.5v-24q42 17 90 29.5t86 12.5q42 0 73 -21.5t31 -61.5v-25q55 12 102 12q59 0 98.5 -19t39.5 -64v-48q48 12 77 12q59 0 85.5 -21.5t26.5 -57.5v-240q-52 32 -112 32q-19 0 -57 -10
q-40 -10 -61 -10q-23 0 -35.5 12t-12.5 34v86q-23 5 -49 5q-28 0 -69 -9q-5 -1 -29 -5t-46 -4t-35 12.5t-13 33.5v68h-14q-62 0 -176 -44v-327h-39v643q-8 5 -12.5 14t-4.5 19q0 16 10.5 26zM365 577q0 28 -22.5 41.5t-52.5 13.5q-35 0 -83.5 -13.5t-92.5 -31.5v-230
q110 42 176 42q44 0 75 -14v192zM285 580h34l-64 -95v-68h-30v68l-65 95h34l46 -64zM606 474q0 26 -20 44t-91 18q-40 0 -101 -12v-171q0 -12 -8.5 -18t-26.5 -12q-14 -5 -21.5 -9.5t-7.5 -12.5q0 -16 22 -16q23 0 69 8q43 9 75 9q30 0 59 -6.5t51 -18.5v197zM430.5 471.5
q22.5 22.5 56.5 22.5q36 0 58.5 -22.5t22.5 -57.5t-22.5 -58t-58.5 -23q-34 0 -56.5 23t-22.5 58t22.5 57.5zM525 450.5q-15 14.5 -38 14.5q-22 0 -36.5 -14.5t-14.5 -36.5t14.5 -37t36.5 -15q23 0 38 15t15 37t-15 36.5zM796 365q0 29 -21.5 40t-63.5 11q-29 0 -77 -12
v-167q0 -13 -9.5 -20t-25.5 -13q-14 -6 -20.5 -10.5t-6.5 -12.5q0 -7 5.5 -11.5t15.5 -4.5q20 0 58 10q37 11 61 11q42 0 84 -15v194zM684 373h29v-100h-29v100zM355 361.5q-9 4.5 -23 6.5v-32q5 3 13.5 5.5t13.5 4.5t5 6q0 5 -9 9.5zM597.5 253.5q-8.5 5.5 -25.5 10.5v-47
q6 4 15 7.5t14 6.5t5 7q0 10 -8.5 15.5zM684.5 244.5q5.5 5.5 14.5 5.5q8 0 13.5 -5.5t5.5 -13.5q0 -9 -5.5 -14.5t-13.5 -5.5q-9 0 -14.5 5.5t-5.5 14.5q0 8 5.5 13.5z" />
    <glyph glyph-name="f_f" unicode="ff" horiz-adv-x="799" 
d="M505 389h-263v-389h-132v389h-101v111h101v25q0 93 49.5 139.5t131.5 46.5q39 0 98 -9v-122q-50 8 -76 8q-39 0 -55 -18.5t-16 -58.5v-11h263v25q0 93 49.5 139.5t131.5 46.5q39 0 98 -9v-122q-50 8 -76 8q-39 0 -55 -18.5t-16 -58.5v-11h142v-111h-142v-389h-132v389z
" />
    <glyph glyph-name="f_f_i" unicode="ffi" horiz-adv-x="1063" 
d="M505 389h-263v-389h-132v389h-101v111h101v25q0 93 49.5 139.5t131.5 46.5q39 0 98 -9v-122q-50 8 -76 8q-39 0 -55 -18.5t-16 -58.5v-11h263v25q0 93 49.5 139.5t131.5 46.5q39 0 98 -9v-122q-50 8 -76 8q-39 0 -55 -18.5t-16 -58.5v-11h142v-111h-142v-389h-132v389z
M865 500h132v-500h-132v500zM870 583q-24 24 -24 60q0 37 24 61t60 24q37 0 61 -24t24 -61q0 -36 -24 -60t-61 -24q-36 0 -60 24z" />
    <glyph glyph-name="f_f_l" unicode="ffl" horiz-adv-x="1044" 
d="M505 389h-263v-389h-132v389h-101v111h101v25q0 93 49.5 139.5t131.5 46.5q39 0 98 -9v-122q-50 8 -76 8q-39 0 -55 -18.5t-16 -58.5v-11h263v25q0 93 49.5 139.5t131.5 46.5q39 0 98 -9v-122q-50 8 -76 8q-39 0 -55 -18.5t-16 -58.5v-11h142v-111h-142v-389h-132v389z
M848 700h133v-700h-133v700z" />
    <glyph glyph-name="f_i" unicode="fi" horiz-adv-x="682" 
d="M256 389v-389h-133v389h-108v111h108v25q0 93 50 140t131 47q40 0 99 -9v-122q-51 8 -76 8q-39 0 -55 -19t-16 -59v-11h141v-111h-141zM484 500h132v-500h-132v500zM489 583q-24 24 -24 60q0 37 24 61t60 24q37 0 61 -24t24 -61q0 -36 -24 -60t-61 -24q-36 0 -60 24z" />
    <glyph glyph-name="f_l" unicode="fl" horiz-adv-x="666" 
d="M256 389v-389h-133v389h-108v111h108v25q0 93 50 140t131 47q40 0 99 -9v-122q-51 8 -76 8q-39 0 -55 -19t-16 -59v-11h141v-111h-141zM476 700h133v-700h-133v700z" />
    <glyph glyph-name=".notdef" horiz-adv-x="873" 
d="M68.5 702q10.5 10 26.5 10q15 0 26 -10.5t11 -25.5q0 -10 -4.5 -19.5t-13.5 -14.5v-24q42 17 90 29.5t86 12.5q42 0 73 -21.5t31 -61.5v-25q55 12 102 12q59 0 98.5 -19t39.5 -64v-48q48 12 77 12q59 0 85.5 -21.5t26.5 -57.5v-240q-52 32 -112 32q-19 0 -57 -10
q-40 -10 -61 -10q-23 0 -35.5 12t-12.5 34v86q-23 5 -49 5q-28 0 -69 -9q-5 -1 -29 -5t-46 -4t-35 12.5t-13 33.5v68h-14q-62 0 -176 -44v-327h-39v643q-8 5 -12.5 14t-4.5 19q0 16 10.5 26zM365 577q0 28 -22.5 41.5t-52.5 13.5q-35 0 -83.5 -13.5t-92.5 -31.5v-230
q110 42 176 42q44 0 75 -14v192zM285 580h34l-64 -95v-68h-30v68l-65 95h34l46 -64zM606 474q0 26 -20 44t-91 18q-40 0 -101 -12v-171q0 -12 -8.5 -18t-26.5 -12q-14 -5 -21.5 -9.5t-7.5 -12.5q0 -16 22 -16q23 0 69 8q43 9 75 9q30 0 59 -6.5t51 -18.5v197zM430.5 471.5
q22.5 22.5 56.5 22.5q36 0 58.5 -22.5t22.5 -57.5t-22.5 -58t-58.5 -23q-34 0 -56.5 23t-22.5 58t22.5 57.5zM525 450.5q-15 14.5 -38 14.5q-22 0 -36.5 -14.5t-14.5 -36.5t14.5 -37t36.5 -15q23 0 38 15t15 37t-15 36.5zM796 365q0 29 -21.5 40t-63.5 11q-29 0 -77 -12
v-167q0 -13 -9.5 -20t-25.5 -13q-14 -6 -20.5 -10.5t-6.5 -12.5q0 -7 5.5 -11.5t15.5 -4.5q20 0 58 10q37 11 61 11q42 0 84 -15v194zM684 373h29v-100h-29v100zM355 361.5q-9 4.5 -23 6.5v-32q5 3 13.5 5.5t13.5 4.5t5 6q0 5 -9 9.5zM597.5 253.5q-8.5 5.5 -25.5 10.5v-47
q6 4 15 7.5t14 6.5t5 7q0 10 -8.5 15.5zM684.5 244.5q5.5 5.5 14.5 5.5q8 0 13.5 -5.5t5.5 -13.5q0 -9 -5.5 -14.5t-13.5 -5.5q-9 0 -14.5 5.5t-5.5 14.5q0 8 5.5 13.5z" />
    <glyph glyph-name=".null" horiz-adv-x="0" 
 />
    <glyph glyph-name="nonmarkingreturn" unicode="&#xd;" horiz-adv-x="284" 
 />
    <glyph glyph-name="space" unicode=" " horiz-adv-x="284" 
 />
    <glyph glyph-name="A" unicode="A" horiz-adv-x="792" 
d="M785 0h-154l-51 111h-368l-51 -111h-154l324 700h130zM396 508l-119 -257h238z" />
    <glyph glyph-name="B" unicode="B" horiz-adv-x="628" 
d="M564.5 298q29.5 -42 29.5 -101q0 -57 -25 -101.5t-72 -70t-112 -25.5h-311v700h277q65 0 112.5 -25.5t72.5 -70t25 -101.5q0 -51 -22 -89.5t-60 -55.5q56 -18 85.5 -60zM214 560v-140h135q34 0 53 19.5t19 52.5q0 31 -19 49.5t-54 18.5h-134zM382 140q33 0 52.5 18.5
t19.5 49.5q0 34 -21 53t-58 19h-161v-140h168z" />
    <glyph glyph-name="C" unicode="C" horiz-adv-x="668" 
d="M90 529q46 80 126 125.5t179 45.5q73 0 137.5 -24.5t114.5 -70.5l-67 -128q-40 41 -85.5 62t-100.5 21q-60 0 -108 -26.5t-75 -74.5t-27 -109t27 -109t74.5 -74.5t106.5 -26.5q115 0 197 89l69 -130q-108 -99 -264 -99q-98 0 -178 46t-126 126t-46 179q0 98 46 178z" />
    <glyph glyph-name="D" unicode="D" horiz-adv-x="705" 
d="M74 0v700h254q98 0 176 -45.5t122.5 -125t44.5 -179.5t-44.5 -179.5t-122.5 -125t-176 -45.5h-254zM328 140q59 0 105 27t72 75t26 108t-26 108t-72 75t-105 27h-114v-420h114z" />
    <glyph glyph-name="E" unicode="E" horiz-adv-x="581" 
d="M526 0h-452v700h452v-140h-312v-140h312v-140h-312v-140h312v-140z" />
    <glyph glyph-name="F" unicode="F" horiz-adv-x="559" 
d="M214 0h-140v700h452v-140h-312v-140h312v-140h-312v-280z" />
    <glyph glyph-name="G" unicode="G" horiz-adv-x="746" 
d="M78.5 529q44.5 80 125.5 125.5t186 45.5q74 0 140.5 -24.5t116.5 -74.5l-68 -130q-77 89 -196 89q-61 0 -108.5 -26.5t-74 -74.5t-26.5 -109q0 -62 26.5 -110t75 -74.5t111.5 -26.5q61 0 111 31.5t62 89.5h-196v140h357v-46q0 -111 -44 -191t-119.5 -121.5t-167.5 -41.5
q-104 0 -185 45t-126 124.5t-45 179.5t44.5 180z" />
    <glyph glyph-name="H" unicode="H" horiz-adv-x="734" 
d="M214 0h-140v700h140v-280h307v280h140v-700h-140v280h-307v-280z" />
    <glyph glyph-name="I" unicode="I" horiz-adv-x="288" 
d="M214 0h-140v700h140v-700z" />
    <glyph glyph-name="J" unicode="J" horiz-adv-x="525" 
d="M114.5 30q-50.5 30 -76.5 79.5t-26 107.5l127 57q0 -64 24 -99t73 -35q42 0 63.5 26t21.5 76v458h140v-459q0 -78 -29.5 -132.5t-80.5 -81.5t-116 -27q-70 0 -120.5 30z" />
    <glyph glyph-name="K" unicode="K" horiz-adv-x="705" 
d="M214 0h-140v700h140v-295l294 295h197l-304 -306l305 -394h-178l-226 294l-88 -88v-206z" />
    <glyph glyph-name="L" unicode="L" horiz-adv-x="541" 
d="M532 0h-458v700h140v-560h318v-140z" />
    <glyph glyph-name="M" unicode="M" horiz-adv-x="1007" 
d="M214 0h-140v700h135l295 -517l294 517h135v-700h-140v407l-232 -407h-115l-232 407v-407z" />
    <glyph glyph-name="N" unicode="N" horiz-adv-x="788" 
d="M214 0h-140v700h122l378 -460v460h140v-700h-122l-378 460v-460z" />
    <glyph glyph-name="O" unicode="O" horiz-adv-x="768" 
d="M205 45.5q-80 45.5 -125.5 125.5t-45.5 179t45.5 179t125.5 125.5t179 45.5t179 -45.5t125.5 -125.5t45.5 -179t-45.5 -179t-125.5 -125.5t-179 -45.5t-179 45.5zM492 167q48 27 75 75t27 108q0 61 -27 108.5t-75 74.5t-108 27q-61 0 -108.5 -27t-74.5 -74.5t-27 -108.5
q0 -60 27 -108t74.5 -75t108.5 -27q60 0 108 27z" />
    <glyph glyph-name="P" unicode="P" horiz-adv-x="618" 
d="M74 0v700h274q70 0 126.5 -32t88 -87.5t31.5 -125.5t-31.5 -125.5t-87.5 -87t-127 -31.5h-134v-211h-140zM348 351q49 0 77.5 29t28.5 75q0 47 -28.5 76t-77.5 29h-134v-209h134z" />
    <glyph glyph-name="Q" unicode="Q" horiz-adv-x="809" 
d="M577 56q-84 -56 -193 -56q-99 0 -179 45.5t-125.5 125.5t-45.5 179t45.5 179t125.5 125.5t179 45.5t179 -45.5t125.5 -125.5t45.5 -179q0 -111 -58 -197l165 -165l-96 -100zM472 161l-152 152l96 102l155 -156q23 40 23 91q0 61 -27 108.5t-75 74.5t-108 27
q-61 0 -108.5 -27t-74.5 -74.5t-27 -108.5q0 -60 27 -108t74.5 -75t108.5 -27q51 0 88 21z" />
    <glyph glyph-name="R" unicode="R" horiz-adv-x="642" 
d="M622 0h-171l-150 234h-87v-234h-140v700h298q65 0 118.5 -30.5t84 -84t30.5 -118.5q0 -76 -41 -135t-109 -83zM214 560v-186h158q41 0 67 26.5t26 66.5q0 41 -26 67t-67 26h-158z" />
    <glyph glyph-name="S" unicode="S" horiz-adv-x="551" 
d="M110.5 48.5q-67.5 48.5 -86.5 134.5l127 52q11 -46 46 -70.5t86 -24.5q47 0 72.5 17.5t25.5 49.5q0 27 -17.5 44t-57.5 27l-73 19q-86 23 -131.5 74t-45.5 126q0 93 62 148t167 55q91 0 154 -42.5t82 -119.5l-126 -52q-23 74 -113 74q-41 0 -63.5 -16.5t-22.5 -45.5
q0 -22 16 -38.5t57 -28.5l91 -25q80 -23 120.5 -70t40.5 -127q0 -99 -64.5 -154t-178.5 -55q-100 0 -167.5 48.5z" />
    <glyph glyph-name="T" unicode="T" horiz-adv-x="656" 
d="M398 0h-140v560h-253v140h646v-140h-253v-560z" />
    <glyph glyph-name="U" unicode="U" horiz-adv-x="767" 
d="M217.5 41q-74.5 41 -117 115t-42.5 168v376h140v-376q0 -56 24 -97.5t66.5 -64t95.5 -22.5t95 22.5t66 64t24 97.5v376h140v-376q0 -94 -42 -168t-116.5 -115t-166.5 -41t-166.5 41z" />
    <glyph glyph-name="V" unicode="V" horiz-adv-x="783" 
d="M453 0h-123l-331 700h155l238 -503l237 503h155z" />
    <glyph glyph-name="W" unicode="W" horiz-adv-x="1240" 
d="M412 0h-131l-271 700h150l189 -488l202 488h138l202 -488l189 488h150l-271 -700h-131l-208 499z" />
    <glyph glyph-name="X" unicode="X" horiz-adv-x="765" 
d="M190 0h-181l283 350l-283 350h180l193 -238l193 238h181l-283 -350l283 -350h-181l-193 238z" />
    <glyph glyph-name="Y" unicode="Y" horiz-adv-x="710" 
d="M425 0h-140v271l-286 429h169l187 -280l187 280h169l-286 -429v-271z" />
    <glyph glyph-name="Z" unicode="Z" horiz-adv-x="643" 
d="M607 0h-571v101l362 459h-362v140h571v-101l-362 -459h362v-140z" />
    <glyph glyph-name="Aacute" unicode="&#xc1;" horiz-adv-x="792" 
d="M785 0h-154l-51 111h-368l-51 -111h-154l324 700h130zM396 508l-119 -257h238zM559 846l-225 -136l-59 92l225 136z" />
    <glyph glyph-name="Abreve" unicode="&#x102;" horiz-adv-x="792" 
d="M785 0h-154l-51 111h-368l-51 -111h-154l324 700h130zM396 508l-119 -257h238zM282 777q-42 45 -42 117h102q0 -28 14 -44.5t40 -16.5q27 0 41 16.5t14 44.5h102q0 -72 -42.5 -117t-114.5 -45t-114 45z" />
    <glyph glyph-name="Acircumflex" unicode="&#xc2;" horiz-adv-x="792" 
d="M785 0h-154l-51 111h-368l-51 -111h-154l324 700h130zM396 508l-119 -257h238zM396 813l-116 -100l-68 73l184 157l185 -157l-68 -73z" />
    <glyph glyph-name="Adieresis" unicode="&#xc4;" horiz-adv-x="792" 
d="M785 0h-154l-51 111h-368l-51 -111h-154l324 700h130zM396 508l-119 -257h238zM237.5 751q-22.5 22 -22.5 56q0 33 22.5 55.5t55.5 22.5t55.5 -22.5t22.5 -55.5q0 -34 -22.5 -56t-55.5 -22t-55.5 22zM443.5 751q-22.5 22 -22.5 56q0 33 22.5 55.5t55.5 22.5t55.5 -22.5
t22.5 -55.5q0 -34 -22.5 -56t-55.5 -22t-55.5 22z" />
    <glyph glyph-name="AE" unicode="&#xc6;" horiz-adv-x="1050" 
d="M175 0h-168l462 700h526v-140h-312v-140h312v-140h-312v-140h312v-140h-452v110h-296zM543 561l-203 -311h203v311z" />
    <glyph glyph-name="AEacute" unicode="&#x1fc;" horiz-adv-x="1050" 
d="M175 0h-168l462 700h526v-140h-312v-140h312v-140h-312v-140h312v-140h-452v110h-296zM543 561l-203 -311h203v311zM912 846l-225 -136l-59 92l225 136z" />
    <glyph glyph-name="Agrave" unicode="&#xc0;" horiz-adv-x="792" 
d="M785 0h-154l-51 111h-368l-51 -111h-154l324 700h130zM396 508l-119 -257h238zM526 803l-59 -93l-225 137l59 92z" />
    <glyph glyph-name="Amacron" unicode="&#x100;" horiz-adv-x="792" 
d="M785 0h-154l-51 111h-368l-51 -111h-154l324 700h130zM396 508l-119 -257h238zM546 755h-300v99h300v-99z" />
    <glyph glyph-name="Aogonek" unicode="&#x104;" horiz-adv-x="792" 
d="M690 -90q11 0 53 8v-96q-41 -11 -73 -11q-53 0 -83 25t-30 69q0 52 67 110l-44 96h-368l-51 -111h-154l324 700h130l324 -700h-78q-21 -17 -33 -34.5t-12 -30.5q0 -25 28 -25zM396 508l-119 -257h238z" />
    <glyph glyph-name="Aring" unicode="&#xc5;" horiz-adv-x="792" 
d="M631 0l-51 111h-368l-51 -111h-154l301 651q-21 18 -32.5 44t-11.5 56q0 57 38 95t94 38t94 -38t38 -95q0 -30 -11.5 -56t-32.5 -44l301 -651h-154zM359.5 788.5q-14.5 -14.5 -14.5 -37.5q0 -22 14.5 -36.5t36.5 -14.5t36.5 14.5t14.5 36.5t-14.5 37t-36.5 15
t-36.5 -14.5zM396 508l-119 -257h238z" />
    <glyph glyph-name="Atilde" unicode="&#xc3;" horiz-adv-x="792" 
d="M785 0h-154l-51 111h-368l-51 -111h-154l324 700h130zM396 508l-119 -257h238zM425.5 737.5q-16.5 6.5 -43.5 19.5q-13 7 -26.5 12.5t-23.5 5.5q-15 0 -29.5 -10.5t-36.5 -31.5l-65 67q69 79 129 79q20 0 37 -6.5t42 -19.5q4 -2 20.5 -10t29.5 -8q15 0 30.5 11t35.5 31
l65 -68q-31 -36 -64 -57t-64 -21q-20 0 -36.5 6.5z" />
    <glyph glyph-name="Cacute" unicode="&#x106;" horiz-adv-x="668" 
d="M90 529q46 80 126 125.5t179 45.5q73 0 137.5 -24.5t114.5 -70.5l-67 -128q-40 41 -85.5 62t-100.5 21q-60 0 -108 -26.5t-75 -74.5t-27 -109t27 -109t74.5 -74.5t106.5 -26.5q115 0 197 89l69 -130q-108 -99 -264 -99q-98 0 -178 46t-126 126t-46 179q0 98 46 178z
M557 846l-225 -136l-59 92l225 136z" />
    <glyph glyph-name="Ccaron" unicode="&#x10c;" horiz-adv-x="668" 
d="M90 529q46 80 126 125.5t179 45.5q73 0 137.5 -24.5t114.5 -70.5l-67 -128q-40 41 -85.5 62t-100.5 21q-60 0 -108 -26.5t-75 -74.5t-27 -109t27 -109t74.5 -74.5t106.5 -26.5q115 0 197 89l69 -130q-108 -99 -264 -99q-98 0 -178 46t-126 126t-46 179q0 98 46 178z
M579 882l-185 -157l-185 157l69 73l116 -100l117 100z" />
    <glyph glyph-name="Ccedilla" unicode="&#xc7;" horiz-adv-x="668" 
d="M497 -90q0 -48 -31.5 -77t-84.5 -29q-36 0 -83 18v103q21 -6 38 -10.5t28 -4.5q23 0 23 22q0 30 -38 71q-87 10 -156.5 57.5t-109 123.5t-39.5 167q0 98 46 178t126 125.5t179 45.5q73 0 137.5 -24.5t114.5 -70.5l-67 -128q-40 41 -85.5 62t-100.5 21q-60 0 -108 -26.5
t-75 -74.5t-27 -109t27 -109t74.5 -74.5t106.5 -26.5q115 0 197 89l69 -130q-86 -79 -205 -95q44 -44 44 -94z" />
    <glyph glyph-name="Ccircumflex" unicode="&#x108;" horiz-adv-x="668" 
d="M90 529q46 80 126 125.5t179 45.5q73 0 137.5 -24.5t114.5 -70.5l-67 -128q-40 41 -85.5 62t-100.5 21q-60 0 -108 -26.5t-75 -74.5t-27 -109t27 -109t74.5 -74.5t106.5 -26.5q115 0 197 89l69 -130q-108 -99 -264 -99q-98 0 -178 46t-126 126t-46 179q0 98 46 178z
M393 813l-116 -100l-68 73l184 157l185 -157l-68 -73z" />
    <glyph glyph-name="Cdotaccent" unicode="&#x10a;" horiz-adv-x="668" 
d="M90 529q46 80 126 125.5t179 45.5q73 0 137.5 -24.5t114.5 -70.5l-67 -128q-40 41 -85.5 62t-100.5 21q-60 0 -108 -26.5t-75 -74.5t-27 -109t27 -109t74.5 -74.5t106.5 -26.5q115 0 197 89l69 -130q-108 -99 -264 -99q-98 0 -178 46t-126 126t-46 179q0 98 46 178z
M334 746q-24 24 -24 60t24 60t60 24t60.5 -24t24.5 -60t-24.5 -60t-60.5 -24t-60 24z" />
    <glyph glyph-name="Dcaron" unicode="&#x10e;" horiz-adv-x="705" 
d="M74 0v700h254q98 0 176 -45.5t122.5 -125t44.5 -179.5t-44.5 -179.5t-122.5 -125t-176 -45.5h-254zM328 140q59 0 105 27t72 75t26 108t-26 108t-72 75t-105 27h-114v-420h114zM487 882l-185 -157l-185 157l69 73l116 -100l117 100z" />
    <glyph glyph-name="Dcroat" unicode="&#x110;" horiz-adv-x="702" 
d="M325 700q98 0 176 -45.5t122.5 -125t44.5 -179.5t-44.5 -179.5t-122.5 -125t-176 -45.5h-254v285h-74v140h74v275h254zM325 140q59 0 105 27t72 75t26 108t-26 108t-72 75t-105 27h-114v-135h142v-140h-142v-145h114z" />
    <glyph glyph-name="Eacute" unicode="&#xc9;" horiz-adv-x="581" 
d="M526 0h-452v700h452v-140h-312v-140h312v-140h-312v-140h312v-140zM461 846l-225 -136l-59 92l225 136z" />
    <glyph glyph-name="Ebreve" unicode="&#x114;" horiz-adv-x="581" 
d="M526 0h-452v700h452v-140h-312v-140h312v-140h-312v-140h312v-140zM184 777q-42 45 -42 117h102q0 -28 14 -44.5t40 -16.5q27 0 41 16.5t14 44.5h102q0 -72 -42.5 -117t-114.5 -45t-114 45z" />
    <glyph glyph-name="Ecaron" unicode="&#x11a;" horiz-adv-x="581" 
d="M526 0h-452v700h452v-140h-312v-140h312v-140h-312v-140h312v-140zM483 882l-185 -157l-185 157l69 73l116 -100l117 100z" />
    <glyph glyph-name="Ecircumflex" unicode="&#xca;" horiz-adv-x="581" 
d="M526 0h-452v700h452v-140h-312v-140h312v-140h-312v-140h312v-140zM298 813l-116 -100l-68 73l184 157l185 -157l-68 -73z" />
    <glyph glyph-name="Edieresis" unicode="&#xcb;" horiz-adv-x="581" 
d="M526 0h-452v700h452v-140h-312v-140h312v-140h-312v-140h312v-140zM139.5 751q-22.5 22 -22.5 56q0 33 22.5 55.5t55.5 22.5t55.5 -22.5t22.5 -55.5q0 -34 -22.5 -56t-55.5 -22t-55.5 22zM345.5 751q-22.5 22 -22.5 56q0 33 22.5 55.5t55.5 22.5t55.5 -22.5t22.5 -55.5
q0 -34 -22.5 -56t-55.5 -22t-55.5 22z" />
    <glyph glyph-name="Edotaccent" unicode="&#x116;" horiz-adv-x="581" 
d="M526 0h-452v700h452v-140h-312v-140h312v-140h-312v-140h312v-140zM238 746q-24 24 -24 60t24 60t60 24t60.5 -24t24.5 -60t-24.5 -60t-60.5 -24t-60 24z" />
    <glyph glyph-name="Egrave" unicode="&#xc8;" horiz-adv-x="581" 
d="M526 0h-452v700h452v-140h-312v-140h312v-140h-312v-140h312v-140zM428 803l-59 -93l-225 137l59 92z" />
    <glyph glyph-name="Emacron" unicode="&#x112;" horiz-adv-x="581" 
d="M526 0h-452v700h452v-140h-312v-140h312v-140h-312v-140h312v-140zM448 755h-300v99h300v-99z" />
    <glyph glyph-name="Eogonek" unicode="&#x118;" horiz-adv-x="581" 
d="M544 -78v-96q-41 -11 -73 -11q-53 0 -83 25t-30 69t47 91h-331v700h452v-140h-312v-140h312v-140h-312v-140h312v-140h-23q-19 -16 -29.5 -32.5t-10.5 -28.5q0 -25 28 -25q11 0 53 8z" />
    <glyph glyph-name="Eth" unicode="&#xd0;" horiz-adv-x="702" 
d="M325 700q98 0 176 -45.5t122.5 -125t44.5 -179.5t-44.5 -179.5t-122.5 -125t-176 -45.5h-254v285h-74v140h74v275h254zM325 140q59 0 105 27t72 75t26 108t-26 108t-72 75t-105 27h-114v-135h142v-140h-142v-145h114z" />
    <glyph glyph-name="Gbreve" unicode="&#x11e;" horiz-adv-x="746" 
d="M78.5 529q44.5 80 125.5 125.5t186 45.5q74 0 140.5 -24.5t116.5 -74.5l-68 -130q-77 89 -196 89q-61 0 -108.5 -26.5t-74 -74.5t-26.5 -109q0 -62 26.5 -110t75 -74.5t111.5 -26.5q61 0 111 31.5t62 89.5h-196v140h357v-46q0 -111 -44 -191t-119.5 -121.5t-167.5 -41.5
q-104 0 -185 45t-126 124.5t-45 179.5t44.5 180zM265 777q-42 45 -42 117h102q0 -28 14 -44.5t40 -16.5q27 0 41 16.5t14 44.5h102q0 -72 -42.5 -117t-114.5 -45t-114 45z" />
    <glyph glyph-name="Gcircumflex" unicode="&#x11c;" horiz-adv-x="746" 
d="M78.5 529q44.5 80 125.5 125.5t186 45.5q74 0 140.5 -24.5t116.5 -74.5l-68 -130q-77 89 -196 89q-61 0 -108.5 -26.5t-74 -74.5t-26.5 -109q0 -62 26.5 -110t75 -74.5t111.5 -26.5q61 0 111 31.5t62 89.5h-196v140h357v-46q0 -111 -44 -191t-119.5 -121.5t-167.5 -41.5
q-104 0 -185 45t-126 124.5t-45 179.5t44.5 180zM379 813l-116 -100l-68 73l184 157l185 -157l-68 -73z" />
    <glyph glyph-name="uni0122" unicode="&#x122;" horiz-adv-x="746" 
d="M78.5 529q44.5 80 125.5 125.5t186 45.5q74 0 140.5 -24.5t116.5 -74.5l-68 -130q-77 89 -196 89q-61 0 -108.5 -26.5t-74 -74.5t-26.5 -109q0 -62 26.5 -110t75 -74.5t111.5 -26.5q61 0 111 31.5t62 89.5h-196v140h357v-46q0 -111 -44 -191t-119.5 -121.5t-167.5 -41.5
q-104 0 -185 45t-126 124.5t-45 179.5t44.5 180zM387 -227l-53 34l34 46q-16 8 -26 24t-10 35q0 28 19.5 47t47.5 19t47.5 -19t19.5 -47q0 -18 -15 -43z" />
    <glyph glyph-name="Gdotaccent" unicode="&#x120;" horiz-adv-x="746" 
d="M78.5 529q44.5 80 125.5 125.5t186 45.5q74 0 140.5 -24.5t116.5 -74.5l-68 -130q-77 89 -196 89q-61 0 -108.5 -26.5t-74 -74.5t-26.5 -109q0 -62 26.5 -110t75 -74.5t111.5 -26.5q61 0 111 31.5t62 89.5h-196v140h357v-46q0 -111 -44 -191t-119.5 -121.5t-167.5 -41.5
q-104 0 -185 45t-126 124.5t-45 179.5t44.5 180zM319 746q-24 24 -24 60t24 60t60 24t60.5 -24t24.5 -60t-24.5 -60t-60.5 -24t-60 24z" />
    <glyph glyph-name="Hbar" unicode="&#x126;" horiz-adv-x="741" 
d="M214 280v-280h-140v497h-53v121h53v82h140v-82h307v82h140v-82h59v-121h-59v-497h-140v280h-307zM214 420h307v77h-307v-77z" />
    <glyph glyph-name="Hcircumflex" unicode="&#x124;" horiz-adv-x="734" 
d="M214 0h-140v700h140v-280h307v280h140v-700h-140v280h-307v-280zM367 813l-116 -100l-68 73l184 157l185 -157l-68 -73z" />
    <glyph glyph-name="Iacute" unicode="&#xcd;" horiz-adv-x="288" 
d="M214 0h-140v700h140v-700zM307 846l-225 -136l-59 92l225 136z" />
    <glyph glyph-name="Ibreve" unicode="&#x12c;" horiz-adv-x="288" 
d="M214 0h-140v700h140v-700zM29 777q-42 45 -42 117h102q0 -28 14 -44.5t40 -16.5q27 0 41 16.5t14 44.5h102q0 -72 -42.5 -117t-114.5 -45t-114 45z" />
    <glyph glyph-name="Icircumflex" unicode="&#xce;" horiz-adv-x="288" 
d="M214 0h-140v700h140v-700zM143 813l-116 -100l-68 73l184 157l185 -157l-68 -73z" />
    <glyph glyph-name="Idieresis" unicode="&#xcf;" horiz-adv-x="288" 
d="M214 0h-140v700h140v-700zM-14.5 751q-22.5 22 -22.5 56q0 33 22.5 55.5t55.5 22.5t55.5 -22.5t22.5 -55.5q0 -34 -22.5 -56t-55.5 -22t-55.5 22zM191.5 751q-22.5 22 -22.5 56q0 33 22.5 55.5t55.5 22.5t55.5 -22.5t22.5 -55.5q0 -34 -22.5 -56t-55.5 -22t-55.5 22z" />
    <glyph glyph-name="Idotaccent" unicode="&#x130;" horiz-adv-x="288" 
d="M214 0h-140v700h140v-700zM84 746q-24 24 -24 60t24 60t60 24t60.5 -24t24.5 -60t-24.5 -60t-60.5 -24t-60 24z" />
    <glyph glyph-name="Igrave" unicode="&#xcc;" horiz-adv-x="288" 
d="M214 0h-140v700h140v-700zM274 803l-59 -93l-225 137l59 92z" />
    <glyph glyph-name="IJ" unicode="&#x132;" horiz-adv-x="812" 
d="M214 0h-140v700h140v-700zM402.5 30q-50.5 30 -76.5 79.5t-26 107.5l127 57q0 -64 24 -99t73 -35q42 0 63.5 26t21.5 76v458h140v-459q0 -78 -29.5 -132.5t-80.5 -81.5t-116 -27q-70 0 -120.5 30z" />
    <glyph glyph-name="Imacron" unicode="&#x12a;" horiz-adv-x="288" 
d="M214 0h-140v700h140v-700zM294 755h-300v99h300v-99z" />
    <glyph glyph-name="Iogonek" unicode="&#x12e;" horiz-adv-x="288" 
d="M218 -78v-96q-41 -11 -73 -11q-53 0 -83 25t-30 69t47 91h-5v700h140v-700h-37q-19 -16 -29.5 -32.5t-10.5 -28.5q0 -25 28 -25q11 0 53 8z" />
    <glyph glyph-name="Itilde" unicode="&#x128;" horiz-adv-x="288" 
d="M214 0h-140v700h140v-700zM173.5 737.5q-16.5 6.5 -43.5 19.5q-13 7 -26.5 12.5t-23.5 5.5q-15 0 -29.5 -10.5t-36.5 -31.5l-65 67q69 79 129 79q20 0 37 -6.5t42 -19.5q4 -2 20.5 -10t29.5 -8q15 0 30.5 11t35.5 31l65 -68q-31 -36 -64 -57t-64 -21q-20 0 -36.5 6.5z
" />
    <glyph glyph-name="Jcircumflex" unicode="&#x134;" horiz-adv-x="525" 
d="M114.5 30q-50.5 30 -76.5 79.5t-26 107.5l127 57q0 -64 24 -99t73 -35q42 0 63.5 26t21.5 76v458h140v-459q0 -78 -29.5 -132.5t-80.5 -81.5t-116 -27q-70 0 -120.5 30zM390 813l-116 -100l-68 73l184 157l185 -157l-68 -73z" />
    <glyph glyph-name="uni0136" unicode="&#x136;" horiz-adv-x="705" 
d="M214 0h-140v700h140v-295l294 295h197l-304 -306l305 -394h-178l-226 294l-88 -88v-206zM341 -227l-53 34l34 46q-16 8 -26 24t-10 35q0 28 19.5 47t47.5 19t47.5 -19t19.5 -47q0 -18 -15 -43z" />
    <glyph glyph-name="Lacute" unicode="&#x139;" horiz-adv-x="541" 
d="M532 0h-458v700h140v-560h318v-140zM307 846l-225 -136l-59 92l225 136z" />
    <glyph glyph-name="Lcaron" unicode="&#x13d;" horiz-adv-x="541" 
d="M320 552l57 198l96 -21l-57 -199zM532 0h-458v700h140v-560h318v-140z" />
    <glyph glyph-name="uni013B" unicode="&#x13b;" horiz-adv-x="541" 
d="M532 0h-458v700h140v-560h318v-140zM291 -227l-53 34l34 46q-16 8 -26 24t-10 35q0 28 19.5 47t47.5 19t47.5 -19t19.5 -47q0 -18 -15 -43z" />
    <glyph glyph-name="Ldot" unicode="&#x13f;" horiz-adv-x="541" 
d="M532 0h-458v700h140v-560h318v-140zM348 349q-26 26 -26 65t26 65t65 26t65 -26t26 -65t-26 -65t-65 -26t-65 26z" />
    <glyph glyph-name="Lslash" unicode="&#x141;" horiz-adv-x="541" 
d="M214 335v-195h318v-140h-458v275l-74 -32l-40 82l114 49v326h140v-265l128 55l40 -83z" />
    <glyph glyph-name="Nacute" unicode="&#x143;" horiz-adv-x="788" 
d="M214 0h-140v700h122l378 -460v460h140v-700h-122l-378 460v-460zM557 846l-225 -136l-59 92l225 136z" />
    <glyph glyph-name="Ncaron" unicode="&#x147;" horiz-adv-x="788" 
d="M214 0h-140v700h122l378 -460v460h140v-700h-122l-378 460v-460zM579 882l-185 -157l-185 157l69 73l116 -100l117 100z" />
    <glyph glyph-name="uni0145" unicode="&#x145;" horiz-adv-x="788" 
d="M214 0h-140v700h122l378 -460v460h140v-700h-122l-378 460v-460zM382 -227l-53 34l34 46q-16 8 -26 24t-10 35q0 28 19.5 47t47.5 19t47.5 -19t19.5 -47q0 -18 -15 -43z" />
    <glyph glyph-name="Ntilde" unicode="&#xd1;" horiz-adv-x="788" 
d="M214 0h-140v700h122l378 -460v460h140v-700h-122l-378 460v-460zM423.5 737.5q-16.5 6.5 -43.5 19.5q-13 7 -26.5 12.5t-23.5 5.5q-15 0 -29.5 -10.5t-36.5 -31.5l-65 67q69 79 129 79q20 0 37 -6.5t42 -19.5q4 -2 20.5 -10t29.5 -8q15 0 30.5 11t35.5 31l65 -68
q-31 -36 -64 -57t-64 -21q-20 0 -36.5 6.5z" />
    <glyph glyph-name="Eng" unicode="&#x14a;" horiz-adv-x="788" 
d="M574 700h140v-717q0 -99 -42 -145t-123 -46q-43 0 -80 8v123q28 -5 48 -5q30 0 44 17t14 58v28l-361 439v-460h-140v700h122l378 -460v460z" />
    <glyph glyph-name="Oacute" unicode="&#xd3;" horiz-adv-x="768" 
d="M205 45.5q-80 45.5 -125.5 125.5t-45.5 179t45.5 179t125.5 125.5t179 45.5t179 -45.5t125.5 -125.5t45.5 -179t-45.5 -179t-125.5 -125.5t-179 -45.5t-179 45.5zM492 167q48 27 75 75t27 108q0 61 -27 108.5t-75 74.5t-108 27q-61 0 -108.5 -27t-74.5 -74.5t-27 -108.5
q0 -60 27 -108t74.5 -75t108.5 -27q60 0 108 27zM547 846l-225 -136l-59 92l225 136z" />
    <glyph glyph-name="Obreve" unicode="&#x14e;" horiz-adv-x="768" 
d="M205 45.5q-80 45.5 -125.5 125.5t-45.5 179t45.5 179t125.5 125.5t179 45.5t179 -45.5t125.5 -125.5t45.5 -179t-45.5 -179t-125.5 -125.5t-179 -45.5t-179 45.5zM492 167q48 27 75 75t27 108q0 61 -27 108.5t-75 74.5t-108 27q-61 0 -108.5 -27t-74.5 -74.5t-27 -108.5
q0 -60 27 -108t74.5 -75t108.5 -27q60 0 108 27zM269 777q-42 45 -42 117h102q0 -28 14 -44.5t40 -16.5q27 0 41 16.5t14 44.5h102q0 -72 -42.5 -117t-114.5 -45t-114 45z" />
    <glyph glyph-name="Ocircumflex" unicode="&#xd4;" horiz-adv-x="768" 
d="M205 45.5q-80 45.5 -125.5 125.5t-45.5 179t45.5 179t125.5 125.5t179 45.5t179 -45.5t125.5 -125.5t45.5 -179t-45.5 -179t-125.5 -125.5t-179 -45.5t-179 45.5zM492 167q48 27 75 75t27 108q0 61 -27 108.5t-75 74.5t-108 27q-61 0 -108.5 -27t-74.5 -74.5t-27 -108.5
q0 -60 27 -108t74.5 -75t108.5 -27q60 0 108 27zM383 813l-116 -100l-68 73l184 157l185 -157l-68 -73z" />
    <glyph glyph-name="Odieresis" unicode="&#xd6;" horiz-adv-x="768" 
d="M205 45.5q-80 45.5 -125.5 125.5t-45.5 179t45.5 179t125.5 125.5t179 45.5t179 -45.5t125.5 -125.5t45.5 -179t-45.5 -179t-125.5 -125.5t-179 -45.5t-179 45.5zM492 167q48 27 75 75t27 108q0 61 -27 108.5t-75 74.5t-108 27q-61 0 -108.5 -27t-74.5 -74.5t-27 -108.5
q0 -60 27 -108t74.5 -75t108.5 -27q60 0 108 27zM225.5 751q-22.5 22 -22.5 56q0 33 22.5 55.5t55.5 22.5t55.5 -22.5t22.5 -55.5q0 -34 -22.5 -56t-55.5 -22t-55.5 22zM431.5 751q-22.5 22 -22.5 56q0 33 22.5 55.5t55.5 22.5t55.5 -22.5t22.5 -55.5q0 -34 -22.5 -56
t-55.5 -22t-55.5 22z" />
    <glyph glyph-name="OE" unicode="&#x152;" horiz-adv-x="891" 
d="M836 560h-312v-140h312v-140h-312v-140h312v-140h-452q-99 0 -179 45.5t-125.5 125.5t-45.5 179t45.5 179t125.5 125.5t179 45.5h452v-140zM384 560q-61 0 -108.5 -27t-74.5 -74.5t-27 -108.5q0 -60 27 -108t74.5 -75t108.5 -27v420z" />
    <glyph glyph-name="Ograve" unicode="&#xd2;" horiz-adv-x="768" 
d="M205 45.5q-80 45.5 -125.5 125.5t-45.5 179t45.5 179t125.5 125.5t179 45.5t179 -45.5t125.5 -125.5t45.5 -179t-45.5 -179t-125.5 -125.5t-179 -45.5t-179 45.5zM492 167q48 27 75 75t27 108q0 61 -27 108.5t-75 74.5t-108 27q-61 0 -108.5 -27t-74.5 -74.5t-27 -108.5
q0 -60 27 -108t74.5 -75t108.5 -27q60 0 108 27zM514 803l-59 -93l-225 137l59 92z" />
    <glyph glyph-name="Ohungarumlaut" unicode="&#x150;" horiz-adv-x="768" 
d="M205 45.5q-80 45.5 -125.5 125.5t-45.5 179t45.5 179t125.5 125.5t179 45.5t179 -45.5t125.5 -125.5t45.5 -179t-45.5 -179t-125.5 -125.5t-179 -45.5t-179 45.5zM492 167q48 27 75 75t27 108q0 61 -27 108.5t-75 74.5t-108 27q-61 0 -108.5 -27t-74.5 -74.5t-27 -108.5
q0 -60 27 -108t74.5 -75t108.5 -27q60 0 108 27zM430 857l-125 -132l-84 58l121 138zM609 841l-124 -132l-85 58l121 137z" />
    <glyph glyph-name="Omacron" unicode="&#x14c;" horiz-adv-x="768" 
d="M205 45.5q-80 45.5 -125.5 125.5t-45.5 179t45.5 179t125.5 125.5t179 45.5t179 -45.5t125.5 -125.5t45.5 -179t-45.5 -179t-125.5 -125.5t-179 -45.5t-179 45.5zM492 167q48 27 75 75t27 108q0 61 -27 108.5t-75 74.5t-108 27q-61 0 -108.5 -27t-74.5 -74.5t-27 -108.5
q0 -60 27 -108t74.5 -75t108.5 -27q60 0 108 27zM534 755h-300v99h300v-99z" />
    <glyph glyph-name="Oslash" unicode="&#xd8;" horiz-adv-x="768" 
d="M639 595q45 -47 70 -110t25 -135q0 -99 -45.5 -179t-125.5 -125.5t-179 -45.5q-110 0 -196 56l-52 -62l-54 45l51 62q-47 47 -73 111t-26 138q0 99 45.5 179t125.5 125.5t179 45.5q113 0 201 -60l55 66l53 -46zM224 209l270 323q-48 28 -110 28q-61 0 -108.5 -27
t-74.5 -74.5t-27 -108.5q0 -85 50 -141zM492 167q48 27 75 75t27 108q0 80 -46 137l-269 -322q47 -25 105 -25q60 0 108 27z" />
    <glyph glyph-name="Oslashacute" unicode="&#x1fe;" horiz-adv-x="768" 
d="M639 595q45 -47 70 -110t25 -135q0 -99 -45.5 -179t-125.5 -125.5t-179 -45.5q-110 0 -196 56l-52 -62l-54 45l51 62q-47 47 -73 111t-26 138q0 99 45.5 179t125.5 125.5t179 45.5q113 0 201 -60l55 66l53 -46zM224 209l270 323q-48 28 -110 28q-61 0 -108.5 -27
t-74.5 -74.5t-27 -108.5q0 -85 50 -141zM492 167q48 27 75 75t27 108q0 80 -46 137l-269 -322q47 -25 105 -25q60 0 108 27zM551 846l-225 -136l-59 92l225 136z" />
    <glyph glyph-name="Otilde" unicode="&#xd5;" horiz-adv-x="768" 
d="M205 45.5q-80 45.5 -125.5 125.5t-45.5 179t45.5 179t125.5 125.5t179 45.5t179 -45.5t125.5 -125.5t45.5 -179t-45.5 -179t-125.5 -125.5t-179 -45.5t-179 45.5zM492 167q48 27 75 75t27 108q0 61 -27 108.5t-75 74.5t-108 27q-61 0 -108.5 -27t-74.5 -74.5t-27 -108.5
q0 -60 27 -108t74.5 -75t108.5 -27q60 0 108 27zM413.5 737.5q-16.5 6.5 -43.5 19.5q-13 7 -26.5 12.5t-23.5 5.5q-15 0 -29.5 -10.5t-36.5 -31.5l-65 67q69 79 129 79q20 0 37 -6.5t42 -19.5q4 -2 20.5 -10t29.5 -8q15 0 30.5 11t35.5 31l65 -68q-31 -36 -64 -57t-64 -21
q-20 0 -36.5 6.5z" />
    <glyph glyph-name="Racute" unicode="&#x154;" horiz-adv-x="642" 
d="M622 0h-171l-150 234h-87v-234h-140v700h298q65 0 118.5 -30.5t84 -84t30.5 -118.5q0 -76 -41 -135t-109 -83zM214 560v-186h158q41 0 67 26.5t26 66.5q0 41 -26 67t-67 26h-158zM457 846l-225 -136l-59 92l225 136z" />
    <glyph glyph-name="Rcaron" unicode="&#x158;" horiz-adv-x="642" 
d="M622 0h-171l-150 234h-87v-234h-140v700h298q65 0 118.5 -30.5t84 -84t30.5 -118.5q0 -76 -41 -135t-109 -83zM214 560v-186h158q41 0 67 26.5t26 66.5q0 41 -26 67t-67 26h-158zM479 882l-185 -157l-185 157l69 73l116 -100l117 100z" />
    <glyph glyph-name="uni0156" unicode="&#x156;" horiz-adv-x="642" 
d="M622 0h-171l-150 234h-87v-234h-140v700h298q65 0 118.5 -30.5t84 -84t30.5 -118.5q0 -76 -41 -135t-109 -83zM214 560v-186h158q41 0 67 26.5t26 66.5q0 41 -26 67t-67 26h-158zM311 -227l-53 34l34 46q-16 8 -26 24t-10 35q0 28 19.5 47t47.5 19t47.5 -19t19.5 -47
q0 -18 -15 -43z" />
    <glyph glyph-name="Sacute" unicode="&#x15a;" horiz-adv-x="551" 
d="M110.5 48.5q-67.5 48.5 -86.5 134.5l127 52q11 -46 46 -70.5t86 -24.5q47 0 72.5 17.5t25.5 49.5q0 27 -17.5 44t-57.5 27l-73 19q-86 23 -131.5 74t-45.5 126q0 93 62 148t167 55q91 0 154 -42.5t82 -119.5l-126 -52q-23 74 -113 74q-41 0 -63.5 -16.5t-22.5 -45.5
q0 -22 16 -38.5t57 -28.5l91 -25q80 -23 120.5 -70t40.5 -127q0 -99 -64.5 -154t-178.5 -55q-100 0 -167.5 48.5zM439 846l-225 -136l-59 92l225 136z" />
    <glyph glyph-name="Scaron" unicode="&#x160;" horiz-adv-x="551" 
d="M110.5 48.5q-67.5 48.5 -86.5 134.5l127 52q11 -46 46 -70.5t86 -24.5q47 0 72.5 17.5t25.5 49.5q0 27 -17.5 44t-57.5 27l-73 19q-86 23 -131.5 74t-45.5 126q0 93 62 148t167 55q91 0 154 -42.5t82 -119.5l-126 -52q-23 74 -113 74q-41 0 -63.5 -16.5t-22.5 -45.5
q0 -22 16 -38.5t57 -28.5l91 -25q80 -23 120.5 -70t40.5 -127q0 -99 -64.5 -154t-178.5 -55q-100 0 -167.5 48.5zM461 882l-185 -157l-185 157l69 73l116 -100l117 100z" />
    <glyph glyph-name="Scedilla" unicode="&#x15e;" horiz-adv-x="551" 
d="M360 406q80 -23 120.5 -70t40.5 -127q0 -83 -46.5 -136t-130.5 -67q46 -46 46 -96q0 -48 -31.5 -77t-84.5 -29q-36 0 -83 18v103q21 -6 38 -10.5t28 -4.5q23 0 23 22q0 30 -37 70q-86 8 -143.5 55.5t-75.5 125.5l127 52q11 -46 46 -70.5t86 -24.5q47 0 72.5 17.5
t25.5 49.5q0 27 -17.5 44t-57.5 27l-73 19q-86 23 -131.5 74t-45.5 126q0 93 62 148t167 55q91 0 154 -42.5t82 -119.5l-126 -52q-23 74 -113 74q-41 0 -63.5 -16.5t-22.5 -45.5q0 -22 16 -38.5t57 -28.5z" />
    <glyph glyph-name="Scircumflex" unicode="&#x15c;" horiz-adv-x="551" 
d="M110.5 48.5q-67.5 48.5 -86.5 134.5l127 52q11 -46 46 -70.5t86 -24.5q47 0 72.5 17.5t25.5 49.5q0 27 -17.5 44t-57.5 27l-73 19q-86 23 -131.5 74t-45.5 126q0 93 62 148t167 55q91 0 154 -42.5t82 -119.5l-126 -52q-23 74 -113 74q-41 0 -63.5 -16.5t-22.5 -45.5
q0 -22 16 -38.5t57 -28.5l91 -25q80 -23 120.5 -70t40.5 -127q0 -99 -64.5 -154t-178.5 -55q-100 0 -167.5 48.5zM275 813l-116 -100l-68 73l184 157l185 -157l-68 -73z" />
    <glyph glyph-name="uni0218" unicode="&#x218;" horiz-adv-x="551" 
d="M110.5 48.5q-67.5 48.5 -86.5 134.5l127 52q11 -46 46 -70.5t86 -24.5q47 0 72.5 17.5t25.5 49.5q0 27 -17.5 44t-57.5 27l-73 19q-86 23 -131.5 74t-45.5 126q0 93 62 148t167 55q91 0 154 -42.5t82 -119.5l-126 -52q-23 74 -113 74q-41 0 -63.5 -16.5t-22.5 -45.5
q0 -22 16 -38.5t57 -28.5l91 -25q80 -23 120.5 -70t40.5 -127q0 -99 -64.5 -154t-178.5 -55q-100 0 -167.5 48.5zM279 -227l-53 34l34 46q-16 8 -26 24t-10 35q0 28 19.5 47t47.5 19t47.5 -19t19.5 -47q0 -18 -15 -43z" />
    <glyph glyph-name="Tbar" unicode="&#x166;" horiz-adv-x="656" 
d="M651 700v-140h-253v-140h129v-140h-129v-280h-140v280h-129v140h129v140h-253v140h646z" />
    <glyph glyph-name="Tcaron" unicode="&#x164;" horiz-adv-x="656" 
d="M398 0h-140v560h-253v140h646v-140h-253v-560zM514 882l-185 -157l-185 157l69 73l116 -100l117 100z" />
    <glyph glyph-name="uni0162" unicode="&#x162;" horiz-adv-x="656" 
d="M398 560v-560h-11q40 -42 40 -90t-31.5 -77t-84.5 -29q-36 0 -83 18v103q21 -6 38 -10.5t28 -4.5q23 0 23 22q0 28 -35 68h-24v560h-253v140h646v-140h-253z" />
    <glyph glyph-name="uni021A" unicode="&#x21a;" horiz-adv-x="656" 
d="M398 0h-140v560h-253v140h646v-140h-253v-560zM316 -227l-53 34l34 46q-16 8 -26 24t-10 35q0 28 19.5 47t47.5 19t47.5 -19t19.5 -47q0 -18 -15 -43z" />
    <glyph glyph-name="Thorn" unicode="&#xde;" horiz-adv-x="623" 
d="M214 105v-105h-140v700h140v-105h113q72 0 129 -31.5t88.5 -87.5t31.5 -126t-31.5 -126t-88.5 -87.5t-129 -31.5h-113zM214 455v-210h113q48 0 78 29.5t30 75.5t-30 75.5t-78 29.5h-113z" />
    <glyph glyph-name="Uacute" unicode="&#xda;" horiz-adv-x="767" 
d="M217.5 41q-74.5 41 -117 115t-42.5 168v376h140v-376q0 -56 24 -97.5t66.5 -64t95.5 -22.5t95 22.5t66 64t24 97.5v376h140v-376q0 -94 -42 -168t-116.5 -115t-166.5 -41t-166.5 41zM547 846l-225 -136l-59 92l225 136z" />
    <glyph glyph-name="Ubreve" unicode="&#x16c;" horiz-adv-x="767" 
d="M217.5 41q-74.5 41 -117 115t-42.5 168v376h140v-376q0 -56 24 -97.5t66.5 -64t95.5 -22.5t95 22.5t66 64t24 97.5v376h140v-376q0 -94 -42 -168t-116.5 -115t-166.5 -41t-166.5 41zM269 777q-42 45 -42 117h102q0 -28 14 -44.5t40 -16.5q27 0 41 16.5t14 44.5h102
q0 -72 -42.5 -117t-114.5 -45t-114 45z" />
    <glyph glyph-name="Ucircumflex" unicode="&#xdb;" horiz-adv-x="767" 
d="M217.5 41q-74.5 41 -117 115t-42.5 168v376h140v-376q0 -56 24 -97.5t66.5 -64t95.5 -22.5t95 22.5t66 64t24 97.5v376h140v-376q0 -94 -42 -168t-116.5 -115t-166.5 -41t-166.5 41zM383 813l-116 -100l-68 73l184 157l185 -157l-68 -73z" />
    <glyph glyph-name="Udieresis" unicode="&#xdc;" horiz-adv-x="767" 
d="M217.5 41q-74.5 41 -117 115t-42.5 168v376h140v-376q0 -56 24 -97.5t66.5 -64t95.5 -22.5t95 22.5t66 64t24 97.5v376h140v-376q0 -94 -42 -168t-116.5 -115t-166.5 -41t-166.5 41zM225.5 751q-22.5 22 -22.5 56q0 33 22.5 55.5t55.5 22.5t55.5 -22.5t22.5 -55.5
q0 -34 -22.5 -56t-55.5 -22t-55.5 22zM431.5 751q-22.5 22 -22.5 56q0 33 22.5 55.5t55.5 22.5t55.5 -22.5t22.5 -55.5q0 -34 -22.5 -56t-55.5 -22t-55.5 22z" />
    <glyph glyph-name="Ugrave" unicode="&#xd9;" horiz-adv-x="767" 
d="M217.5 41q-74.5 41 -117 115t-42.5 168v376h140v-376q0 -56 24 -97.5t66.5 -64t95.5 -22.5t95 22.5t66 64t24 97.5v376h140v-376q0 -94 -42 -168t-116.5 -115t-166.5 -41t-166.5 41zM514 803l-59 -93l-225 137l59 92z" />
    <glyph glyph-name="Uhungarumlaut" unicode="&#x170;" horiz-adv-x="767" 
d="M217.5 41q-74.5 41 -117 115t-42.5 168v376h140v-376q0 -56 24 -97.5t66.5 -64t95.5 -22.5t95 22.5t66 64t24 97.5v376h140v-376q0 -94 -42 -168t-116.5 -115t-166.5 -41t-166.5 41zM430 857l-125 -132l-84 58l121 138zM609 841l-124 -132l-85 58l121 137z" />
    <glyph glyph-name="Umacron" unicode="&#x16a;" horiz-adv-x="767" 
d="M217.5 41q-74.5 41 -117 115t-42.5 168v376h140v-376q0 -56 24 -97.5t66.5 -64t95.5 -22.5t95 22.5t66 64t24 97.5v376h140v-376q0 -94 -42 -168t-116.5 -115t-166.5 -41t-166.5 41zM534 755h-300v99h300v-99z" />
    <glyph glyph-name="Uogonek" unicode="&#x172;" horiz-adv-x="767" 
d="M569 700h140v-376q0 -86 -35 -155t-98 -112.5t-143 -53.5q-21 -17 -32.5 -34t-11.5 -30q0 -25 28 -25q11 0 53 8v-96q-41 -11 -73 -11q-53 0 -83 25t-30 69q0 47 50 94q-80 11 -143 54t-98 112.5t-35 154.5v376h140v-376q0 -56 24 -97.5t66.5 -64t95.5 -22.5t95 22.5
t66 64t24 97.5v376z" />
    <glyph glyph-name="Uring" unicode="&#x16e;" horiz-adv-x="767" 
d="M217.5 41q-74.5 41 -117 115t-42.5 168v376h140v-376q0 -56 24 -97.5t66.5 -64t95.5 -22.5t95 22.5t66 64t24 97.5v376h140v-376q0 -94 -42 -168t-116.5 -115t-166.5 -41t-166.5 41zM290 656.5q-38 37.5 -38 94.5t38 95t94 38t94 -38t38 -95t-38 -94.5t-94 -37.5
t-94 37.5zM420.5 714.5q14.5 14.5 14.5 36.5t-14.5 37t-36.5 15t-36.5 -14.5t-14.5 -37.5q0 -22 14.5 -36.5t36.5 -14.5t36.5 14.5z" />
    <glyph glyph-name="Utilde" unicode="&#x168;" horiz-adv-x="767" 
d="M217.5 41q-74.5 41 -117 115t-42.5 168v376h140v-376q0 -56 24 -97.5t66.5 -64t95.5 -22.5t95 22.5t66 64t24 97.5v376h140v-376q0 -94 -42 -168t-116.5 -115t-166.5 -41t-166.5 41zM413.5 737.5q-16.5 6.5 -43.5 19.5q-13 7 -26.5 12.5t-23.5 5.5q-15 0 -29.5 -10.5
t-36.5 -31.5l-65 67q69 79 129 79q20 0 37 -6.5t42 -19.5q4 -2 20.5 -10t29.5 -8q15 0 30.5 11t35.5 31l65 -68q-31 -36 -64 -57t-64 -21q-20 0 -36.5 6.5z" />
    <glyph glyph-name="Wacute" unicode="&#x1e82;" horiz-adv-x="1240" 
d="M412 0h-131l-271 700h150l189 -488l202 488h138l202 -488l189 488h150l-271 -700h-131l-208 499zM783 846l-225 -136l-59 92l225 136z" />
    <glyph glyph-name="Wcircumflex" unicode="&#x174;" horiz-adv-x="1240" 
d="M412 0h-131l-271 700h150l189 -488l202 488h138l202 -488l189 488h150l-271 -700h-131l-208 499zM620 813l-116 -100l-68 73l184 157l185 -157l-68 -73z" />
    <glyph glyph-name="Wdieresis" unicode="&#x1e84;" horiz-adv-x="1240" 
d="M412 0h-131l-271 700h150l189 -488l202 488h138l202 -488l189 488h150l-271 -700h-131l-208 499zM461.5 751q-22.5 22 -22.5 56q0 33 22.5 55.5t55.5 22.5t55.5 -22.5t22.5 -55.5q0 -34 -22.5 -56t-55.5 -22t-55.5 22zM667.5 751q-22.5 22 -22.5 56q0 33 22.5 55.5
t55.5 22.5t55.5 -22.5t22.5 -55.5q0 -34 -22.5 -56t-55.5 -22t-55.5 22z" />
    <glyph glyph-name="Wgrave" unicode="&#x1e80;" horiz-adv-x="1240" 
d="M412 0h-131l-271 700h150l189 -488l202 488h138l202 -488l189 488h150l-271 -700h-131l-208 499zM750 803l-59 -93l-225 137l59 92z" />
    <glyph glyph-name="Yacute" unicode="&#xdd;" horiz-adv-x="710" 
d="M425 0h-140v271l-286 429h169l187 -280l187 280h169l-286 -429v-271zM518 846l-225 -136l-59 92l225 136z" />
    <glyph glyph-name="Ycircumflex" unicode="&#x176;" horiz-adv-x="710" 
d="M425 0h-140v271l-286 429h169l187 -280l187 280h169l-286 -429v-271zM354 813l-116 -100l-68 73l184 157l185 -157l-68 -73z" />
    <glyph glyph-name="Ydieresis" unicode="&#x178;" horiz-adv-x="710" 
d="M425 0h-140v271l-286 429h169l187 -280l187 280h169l-286 -429v-271zM196.5 751q-22.5 22 -22.5 56q0 33 22.5 55.5t55.5 22.5t55.5 -22.5t22.5 -55.5q0 -34 -22.5 -56t-55.5 -22t-55.5 22zM402.5 751q-22.5 22 -22.5 56q0 33 22.5 55.5t55.5 22.5t55.5 -22.5t22.5 -55.5
q0 -34 -22.5 -56t-55.5 -22t-55.5 22z" />
    <glyph glyph-name="Ygrave" unicode="&#x1ef2;" horiz-adv-x="710" 
d="M425 0h-140v271l-286 429h169l187 -280l187 280h169l-286 -429v-271zM485 803l-59 -93l-225 137l59 92z" />
    <glyph glyph-name="Zacute" unicode="&#x179;" horiz-adv-x="643" 
d="M607 0h-571v101l362 459h-362v140h571v-101l-362 -459h362v-140zM485 846l-225 -136l-59 92l225 136z" />
    <glyph glyph-name="Zcaron" unicode="&#x17d;" horiz-adv-x="643" 
d="M607 0h-571v101l362 459h-362v140h571v-101l-362 -459h362v-140zM507 882l-185 -157l-185 157l69 73l116 -100l117 100z" />
    <glyph glyph-name="Zdotaccent" unicode="&#x17b;" horiz-adv-x="643" 
d="M607 0h-571v101l362 459h-362v140h571v-101l-362 -459h362v-140zM261 746q-24 24 -24 60t24 60t60 24t60.5 -24t24.5 -60t-24.5 -60t-60.5 -24t-60 24z" />
    <glyph glyph-name="a" unicode="a" horiz-adv-x="538" 
d="M426 465.5q58 -46.5 58 -139.5v-327h-132v68q-25 -38 -63.5 -58.5t-89.5 -20.5q-49 0 -88 19.5t-60.5 54.5t-21.5 79q0 64 44.5 104t123.5 49l94 10q34 4 47.5 14t13.5 29q0 21 -21.5 33.5t-60.5 12.5q-51 0 -84.5 -17t-45.5 -48l-98 70q23 55 81 84.5t145 29.5
q100 0 158 -46.5zM320 124q32 32 32 82v26q-23 -14 -57 -19l-63 -8q-32 -4 -49 -18.5t-17 -37.5q0 -26 19 -41.5t53 -15.5q50 0 82 32z" />
    <glyph glyph-name="b" unicode="b" horiz-adv-x="611" 
d="M190 428q29 41 72.5 62.5t95.5 21.5q66 0 117.5 -33t80 -92.5t28.5 -136.5t-29 -136.5t-80.5 -92.5t-118.5 -33q-52 0 -95 21t-71 61v-70h-132v700h132v-272zM411.5 346q-36.5 37 -94.5 37t-94.5 -36.5t-36.5 -96.5t36.5 -96.5t94.5 -36.5t94.5 37t36.5 96t-36.5 96z" />
    <glyph glyph-name="c" unicode="c" horiz-adv-x="502" 
d="M61 386.5q34 59.5 94.5 92.5t138.5 33q57 0 105.5 -18.5t84.5 -54.5l-75 -106q-50 50 -115 50q-58 0 -94.5 -37t-36.5 -96q0 -58 36.5 -95.5t94.5 -37.5q65 0 118 51l73 -106q-36 -36 -85.5 -55t-107.5 -19q-78 0 -138 33t-93.5 92.5t-33.5 136.5t34 136.5z" />
    <glyph glyph-name="d" unicode="d" horiz-adv-x="611" 
d="M553 700v-700h-132v70q-29 -40 -71.5 -61t-95.5 -21q-66 0 -118 33t-80.5 92.5t-28.5 136.5t28.5 136.5t79.5 92.5t117 33q52 0 96 -21.5t73 -62.5v272h132zM199.5 346q-36.5 -37 -36.5 -96t36.5 -96t94.5 -37t94 36.5t36 96.5t-36 96.5t-94 36.5t-94.5 -37z" />
    <glyph glyph-name="e" unicode="e" horiz-adv-x="557" 
d="M58.5 383.5q31.5 59.5 89.5 94t135 34.5q76 0 131.5 -33t85.5 -93t30 -140v-36h-368l1 -2q11 -47 49 -71.5t85 -24.5q83 0 142 51l55 -109q-80 -66 -199 -66q-82 0 -143 34t-93 93.5t-32 134.5q0 74 31.5 133.5zM386 306q-5 42 -32.5 68t-74.5 26t-77.5 -24t-40.5 -70
h225z" />
    <glyph glyph-name="f" unicode="f" horiz-adv-x="418" 
d="M256 389v-389h-133v389h-108v111h108v25q0 93 50 140t131 47q40 0 99 -9v-122q-51 8 -76 8q-39 0 -55 -19t-16 -59v-11h141v-111h-141z" />
    <glyph glyph-name="g" unicode="g" horiz-adv-x="614" 
d="M56.5 387q29.5 59 82 92t119.5 33q52 0 95.5 -22t67.5 -60v70h132v-467q0 -120 -69.5 -183t-202.5 -63q-70 0 -124 19t-97 59l65 109q65 -63 152 -63q146 0 146 129v32q-26 -37 -67.5 -57t-93.5 -20q-70 0 -123.5 32t-82.5 90t-29 135q0 76 29.5 135zM388.5 347
q-35.5 37 -93.5 37t-95 -37.5t-37 -96.5t37 -96.5t95 -37.5t93.5 37t35.5 97t-35.5 97z" />
    <glyph glyph-name="h" unicode="h" horiz-adv-x="585" 
d="M190 425q55 87 158 87q85 0 131 -52t46 -150v-310h-135v277q0 53 -23.5 80.5t-67.5 27.5q-54 0 -81.5 -37t-27.5 -109v-239h-132v700h132v-275z" />
    <glyph glyph-name="i" unicode="i" horiz-adv-x="264" 
d="M66 500h132v-500h-132v500zM71 583q-24 24 -24 60q0 37 24 61t60 24q37 0 61 -24t24 -61q0 -36 -24 -60t-61 -24q-36 0 -60 24z" />
    <glyph glyph-name="j" unicode="j" horiz-adv-x="278" 
d="M210 -15q0 -98 -53 -144t-156 -46q-23 0 -37 1v122h14q58 0 79 18.5t21 60.5v503h132v-515zM84 583q-24 24 -24 60q0 37 24 61t60 24q37 0 61 -24t24 -61q0 -36 -24 -60t-61 -24q-36 0 -60 24z" />
    <glyph glyph-name="k" unicode="k" horiz-adv-x="553" 
d="M376 0l-134 196l-52 -51v-145h-132v700h132v-393l181 193h175l-216 -215l216 -285h-170z" />
    <glyph glyph-name="l" unicode="l" horiz-adv-x="248" 
d="M58 700h133v-700h-133v700z" />
    <glyph glyph-name="m" unicode="m" horiz-adv-x="914" 
d="M565 487.5q43 24.5 100 24.5q87 0 138 -54.5t51 -153.5v-304h-133v277q0 108 -90 108q-55 0 -82.5 -37.5t-27.5 -108.5v-239h-132v277q0 54 -23 81t-68 27q-108 0 -108 -146v-239h-132v500h128v-77q50 89 156 89q54 0 94 -23.5t61 -69.5q25 44 68 68.5z" />
    <glyph glyph-name="n" unicode="n" horiz-adv-x="585" 
d="M58 0v500h128v-76q28 43 70 65.5t93 22.5q84 0 130 -52t46 -147v-313h-135v277q0 53 -23.5 80.5t-69.5 27.5q-52 0 -79.5 -37.5t-27.5 -108.5v-239h-132z" />
    <glyph glyph-name="o" unicode="o" horiz-adv-x="592" 
d="M62 386.5q35 59.5 96.5 92.5t137.5 33t137.5 -33t96.5 -92.5t35 -136.5t-35 -136.5t-96.5 -92.5t-137.5 -33t-137.5 33t-96.5 92.5t-35 136.5t35 136.5zM391 346q-38 37 -95 37t-95 -37t-38 -96t38 -96t95 -37t95 37t38 96t-38 96z" />
    <glyph glyph-name="p" unicode="p" horiz-adv-x="611" 
d="M58 -200v700h132v-69q28 40 71 60.5t95 20.5q67 0 118.5 -33t80.5 -92.5t29 -136.5t-28.5 -136.5t-80 -92.5t-117.5 -33q-52 0 -95.5 22t-72.5 62v-272h-132zM411.5 154q36.5 37 36.5 96t-36.5 96t-94.5 37t-94.5 -36.5t-36.5 -96.5t36.5 -96.5t94.5 -36.5t94.5 37z" />
    <glyph glyph-name="q" unicode="q" horiz-adv-x="614" 
d="M421 72q-29 -41 -73 -62.5t-96 -21.5q-66 0 -117 33t-79.5 92.5t-28.5 136.5t28.5 136.5t80.5 92.5t118 33q53 0 95.5 -20.5t71.5 -60.5v69h132v-700h-132v272zM199.5 154q36.5 -37 94.5 -37t94 36.5t36 96.5t-36 96.5t-94 36.5t-94.5 -37t-36.5 -96t36.5 -96z" />
    <glyph glyph-name="r" unicode="r" horiz-adv-x="386" 
d="M185 418q44 94 142 94q21 0 49 -7v-142q-24 8 -60 8q-65 0 -95.5 -36t-30.5 -109v-226h-132v500h127v-82z" />
    <glyph glyph-name="s" unicode="s" horiz-adv-x="478" 
d="M102 470.5q56 41.5 155 41.5q128 0 199 -74l-74 -96q-22 24 -59 37.5t-77 13.5q-30 0 -46.5 -9t-16.5 -26q0 -12 9.5 -19t30.5 -12.5t76 -18.5q79 -18 119.5 -52.5t40.5 -104.5q0 -81 -55.5 -122t-160.5 -41q-75 0 -132.5 21.5t-89.5 61.5l77 100q26 -30 66 -47.5
t93 -17.5q30 0 48 9t18 29q0 13 -9.5 20.5t-30.5 13.5t-71 17q-74 16 -120 51t-46 107q0 76 56 117.5z" />
    <glyph glyph-name="t" unicode="t" horiz-adv-x="394" 
d="M358 10q-62 -15 -108 -15q-72 0 -109.5 37.5t-37.5 120.5v236h-91v111h91v134h132v-134h127v-111h-127v-217q0 -24 12 -34.5t38 -10.5q25 0 73 8v-125z" />
    <glyph glyph-name="u" unicode="u" horiz-adv-x="578" 
d="M518 500v-500h-128v76q-59 -88 -159 -88q-85 0 -129 53.5t-44 147.5v311h135v-278q0 -54 20.5 -80.5t63.5 -26.5q54 0 81 39.5t27 106.5v239h133z" />
    <glyph glyph-name="v" unicode="v" horiz-adv-x="544" 
d="M322 0h-100l-225 500h148l127 -310l128 310h147z" />
    <glyph glyph-name="w" unicode="w" horiz-adv-x="851" 
d="M300 0h-100l-203 500h144l112 -298l119 298h107l120 -298l111 298h144l-203 -500h-100l-125 297z" />
    <glyph glyph-name="x" unicode="x" horiz-adv-x="563" 
d="M397 0l-116 151l-115 -151h-159l195 256l-187 244h159l107 -140l107 140h160l-187 -244l195 -256h-159z" />
    <glyph glyph-name="y" unicode="y" horiz-adv-x="538" 
d="M227 -200h-140l122 272l-212 428h154l127 -274l124 274h140z" />
    <glyph glyph-name="z" unicode="z" horiz-adv-x="485" 
d="M38 500h415v-103l-253 -275h261v-122h-440v103l251 275h-234v122z" />
    <glyph glyph-name="aacute" unicode="&#xe1;" horiz-adv-x="538" 
d="M426 465.5q58 -46.5 58 -139.5v-327h-132v68q-25 -38 -63.5 -58.5t-89.5 -20.5q-49 0 -88 19.5t-60.5 54.5t-21.5 79q0 64 44.5 104t123.5 49l94 10q34 4 47.5 14t13.5 29q0 21 -21.5 33.5t-60.5 12.5q-51 0 -84.5 -17t-45.5 -48l-98 70q23 55 81 84.5t145 29.5
q100 0 158 -46.5zM320 124q32 32 32 82v26q-23 -14 -57 -19l-63 -8q-32 -4 -49 -18.5t-17 -37.5q0 -26 19 -41.5t53 -15.5q50 0 82 32zM125 631l225 136l58 -92l-225 -136z" />
    <glyph glyph-name="abreve" unicode="&#x103;" horiz-adv-x="538" 
d="M426 465.5q58 -46.5 58 -139.5v-327h-132v68q-25 -38 -63.5 -58.5t-89.5 -20.5q-49 0 -88 19.5t-60.5 54.5t-21.5 79q0 64 44.5 104t123.5 49l94 10q34 4 47.5 14t13.5 29q0 21 -21.5 33.5t-60.5 12.5q-51 0 -84.5 -17t-45.5 -48l-98 70q23 55 81 84.5t145 29.5
q100 0 158 -46.5zM320 124q32 32 32 82v26q-23 -14 -57 -19l-63 -8q-32 -4 -49 -18.5t-17 -37.5q0 -26 19 -41.5t53 -15.5q50 0 82 32zM426 719q0 -72 -42.5 -117t-114.5 -45t-114 45t-42 117h102q0 -28 14 -44.5t40 -16.5q27 0 41 16.5t14 44.5h102z" />
    <glyph glyph-name="acircumflex" unicode="&#xe2;" horiz-adv-x="538" 
d="M426 465.5q58 -46.5 58 -139.5v-327h-132v68q-25 -38 -63.5 -58.5t-89.5 -20.5q-49 0 -88 19.5t-60.5 54.5t-21.5 79q0 64 44.5 104t123.5 49l94 10q34 4 47.5 14t13.5 29q0 21 -21.5 33.5t-60.5 12.5q-51 0 -84.5 -17t-45.5 -48l-98 70q23 55 81 84.5t145 29.5
q100 0 158 -46.5zM320 124q32 32 32 82v26q-23 -14 -57 -19l-63 -8q-32 -4 -49 -18.5t-17 -37.5q0 -26 19 -41.5t53 -15.5q50 0 82 32zM85 611l185 157l185 -157l-69 -73l-116 100l-117 -100z" />
    <glyph glyph-name="adieresis" unicode="&#xe4;" horiz-adv-x="538" 
d="M426 465.5q58 -46.5 58 -139.5v-327h-132v68q-25 -38 -63.5 -58.5t-89.5 -20.5q-49 0 -88 19.5t-60.5 54.5t-21.5 79q0 64 44.5 104t123.5 49l94 10q34 4 47.5 14t13.5 29q0 21 -21.5 33.5t-60.5 12.5q-51 0 -84.5 -17t-45.5 -48l-98 70q23 55 81 84.5t145 29.5
q100 0 158 -46.5zM320 124q32 32 32 82v26q-23 -14 -57 -19l-63 -8q-32 -4 -49 -18.5t-17 -37.5q0 -26 19 -41.5t53 -15.5q50 0 82 32zM110.5 699.5q22.5 22.5 55.5 22.5t55.5 -22.5t22.5 -55.5t-22.5 -55.5t-55.5 -22.5t-55.5 22.5t-22.5 55.5t22.5 55.5zM316.5 699.5
q22.5 22.5 55.5 22.5t55.5 -22.5t22.5 -55.5t-22.5 -55.5t-55.5 -22.5t-55.5 22.5t-22.5 55.5t22.5 55.5z" />
    <glyph glyph-name="ae" unicode="&#xe6;" horiz-adv-x="879" 
d="M500.5 13.5q-52.5 25.5 -84.5 72.5q-36 -45 -89.5 -71t-115.5 -26q-81 0 -131.5 43.5t-50.5 113.5q0 66 44.5 107.5t115.5 48.5l137 12q14 1 20 6t6 14v8q0 23 -22 36.5t-65 13.5q-44 0 -78 -15t-47 -49l-98 70q22 54 80.5 83.5t134.5 29.5q119 0 173 -76q31 37 77 57
t103 20q73 0 127.5 -33t84.5 -93t30 -140v-36h-368v-2q12 -48 50 -72t87 -24q39 0 75 14t64 37l56 -109q-35 -29 -84.5 -47.5t-108.5 -18.5q-70 0 -122.5 25.5zM708 306q-5 42 -33 68t-76 26q-46 0 -76 -24t-40 -70h225zM319.5 129.5q32.5 30.5 32.5 72.5v20l-124 -15
q-30 -4 -46 -19t-16 -36q0 -24 18.5 -38.5t52.5 -14.5q50 0 82.5 30.5z" />
    <glyph glyph-name="aeacute" unicode="&#x1fd;" horiz-adv-x="879" 
d="M500.5 13.5q-52.5 25.5 -84.5 72.5q-36 -45 -89.5 -71t-115.5 -26q-81 0 -131.5 43.5t-50.5 113.5q0 66 44.5 107.5t115.5 48.5l137 12q14 1 20 6t6 14v8q0 23 -22 36.5t-65 13.5q-44 0 -78 -15t-47 -49l-98 70q22 54 80.5 83.5t134.5 29.5q119 0 173 -76q31 37 77 57
t103 20q73 0 127.5 -33t84.5 -93t30 -140v-36h-368v-2q12 -48 50 -72t87 -24q39 0 75 14t64 37l56 -109q-35 -29 -84.5 -47.5t-108.5 -18.5q-70 0 -122.5 25.5zM708 306q-5 42 -33 68t-76 26q-46 0 -76 -24t-40 -70h225zM319.5 129.5q32.5 30.5 32.5 72.5v20l-124 -15
q-30 -4 -46 -19t-16 -36q0 -24 18.5 -38.5t52.5 -14.5q50 0 82.5 30.5zM294 631l225 136l58 -92l-225 -136z" />
    <glyph glyph-name="agrave" unicode="&#xe0;" horiz-adv-x="538" 
d="M426 465.5q58 -46.5 58 -139.5v-327h-132v68q-25 -38 -63.5 -58.5t-89.5 -20.5q-49 0 -88 19.5t-60.5 54.5t-21.5 79q0 64 44.5 104t123.5 49l94 10q34 4 47.5 14t13.5 29q0 21 -21.5 33.5t-60.5 12.5q-51 0 -84.5 -17t-45.5 -48l-98 70q23 55 81 84.5t145 29.5
q100 0 158 -46.5zM320 124q32 32 32 82v26q-23 -14 -57 -19l-63 -8q-32 -4 -49 -18.5t-17 -37.5q0 -26 19 -41.5t53 -15.5q50 0 82 32zM128 675l59 93l224 -136l-58 -93z" />
    <glyph glyph-name="amacron" unicode="&#x101;" horiz-adv-x="538" 
d="M426 465.5q58 -46.5 58 -139.5v-327h-132v68q-25 -38 -63.5 -58.5t-89.5 -20.5q-49 0 -88 19.5t-60.5 54.5t-21.5 79q0 64 44.5 104t123.5 49l94 10q34 4 47.5 14t13.5 29q0 21 -21.5 33.5t-60.5 12.5q-51 0 -84.5 -17t-45.5 -48l-98 70q23 55 81 84.5t145 29.5
q100 0 158 -46.5zM320 124q32 32 32 82v26q-23 -14 -57 -19l-63 -8q-32 -4 -49 -18.5t-17 -37.5q0 -26 19 -41.5t53 -15.5q50 0 82 32zM119 695h300v-99h-300v99z" />
    <glyph glyph-name="aogonek" unicode="&#x105;" horiz-adv-x="538" 
d="M423 -1q-19 -16 -29 -32t-10 -28q0 -25 28 -25q11 0 53 8v-96q-41 -11 -73 -11q-53 0 -83 25t-30 69q0 55 73 115v43q-25 -38 -63.5 -58.5t-89.5 -20.5q-49 0 -88 19.5t-60.5 54.5t-21.5 79q0 64 44.5 104t123.5 49l94 10q34 4 47.5 14t13.5 29q0 21 -21.5 33.5
t-60.5 12.5q-51 0 -84.5 -17t-45.5 -48l-98 70q23 55 81 84.5t145 29.5q100 0 158 -46.5t58 -139.5v-327h-61zM320 124q32 32 32 82v26q-23 -14 -57 -19l-63 -8q-32 -4 -49 -18.5t-17 -37.5q0 -26 19 -41.5t53 -15.5q50 0 82 32z" />
    <glyph glyph-name="aring" unicode="&#xe5;" horiz-adv-x="538" 
d="M426 465.5q58 -46.5 58 -139.5v-327h-132v68q-25 -38 -63.5 -58.5t-89.5 -20.5q-49 0 -88 19.5t-60.5 54.5t-21.5 79q0 64 44.5 104t123.5 49l94 10q34 4 47.5 14t13.5 29q0 21 -21.5 33.5t-60.5 12.5q-51 0 -84.5 -17t-45.5 -48l-98 70q23 55 81 84.5t145 29.5
q100 0 158 -46.5zM320 124q32 32 32 82v26q-23 -14 -57 -19l-63 -8q-32 -4 -49 -18.5t-17 -37.5q0 -26 19 -41.5t53 -15.5q50 0 82 32zM175 777.5q38 37.5 94 37.5t94 -37.5t38 -94.5t-38 -94.5t-94 -37.5t-94 37.5t-38 94.5t38 94.5zM305.5 719.5q-14.5 14.5 -36.5 14.5
q-23 0 -37 -14t-14 -37q0 -22 14.5 -36.5t36.5 -14.5t36.5 14.5t14.5 36.5t-14.5 36.5z" />
    <glyph glyph-name="atilde" unicode="&#xe3;" horiz-adv-x="538" 
d="M426 465.5q58 -46.5 58 -139.5v-327h-132v68q-25 -38 -63.5 -58.5t-89.5 -20.5q-49 0 -88 19.5t-60.5 54.5t-21.5 79q0 64 44.5 104t123.5 49l94 10q34 4 47.5 14t13.5 29q0 21 -21.5 33.5t-60.5 12.5q-51 0 -84.5 -17t-45.5 -48l-98 70q23 55 81 84.5t145 29.5
q100 0 158 -46.5zM320 124q32 32 32 82v26q-23 -14 -57 -19l-63 -8q-32 -4 -49 -18.5t-17 -37.5q0 -26 19 -41.5t53 -15.5q50 0 82 32zM298.5 558.5q-16.5 6.5 -43.5 19.5q-13 7 -26.5 12.5t-23.5 5.5q-15 0 -29.5 -10.5t-36.5 -31.5l-65 68q30 34 61.5 56t67.5 22
q19 0 35.5 -6.5t43.5 -19.5q13 -7 26.5 -12.5t23.5 -5.5q15 0 29.5 10.5t36.5 31.5l65 -68q-30 -34 -61.5 -56t-67.5 -22q-19 0 -35.5 6.5z" />
    <glyph glyph-name="cacute" unicode="&#x107;" horiz-adv-x="502" 
d="M61 386.5q34 59.5 94.5 92.5t138.5 33q57 0 105.5 -18.5t84.5 -54.5l-75 -106q-50 50 -115 50q-58 0 -94.5 -37t-36.5 -96q0 -58 36.5 -95.5t94.5 -37.5q65 0 118 51l73 -106q-36 -36 -85.5 -55t-107.5 -19q-78 0 -138 33t-93.5 92.5t-33.5 136.5t34 136.5zM148 631
l225 136l58 -92l-225 -136z" />
    <glyph glyph-name="ccaron" unicode="&#x10d;" horiz-adv-x="502" 
d="M61 386.5q34 59.5 94.5 92.5t138.5 33q57 0 105.5 -18.5t84.5 -54.5l-75 -106q-50 50 -115 50q-58 0 -94.5 -37t-36.5 -96q0 -58 36.5 -95.5t94.5 -37.5q65 0 118 51l73 -106q-36 -36 -85.5 -55t-107.5 -19q-78 0 -138 33t-93.5 92.5t-33.5 136.5t34 136.5zM292 662
l116 107l67 -71l-183 -159l-184 159l67 71z" />
    <glyph glyph-name="ccedilla" unicode="&#xe7;" horiz-adv-x="502" 
d="M485 62q-52 -52 -128 -67q35 -42 35 -85q0 -48 -31.5 -77t-84.5 -29q-36 0 -83 18v103q21 -6 38 -10.5t28 -4.5q23 0 23 22q0 25 -27 58q-68 7 -119.5 42t-80 91t-28.5 127q0 77 34 136.5t94.5 92.5t138.5 33q57 0 105.5 -18.5t84.5 -54.5l-75 -106q-50 50 -115 50
q-58 0 -94.5 -37t-36.5 -96q0 -58 36.5 -95.5t94.5 -37.5q65 0 118 51z" />
    <glyph glyph-name="ccircumflex" unicode="&#x109;" horiz-adv-x="502" 
d="M61 386.5q34 59.5 94.5 92.5t138.5 33q57 0 105.5 -18.5t84.5 -54.5l-75 -106q-50 50 -115 50q-58 0 -94.5 -37t-36.5 -96q0 -58 36.5 -95.5t94.5 -37.5q65 0 118 51l73 -106q-36 -36 -85.5 -55t-107.5 -19q-78 0 -138 33t-93.5 92.5t-33.5 136.5t34 136.5zM107 611
l185 157l185 -157l-69 -73l-116 100l-117 -100z" />
    <glyph glyph-name="cdotaccent" unicode="&#x10b;" horiz-adv-x="502" 
d="M61 386.5q34 59.5 94.5 92.5t138.5 33q57 0 105.5 -18.5t84.5 -54.5l-75 -106q-50 50 -115 50q-58 0 -94.5 -37t-36.5 -96q0 -58 36.5 -95.5t94.5 -37.5q65 0 118 51l73 -106q-36 -36 -85.5 -55t-107.5 -19q-78 0 -138 33t-93.5 92.5t-33.5 136.5t34 136.5zM232 583
q-24 24 -24 60q0 37 24 61t60 24q37 0 61 -24t24 -61q0 -36 -24 -60t-61 -24q-36 0 -60 24z" />
    <glyph glyph-name="dcaron" unicode="&#x10f;" horiz-adv-x="611" 
d="M588 552l57 198l96 -21l-57 -199zM553 700v-700h-132v70q-29 -40 -71.5 -61t-95.5 -21q-66 0 -118 33t-80.5 92.5t-28.5 136.5t28.5 136.5t79.5 92.5t117 33q52 0 96 -21.5t73 -62.5v272h132zM199.5 346q-36.5 -37 -36.5 -96t36.5 -96t94.5 -37t94 36.5t36 96.5t-36 96.5
t-94 36.5t-94.5 -37z" />
    <glyph glyph-name="dcroat" unicode="&#x111;" horiz-adv-x="614" 
d="M612 656v-97h-59v-559h-132v70q-29 -40 -71.5 -61t-95.5 -21q-66 0 -118 33t-80.5 92.5t-28.5 136.5t28.5 136.5t79.5 92.5t117 33q52 0 96 -21.5t73 -62.5v131h-99v97h99v44h132v-44h59zM388 153.5q36 36.5 36 96.5t-36 96.5t-94 36.5t-94.5 -37t-36.5 -96t36.5 -96
t94.5 -37t94 36.5z" />
    <glyph glyph-name="eacute" unicode="&#xe9;" horiz-adv-x="557" 
d="M58.5 383.5q31.5 59.5 89.5 94t135 34.5q76 0 131.5 -33t85.5 -93t30 -140v-36h-368l1 -2q11 -47 49 -71.5t85 -24.5q83 0 142 51l55 -109q-80 -66 -199 -66q-82 0 -143 34t-93 93.5t-32 134.5q0 74 31.5 133.5zM386 306q-5 42 -32.5 68t-74.5 26t-77.5 -24t-40.5 -70
h225zM140 631l225 136l58 -92l-225 -136z" />
    <glyph glyph-name="ebreve" unicode="&#x115;" horiz-adv-x="557" 
d="M58.5 383.5q31.5 59.5 89.5 94t135 34.5q76 0 131.5 -33t85.5 -93t30 -140v-36h-368l1 -2q11 -47 49 -71.5t85 -24.5q83 0 142 51l55 -109q-80 -66 -199 -66q-82 0 -143 34t-93 93.5t-32 134.5q0 74 31.5 133.5zM386 306q-5 42 -32.5 68t-74.5 26t-77.5 -24t-40.5 -70
h225zM441 719q0 -72 -42.5 -117t-114.5 -45t-114 45t-42 117h102q0 -28 14 -44.5t40 -16.5q27 0 41 16.5t14 44.5h102z" />
    <glyph glyph-name="ecaron" unicode="&#x11b;" horiz-adv-x="557" 
d="M58.5 383.5q31.5 59.5 89.5 94t135 34.5q76 0 131.5 -33t85.5 -93t30 -140v-36h-368l1 -2q11 -47 49 -71.5t85 -24.5q83 0 142 51l55 -109q-80 -66 -199 -66q-82 0 -143 34t-93 93.5t-32 134.5q0 74 31.5 133.5zM386 306q-5 42 -32.5 68t-74.5 26t-77.5 -24t-40.5 -70
h225zM284 662l116 107l67 -71l-183 -159l-184 159l67 71z" />
    <glyph glyph-name="ecircumflex" unicode="&#xea;" horiz-adv-x="557" 
d="M58.5 383.5q31.5 59.5 89.5 94t135 34.5q76 0 131.5 -33t85.5 -93t30 -140v-36h-368l1 -2q11 -47 49 -71.5t85 -24.5q83 0 142 51l55 -109q-80 -66 -199 -66q-82 0 -143 34t-93 93.5t-32 134.5q0 74 31.5 133.5zM386 306q-5 42 -32.5 68t-74.5 26t-77.5 -24t-40.5 -70
h225zM99 611l185 157l185 -157l-69 -73l-116 100l-117 -100z" />
    <glyph glyph-name="edieresis" unicode="&#xeb;" horiz-adv-x="557" 
d="M58.5 383.5q31.5 59.5 89.5 94t135 34.5q76 0 131.5 -33t85.5 -93t30 -140v-36h-368l1 -2q11 -47 49 -71.5t85 -24.5q83 0 142 51l55 -109q-80 -66 -199 -66q-82 0 -143 34t-93 93.5t-32 134.5q0 74 31.5 133.5zM386 306q-5 42 -32.5 68t-74.5 26t-77.5 -24t-40.5 -70
h225zM125.5 699.5q22.5 22.5 55.5 22.5t55.5 -22.5t22.5 -55.5t-22.5 -55.5t-55.5 -22.5t-55.5 22.5t-22.5 55.5t22.5 55.5zM331.5 699.5q22.5 22.5 55.5 22.5t55.5 -22.5t22.5 -55.5t-22.5 -55.5t-55.5 -22.5t-55.5 22.5t-22.5 55.5t22.5 55.5z" />
    <glyph glyph-name="edotaccent" unicode="&#x117;" horiz-adv-x="557" 
d="M58.5 383.5q31.5 59.5 89.5 94t135 34.5q76 0 131.5 -33t85.5 -93t30 -140v-36h-368l1 -2q11 -47 49 -71.5t85 -24.5q83 0 142 51l55 -109q-80 -66 -199 -66q-82 0 -143 34t-93 93.5t-32 134.5q0 74 31.5 133.5zM386 306q-5 42 -32.5 68t-74.5 26t-77.5 -24t-40.5 -70
h225zM224 583q-24 24 -24 60q0 37 24 61t60 24q37 0 61 -24t24 -61q0 -36 -24 -60t-61 -24q-36 0 -60 24z" />
    <glyph glyph-name="egrave" unicode="&#xe8;" horiz-adv-x="557" 
d="M58.5 383.5q31.5 59.5 89.5 94t135 34.5q76 0 131.5 -33t85.5 -93t30 -140v-36h-368l1 -2q11 -47 49 -71.5t85 -24.5q83 0 142 51l55 -109q-80 -66 -199 -66q-82 0 -143 34t-93 93.5t-32 134.5q0 74 31.5 133.5zM386 306q-5 42 -32.5 68t-74.5 26t-77.5 -24t-40.5 -70
h225zM143 675l59 93l224 -136l-58 -93z" />
    <glyph glyph-name="emacron" unicode="&#x113;" horiz-adv-x="557" 
d="M58.5 383.5q31.5 59.5 89.5 94t135 34.5q76 0 131.5 -33t85.5 -93t30 -140v-36h-368l1 -2q11 -47 49 -71.5t85 -24.5q83 0 142 51l55 -109q-80 -66 -199 -66q-82 0 -143 34t-93 93.5t-32 134.5q0 74 31.5 133.5zM386 306q-5 42 -32.5 68t-74.5 26t-77.5 -24t-40.5 -70
h225zM134 695h300v-99h-300v99z" />
    <glyph glyph-name="eogonek" unicode="&#x119;" horiz-adv-x="557" 
d="M530 210h-368l1 -2q11 -47 49 -71.5t85 -24.5q83 0 142 51l55 -109q-43 -36 -95 -51q-27 -19 -41.5 -39t-14.5 -35q0 -25 28 -25q11 0 53 8v-96q-41 -11 -73 -11q-53 0 -83 25t-30 69t45 89q-79 3 -137 37.5t-88.5 93t-30.5 131.5q0 74 31.5 133.5t89.5 94t135 34.5
q76 0 131.5 -33t85.5 -93t30 -140v-36zM386 306q-5 42 -32.5 68t-74.5 26t-77.5 -24t-40.5 -70h225z" />
    <glyph glyph-name="gbreve" unicode="&#x11f;" horiz-adv-x="614" 
d="M56.5 387q29.5 59 82 92t119.5 33q52 0 95.5 -22t67.5 -60v70h132v-467q0 -120 -69.5 -183t-202.5 -63q-70 0 -124 19t-97 59l65 109q65 -63 152 -63q146 0 146 129v32q-26 -37 -67.5 -57t-93.5 -20q-70 0 -123.5 32t-82.5 90t-29 135q0 76 29.5 135zM388.5 347
q-35.5 37 -93.5 37t-95 -37.5t-37 -96.5t37 -96.5t95 -37.5t93.5 37t35.5 97t-35.5 97zM462 719q0 -72 -42.5 -117t-114.5 -45t-114 45t-42 117h102q0 -28 14 -44.5t40 -16.5q27 0 41 16.5t14 44.5h102z" />
    <glyph glyph-name="gcircumflex" unicode="&#x11d;" horiz-adv-x="614" 
d="M56.5 387q29.5 59 82 92t119.5 33q52 0 95.5 -22t67.5 -60v70h132v-467q0 -120 -69.5 -183t-202.5 -63q-70 0 -124 19t-97 59l65 109q65 -63 152 -63q146 0 146 129v32q-26 -37 -67.5 -57t-93.5 -20q-70 0 -123.5 32t-82.5 90t-29 135q0 76 29.5 135zM388.5 347
q-35.5 37 -93.5 37t-95 -37.5t-37 -96.5t37 -96.5t95 -37.5t93.5 37t35.5 97t-35.5 97zM120 611l185 157l185 -157l-69 -73l-116 100l-117 -100z" />
    <glyph glyph-name="uni0123" unicode="&#x123;" horiz-adv-x="614" 
d="M56.5 387q29.5 59 82 92t119.5 33q52 0 95.5 -22t67.5 -60v70h132v-467q0 -120 -69.5 -183t-202.5 -63q-70 0 -124 19t-97 59l65 109q65 -63 152 -63q146 0 146 129v32q-26 -37 -67.5 -57t-93.5 -20q-70 0 -123.5 32t-82.5 90t-29 135q0 76 29.5 135zM388.5 347
q-35.5 37 -93.5 37t-95 -37.5t-37 -96.5t37 -96.5t95 -37.5t93.5 37t35.5 97t-35.5 97zM242.5 566q-23.5 23 -23.5 56q0 25 15 45l90 143l67 -43l-52 -78q18 -10 28.5 -28t10.5 -39q0 -33 -23 -56t-56 -23t-56.5 23z" />
    <glyph glyph-name="gdotaccent" unicode="&#x121;" horiz-adv-x="614" 
d="M56.5 387q29.5 59 82 92t119.5 33q52 0 95.5 -22t67.5 -60v70h132v-467q0 -120 -69.5 -183t-202.5 -63q-70 0 -124 19t-97 59l65 109q65 -63 152 -63q146 0 146 129v32q-26 -37 -67.5 -57t-93.5 -20q-70 0 -123.5 32t-82.5 90t-29 135q0 76 29.5 135zM388.5 347
q-35.5 37 -93.5 37t-95 -37.5t-37 -96.5t37 -96.5t95 -37.5t93.5 37t35.5 97t-35.5 97zM245 583q-24 24 -24 60q0 37 24 61t60 24q37 0 61 -24t24 -61q0 -36 -24 -60t-61 -24q-36 0 -60 24z" />
    <glyph glyph-name="hbar" unicode="&#x127;" horiz-adv-x="585" 
d="M479 460q46 -52 46 -150v-310h-135v277q0 53 -23.5 80.5t-67.5 27.5q-54 0 -81.5 -37t-27.5 -109v-239h-132v559h-57v97h57v44h132v-44h93v-97h-93v-134q55 87 158 87q85 0 131 -52z" />
    <glyph glyph-name="hcircumflex" unicode="&#x125;" horiz-adv-x="585" 
d="M190 425q55 87 158 87q85 0 131 -52t46 -150v-310h-135v277q0 53 -23.5 80.5t-67.5 27.5q-54 0 -81.5 -37t-27.5 -109v-239h-132v700h132v-275zM123 813l-116 -100l-68 73l184 157l185 -157l-68 -73z" />
    <glyph glyph-name="iacute" unicode="&#xed;" horiz-adv-x="264" 
d="M66 500h132v-500h-132v500zM-12 631l225 136l58 -92l-225 -136z" />
    <glyph glyph-name="ibreve" unicode="&#x12d;" horiz-adv-x="264" 
d="M66 500h132v-500h-132v500zM288 719q0 -72 -42.5 -117t-114.5 -45t-114 45t-42 117h102q0 -28 14 -44.5t40 -16.5q27 0 41 16.5t14 44.5h102z" />
    <glyph glyph-name="icircumflex" unicode="&#xee;" horiz-adv-x="264" 
d="M66 500h132v-500h-132v500zM-53 611l185 157l185 -157l-69 -73l-116 100l-117 -100z" />
    <glyph glyph-name="idieresis" unicode="&#xef;" horiz-adv-x="264" 
d="M66 500h132v-500h-132v500zM-26.5 699.5q22.5 22.5 55.5 22.5t55.5 -22.5t22.5 -55.5t-22.5 -55.5t-55.5 -22.5t-55.5 22.5t-22.5 55.5t22.5 55.5zM179.5 699.5q22.5 22.5 55.5 22.5t55.5 -22.5t22.5 -55.5t-22.5 -55.5t-55.5 -22.5t-55.5 22.5t-22.5 55.5t22.5 55.5z
" />
    <glyph glyph-name="i.loclTRK" horiz-adv-x="264" 
d="M66 500h132v-500h-132v500zM71 583q-24 24 -24 60q0 37 24 61t60 24q37 0 61 -24t24 -61q0 -36 -24 -60t-61 -24q-36 0 -60 24z" />
    <glyph glyph-name="dotlessi" unicode="&#x131;" horiz-adv-x="264" 
d="M66 500h132v-500h-132v500z" />
    <glyph glyph-name="igrave" unicode="&#xec;" horiz-adv-x="264" 
d="M66 500h132v-500h-132v500zM-10 675l59 93l224 -136l-58 -93z" />
    <glyph glyph-name="ij" unicode="&#x133;" horiz-adv-x="542" 
d="M66 500h132v-500h-132v500zM71 583q-24 24 -24 60q0 37 24 61t60 24q37 0 61 -24t24 -61q0 -36 -24 -60t-61 -24q-36 0 -60 24zM474 -15q0 -98 -53 -144t-156 -46q-23 0 -37 1v122h14q58 0 79 18.5t21 60.5v503h132v-515zM348 583q-24 24 -24 60q0 37 24 61t60 24
q37 0 61 -24t24 -61q0 -36 -24 -60t-61 -24q-36 0 -60 24z" />
    <glyph glyph-name="imacron" unicode="&#x12b;" horiz-adv-x="264" 
d="M66 500h132v-500h-132v500zM-18 695h300v-99h-300v99z" />
    <glyph glyph-name="iogonek" unicode="&#x12f;" horiz-adv-x="264" 
d="M71 583q-24 24 -24 60q0 37 24 61t60 24q37 0 61 -24t24 -61q0 -36 -24 -60t-61 -24q-36 0 -60 24zM66 500h132v-500h-55q-19 -16 -29.5 -32.5t-10.5 -28.5q0 -25 28 -25q11 0 53 8v-96q-41 -11 -73 -11q-53 0 -83 25t-30 69q0 53 68 111v480z" />
    <glyph glyph-name="itilde" unicode="&#x129;" horiz-adv-x="264" 
d="M66 500h132v-500h-132v500zM161.5 558.5q-16.5 6.5 -43.5 19.5q-13 7 -26.5 12.5t-23.5 5.5q-15 0 -29.5 -10.5t-36.5 -31.5l-65 68q30 34 61.5 56t67.5 22q19 0 35.5 -6.5t43.5 -19.5q13 -7 26.5 -12.5t23.5 -5.5q15 0 29.5 10.5t36.5 31.5l65 -68q-30 -34 -61.5 -56
t-67.5 -22q-19 0 -35.5 6.5z" />
    <glyph glyph-name="jcircumflex" unicode="&#x135;" horiz-adv-x="278" 
d="M210 -15q0 -98 -53 -144t-156 -46q-23 0 -37 1v122h14q58 0 79 18.5t21 60.5v503h132v-515zM-41 611l185 157l185 -157l-69 -73l-116 100l-117 -100z" />
    <glyph glyph-name="uni0237" unicode="&#x237;" horiz-adv-x="278" 
d="M210 -15q0 -98 -53 -144t-156 -46q-23 0 -37 1v122h14q58 0 79 18.5t21 60.5v503h132v-515z" />
    <glyph glyph-name="uni0137" unicode="&#x137;" horiz-adv-x="553" 
d="M376 0l-134 196l-52 -51v-145h-132v700h132v-393l181 193h175l-216 -215l216 -285h-170zM265 -227l-53 34l34 46q-16 8 -26 24t-10 35q0 28 19.5 47t47.5 19t47.5 -19t19.5 -47q0 -18 -15 -43z" />
    <glyph glyph-name="kgreenlandic" unicode="&#x138;" horiz-adv-x="553" 
d="M376 0l-134 196l-52 -51v-145h-132v500h132v-193l181 193h175l-216 -215l216 -285h-170z" />
    <glyph glyph-name="lacute" unicode="&#x13a;" horiz-adv-x="248" 
d="M58 700h133v-700h-133v700zM287 846l-225 -136l-59 92l225 136z" />
    <glyph glyph-name="lcaron" unicode="&#x13e;" horiz-adv-x="248" 
d="M230 552l57 198l96 -21l-57 -199zM58 700h133v-700h-133v700z" />
    <glyph glyph-name="uni013C" unicode="&#x13c;" horiz-adv-x="248" 
d="M58 700h133v-700h-133v700zM112 -227l-53 34l34 46q-16 8 -26 24t-10 35q0 28 19.5 47t47.5 19t47.5 -19t19.5 -47q0 -18 -15 -43z" />
    <glyph glyph-name="ldot" unicode="&#x140;" horiz-adv-x="480" 
d="M58 700h133v-700h-133v700zM259 310q-26 26 -26 65t26 65t65 26t65 -26t26 -65t-26 -65t-65 -26t-65 26z" />
    <glyph glyph-name="lslash" unicode="&#x142;" horiz-adv-x="398" 
d="M370 521l40 -83l-144 -62v-376h-133v319l-105 -45l-40 82l145 63v281h133v-224z" />
    <glyph glyph-name="nacute" unicode="&#x144;" horiz-adv-x="585" 
d="M58 0v500h128v-76q28 43 70 65.5t93 22.5q84 0 130 -52t46 -147v-313h-135v277q0 53 -23.5 80.5t-69.5 27.5q-52 0 -79.5 -37.5t-27.5 -108.5v-239h-132zM149 631l225 136l58 -92l-225 -136z" />
    <glyph glyph-name="napostrophe" unicode="&#x149;" horiz-adv-x="585" 
d="M-34 552l57 198l96 -21l-57 -199zM58 0v500h128v-76q28 43 70 65.5t93 22.5q84 0 130 -52t46 -147v-313h-135v277q0 53 -23.5 80.5t-69.5 27.5q-52 0 -79.5 -37.5t-27.5 -108.5v-239h-132z" />
    <glyph glyph-name="ncaron" unicode="&#x148;" horiz-adv-x="585" 
d="M58 0v500h128v-76q28 43 70 65.5t93 22.5q84 0 130 -52t46 -147v-313h-135v277q0 53 -23.5 80.5t-69.5 27.5q-52 0 -79.5 -37.5t-27.5 -108.5v-239h-132zM293 662l116 107l67 -71l-183 -159l-184 159l67 71z" />
    <glyph glyph-name="uni0146" unicode="&#x146;" horiz-adv-x="585" 
d="M58 0v500h128v-76q28 43 70 65.5t93 22.5q84 0 130 -52t46 -147v-313h-135v277q0 53 -23.5 80.5t-69.5 27.5q-52 0 -79.5 -37.5t-27.5 -108.5v-239h-132zM281 -227l-53 34l34 46q-16 8 -26 24t-10 35q0 28 19.5 47t47.5 19t47.5 -19t19.5 -47q0 -18 -15 -43z" />
    <glyph glyph-name="ntilde" unicode="&#xf1;" horiz-adv-x="585" 
d="M58 0v500h128v-76q28 43 70 65.5t93 22.5q84 0 130 -52t46 -147v-313h-135v277q0 53 -23.5 80.5t-69.5 27.5q-52 0 -79.5 -37.5t-27.5 -108.5v-239h-132zM322.5 558.5q-16.5 6.5 -43.5 19.5q-13 7 -26.5 12.5t-23.5 5.5q-15 0 -29.5 -10.5t-36.5 -31.5l-65 68
q30 34 61.5 56t67.5 22q19 0 35.5 -6.5t43.5 -19.5q13 -7 26.5 -12.5t23.5 -5.5q15 0 29.5 10.5t36.5 31.5l65 -68q-30 -34 -61.5 -56t-67.5 -22q-19 0 -35.5 6.5z" />
    <glyph glyph-name="eng" unicode="&#x14b;" horiz-adv-x="585" 
d="M282 -197v122q38 -5 59 -5q26 0 37.5 14t11.5 51v292q0 55 -24 81.5t-67 26.5q-56 0 -82.5 -38.5t-26.5 -107.5v-239h-132v500h128v-72q28 39 69 61.5t93 22.5q87 0 132 -53t45 -149v-325q0 -188 -165 -188q-30 0 -78 6z" />
    <glyph glyph-name="oacute" unicode="&#xf3;" horiz-adv-x="592" 
d="M62 386.5q35 59.5 96.5 92.5t137.5 33t137.5 -33t96.5 -92.5t35 -136.5t-35 -136.5t-96.5 -92.5t-137.5 -33t-137.5 33t-96.5 92.5t-35 136.5t35 136.5zM391 346q-38 37 -95 37t-95 -37t-38 -96t38 -96t95 -37t95 37t38 96t-38 96zM152 631l225 136l58 -92l-225 -136z
" />
    <glyph glyph-name="obreve" unicode="&#x14f;" horiz-adv-x="592" 
d="M62 386.5q35 59.5 96.5 92.5t137.5 33t137.5 -33t96.5 -92.5t35 -136.5t-35 -136.5t-96.5 -92.5t-137.5 -33t-137.5 33t-96.5 92.5t-35 136.5t35 136.5zM391 346q-38 37 -95 37t-95 -37t-38 -96t38 -96t95 -37t95 37t38 96t-38 96zM452 719q0 -72 -42.5 -117t-114.5 -45
t-114 45t-42 117h102q0 -28 14 -44.5t40 -16.5q27 0 41 16.5t14 44.5h102z" />
    <glyph glyph-name="ocircumflex" unicode="&#xf4;" horiz-adv-x="592" 
d="M62 386.5q35 59.5 96.5 92.5t137.5 33t137.5 -33t96.5 -92.5t35 -136.5t-35 -136.5t-96.5 -92.5t-137.5 -33t-137.5 33t-96.5 92.5t-35 136.5t35 136.5zM391 346q-38 37 -95 37t-95 -37t-38 -96t38 -96t95 -37t95 37t38 96t-38 96zM111 611l185 157l185 -157l-69 -73
l-116 100l-117 -100z" />
    <glyph glyph-name="odieresis" unicode="&#xf6;" horiz-adv-x="592" 
d="M62 386.5q35 59.5 96.5 92.5t137.5 33t137.5 -33t96.5 -92.5t35 -136.5t-35 -136.5t-96.5 -92.5t-137.5 -33t-137.5 33t-96.5 92.5t-35 136.5t35 136.5zM391 346q-38 37 -95 37t-95 -37t-38 -96t38 -96t95 -37t95 37t38 96t-38 96zM137.5 699.5q22.5 22.5 55.5 22.5
t55.5 -22.5t22.5 -55.5t-22.5 -55.5t-55.5 -22.5t-55.5 22.5t-22.5 55.5t22.5 55.5zM343.5 699.5q22.5 22.5 55.5 22.5t55.5 -22.5t22.5 -55.5t-22.5 -55.5t-55.5 -22.5t-55.5 22.5t-22.5 55.5t22.5 55.5z" />
    <glyph glyph-name="oe" unicode="&#x153;" horiz-adv-x="955" 
d="M578 11.5q-50 23.5 -82 66.5q-34 -43 -85.5 -66.5t-114.5 -23.5q-76 0 -137.5 33t-96.5 92.5t-35 136.5t35 136.5t96.5 92.5t137.5 33q62 0 113.5 -23.5t85.5 -66.5q31 43 78 66.5t108 23.5q76 0 131.5 -33t85.5 -93t30 -140v-36h-368l1 -2q11 -47 49 -71.5t85 -24.5
q83 0 142 51l56 -109q-82 -66 -200 -66q-65 0 -115 23.5zM784 306q-5 42 -32.5 68t-74.5 26t-77.5 -24t-40.5 -70h225zM391 346q-38 37 -95 37t-95 -37t-38 -96t38 -96t95 -37t95 37t38 96t-38 96z" />
    <glyph glyph-name="ograve" unicode="&#xf2;" horiz-adv-x="592" 
d="M62 386.5q35 59.5 96.5 92.5t137.5 33t137.5 -33t96.5 -92.5t35 -136.5t-35 -136.5t-96.5 -92.5t-137.5 -33t-137.5 33t-96.5 92.5t-35 136.5t35 136.5zM391 346q-38 37 -95 37t-95 -37t-38 -96t38 -96t95 -37t95 37t38 96t-38 96zM154 675l59 93l224 -136l-58 -93z" />
    <glyph glyph-name="ohungarumlaut" unicode="&#x151;" horiz-adv-x="592" 
d="M62 386.5q35 59.5 96.5 92.5t137.5 33t137.5 -33t96.5 -92.5t35 -136.5t-35 -136.5t-96.5 -92.5t-137.5 -33t-137.5 33t-96.5 92.5t-35 136.5t35 136.5zM391 346q-38 37 -95 37t-95 -37t-38 -96t38 -96t95 -37t95 37t38 96t-38 96zM140 614l127 181l88 -64l-131 -175z
M318 598l128 181l88 -63l-130 -176z" />
    <glyph glyph-name="omacron" unicode="&#x14d;" horiz-adv-x="592" 
d="M62 386.5q35 59.5 96.5 92.5t137.5 33t137.5 -33t96.5 -92.5t35 -136.5t-35 -136.5t-96.5 -92.5t-137.5 -33t-137.5 33t-96.5 92.5t-35 136.5t35 136.5zM391 346q-38 37 -95 37t-95 -37t-38 -96t38 -96t95 -37t95 37t38 96t-38 96zM146 695h300v-99h-300v99z" />
    <glyph glyph-name="ordfeminine" unicode="&#xaa;" horiz-adv-x="458" 
d="M86.5 356q-36.5 34 -36.5 90q0 57 37.5 86.5t95.5 35.5l121 13q0 54 -74 54q-35 0 -62.5 -12.5t-39.5 -35.5l-73 68q54 74 176 74q177 0 177 -160v-239h-104v55q-43 -63 -121 -63q-60 0 -96.5 34zM278 439q26 22 26 54v8l-99 -13q-39 -6 -39 -35q0 -16 12.5 -26t36.5 -10
q37 0 63 22z" />
    <glyph glyph-name="ordmasculine" unicode="&#xba;" horiz-adv-x="518" 
d="M77 630.5q27 46.5 74.5 72.5t107.5 26t107.5 -26t74.5 -72.5t27 -105.5t-27 -105.5t-74.5 -72.5t-107.5 -26t-107.5 26t-74.5 72.5t-27 105.5t27 105.5zM330 596.5q-28 28.5 -71 28.5t-71 -28.5t-28 -71.5t28 -71.5t71 -28.5t71 28.5t28 71.5t-28 71.5z" />
    <glyph glyph-name="oslash" unicode="&#xf8;" horiz-adv-x="592" 
d="M496 432q33 -35 51 -81.5t18 -100.5q0 -77 -35 -136.5t-96.5 -92.5t-137.5 -33q-81 0 -146 37l-33 -39l-52 44l32 37q-34 35 -52 81.5t-18 101.5q0 77 35 136.5t96.5 92.5t137.5 33q80 0 147 -38l34 40l51 -45zM186 172l169 199q-27 12 -59 12q-57 0 -95 -37t-38 -96
q0 -46 23 -78zM391 154q38 37 38 96q0 44 -22 77l-169 -198q27 -12 58 -12q57 0 95 37z" />
    <glyph glyph-name="oslashacute" unicode="&#x1ff;" horiz-adv-x="592" 
d="M496 432q33 -35 51 -81.5t18 -100.5q0 -77 -35 -136.5t-96.5 -92.5t-137.5 -33q-81 0 -146 37l-33 -39l-52 44l32 37q-34 35 -52 81.5t-18 101.5q0 77 35 136.5t96.5 92.5t137.5 33q80 0 147 -38l34 40l51 -45zM186 172l169 199q-27 12 -59 12q-57 0 -95 -37t-38 -96
q0 -46 23 -78zM391 154q38 37 38 96q0 44 -22 77l-169 -198q27 -12 58 -12q57 0 95 37zM152 631l225 136l58 -92l-225 -136z" />
    <glyph glyph-name="otilde" unicode="&#xf5;" horiz-adv-x="592" 
d="M62 386.5q35 59.5 96.5 92.5t137.5 33t137.5 -33t96.5 -92.5t35 -136.5t-35 -136.5t-96.5 -92.5t-137.5 -33t-137.5 33t-96.5 92.5t-35 136.5t35 136.5zM391 346q-38 37 -95 37t-95 -37t-38 -96t38 -96t95 -37t95 37t38 96t-38 96zM325.5 558.5q-16.5 6.5 -43.5 19.5
q-13 7 -26.5 12.5t-23.5 5.5q-15 0 -29.5 -10.5t-36.5 -31.5l-65 68q30 34 61.5 56t67.5 22q19 0 35.5 -6.5t43.5 -19.5q13 -7 26.5 -12.5t23.5 -5.5q15 0 29.5 10.5t36.5 31.5l65 -68q-30 -34 -61.5 -56t-67.5 -22q-19 0 -35.5 6.5z" />
    <glyph glyph-name="racute" unicode="&#x155;" horiz-adv-x="386" 
d="M185 418q44 94 142 94q21 0 49 -7v-142q-24 8 -60 8q-65 0 -95.5 -36t-30.5 -109v-226h-132v500h127v-82zM64 631l225 136l58 -92l-225 -136z" />
    <glyph glyph-name="rcaron" unicode="&#x159;" horiz-adv-x="386" 
d="M185 418q44 94 142 94q21 0 49 -7v-142q-24 8 -60 8q-65 0 -95.5 -36t-30.5 -109v-226h-132v500h127v-82zM208 662l116 107l67 -71l-183 -159l-184 159l67 71z" />
    <glyph glyph-name="uni0157" unicode="&#x157;" horiz-adv-x="386" 
d="M185 418q44 94 142 94q21 0 49 -7v-142q-24 8 -60 8q-65 0 -95.5 -36t-30.5 -109v-226h-132v500h127v-82zM111 -227l-53 34l34 46q-16 8 -26 24t-10 35q0 28 19.5 47t47.5 19t47.5 -19t19.5 -47q0 -18 -15 -43z" />
    <glyph glyph-name="sacute" unicode="&#x15b;" horiz-adv-x="478" 
d="M102 470.5q56 41.5 155 41.5q128 0 199 -74l-74 -96q-22 24 -59 37.5t-77 13.5q-30 0 -46.5 -9t-16.5 -26q0 -12 9.5 -19t30.5 -12.5t76 -18.5q79 -18 119.5 -52.5t40.5 -104.5q0 -81 -55.5 -122t-160.5 -41q-75 0 -132.5 21.5t-89.5 61.5l77 100q26 -30 66 -47.5
t93 -17.5q30 0 48 9t18 29q0 13 -9.5 20.5t-30.5 13.5t-71 17q-74 16 -120 51t-46 107q0 76 56 117.5zM112 631l225 136l58 -92l-225 -136z" />
    <glyph glyph-name="scaron" unicode="&#x161;" horiz-adv-x="478" 
d="M102 470.5q56 41.5 155 41.5q128 0 199 -74l-74 -96q-22 24 -59 37.5t-77 13.5q-30 0 -46.5 -9t-16.5 -26q0 -12 9.5 -19t30.5 -12.5t76 -18.5q79 -18 119.5 -52.5t40.5 -104.5q0 -81 -55.5 -122t-160.5 -41q-75 0 -132.5 21.5t-89.5 61.5l77 100q26 -30 66 -47.5
t93 -17.5q30 0 48 9t18 29q0 13 -9.5 20.5t-30.5 13.5t-71 17q-74 16 -120 51t-46 107q0 76 56 117.5zM256 662l116 107l67 -71l-183 -159l-184 159l67 71z" />
    <glyph glyph-name="scedilla" unicode="&#x15f;" horiz-adv-x="478" 
d="M423.5 47q-35.5 -39 -103.5 -52q35 -40 35 -85q0 -48 -31.5 -77t-84.5 -29q-36 0 -83 18v103q21 -6 38 -10.5t28 -4.5q23 0 23 22q0 24 -25 57q-67 3 -118 24t-81 58l77 100q26 -30 66 -47.5t93 -17.5q30 0 48 9t18 29q0 13 -9.5 20.5t-30.5 13.5t-71 17q-74 16 -120 51
t-46 107q0 76 56 117.5t155 41.5q128 0 199 -74l-74 -96q-22 24 -59 37.5t-77 13.5q-30 0 -46.5 -9t-16.5 -26q0 -12 9.5 -19t30.5 -12.5t76 -18.5q79 -18 119.5 -52.5t40.5 -104.5q0 -65 -35.5 -104z" />
    <glyph glyph-name="scircumflex" unicode="&#x15d;" horiz-adv-x="478" 
d="M102 470.5q56 41.5 155 41.5q128 0 199 -74l-74 -96q-22 24 -59 37.5t-77 13.5q-30 0 -46.5 -9t-16.5 -26q0 -12 9.5 -19t30.5 -12.5t76 -18.5q79 -18 119.5 -52.5t40.5 -104.5q0 -81 -55.5 -122t-160.5 -41q-75 0 -132.5 21.5t-89.5 61.5l77 100q26 -30 66 -47.5
t93 -17.5q30 0 48 9t18 29q0 13 -9.5 20.5t-30.5 13.5t-71 17q-74 16 -120 51t-46 107q0 76 56 117.5zM71 611l185 157l185 -157l-69 -73l-116 100l-117 -100z" />
    <glyph glyph-name="uni0219" unicode="&#x219;" horiz-adv-x="478" 
d="M102 470.5q56 41.5 155 41.5q128 0 199 -74l-74 -96q-22 24 -59 37.5t-77 13.5q-30 0 -46.5 -9t-16.5 -26q0 -12 9.5 -19t30.5 -12.5t76 -18.5q79 -18 119.5 -52.5t40.5 -104.5q0 -81 -55.5 -122t-160.5 -41q-75 0 -132.5 21.5t-89.5 61.5l77 100q26 -30 66 -47.5
t93 -17.5q30 0 48 9t18 29q0 13 -9.5 20.5t-30.5 13.5t-71 17q-74 16 -120 51t-46 107q0 76 56 117.5zM244 -227l-53 34l34 46q-16 8 -26 24t-10 35q0 28 19.5 47t47.5 19t47.5 -19t19.5 -47q0 -18 -15 -43z" />
    <glyph glyph-name="tbar" unicode="&#x167;" horiz-adv-x="394" 
d="M358 10q-62 -15 -108 -15q-72 0 -109.5 37.5t-37.5 120.5v75h-74v97h74v64h-91v111h91v134h132v-134h127v-111h-127v-64h103v-97h-103v-56q0 -24 12 -34.5t38 -10.5q25 0 73 8v-125z" />
    <glyph glyph-name="tcaron" unicode="&#x165;" horiz-adv-x="404" 
d="M271 552l57 198l96 -21l-57 -199zM358 10q-62 -15 -108 -15q-72 0 -109.5 37.5t-37.5 120.5v236h-91v111h91v134h132v-134h127v-111h-127v-217q0 -24 12 -34.5t38 -10.5q25 0 73 8v-125z" />
    <glyph glyph-name="uni0163" unicode="&#x163;" horiz-adv-x="394" 
d="M362 389h-127v-217q0 -24 12 -34.5t38 -10.5q25 0 73 8v-125q-33 -7 -55 -11q40 -42 40 -89q0 -48 -31.5 -77t-84.5 -29q-36 0 -83 18v103q21 -6 38 -10.5t28 -4.5q23 0 23 22q0 30 -36 69q-46 12 -70 49t-24 103v236h-91v111h91v134h132v-134h127v-111z" />
    <glyph glyph-name="uni021B" unicode="&#x21b;" horiz-adv-x="394" 
d="M358 10q-62 -15 -108 -15q-72 0 -109.5 37.5t-37.5 120.5v236h-91v111h91v134h132v-134h127v-111h-127v-217q0 -24 12 -34.5t38 -10.5q25 0 73 8v-125zM232 -227l-53 34l34 46q-16 8 -26 24t-10 35q0 28 19.5 47t47.5 19t47.5 -19t19.5 -47q0 -18 -15 -43z" />
    <glyph glyph-name="thorn" unicode="&#xfe;" horiz-adv-x="611" 
d="M58 -200v900h132v-269q28 39 70.5 60.5t95.5 21.5q63 0 115 -31t82.5 -90.5t30.5 -141.5t-30.5 -141.5t-82 -90.5t-113.5 -31q-56 0 -98.5 23t-69.5 62v-272h-132zM411 153q37 37 37 97t-37 97t-94 37t-94 -36.5t-37 -97.5q0 -60 37 -97t94 -37t94 37z" />
    <glyph glyph-name="uacute" unicode="&#xfa;" horiz-adv-x="578" 
d="M518 500v-500h-128v76q-59 -88 -159 -88q-85 0 -129 53.5t-44 147.5v311h135v-278q0 -54 20.5 -80.5t63.5 -26.5q54 0 81 39.5t27 106.5v239h133zM145 631l225 136l58 -92l-225 -136z" />
    <glyph glyph-name="ubreve" unicode="&#x16d;" horiz-adv-x="578" 
d="M518 500v-500h-128v76q-59 -88 -159 -88q-85 0 -129 53.5t-44 147.5v311h135v-278q0 -54 20.5 -80.5t63.5 -26.5q54 0 81 39.5t27 106.5v239h133zM446 719q0 -72 -42.5 -117t-114.5 -45t-114 45t-42 117h102q0 -28 14 -44.5t40 -16.5q27 0 41 16.5t14 44.5h102z" />
    <glyph glyph-name="ucircumflex" unicode="&#xfb;" horiz-adv-x="578" 
d="M518 500v-500h-128v76q-59 -88 -159 -88q-85 0 -129 53.5t-44 147.5v311h135v-278q0 -54 20.5 -80.5t63.5 -26.5q54 0 81 39.5t27 106.5v239h133zM105 611l185 157l185 -157l-69 -73l-116 100l-117 -100z" />
    <glyph glyph-name="udieresis" unicode="&#xfc;" horiz-adv-x="578" 
d="M518 500v-500h-128v76q-59 -88 -159 -88q-85 0 -129 53.5t-44 147.5v311h135v-278q0 -54 20.5 -80.5t63.5 -26.5q54 0 81 39.5t27 106.5v239h133zM131.5 699.5q22.5 22.5 55.5 22.5t55.5 -22.5t22.5 -55.5t-22.5 -55.5t-55.5 -22.5t-55.5 22.5t-22.5 55.5t22.5 55.5z
M337.5 699.5q22.5 22.5 55.5 22.5t55.5 -22.5t22.5 -55.5t-22.5 -55.5t-55.5 -22.5t-55.5 22.5t-22.5 55.5t22.5 55.5z" />
    <glyph glyph-name="ugrave" unicode="&#xf9;" horiz-adv-x="578" 
d="M518 500v-500h-128v76q-59 -88 -159 -88q-85 0 -129 53.5t-44 147.5v311h135v-278q0 -54 20.5 -80.5t63.5 -26.5q54 0 81 39.5t27 106.5v239h133zM148 675l59 93l224 -136l-58 -93z" />
    <glyph glyph-name="uhungarumlaut" unicode="&#x171;" horiz-adv-x="578" 
d="M518 500v-500h-128v76q-59 -88 -159 -88q-85 0 -129 53.5t-44 147.5v311h135v-278q0 -54 20.5 -80.5t63.5 -26.5q54 0 81 39.5t27 106.5v239h133zM133 614l127 181l88 -64l-131 -175zM311 598l128 181l88 -63l-130 -176z" />
    <glyph glyph-name="umacron" unicode="&#x16b;" horiz-adv-x="578" 
d="M518 500v-500h-128v76q-59 -88 -159 -88q-85 0 -129 53.5t-44 147.5v311h135v-278q0 -54 20.5 -80.5t63.5 -26.5q54 0 81 39.5t27 106.5v239h133zM139 695h300v-99h-300v99z" />
    <glyph glyph-name="uogonek" unicode="&#x173;" horiz-adv-x="578" 
d="M457 0q-19 -16 -29.5 -32.5t-10.5 -28.5q0 -25 28 -25q11 0 53 8v-96q-41 -11 -73 -11q-53 0 -83 25t-30 69q0 57 78 119v48q-59 -88 -159 -88q-85 0 -129 53.5t-44 147.5v311h135v-278q0 -54 20.5 -80.5t63.5 -26.5q54 0 81 39.5t27 106.5v239h133v-500h-61z" />
    <glyph glyph-name="uring" unicode="&#x16f;" horiz-adv-x="578" 
d="M518 500v-500h-128v76q-59 -88 -159 -88q-85 0 -129 53.5t-44 147.5v311h135v-278q0 -54 20.5 -80.5t63.5 -26.5q54 0 81 39.5t27 106.5v239h133zM196 777.5q38 37.5 94 37.5t94 -37.5t38 -94.5t-38 -94.5t-94 -37.5t-94 37.5t-38 94.5t38 94.5zM326.5 719.5
q-14.5 14.5 -36.5 14.5q-23 0 -37 -14t-14 -37q0 -22 14.5 -36.5t36.5 -14.5t36.5 14.5t14.5 36.5t-14.5 36.5z" />
    <glyph glyph-name="utilde" unicode="&#x169;" horiz-adv-x="578" 
d="M518 500v-500h-128v76q-59 -88 -159 -88q-85 0 -129 53.5t-44 147.5v311h135v-278q0 -54 20.5 -80.5t63.5 -26.5q54 0 81 39.5t27 106.5v239h133zM319.5 558.5q-16.5 6.5 -43.5 19.5q-13 7 -26.5 12.5t-23.5 5.5q-15 0 -29.5 -10.5t-36.5 -31.5l-65 68q30 34 61.5 56
t67.5 22q19 0 35.5 -6.5t43.5 -19.5q13 -7 26.5 -12.5t23.5 -5.5q15 0 29.5 10.5t36.5 31.5l65 -68q-30 -34 -61.5 -56t-67.5 -22q-19 0 -35.5 6.5z" />
    <glyph glyph-name="wacute" unicode="&#x1e83;" horiz-adv-x="851" 
d="M300 0h-100l-203 500h144l112 -298l119 298h107l120 -298l111 298h144l-203 -500h-100l-125 297zM281 631l225 136l58 -92l-225 -136z" />
    <glyph glyph-name="wcircumflex" unicode="&#x175;" horiz-adv-x="851" 
d="M300 0h-100l-203 500h144l112 -298l119 298h107l120 -298l111 298h144l-203 -500h-100l-125 297zM241 611l185 157l185 -157l-69 -73l-116 100l-117 -100z" />
    <glyph glyph-name="wdieresis" unicode="&#x1e85;" horiz-adv-x="851" 
d="M300 0h-100l-203 500h144l112 -298l119 298h107l120 -298l111 298h144l-203 -500h-100l-125 297zM267.5 699.5q22.5 22.5 55.5 22.5t55.5 -22.5t22.5 -55.5t-22.5 -55.5t-55.5 -22.5t-55.5 22.5t-22.5 55.5t22.5 55.5zM473.5 699.5q22.5 22.5 55.5 22.5t55.5 -22.5
t22.5 -55.5t-22.5 -55.5t-55.5 -22.5t-55.5 22.5t-22.5 55.5t22.5 55.5z" />
    <glyph glyph-name="wgrave" unicode="&#x1e81;" horiz-adv-x="851" 
d="M300 0h-100l-203 500h144l112 -298l119 298h107l120 -298l111 298h144l-203 -500h-100l-125 297zM284 675l59 93l224 -136l-58 -93z" />
    <glyph glyph-name="yacute" unicode="&#xfd;" horiz-adv-x="538" 
d="M227 -200h-140l122 272l-212 428h154l127 -274l124 274h140zM125 631l225 136l58 -92l-225 -136z" />
    <glyph glyph-name="ycircumflex" unicode="&#x177;" horiz-adv-x="538" 
d="M227 -200h-140l122 272l-212 428h154l127 -274l124 274h140zM85 611l185 157l185 -157l-69 -73l-116 100l-117 -100z" />
    <glyph glyph-name="ydieresis" unicode="&#xff;" horiz-adv-x="538" 
d="M227 -200h-140l122 272l-212 428h154l127 -274l124 274h140zM110.5 699.5q22.5 22.5 55.5 22.5t55.5 -22.5t22.5 -55.5t-22.5 -55.5t-55.5 -22.5t-55.5 22.5t-22.5 55.5t22.5 55.5zM316.5 699.5q22.5 22.5 55.5 22.5t55.5 -22.5t22.5 -55.5t-22.5 -55.5t-55.5 -22.5
t-55.5 22.5t-22.5 55.5t22.5 55.5z" />
    <glyph glyph-name="ygrave" unicode="&#x1ef3;" horiz-adv-x="538" 
d="M227 -200h-140l122 272l-212 428h154l127 -274l124 274h140zM128 675l59 93l224 -136l-58 -93z" />
    <glyph glyph-name="zacute" unicode="&#x17a;" horiz-adv-x="485" 
d="M38 500h415v-103l-253 -275h261v-122h-440v103l251 275h-234v122zM97 631l225 136l58 -92l-225 -136z" />
    <glyph glyph-name="zcaron" unicode="&#x17e;" horiz-adv-x="485" 
d="M38 500h415v-103l-253 -275h261v-122h-440v103l251 275h-234v122zM241 662l116 107l67 -71l-183 -159l-184 159l67 71z" />
    <glyph glyph-name="zdotaccent" unicode="&#x17c;" horiz-adv-x="485" 
d="M38 500h415v-103l-253 -275h261v-122h-440v103l251 275h-234v122zM181 583q-24 24 -24 60q0 37 24 61t60 24q37 0 61 -24t24 -61q0 -36 -24 -60t-61 -24q-36 0 -60 24z" />
    <glyph glyph-name="germandbls" unicode="&#xdf;" horiz-adv-x="575" 
d="M58 471q0 108 58.5 174.5t169.5 66.5q67 0 113.5 -24t70.5 -64t24 -89q0 -50 -26 -92t-68 -54q68 -10 108 -59t40 -125q0 -100 -65 -156t-173 -56q-26 0 -69 5v126q48 -3 56 -3q55 0 86.5 25.5t31.5 73.5q0 47 -32 74t-94 26h-38v112h23q43 0 66.5 22t23.5 60
q0 32 -22.5 52t-62.5 20q-43 0 -67.5 -29.5t-24.5 -85.5v-545h-129v545z" />
    <glyph glyph-name="eth" unicode="&#xf0;" horiz-adv-x="609" 
d="M154.5 21.5q-60.5 33.5 -94 93.5t-33.5 137q0 75 32.5 134t89.5 92.5t130 33.5q55 0 97.5 -22.5t69.5 -65.5q-10 113 -113 190l-70 -63l-69 59l54 47q-43 17 -100 25l30 115q85 -10 158 -44l56 53l67 -60l-43 -41q64 -47 105 -124q56 -104 56 -251q0 -178 -87 -265
q-37 -38 -87.5 -57.5t-109.5 -19.5q-78 0 -138.5 33.5zM392 346q-37 37 -96 37q-60 0 -96.5 -36t-36.5 -95t37.5 -97t95.5 -38q59 0 96 36.5t37 94.5q0 61 -37 98z" />
    <glyph glyph-name="grave" unicode="`" horiz-adv-x="383" 
d="M50 675l59 93l224 -136l-58 -93z" />
    <glyph glyph-name="acute" unicode="&#xb4;" horiz-adv-x="383" 
d="M50 631l225 136l58 -92l-225 -136z" />
    <glyph glyph-name="circumflex" unicode="&#x2c6;" horiz-adv-x="470" 
d="M50 611l185 157l185 -157l-69 -73l-116 100l-117 -100z" />
    <glyph glyph-name="tilde" unicode="&#x2dc;" horiz-adv-x="489" 
d="M274.5 558.5q-16.5 6.5 -43.5 19.5q-13 7 -26.5 12.5t-23.5 5.5q-15 0 -29.5 -10.5t-36.5 -31.5l-65 68q30 34 61.5 56t67.5 22q19 0 35.5 -6.5t43.5 -19.5q13 -7 26.5 -12.5t23.5 -5.5q15 0 29.5 10.5t36.5 31.5l65 -68q-30 -34 -61.5 -56t-67.5 -22q-19 0 -35.5 6.5z
" />
    <glyph glyph-name="caron" unicode="&#x2c7;" horiz-adv-x="470" 
d="M235 662l116 107l67 -71l-183 -159l-184 159l67 71z" />
    <glyph glyph-name="dieresis" unicode="&#xa8;" horiz-adv-x="462" 
d="M72.5 699.5q22.5 22.5 55.5 22.5t55.5 -22.5t22.5 -55.5t-22.5 -55.5t-55.5 -22.5t-55.5 22.5t-22.5 55.5t22.5 55.5zM278.5 699.5q22.5 22.5 55.5 22.5t55.5 -22.5t22.5 -55.5t-22.5 -55.5t-55.5 -22.5t-55.5 22.5t-22.5 55.5t22.5 55.5z" />
    <glyph glyph-name="macron" unicode="&#xaf;" horiz-adv-x="400" 
d="M50 695h300v-99h-300v99z" />
    <glyph glyph-name="breve" unicode="&#x2d8;" horiz-adv-x="413" 
d="M363 719q0 -72 -42.5 -117t-114.5 -45t-114 45t-42 117h102q0 -28 14 -44.5t40 -16.5q27 0 41 16.5t14 44.5h102z" />
    <glyph glyph-name="ring" unicode="&#x2da;" horiz-adv-x="364" 
d="M88 777.5q38 37.5 94 37.5t94 -37.5t38 -94.5t-38 -94.5t-94 -37.5t-94 37.5t-38 94.5t38 94.5zM218.5 719.5q-14.5 14.5 -36.5 14.5q-23 0 -37 -14t-14 -37q0 -22 14.5 -36.5t36.5 -14.5t36.5 14.5t14.5 36.5t-14.5 36.5z" />
    <glyph glyph-name="hungarumlaut" unicode="&#x2dd;" horiz-adv-x="494" 
d="M51 614l127 181l88 -64l-131 -175zM229 598l128 181l88 -63l-130 -176z" />
    <glyph glyph-name="dotaccent" unicode="&#x2d9;" horiz-adv-x="269" 
d="M74 583q-24 24 -24 60q0 37 24 61t60 24q37 0 61 -24t24 -61q0 -36 -24 -60t-61 -24q-36 0 -60 24z" />
    <glyph glyph-name="cedilla" unicode="&#xb8;" horiz-adv-x="299" 
d="M189 18q60 -50 60 -108q0 -48 -31.5 -77t-84.5 -29q-36 0 -83 18v103q21 -6 38 -10.5t28 -4.5q23 0 23 22q0 36 -53 86h103z" />
    <glyph glyph-name="ogonek" unicode="&#x2db;" horiz-adv-x="286" 
d="M213 3q-27 -19 -42.5 -39.5t-15.5 -35.5q0 -25 28 -25q11 0 53 8v-96q-41 -11 -73 -11q-53 0 -83 25t-30 69q0 62 94 131z" />
    <glyph glyph-name="comma" unicode="," horiz-adv-x="363" 
d="M6 -145l184 332l103 -57l-184 -330z" />
    <glyph glyph-name="semicolon" unicode=";" horiz-adv-x="404" 
d="M171.5 349.5q-27.5 27.5 -27.5 67.5q0 41 27.5 68t67.5 27q41 0 68 -27t27 -68q0 -40 -27 -67.5t-68 -27.5q-40 0 -67.5 27.5zM293 130l-184 -330l-103 55l184 332z" />
    <glyph glyph-name="colon" unicode=":" horiz-adv-x="325" 
d="M230.5 484.5q27.5 -27.5 27.5 -67.5t-27.5 -67.5t-68.5 -27.5q-40 0 -67 27t-27 68t27 68t67 27q41 0 68.5 -27.5zM230.5 162.5q27.5 -27.5 27.5 -67.5t-27.5 -67.5t-68.5 -27.5q-40 0 -67 27t-27 68t27 68t67 27q41 0 68.5 -27.5z" />
    <glyph glyph-name="period" unicode="." horiz-adv-x="325" 
d="M230.5 162.5q27.5 -27.5 27.5 -67.5t-27.5 -67.5t-68.5 -27.5q-40 0 -67 27t-27 68t27 68t67 27q41 0 68.5 -27.5z" />
    <glyph glyph-name="ellipsis" unicode="&#x2026;" horiz-adv-x="970" 
d="M115 27q-27 27 -27 68t27 68t67 27q41 0 68.5 -27.5t27.5 -67.5t-27.5 -67.5t-68.5 -27.5q-40 0 -67 27zM417.5 27.5q-27.5 27.5 -27.5 67.5q0 41 27.5 68t67.5 27q41 0 68 -27t27 -68q0 -40 -27 -67.5t-68 -27.5q-40 0 -67.5 27.5zM719.5 27.5q-27.5 27.5 -27.5 67.5
q0 41 27.5 68t67.5 27q41 0 68 -27t27 -68q0 -40 -27 -67.5t-68 -27.5q-40 0 -67.5 27.5z" />
    <glyph glyph-name="hyphen" unicode="-" horiz-adv-x="601" 
d="M68 370h466v-140h-466v140z" />
    <glyph glyph-name="exclam" unicode="!" horiz-adv-x="338" 
d="M239 242h-140v458h140v-458zM237 163q27 -27 27 -68q0 -40 -27 -67.5t-68 -27.5q-40 0 -67.5 27.5t-27.5 67.5q0 41 27.5 68t67.5 27q41 0 68 -27z" />
    <glyph glyph-name="exclamdown" unicode="&#xa1;" horiz-adv-x="338" 
d="M101.5 337.5q-27.5 27.5 -27.5 67.5q0 41 27.5 68t67.5 27q41 0 68 -27t27 -68q0 -40 -27 -67.5t-68 -27.5q-40 0 -67.5 27.5zM99 -200v458h140v-458h-140z" />
    <glyph glyph-name="question" unicode="?" horiz-adv-x="539" 
d="M177 270q0 48 26 81t72 70q27 21 41 37.5t14 37.5q0 28 -17.5 46t-52.5 18q-39 0 -59.5 -22t-20.5 -64h-136q0 108 58.5 167t160.5 59q64 0 111 -25t72 -69.5t25 -101.5q0 -54 -20.5 -88t-58.5 -68q-8 -6 -30.5 -25t-33.5 -38t-11 -42v-12h-140v39zM320 163
q27 -27 27 -68q0 -40 -27 -67.5t-68 -27.5q-40 0 -67.5 27.5t-27.5 67.5q0 41 27.5 68t67.5 27q41 0 68 -27z" />
    <glyph glyph-name="questiondown" unicode="&#xbf;" horiz-adv-x="557" 
d="M237.5 337.5q-27.5 27.5 -27.5 67.5q0 41 27.5 68t67.5 27q41 0 68 -27t27 -68q0 -40 -27 -67.5t-68 -27.5q-40 0 -67.5 27.5zM380 231q0 -49 -25.5 -82.5t-71.5 -69.5q-28 -21 -42 -37.5t-14 -37.5q0 -28 17.5 -46t52.5 -18q39 0 59.5 22t20.5 64h137q0 -108 -59 -167
t-161 -59q-64 0 -111 25t-72 69.5t-25 101.5q0 54 20.5 88t59.5 68q7 7 16 13q31 27 44.5 45t13.5 47v12h140v-38z" />
    <glyph glyph-name="quoteleft" unicode="&#x2018;" horiz-adv-x="282" 
d="M173 712l68 -39l-72 -118q25 -10 40.5 -33.5t15.5 -52.5q0 -39 -27 -66t-66 -27t-65.5 27t-26.5 66q0 27 19 58z" />
    <glyph glyph-name="quoteright" unicode="&#x2019;" horiz-adv-x="282" 
d="M108 376l-68 38l72 119q-25 11 -40.5 34t-15.5 51q0 39 27 66.5t66 27.5t66 -27t27 -67q0 -26 -19 -57z" />
    <glyph glyph-name="quotedblleft" unicode="&#x201c;" horiz-adv-x="511" 
d="M174 712l68 -39l-72 -118q25 -11 40.5 -34.5t15.5 -51.5q0 -39 -27.5 -66t-65.5 -27q-40 0 -66.5 27t-26.5 66q0 27 19 58zM403 712l68 -39l-72 -118q25 -10 40.5 -33.5t15.5 -52.5q0 -39 -27 -66t-66 -27t-65.5 27t-26.5 66q0 27 19 58z" />
    <glyph glyph-name="quotedblright" unicode="&#x201d;" horiz-adv-x="511" 
d="M338 376l-68 38l72 119q-25 11 -40.5 34t-15.5 51q0 39 27 66.5t66 27.5t66 -27t27 -67q0 -26 -19 -57zM108 376l-68 38l72 119q-25 11 -40.5 34t-15.5 51q0 39 27 66.5t66 27.5t66 -27t27 -67q0 -26 -19 -57z" />
    <glyph glyph-name="quotesinglbase" unicode="&#x201a;" horiz-adv-x="282" 
d="M108 -149l-68 38l72 119q-25 11 -40.5 34t-15.5 51q0 39 27 66.5t66 27.5t66 -27t27 -67q0 -26 -19 -57z" />
    <glyph glyph-name="quotedblbase" unicode="&#x201e;" horiz-adv-x="511" 
d="M347 -150l-68 38l72 119q-25 11 -40.5 34t-15.5 51q0 39 27 66.5t66 27.5t66 -27t27 -67q0 -26 -19 -57zM117 -150l-68 38l72 119q-25 11 -40.5 34t-15.5 51q0 39 27 66.5t66 27.5t66 -27t27 -67q0 -26 -19 -57z" />
    <glyph glyph-name="guilsinglleft" unicode="&#x2039;" horiz-adv-x="386" 
d="M50 260l224 238l88 -80l-150 -158l150 -158l-88 -79z" />
    <glyph glyph-name="guilsinglright" unicode="&#x203a;" horiz-adv-x="386" 
d="M336 260l-225 -237l-87 79l150 158l-150 158l87 80z" />
    <glyph glyph-name="periodcentered" unicode="&#xb7;" horiz-adv-x="390" 
d="M130.5 286q-26.5 26 -26.5 65t26.5 65t64.5 26q39 0 65 -26t26 -65t-26 -65t-65 -26q-38 0 -64.5 26z" />
    <glyph glyph-name="slash" unicode="/" horiz-adv-x="685" 
d="M16 -2l543 793l109 -73l-543 -794z" />
    <glyph glyph-name="bar" unicode="|" horiz-adv-x="322" 
d="M100 761h122v-895h-122v895z" />
    <glyph glyph-name="endash" unicode="&#x2013;" horiz-adv-x="898" 
d="M68 370h763v-140h-763v140z" />
    <glyph glyph-name="emdash" unicode="&#x2014;" horiz-adv-x="1309" 
d="M68 370h1174v-140h-1174v140z" />
    <glyph glyph-name="bullet" unicode="&#x2022;" horiz-adv-x="456" 
d="M129 221q-39 39 -39 98q0 60 39 99t99 39t99 -39t39 -99q0 -59 -39 -98t-99 -39t-99 39z" />
    <glyph glyph-name="parenleft" unicode="(" horiz-adv-x="358" 
d="M122.5 580.5q49.5 121.5 141.5 215.5l92 -81q-76 -90 -115 -183t-39 -211q0 -228 154 -410l-93 -81q-90 93 -140 224.5t-50 266.5q0 138 49.5 259.5z" />
    <glyph glyph-name="parenright" unicode=")" horiz-adv-x="358" 
d="M94 796q93 -94 142.5 -215.5t49.5 -259.5q0 -135 -50.5 -266.5t-140.5 -224.5l-92 81q154 183 154 410q0 117 -39 210.5t-116 183.5z" />
    <glyph glyph-name="bracketleft" unicode="[" horiz-adv-x="338" 
d="M98 761h240v-115h-119v-665h119v-115h-240v895z" />
    <glyph glyph-name="bracketright" unicode="]" horiz-adv-x="338" 
d="M0 761h241v-895h-241v115h119v665h-119v115z" />
    <glyph glyph-name="braceleft" unicode="{" horiz-adv-x="368" 
d="M368 761v-116h-46q-26 0 -42 -14t-16 -40v-160q0 -94 -80 -115q80 -21 80 -111v-169q0 -26 16 -40t42 -14h46v-116h-47q-178 0 -178 159v159q0 34 -24.5 50.5t-80.5 17.5v121q105 3 105 76v154q0 158 178 158h47z" />
    <glyph glyph-name="braceright" unicode="}" horiz-adv-x="368" 
d="M47 761q178 0 178 -158v-154q0 -73 106 -76v-121q-56 -1 -81 -17.5t-25 -50.5v-159q0 -159 -178 -159h-47v116h46q26 0 42 14t16 40v169q0 90 80 111q-80 21 -80 115v160q0 26 -16 40t-42 14h-46v116h47z" />
    <glyph glyph-name="uni00AD" unicode="&#xad;" horiz-adv-x="530" 
d="M80 370h370v-140h-370v140z" />
    <glyph glyph-name="guillemotleft" unicode="&#xab;" horiz-adv-x="645" 
d="M50 260l224 238l88 -80l-150 -158l150 -158l-88 -79zM310 260l224 238l88 -80l-150 -158l150 -158l-88 -79z" />
    <glyph glyph-name="guillemotright" unicode="&#xbb;" horiz-adv-x="646" 
d="M336 260l-225 -237l-87 79l150 158l-150 158l87 80zM596 260l-225 -237l-87 79l150 158l-150 158l87 80z" />
    <glyph glyph-name="asterisk" unicode="*" horiz-adv-x="459" 
d="M178 720h103v-114l108 35l32 -97l-108 -35l66 -92l-82 -61l-68 92l-67 -92l-83 61l67 92l-108 35l32 97l108 -35v114z" />
    <glyph glyph-name="asciitilde" unicode="~" horiz-adv-x="755" 
d="M70 328q107 95 190 95q37 0 69.5 -12.5t75.5 -36.5q33 -17 51.5 -25t35.5 -8q24 0 51 16t62 47l80 -91q-48 -47 -95 -78t-97 -31q-35 0 -67 12.5t-74 35.5q-32 17 -52 25.5t-38 8.5q-23 0 -49.5 -16t-62.5 -47z" />
    <glyph glyph-name="brokenbar" unicode="&#xa6;" horiz-adv-x="322" 
d="M100 761h122v-388h-122v388zM100 284h122v-418h-122v418z" />
    <glyph glyph-name="backslash" unicode="\" horiz-adv-x="685" 
d="M16 718l109 73l543 -793l-109 -74z" />
    <glyph glyph-name="underscore" unicode="_" horiz-adv-x="520" 
d="M0 -84h520v-115l-520 -1v116z" />
    <glyph glyph-name="quotesingle" unicode="'" horiz-adv-x="256" 
d="M70 700h116v-282h-116v282z" />
    <glyph glyph-name="quotedbl" unicode="&#x22;" horiz-adv-x="431" 
d="M70 700h116v-282h-116v282zM245 700h116v-282h-116v282z" />
    <glyph glyph-name="uni02BC" unicode="&#x2bc;" horiz-adv-x="282" 
d="M108 376l-68 38l72 119q-25 11 -40.5 34t-15.5 51q0 39 27 66.5t66 27.5t66 -27t27 -67q0 -26 -19 -57z" />
    <glyph glyph-name="ampersand" unicode="&#x26;" horiz-adv-x="753" 
d="M182.5 14q-51.5 26 -79.5 73.5t-28 110.5q0 66 31 111t88 82l-9 10q-29 33 -44.5 66t-15.5 74q0 48 23 87t66 62t101 23q83 0 133.5 -47.5t50.5 -126.5q0 -57 -27 -98.5t-74 -74.5l102 -109q27 44 50 97l111 -65q-34 -79 -69 -129l67 -72l-97 -93l-61 66
q-88 -73 -197 -73q-70 0 -121.5 26zM311 456q27 18 41.5 37.5t14.5 43.5q0 26 -14.5 40.5t-37.5 14.5t-38 -14.5t-15 -37.5q0 -30 29 -61zM409 158l-131 143q-35 -23 -52 -44.5t-17 -51.5q0 -39 25.5 -62.5t72.5 -23.5q57 0 102 39z" />
    <glyph glyph-name="at" unicode="@" horiz-adv-x="965" 
d="M270 -54.5q-96 54.5 -148 148t-52 208.5q0 113 51.5 206.5t147.5 148.5t224 55q121 0 212 -46.5t140.5 -129t49.5 -185.5q0 -78 -24.5 -137t-69 -91t-102.5 -32q-45 0 -72 19t-39 58q-22 -35 -56.5 -56t-80.5 -21q-63 0 -102.5 38.5t-39.5 94.5q0 54 37 86.5t91 38.5
l116 12q0 32 -16 46.5t-51 14.5q-31 0 -55.5 -13t-35.5 -41l-83 52q21 48 65.5 74.5t111.5 26.5q87 0 130 -44t43 -119v-120q0 -45 36 -45t56 40.5t20 109.5q0 70 -32 127.5t-95.5 92t-154.5 34.5q-95 0 -163 -39t-103 -106t-35 -150q0 -86 36 -153.5t104.5 -105.5
t161.5 -38q96 0 192 30l14 -112q-98 -32 -206 -32q-127 0 -223 54.5zM528 209q26 21 26 56v13l-95 -13q-18 -2 -29 -13t-11 -27t12 -26.5t36 -10.5q35 0 61 21z" />
    <glyph glyph-name="copyright" unicode="&#xa9;" horiz-adv-x="824" 
d="M97 535q47 83 129.5 130t185.5 47t185.5 -47t129.5 -130t47 -185t-47 -185t-129.5 -130t-185.5 -47t-185.5 47t-129.5 130t-47 185t47 185zM652 492.5q-35 62.5 -97.5 97.5t-142.5 35q-79 0 -141.5 -35t-97.5 -97.5t-35 -142.5t35 -142t97 -97t142 -35t142.5 35t97.5 97
t35 142t-35 142.5zM249 452q26 45 71 71t100 26q87 0 146 -65l-39 -67q-25 26 -50.5 39t-57.5 13q-49 0 -82.5 -32.5t-33.5 -84.5q0 -53 33.5 -85.5t83.5 -32.5q30 0 56 12.5t51 37.5l39 -67q-58 -63 -145 -63q-56 0 -101 26t-71 71t-26 101q0 55 26 100z" />
    <glyph glyph-name="registered" unicode="&#xae;" horiz-adv-x="824" 
d="M597.5 665q82.5 -47 129.5 -130t47 -185t-47 -185t-129.5 -130t-185.5 -47t-185.5 47t-129.5 130t-47 185t47 185t129.5 130t185.5 47t185.5 -47zM554.5 111q62.5 35 97.5 97t35 142t-35 142.5t-97.5 97.5t-142.5 35q-79 0 -141.5 -35t-97.5 -97.5t-35 -142.5t35 -142
t97 -97t142 -35t142.5 35zM544.5 348q-21.5 -30 -60.5 -41l83 -136h-84l-75 130h-53v-130h-70v368h155q56 0 91 -33.5t35 -85.5q0 -42 -21.5 -72zM355 470v-100h83q23 0 38.5 13.5t15.5 36.5q0 21 -15 35.5t-39 14.5h-83z" />
    <glyph glyph-name="trademark" unicode="&#x2122;" horiz-adv-x="1017" 
d="M44 700h373v-104h-134v-293h-104v293h-135v104zM870 700h103v-397h-104v200l-113 -200h-79l-114 200v-200h-104v397h103l154 -265z" />
    <glyph glyph-name="paragraph" unicode="&#xb6;" horiz-adv-x="579" 
d="M537 700v-834h-117v722h-104v-722h-117v452q-51 4 -91 31t-62 70.5t-22 94.5q0 52 26.5 94.5t72.5 67t103 24.5h311z" />
    <glyph glyph-name="section" unicode="&#xa7;" horiz-adv-x="552" 
d="M495 619l-86 -99q-20 25 -55.5 43.5t-72.5 18.5q-31 0 -48.5 -13.5t-17.5 -33.5q0 -23 23 -38t77 -36q57 -22 94.5 -42.5t64.5 -57t27 -91.5q0 -46 -20 -81t-55 -57q50 -48 50 -120q0 -52 -24.5 -93t-71.5 -64.5t-111 -23.5q-125 0 -212 93l87 98q19 -25 54 -43t73 -18
q32 0 49 13.5t17 34.5q0 24 -24.5 39t-76.5 35q-57 22 -94 42.5t-64 56.5t-27 91q0 48 21 82.5t56 55.5q-52 47 -52 121q0 52 25 93t72.5 64t110.5 23q125 0 211 -93zM207.5 318q-17.5 -16 -17.5 -37q0 -19 14 -32t31 -21t66 -27q26 8 43.5 24t17.5 37q0 19 -14 32t-31.5 21
t-64.5 27q-27 -8 -44.5 -24z" />
    <glyph glyph-name="asciicircum" unicode="^" horiz-adv-x="477" 
d="M167 714h143l147 -270l-115 -59l-104 193l-104 -193l-114 59z" />
    <glyph glyph-name="dagger" unicode="&#x2020;" horiz-adv-x="515" 
d="M500 386h-177v-481h-132v481h-176v124h176v231h132v-231h177v-124z" />
    <glyph glyph-name="daggerdbl" unicode="&#x2021;" horiz-adv-x="503" 
d="M488 103h-170v-198h-133v198h-170v124h170v192h-170v124h170v198h133v-198h170v-124h-170v-192h170v-124z" />
    <glyph glyph-name="emptyset" unicode="&#x2205;" 
d="M485 403q54 -62 54 -148q0 -62 -28.5 -112t-78.5 -78.5t-112 -28.5q-66 0 -119 33l-38 -45l-46 37l39 45q-55 61 -55 149q0 62 28.5 112t78.5 78.5t112 28.5q67 0 120 -33l39 45l45 -38zM215 176l166 195q-28 14 -61 14q-57 0 -93.5 -37t-36.5 -93q0 -46 25 -79z
M413.5 161.5q36.5 36.5 36.5 93.5q0 44 -24 78l-166 -195q29 -13 60 -13q57 0 93.5 36.5z" />
    <glyph glyph-name="uni2206" unicode="&#x2206;" horiz-adv-x="724" 
d="M328 743h68l308 -743h-684zM531 86l-169 435l-168 -435h337z" />
    <glyph glyph-name="uni00B5" unicode="&#xb5;" 
d="M91 -200v700h135v-278q0 -54 20.5 -80.5t63.5 -26.5q54 0 80.5 39.5t26.5 106.5v239h133v-500h-128v76q-59 -88 -158 -88q-27 0 -45 9v-197h-128z" />
    <glyph glyph-name="uniF8FF" unicode="&#xf8ff;" horiz-adv-x="870" 
d="M75.5 702q10.5 10 26.5 10q15 0 26 -10.5t11 -25.5q0 -10 -4.5 -19.5t-13.5 -14.5v-24q42 17 90 29.5t86 12.5q42 0 73 -21.5t31 -61.5v-25q55 12 102 12q59 0 98.5 -19t39.5 -64v-48q48 12 77 12q59 0 85.5 -21.5t26.5 -57.5v-240q-52 32 -112 32q-19 0 -57 -10
q-40 -10 -61 -10q-23 0 -35.5 12t-12.5 34v86q-23 5 -49 5q-28 0 -69 -9q-5 -1 -29 -5t-46 -4t-35 12.5t-13 33.5v68h-14q-62 0 -176 -44v-327h-39v643q-8 5 -12.5 14t-4.5 19q0 16 10.5 26zM372 577q0 28 -22.5 41.5t-52.5 13.5q-35 0 -83.5 -13.5t-92.5 -31.5v-230
q110 42 176 42q44 0 75 -14v192zM292 580h34l-64 -95v-68h-30v68l-65 95h34l46 -64zM613 474q0 26 -20 44t-91 18q-39 0 -101 -12v-171q0 -12 -8.5 -18t-26.5 -12q-14 -5 -21.5 -9.5t-7.5 -12.5q0 -16 22 -16q23 0 69 8q43 9 75 9q30 0 59 -6.5t51 -18.5v197zM437.5 471.5
q22.5 22.5 56.5 22.5q36 0 58.5 -22.5t22.5 -57.5t-22.5 -58t-58.5 -23q-34 0 -56.5 23t-22.5 58t22.5 57.5zM532 450.5q-15 14.5 -38 14.5q-22 0 -36.5 -14.5t-14.5 -36.5t14.5 -37t36.5 -15q23 0 38 15t15 37t-15 36.5zM803 365q0 29 -21.5 40t-63.5 11q-29 0 -77 -12
v-167q0 -13 -9.5 -20t-25.5 -13q-14 -6 -20.5 -10.5t-6.5 -12.5q0 -7 5.5 -11.5t15.5 -4.5q20 0 58 10q37 11 61 11q42 0 84 -15v194zM691 373h29v-100h-29v100zM362 361.5q-9 4.5 -23 6.5v-32q5 3 13.5 5.5t13.5 4.5t5 6q0 5 -9 9.5zM604.5 253.5q-8.5 5.5 -25.5 10.5v-47
q6 4 15 7.5t14 6.5t5 7q0 10 -8.5 15.5zM691.5 244.5q5.5 5.5 14.5 5.5q8 0 13.5 -5.5t5.5 -13.5q0 -9 -5.5 -14.5t-13.5 -5.5q-9 0 -14.5 5.5t-5.5 14.5q0 8 5.5 13.5z" />
    <glyph glyph-name="uni2113" unicode="&#x2113;" horiz-adv-x="548" 
d="M189.5 31.5q-44.5 43.5 -50.5 132.5v10l-51 -35l-58 86q58 35 108 76v243q-1 117 48.5 170.5t123.5 53.5q71 0 113.5 -44t42.5 -119q0 -168 -213 -346v-53q0 -50 18 -77t52 -27q28 0 52.5 18.5t51.5 56.5l71 -71q-44 -59 -89 -88.5t-103 -29.5q-72 0 -116.5 43.5z
M253 406q97 107 97 193q0 29 -12.5 45.5t-33.5 16.5q-23 0 -37 -20t-14 -61v-174z" />
    <glyph glyph-name="estimated" unicode="&#x212e;" horiz-adv-x="770" 
d="M82 462.5q47 72.5 128 115t176 42.5q96 0 177 -42.5t128 -115t47 -158.5v-9h-574v-140q0 -70 52 -104q68 -45 172 -45q73 0 138.5 27.5t109.5 77.5h29q-48 -57 -121.5 -90t-157.5 -33q-95 0 -176 42.5t-128 115t-47 158.5t47 158.5zM388 602q-106 0 -172 -46
q-22 -15 -37 -34.5t-15 -50.5v-158h445v152q0 34 -12.5 53.5t-31.5 33.5q-65 50 -177 50z" />
    <glyph glyph-name="dollar" unicode="$" horiz-adv-x="561" 
d="M365 406q80 -23 120 -70t40 -127q0 -92 -56 -146t-156 -62v-81h-65v82q-86 8 -144 55t-75 126l126 52q19 -74 93 -91v150l-11 3q-86 23 -131.5 74t-45.5 126q0 83 50.5 136.5t137.5 64.5v82h65v-81q82 -5 138 -47t74 -114l-126 -52q-20 63 -86 72v-138zM210.5 465.5
q10.5 -14.5 37.5 -25.5v115q-23 -6 -35.5 -20.5t-12.5 -36.5q0 -18 10.5 -32.5zM313 142q35 4 53.5 20.5t18.5 44.5q0 26 -16.5 43t-55.5 27v-135z" />
    <glyph glyph-name="cent" unicode="&#xa2;" horiz-adv-x="502" 
d="M485 62q-65 -65 -168 -73v-66h-65v67q-67 8 -118 43t-79 91t-28 126t28 125.5t79 90.5t118 43v70h65v-68q101 -6 167 -72l-75 -106q-40 40 -92 48v-262q52 7 95 49zM187 170q24 -34 65 -47v254q-41 -12 -65 -46t-24 -81q0 -46 24 -80z" />
    <glyph glyph-name="sterling" unicode="&#xa3;" horiz-adv-x="614" 
d="M601 92q-38 -44 -84 -68t-125 -24h-333v126q39 5 59 25t20 60v120h-84v72h84v93q0 91 54 147.5t155 56.5q64 0 113.5 -29t84.5 -74l-93 -99q-19 30 -44.5 47t-52.5 17q-38 0 -57.5 -21t-19.5 -60v-78h172v-72h-172v-111q0 -29 -11 -50.5t-27 -31.5h152q49 0 81.5 18
t63.5 54z" />
    <glyph glyph-name="florin" unicode="&#x192;" horiz-adv-x="425" 
d="M-4 -203v123q36 -5 69 -5q32 0 45 16t13 54v434h-93v81h93v23q0 93 48 139.5t131 46.5q40 0 98 -9v-123q-54 8 -82 8q-36 0 -50.5 -16.5t-14.5 -53.5v-15h142v-81h-142v-442q0 -93 -46 -139.5t-126 -46.5q-42 0 -85 6z" />
    <glyph glyph-name="yen" unicode="&#xa5;" horiz-adv-x="710" 
d="M542 700h169l-258 -387h137v-75h-165v-55h165v-75h-165v-108h-140v108h-165v75h165v55h-165v75h137l-258 387h169l187 -280z" />
    <glyph glyph-name="Euro" unicode="&#x20ac;" horiz-adv-x="702" 
d="M626 199l65 -129q-94 -70 -221 -70q-83 0 -152 32t-115.5 89.5t-65.5 133.5h-91l34 70h47q-1 8 -1 25t1 26h-75l34 70h52q19 75 65 132.5t115 89.5t152 32q127 0 221 -70l-65 -128q-69 58 -158 58q-66 0 -113.5 -30.5t-70.5 -83.5h310l-37 -70h-290q-1 -8 -1 -26
q0 -17 1 -25h262l-36 -70h-209q23 -54 70.5 -84.5t113.5 -30.5q90 0 158 59z" />
    <glyph glyph-name="currency" unicode="&#xa4;" horiz-adv-x="533" 
d="M70 103l-46 46l70 71q-39 53 -39 124q0 70 41 127l-73 73l45 46l74 -73q56 40 124 40q70 0 124 -40l74 74l46 -46l-74 -73q42 -56 42 -128q0 -68 -38 -123l70 -71l-46 -46l-69 71q-55 -44 -129 -44q-67 0 -126 41zM329.5 281q26.5 26 26.5 63t-26.5 63t-63.5 26
q-36 0 -62 -26t-26 -63t26 -63t62 -26q37 0 63.5 26z" />
    <glyph glyph-name="zero" unicode="0" horiz-adv-x="776" 
d="M218.5 44q-76.5 44 -120.5 124t-44 182t44 182t120.5 124t169.5 44t169.5 -44t120.5 -124t44 -182t-44 -182t-120.5 -124t-169.5 -44t-169.5 44zM488 165.5q44 25.5 69 73.5t25 111t-25 111t-69 73.5t-100 25.5t-100 -25.5t-69 -73.5t-25 -111t25 -111t69 -73.5
t100 -25.5t100 25.5z" />
    <glyph glyph-name="one" unicode="1" horiz-adv-x="489" 
d="M273 700h118v-700h-140v483l-133 -131l-97 101z" />
    <glyph glyph-name="two" unicode="2" horiz-adv-x="567" 
d="M32 549q39 69 103.5 110t143.5 41q69 0 122 -28t82.5 -78.5t29.5 -116.5q0 -108 -83 -188l-153 -149h236v-140h-461v112l268 260q29 28 41 50t12 47q0 41 -27.5 66t-69.5 25q-41 0 -77.5 -26t-61.5 -71z" />
    <glyph glyph-name="three" unicode="3" horiz-adv-x="558" 
d="M32 587q32 50 93.5 81.5t135.5 31.5q70 0 124 -24t83.5 -68t29.5 -102q0 -55 -27 -96.5t-71 -59.5q45 -17 71.5 -59t26.5 -97q0 -90 -64.5 -142t-172.5 -52q-75 0 -137 32t-93 84l96 104q20 -37 55 -58.5t80 -21.5t70.5 18.5t25.5 52.5q0 33 -25 51.5t-68 19.5h-53v137
h53q43 1 68 19.5t25 51.5t-26 51.5t-70 18.5t-79 -21.5t-56 -57.5z" />
    <glyph glyph-name="four" unicode="4" horiz-adv-x="673" 
d="M419 700h115v-449h104v-140h-104v-111h-140v111h-364v120zM394 251v202l-166 -202h166z" />
    <glyph glyph-name="five" unicode="5" horiz-adv-x="565" 
d="M140.5 17q-60.5 17 -105.5 46l59 126q38 -24 80.5 -36.5t80.5 -12.5q53 0 85.5 26.5t32.5 74.5q0 49 -36 74.5t-105 25.5t-152 -22v381h434v-140h-294v-84q4 0 15.5 2t24.5 2q119 0 186.5 -63t67.5 -173q0 -76 -32.5 -131t-91 -84t-134.5 -29q-55 0 -115.5 17z" />
    <glyph glyph-name="six" unicode="6" horiz-adv-x="578" 
d="M176.5 27.5q-52.5 27.5 -84.5 80.5q-47 80 -47 214q0 118 34.5 203t100.5 130t157 45q89 0 169 -43l-55 -127q-60 30 -122 30q-55 0 -92 -33.5t-42 -87.5q26 15 56 24t55 9q66 0 118 -29.5t81 -82.5t29 -121q0 -70 -30 -124t-84 -84.5t-122 -30.5q-69 0 -121.5 27.5z
M365.5 167q28.5 27 28.5 70t-28 69t-73 26t-73.5 -26.5t-28.5 -69.5t28.5 -69.5t73.5 -26.5q44 0 72.5 27z" />
    <glyph glyph-name="seven" unicode="7" horiz-adv-x="541" 
d="M209 0h-158l294 560h-308v140h477v-117z" />
    <glyph glyph-name="eight" unicode="8" horiz-adv-x="566" 
d="M164 24q-52 24 -81 67.5t-29 100.5q0 109 93 158q-43 23 -68 64.5t-25 93.5q0 57 29 100.5t81 67.5t119 24t119 -24t81 -67t29 -100q0 -52 -25 -93.5t-69 -65.5q94 -50 94 -158q0 -57 -29 -100.5t-81 -67.5t-119 -24t-119 24zM347 439q25 19 25 52q0 31 -24.5 50
t-64.5 19t-64.5 -19t-24.5 -50q0 -33 25 -52t64 -19t64 19zM347.5 159q24.5 19 24.5 50q0 33 -25 52t-64 19t-64 -19t-25 -52q0 -31 24.5 -50t64.5 -19t64.5 19z" />
    <glyph glyph-name="nine" unicode="9" horiz-adv-x="579" 
d="M74 42l50 127q31 -13 65 -21t63 -8q56 0 93 33.5t42 88.5q-26 -16 -52 -25t-59 -9q-66 0 -117.5 29.5t-80 82t-28.5 119.5q0 71 30.5 125.5t86 85t127.5 30.5q122 0 187 -89q58 -82 58 -238q0 -182 -74 -277.5t-214 -95.5q-87 0 -177 42zM364.5 395q28.5 27 28.5 70
q0 42 -29 68.5t-73 26.5q-45 0 -73 -27t-28 -70t28 -69t73 -26t73.5 27z" />
    <glyph glyph-name="zero.zero" horiz-adv-x="776" 
d="M609 619q54 -48 83.5 -116.5t29.5 -152.5q0 -102 -44 -182t-120.5 -124t-169.5 -44t-171 45l-39 -57l-58 39l41 60q-51 48 -79 115t-28 148q0 102 44 182t120.5 124t169.5 44q91 0 164 -41l36 53l57 -40zM241 205l231 337q-38 18 -84 18q-56 0 -100 -25.5t-69 -73.5
t-25 -111q0 -89 47 -145zM488 165.5q44 25.5 69 73.5t25 111q0 93 -53 152l-233 -341q41 -21 92 -21q56 0 100 25.5z" />
    <glyph glyph-name="fi" unicode="&#xfb01;" horiz-adv-x="682" 
d="M256 389v-389h-133v389h-108v111h108v25q0 93 50 140t131 47q40 0 99 -9v-122q-51 8 -76 8q-39 0 -55 -19t-16 -59v-11h141v-111h-141zM484 500h132v-500h-132v500zM489 583q-24 24 -24 60q0 37 24 61t60 24q37 0 61 -24t24 -61q0 -36 -24 -60t-61 -24q-36 0 -60 24z" />
    <glyph glyph-name="fl" unicode="&#xfb02;" horiz-adv-x="666" 
d="M256 389v-389h-133v389h-108v111h108v25q0 93 50 140t131 47q40 0 99 -9v-122q-51 8 -76 8q-39 0 -55 -19t-16 -59v-11h141v-111h-141zM476 700h133v-700h-133v700z" />
    <glyph glyph-name="fraction" unicode="&#x2044;" horiz-adv-x="274" 
d="M-176 29l562 696l65 -54l-562 -696z" />
    <glyph glyph-name="onequarter" unicode="&#xbc;" horiz-adv-x="895" 
d="M152 29l562 696l65 -54l-562 -696zM285 280h-96v268l-72 -69l-67 70l155 151h80v-420zM792 155h53v-96h-53v-59h-97v59h-213v82l230 279h80v-265zM695 250l-76 -95h76v95z" />
    <glyph glyph-name="onehalf" unicode="&#xbd;" horiz-adv-x="912" 
d="M769 671l-562 -696l-65 54l562 696zM285 280h-96v268l-72 -69l-67 70l155 151h80v-420zM575 0v76l155 146q17 15 25.5 28t8.5 29q0 20 -13.5 32t-36.5 12q-26 0 -46 -14.5t-33 -35.5l-71 58q20 35 57 62t96 27q66 0 105.5 -37t39.5 -98q0 -66 -54 -118l-76 -70h130v-97
h-287z" />
    <glyph glyph-name="threequarters" unicode="&#xbe;" horiz-adv-x="901" 
d="M168 29l561 696l65 -54l-561 -696zM304.5 312q-39.5 -32 -111.5 -32q-48 0 -85.5 16.5t-57.5 41.5l63 73q27 -34 81 -34q53 0 53 33q0 15 -13.5 24t-39.5 9h-34v94h34q26 1 39.5 9.5t13.5 23.5q0 33 -53 33q-52 0 -81 -34l-63 74q20 25 57.5 41t85.5 16q72 0 111.5 -32
t39.5 -84q0 -38 -19 -62t-46 -32q27 -8 46 -32t19 -62q0 -52 -39.5 -84zM798 155h53v-96h-53v-59h-97v59h-213v82l230 279h80v-265zM701 250l-76 -95h76v95z" />
    <glyph glyph-name="percent" unicode="%" horiz-adv-x="824" 
d="M95 29l562 696l65 -54l-562 -696zM279 678.5q37 -21.5 58.5 -58.5t21.5 -82t-21.5 -82t-58.5 -58.5t-82 -21.5t-82 21.5t-58.5 58.5t-21.5 82t21.5 82t58.5 58.5t82 21.5t82 -21.5zM248 589q-20 20 -51 20t-51 -20t-20 -51t20 -51t51 -20t51 20t20 51t-20 51zM486.5 244
q21.5 37 58.5 58.5t82 21.5t82 -21.5t58.5 -58.5t21.5 -82t-21.5 -82t-58.5 -58.5t-82 -21.5t-82 21.5t-58.5 58.5t-21.5 82t21.5 82zM576 213q-20 -20 -20 -51t20 -51t51 -20t51 20t20 51t-20 51t-51 20t-51 -20z" />
    <glyph glyph-name="perthousand" unicode="&#x2030;" horiz-adv-x="1079" 
d="M49 29l562 696l65 -54l-562 -696zM58.5 624q20.5 35 55.5 55.5t78 20.5t78 -20.5t55.5 -55.5t20.5 -78t-20.5 -78t-55.5 -55.5t-78 -20.5t-78 20.5t-55.5 55.5t-20.5 78t20.5 78zM240 594q-19 19 -48 19t-48 -19t-19 -48t19 -48t48 -19t48 19t19 48t-19 48zM394.5 232
q20.5 35 55.5 55.5t78 20.5q42 0 77.5 -20.5t56 -55.5t20.5 -78t-20.5 -78t-56 -55.5t-77.5 -20.5q-43 0 -78 20.5t-55.5 55.5t-20.5 78t20.5 78zM756.5 232q20.5 35 55.5 55.5t78 20.5q42 0 77.5 -20.5t56 -55.5t20.5 -78t-20.5 -78t-56 -55.5t-77.5 -20.5q-43 0 -78 20.5
t-55.5 55.5t-20.5 78t20.5 78zM575.5 202q-18.5 19 -47.5 19t-48 -19t-19 -48t19 -48t48 -19t47.5 19t18.5 48t-18.5 48zM937.5 202q-18.5 19 -47.5 19t-48 -19t-19 -48t19 -48t48 -19t47.5 19t18.5 48t-18.5 48z" />
    <glyph glyph-name="uni03BC" unicode="&#x3bc;" 
d="M213 -3v-197h-123v700h136v-278q0 -54 20.5 -80.5t63.5 -26.5q54 0 80.5 39.5t26.5 106.5v239h133v-500h-128v76q-59 -88 -158 -88q-30 0 -51 9z" />
    <glyph glyph-name="numbersign" unicode="#" horiz-adv-x="609" 
d="M311 0l29 196h-109l-29 -196h-94l29 196h-107l14 93h107l19 133h-107l14 93h107l27 185h95l-28 -185h109l27 185h95l-28 -185h98l-14 -93h-97l-20 -133h98l-14 -93h-98l-29 -196h-94zM354 289l19 133h-108l-20 -133h109z" />
    <glyph glyph-name="uni2116" unicode="&#x2116;" horiz-adv-x="1317" 
d="M224 0h-140v700h122l378 -460v460h140v-700h-122l-378 460v-460zM1245.5 297q-31.5 -53 -85.5 -83t-119 -30q-66 0 -120 30t-85.5 83t-31.5 120q0 66 31.5 119t85.5 83t120 30q65 0 119 -30t85.5 -83t31.5 -119q0 -67 -31.5 -120zM1120 419q0 32 -23 55q-22 23 -53 23
q-33 0 -58 -25q-25 -27 -25 -58q0 -29 23 -54q22 -24 53 -24q34 0 58 26q25 25 25 57zM826 114h430v-114h-430v114z" />
    <glyph glyph-name="uni0394" unicode="&#x394;" horiz-adv-x="724" 
d="M328 743h68l308 -743h-684zM531 86l-169 435l-168 -435h337z" />
    <glyph glyph-name="uni03A9" unicode="&#x3a9;" horiz-adv-x="775" 
d="M32 0v113h121q-55 52 -85 115.5t-30 144.5q0 100 45.5 177t125 119.5t179.5 42.5t179.5 -42.5t125 -119.5t45.5 -177q0 -81 -30.5 -144t-85.5 -116h122v-113h-320v113q81 51 126.5 111.5t45.5 142.5q0 63 -27.5 110.5t-74.5 72.5t-106 25t-106.5 -25t-75 -72.5
t-27.5 -110.5q0 -82 45.5 -142.5t126.5 -111.5v-113h-319z" />
    <glyph glyph-name="pi" unicode="&#x3c0;" 
d="M613 500v-140h-86v-360h-136v360h-103l-81 -360h-138l80 360q-60 -5 -123 -23v129q38 16 76 25t83 9h428z" />
    <glyph glyph-name="plus" unicode="+" 
d="M250 589h140v-200h200v-140h-200v-199h-140v199h-200v140h200v200z" />
    <glyph glyph-name="minus" unicode="&#x2212;" 
d="M53 389h534v-140h-534v140z" />
    <glyph glyph-name="plusminus" unicode="&#xb1;" 
d="M251 606h138v-111h201v-139h-201v-110h-138v110h-201v139h201v111zM50 187h540v-139h-540v139z" />
    <glyph glyph-name="multiply" unicode="&#xd7;" 
d="M320 417l160 161l99 -98l-161 -161l161 -160l-99 -99l-160 161l-161 -161l-98 99l161 160l-161 161l98 98z" />
    <glyph glyph-name="divide" unicode="&#xf7;" 
d="M249 461q-27 27 -27 67q0 41 27 68t67 27q41 0 68 -26.5t27 -68.5q0 -40 -27 -67t-68 -27q-40 0 -67 27zM604 249h-568v140h568v-140zM249 47q-27 27 -27 67q0 41 27 68t67 27q41 0 68 -27t27 -68q0 -40 -27 -67t-68 -27q-40 0 -67 27z" />
    <glyph glyph-name="equal" unicode="=" 
d="M48 487h544v-140h-544v140zM48 253h544v-140h-544v140z" />
    <glyph glyph-name="less" unicode="&#x3c;" 
d="M66 397l450 190l57 -136l-333 -132l333 -133l-57 -136l-450 190v157z" />
    <glyph glyph-name="greater" unicode="&#x3e;" 
d="M123 587l450 -190v-157l-450 -190l-57 136l333 133l-333 132z" />
    <glyph glyph-name="degree" unicode="&#xb0;" horiz-adv-x="395" 
d="M92 692.5q42 40.5 106 40.5q63 0 105 -41t42 -102t-42 -101.5t-105 -40.5q-64 0 -106 40.5t-42 101.5q0 62 42 102.5zM243 634.5q-17 17.5 -45 17.5q-29 0 -45.5 -17.5t-16.5 -44.5t16.5 -44.5t45.5 -17.5q28 0 45 17.5t17 44.5t-17 44.5z" />
    <glyph glyph-name="approxequal" unicode="&#x2248;" 
d="M34 440q47 42 88.5 64t90.5 22q34 0 64 -11t68 -31q29 -15 48 -22.5t37 -7.5q43 0 102 53l73 -106q-46 -43 -87.5 -66t-90.5 -23q-33 0 -59.5 10t-61.5 29q-29 17 -51 25.5t-46 8.5q-43 0 -102 -53zM34 199q46 42 88 64.5t91 22.5q34 0 64 -11t68 -31q29 -15 48 -22.5
t37 -7.5q44 0 102 52l73 -106q-46 -42 -87.5 -65t-90.5 -23q-33 0 -59.5 10t-61.5 29q-30 16 -51.5 24.5t-45.5 8.5q-43 0 -102 -53z" />
    <glyph glyph-name="greaterequal" unicode="&#x2265;" 
d="M97 647l487 -145v-155l-487 -145l-40 144l306 79l-306 78zM52 171h534v-139h-534v139z" />
    <glyph glyph-name="infinity" unicode="&#x221e;" horiz-adv-x="776" 
d="M475.5 450.5q43.5 26.5 96.5 26.5q48 0 90.5 -23.5t68 -65t25.5 -93.5q0 -51 -25 -92t-67 -64.5t-91 -23.5q-53 0 -97 26.5t-88 72.5q-44 -46 -88 -72.5t-97 -26.5q-49 0 -91 23.5t-67 64.5t-25 92q0 52 25.5 93.5t68 65t90.5 23.5q53 0 96.5 -26.5t87.5 -73.5
q44 47 87.5 73.5zM261 342.5q-24 16.5 -50 16.5q-29 0 -47.5 -18t-18.5 -46t18.5 -45.5t46.5 -17.5q26 0 50 16t53 47q-28 31 -52 47.5zM612 340.5q-19 18.5 -47 18.5q-26 0 -50 -16.5t-52 -47.5q29 -31 53 -47t50 -16q28 0 46.5 17.5t18.5 45.5q0 27 -19 45.5z" />
    <glyph glyph-name="lessequal" unicode="&#x2264;" 
d="M56 502l488 145l39 -144l-306 -78l306 -79l-39 -144l-488 145v155zM54 171h534v-139h-534v139z" />
    <glyph glyph-name="logicalnot" unicode="&#xac;" 
d="M56 457h527v-319h-140v179h-387v140z" />
    <glyph glyph-name="notequal" unicode="&#x2260;" 
d="M592 113h-317l-72 -126l-101 54l40 72h-94v140h173l51 94h-224v140h303l68 120l105 -54l-37 -66h105v-140h-185l-53 -94h238v-140z" />
    <glyph glyph-name="integral" unicode="&#x222b;" 
d="M248 696q0 82 42.5 121.5t119.5 39.5q41 0 99 -9v-134q-43 6 -69 6q-27 0 -39.5 -14.5t-12.5 -48.5v-705q0 -79 -42 -117.5t-116 -38.5q-41 0 -99 9v134q53 -7 69 -7q24 0 36 15t12 49v700z" />
    <glyph glyph-name="partialdiff" unicode="&#x2202;" 
d="M174 17.5q-52 29.5 -81 82t-29 119.5q0 68 30.5 122t83.5 84t119 30q71 0 137 -45q-8 89 -48 135t-112 46q-70 0 -141 -44l-61 122q44 28 100 44.5t107 16.5q90 0 157 -45t103.5 -128.5t36.5 -194.5q0 -113 -34.5 -197.5t-98.5 -130.5t-150 -46q-67 0 -119 29.5z
M378.5 155.5q32.5 38.5 46.5 110.5q-21 24 -53 38.5t-62 14.5q-47 0 -76 -28t-29 -76q0 -43 26 -70.5t67 -27.5q48 0 80.5 38.5z" />
    <glyph glyph-name="product" unicode="&#x220f;" horiz-adv-x="683" 
d="M20 712h643v-135h-98v-666h-140v666h-166v-666h-140v666h-99v135z" />
    <glyph glyph-name="radical" unicode="&#x221a;" 
d="M452 -12h-142l-147 323l-78 -32l-54 121l204 82l136 -320l108 550h129z" />
    <glyph glyph-name="summation" unicode="&#x2211;" 
d="M74 700h486v-139h-274l169 -251l-180 -270h299v-139h-509v79l221 330l-212 312v78z" />
    <glyph glyph-name="lozenge" unicode="&#x25ca;" 
d="M285 754h70l242 -422l-242 -422h-70l-242 422zM444 332l-124 229l-124 -229l124 -229z" />
    <glyph glyph-name="zero.tf" 
d="M85.5 541q35.5 79 96.5 119t138 40q76 0 137.5 -40t97 -119t35.5 -191t-35.5 -191t-96.5 -119t-138 -40t-138 40t-96.5 119t-35.5 191t35.5 191zM415 509q-35 51 -95 51t-95 -51t-35 -159q0 -109 35 -159.5t95 -50.5t95 50.5t35 159.5q0 108 -35 159z" />
    <glyph glyph-name="one.tf" 
d="M591 0h-524v140h219v343l-136 -131l-97 101l255 247h118v-560h165v-140z" />
    <glyph glyph-name="two.tf" 
d="M73 549q35 62 97.5 106.5t157.5 44.5q71 0 124 -28t82 -78t29 -114q0 -59 -24.5 -108.5t-72.5 -96.5l-142 -135h240v-140h-465v112l261 250q31 31 47 57.5t16 53.5q0 38 -27.5 62.5t-71.5 24.5q-48 0 -85.5 -27.5t-61.5 -69.5z" />
    <glyph glyph-name="three.tf" 
d="M79 585q30 51 93.5 83t144.5 32q112 0 176 -53t64 -141q0 -59 -28.5 -99t-69.5 -57q41 -17 69.5 -57t28.5 -99q0 -88 -64 -141t-176 -53q-81 0 -144.5 32t-93.5 83l95 104q23 -38 62 -58.5t82 -20.5q47 0 73 18.5t26 52.5q0 32 -26 51t-74 19h-54v138h54q49 0 74.5 19
t25.5 52t-26 51.5t-73 18.5q-44 0 -83 -20.5t-62 -58.5z" />
    <glyph glyph-name="four.tf" 
d="M394 700h115v-449h87v-140h-87v-111h-140v111h-326v120zM369 251v192l-138 -192h138z" />
    <glyph glyph-name="five.tf" 
d="M559 700v-140h-293v-84q24 4 40 4q118 0 185.5 -63t67.5 -173q0 -74 -31 -129t-88.5 -85t-134.5 -30q-57 0 -117.5 17t-106.5 45l59 126q40 -23 82.5 -35.5t80.5 -12.5q53 0 84.5 27.5t31.5 73.5q0 49 -36 74.5t-105 25.5q-67 0 -152 -20v379h433z" />
    <glyph glyph-name="six.tf" 
d="M104 510q29 85 94 137.5t169 52.5q41 0 81.5 -10.5t87.5 -32.5l-55 -127q-65 30 -122 30q-58 0 -93.5 -35t-39.5 -85q25 14 55 23t56 9q63 0 115 -28.5t82 -81t30 -123.5t-31 -125.5t-84.5 -84t-120.5 -29.5q-72 0 -123.5 28.5t-82.5 79.5q-47 78 -47 214q0 103 29 188z
M396 306q-28 26 -73 26t-73.5 -27t-28.5 -69q0 -44 29 -70t73 -26t72.5 27t28.5 70t-28 69z" />
    <glyph glyph-name="seven.tf" 
d="M88 700h477v-117l-305 -583h-158l294 560h-308v140z" />
    <glyph glyph-name="eight.tf" 
d="M116.5 609.5q29.5 43.5 82.5 67t121 23.5t121 -23.5t82.5 -67t29.5 -100.5q0 -51 -25 -93t-72 -66q47 -24 72 -66t25 -92q0 -58 -29.5 -101.5t-82.5 -67t-121 -23.5t-121 23.5t-82.5 67t-29.5 101.5q0 50 25 92t72 66q-47 24 -72 66t-25 93q0 57 29.5 100.5zM387.5 541
q-25.5 19 -67.5 19t-67.5 -19t-25.5 -50q0 -32 26 -51.5t67 -19.5t67 19t26 52q0 31 -25.5 50zM387 261q-26 19 -67 19t-67 -19t-26 -52q0 -31 25.5 -50t67.5 -19t67.5 19t25.5 50q0 33 -26 52z" />
    <glyph glyph-name="nine.tf" 
d="M106 585q31 55 86.5 85t126.5 30q121 0 187 -89q58 -81 58 -238q0 -169 -68.5 -271t-220.5 -102q-86 0 -176 42l50 127q31 -14 65 -21.5t63 -7.5q61 0 96 35.5t38 83.5q-27 -15 -53 -23t-57 -8q-63 0 -114.5 28t-81.5 80t-30 123t31 126zM388.5 534q-28.5 26 -72.5 26
t-72.5 -27t-28.5 -70t28 -69t72 -26q45 0 73.5 27t28.5 70t-28.5 69z" />
    <glyph glyph-name="zero.tf.zero" 
d="M527 590q63 -92 63 -240q0 -112 -35.5 -191t-96.5 -119t-138 -40q-93 0 -158 55l-46 -67l-58 39l55 81q-63 94 -63 242q0 112 35.5 191t96.5 119t138 40q92 0 159 -56l47 68l57 -40zM203 240l197 288q-32 32 -80 32q-60 0 -95 -51t-35 -159q0 -63 13 -110zM415 190.5
q35 50.5 35 159.5q0 61 -13 108l-196 -287q31 -31 79 -31q60 0 95 50.5z" />
    <glyph glyph-name="dollar.tf" 
d="M499 337q50 -46 50 -135q0 -88 -53.5 -140t-143.5 -61v-81h-65v82q-77 8 -132 51.5t-72 123.5l125 54q16 -73 79 -87v145l-5 1q-84 25 -138 72.5t-54 138.5q0 85 53.5 137t143.5 60v82h65v-82q79 -8 133 -53t72 -122l-127 -51q-17 71 -78 85v-144l10 -3q87 -27 137 -73z
M244.5 462q14.5 -15 42.5 -27v122q-29 -5 -43 -20.5t-14 -37.5t14.5 -37zM352 142q57 10 57 60q0 23 -14.5 38.5t-42.5 27.5v-126z" />
    <glyph glyph-name="cent.tf" 
d="M568 59q-41 -33 -86 -50t-103 -19v-67h-65v69q-68 8 -119.5 43t-80.5 91t-29 125t29 125t80.5 91t119.5 43v69h65v-67q58 -2 103 -19t86 -50l-70 -109q-31 23 -58 34.5t-61 14.5v-264q34 3 60.5 15t58.5 35zM245.5 169q24.5 -34 68.5 -46v256q-44 -12 -68.5 -46
t-24.5 -82t24.5 -82z" />
    <glyph glyph-name="sterling.tf" 
d="M590 92q-37 -44 -83 -68t-125 -24h-331v126q38 5 57 25t19 60v102h-80v90h80v81q0 96 57 156t164 60q129 0 213 -103l-93 -99q-46 64 -112 64q-43 0 -66 -24.5t-23 -68.5v-66h179v-90h-179v-93q0 -29 -11 -50.5t-27 -31.5h153q49 0 81.5 18t63.5 54z" />
    <glyph glyph-name="florin.tf" 
d="M104 -203v123q46 -5 83 -5q32 0 45.5 16.5t13.5 53.5v415h-108v100h108v23q0 93 48 139.5t131 46.5q32 0 66 -4t43 -5v-123q-14 2 -21 2q-46 6 -72 6q-36 0 -50.5 -16t-14.5 -54v-15h157v-100h-157v-423q0 -93 -46.5 -139.5t-126.5 -46.5q-46 0 -99 6z" />
    <glyph glyph-name="yen.tf" 
d="M466 700h169l-221 -387h141v-75h-165v-55h165v-75h-165v-108h-140v108h-165v75h165v55h-165v75h141l-221 387h169l146 -286z" />
    <glyph glyph-name="Euro.tf" 
d="M542 36q-72 -36 -140 -36q-72 0 -134 31t-104.5 89t-58.5 135h-84l33 70h41q-1 8 -1 25t1 26h-68l34 70h43q17 77 60 134.5t105 88.5t135 31q56 0 113.5 -19t102.5 -57l-67 -129q-30 32 -69.5 48.5t-79.5 16.5q-54 0 -94 -30.5t-59 -83.5h278l-37 -70h-257q-1 -9 -1 -26
q0 -9 2 -25h228l-37 -70h-177q18 -54 58 -84.5t93 -30.5q58 0 112 34z" />
    <glyph glyph-name="uni1EA0" unicode="&#x1ea0;" horiz-adv-x="792" 
d="M785 0h-154l-51 111h-368l-51 -111h-154l324 700h130zM396 508l-119 -257h238zM335 -184q-24 24 -24 60q0 37 24 61t60 24q37 0 61 -24t24 -61q0 -36 -24 -60t-61 -24q-36 0 -60 24z" />
    <glyph glyph-name="uni1EB8" unicode="&#x1eb8;" horiz-adv-x="581" 
d="M526 0h-452v700h452v-140h-312v-140h312v-140h-312v-140h312v-140zM229 -184q-24 24 -24 60q0 37 24 61t60 24q37 0 61 -24t24 -61q0 -36 -24 -60t-61 -24q-36 0 -60 24z" />
    <glyph glyph-name="uni1EBC" unicode="&#x1ebc;" horiz-adv-x="581" 
d="M526 0h-452v700h452v-140h-312v-140h312v-140h-312v-140h312v-140zM327.5 737.5q-16.5 6.5 -43.5 19.5q-13 7 -26.5 12.5t-23.5 5.5q-15 0 -29.5 -10.5t-36.5 -31.5l-65 67q69 79 129 79q20 0 37 -6.5t42 -19.5q4 -2 20.5 -10t29.5 -8q15 0 30.5 11t35.5 31l65 -68
q-31 -36 -64 -57t-64 -21q-20 0 -36.5 6.5z" />
    <glyph glyph-name="Gcaron" unicode="&#x1e6;" horiz-adv-x="746" 
d="M78.5 529q44.5 80 125.5 125.5t186 45.5q74 0 140.5 -24.5t116.5 -74.5l-68 -130q-77 89 -196 89q-61 0 -108.5 -26.5t-74 -74.5t-26.5 -109q0 -62 26.5 -110t75 -74.5t111.5 -26.5q61 0 111 31.5t62 89.5h-196v140h357v-46q0 -111 -44 -191t-119.5 -121.5t-167.5 -41.5
q-104 0 -185 45t-126 124.5t-45 179.5t44.5 180zM564 882l-185 -157l-185 157l69 73l116 -100l117 100z" />
    <glyph glyph-name="uni1ECA" unicode="&#x1eca;" horiz-adv-x="288" 
d="M214 0h-140v700h140v-700zM83 -184q-24 24 -24 60q0 37 24 61t60 24q37 0 61 -24t24 -61q0 -36 -24 -60t-61 -24q-36 0 -60 24z" />
    <glyph glyph-name="uni004A0301" horiz-adv-x="525" 
d="M114.5 30q-50.5 30 -76.5 79.5t-26 107.5l127 57q0 -64 24 -99t73 -35q42 0 63.5 26t21.5 76v458h140v-459q0 -78 -29.5 -132.5t-80.5 -81.5t-116 -27q-70 0 -120.5 30zM554 846l-225 -136l-59 92l225 136z" />
    <glyph glyph-name="uni019D" unicode="&#x19d;" horiz-adv-x="788" 
d="M574 700h140v-700h-122l-378 460v-500q0 -87 -39.5 -127.5t-115.5 -40.5q-30 0 -57 8v122q22 -4 32 -4q20 0 30 11.5t10 39.5v731h122l378 -460v460z" />
    <glyph glyph-name="uni1ECC" unicode="&#x1ecc;" horiz-adv-x="768" 
d="M205 45.5q-80 45.5 -125.5 125.5t-45.5 179t45.5 179t125.5 125.5t179 45.5t179 -45.5t125.5 -125.5t45.5 -179t-45.5 -179t-125.5 -125.5t-179 -45.5t-179 45.5zM492 167q48 27 75 75t27 108q0 61 -27 108.5t-75 74.5t-108 27q-61 0 -108.5 -27t-74.5 -74.5t-27 -108.5
q0 -60 27 -108t74.5 -75t108.5 -27q60 0 108 27zM323 -184q-24 24 -24 60q0 37 24 61t60 24q37 0 61 -24t24 -61q0 -36 -24 -60t-61 -24q-36 0 -60 24z" />
    <glyph glyph-name="uni01EA" unicode="&#x1ea;" horiz-adv-x="768" 
d="M437.5 -26.5q-14.5 -19.5 -14.5 -34.5q0 -25 28 -25q11 0 53 8v-96q-41 -11 -73 -11q-53 0 -83 25t-30 69q0 45 47 91q-94 5 -169.5 51.5t-118.5 124.5t-43 174q0 99 45.5 179t125.5 125.5t179 45.5t179 -45.5t125.5 -125.5t45.5 -179q0 -82 -32.5 -152.5t-90.5 -118.5
t-133 -67q-26 -19 -40.5 -38.5zM201 242q27 -48 74.5 -75t108.5 -27q60 0 108 27t75 75t27 108q0 61 -27 108.5t-75 74.5t-108 27q-61 0 -108.5 -27t-74.5 -74.5t-27 -108.5q0 -60 27 -108z" />
    <glyph glyph-name="uni1E9E" unicode="&#x1e9e;" horiz-adv-x="681" 
d="M446 402q94 0 147 -53t53 -136q0 -101 -58 -157t-161 -56h-157v141h150q45 0 65.5 18.5t20.5 57.5q0 71 -77 71h-147v114l151 159h-219v-561h-140v701h528v-140l-162 -159h6z" />
    <glyph glyph-name="uni018F" unicode="&#x18f;" horiz-adv-x="764" 
d="M558 655q81 -45 127 -124t46 -179t-45.5 -180.5t-126 -126t-181.5 -45.5q-103 0 -181 45.5t-120.5 125.5t-42.5 181v48h553q-13 81 -67 124.5t-144 43.5q-50 0 -95 -19t-88 -56l-76 105q107 102 259 102q101 0 182 -45zM512.5 169q52.5 40 70.5 111h-396
q11 -72 61 -111.5t136 -39.5q76 0 128.5 40z" />
    <glyph glyph-name="uni1EE4" unicode="&#x1ee4;" horiz-adv-x="767" 
d="M217.5 41q-74.5 41 -117 115t-42.5 168v376h140v-376q0 -56 24 -97.5t66.5 -64t95.5 -22.5t95 22.5t66 64t24 97.5v376h140v-376q0 -94 -42 -168t-116.5 -115t-166.5 -41t-166.5 41zM323 -184q-24 24 -24 60q0 37 24 61t60 24q37 0 61 -24t24 -61q0 -36 -24 -60t-61 -24
q-36 0 -60 24z" />
    <glyph glyph-name="uni0232" unicode="&#x232;" horiz-adv-x="710" 
d="M425 0h-140v271l-286 429h169l187 -280l187 280h169l-286 -429v-271zM505 755h-300v99h300v-99z" />
    <glyph glyph-name="uni1EF8" unicode="&#x1ef8;" horiz-adv-x="710" 
d="M425 0h-140v271l-286 429h169l187 -280l187 280h169l-286 -429v-271zM384.5 737.5q-16.5 6.5 -43.5 19.5q-13 7 -26.5 12.5t-23.5 5.5q-15 0 -29.5 -10.5t-36.5 -31.5l-65 67q69 79 129 79q20 0 37 -6.5t42 -19.5q4 -2 20.5 -10t29.5 -8q15 0 30.5 11t35.5 31l65 -68
q-31 -36 -64 -57t-64 -21q-20 0 -36.5 6.5z" />
    <glyph glyph-name="C.ss02" horiz-adv-x="646" 
d="M205.5 46q-79.5 46 -125.5 126.5t-46 178.5t46 178t126 125.5t178 45.5q71 0 137 -24.5t116 -71.5l-67 -129q-80 85 -187 85q-59 0 -107 -26.5t-75 -74.5t-27 -109t27 -109t74.5 -74.5t106.5 -26.5q71 0 137 33l29 -137q-85 -36 -166 -36q-97 0 -176.5 46z" />
    <glyph glyph-name="Cacute.ss02" horiz-adv-x="646" 
d="M205.5 46q-79.5 46 -125.5 126.5t-46 178.5t46 178t126 125.5t178 45.5q71 0 137 -24.5t116 -71.5l-67 -129q-80 85 -187 85q-59 0 -107 -26.5t-75 -74.5t-27 -109t27 -109t74.5 -74.5t106.5 -26.5q71 0 137 33l29 -137q-85 -36 -166 -36q-97 0 -176.5 46zM532 846
l-225 -136l-59 92l225 136z" />
    <glyph glyph-name="Ccaron.ss02" horiz-adv-x="646" 
d="M205.5 46q-79.5 46 -125.5 126.5t-46 178.5t46 178t126 125.5t178 45.5q71 0 137 -24.5t116 -71.5l-67 -129q-80 85 -187 85q-59 0 -107 -26.5t-75 -74.5t-27 -109t27 -109t74.5 -74.5t106.5 -26.5q71 0 137 33l29 -137q-85 -36 -166 -36q-97 0 -176.5 46zM553 882
l-185 -157l-185 157l69 73l116 -100l117 100z" />
    <glyph glyph-name="Ccedilla.ss02" horiz-adv-x="646" 
d="M521 675.5q66 -24.5 116 -71.5l-67 -129q-80 85 -187 85q-59 0 -107 -26.5t-75 -74.5t-27 -109t27 -109t74.5 -74.5t106.5 -26.5q71 0 137 33l29 -137q-62 -26 -116 -33q44 -42 44 -93q0 -48 -31.5 -77t-84.5 -29q-36 0 -83 18v103q21 -6 38 -10.5t28 -4.5q23 0 23 22
q0 31 -39 72q-84 12 -150.5 60.5t-104.5 123t-38 163.5q0 98 46 178t126 125.5t178 45.5q71 0 137 -24.5z" />
    <glyph glyph-name="Ccircumflex.ss02" horiz-adv-x="646" 
d="M205.5 46q-79.5 46 -125.5 126.5t-46 178.5t46 178t126 125.5t178 45.5q71 0 137 -24.5t116 -71.5l-67 -129q-80 85 -187 85q-59 0 -107 -26.5t-75 -74.5t-27 -109t27 -109t74.5 -74.5t106.5 -26.5q71 0 137 33l29 -137q-85 -36 -166 -36q-97 0 -176.5 46zM368 813
l-116 -100l-68 73l184 157l185 -157l-68 -73z" />
    <glyph glyph-name="Cdotaccent.ss02" horiz-adv-x="646" 
d="M205.5 46q-79.5 46 -125.5 126.5t-46 178.5t46 178t126 125.5t178 45.5q71 0 137 -24.5t116 -71.5l-67 -129q-80 85 -187 85q-59 0 -107 -26.5t-75 -74.5t-27 -109t27 -109t74.5 -74.5t106.5 -26.5q71 0 137 33l29 -137q-85 -36 -166 -36q-97 0 -176.5 46zM308 746
q-24 24 -24 60t24 60t60 24t60.5 -24t24.5 -60t-24.5 -60t-60.5 -24t-60 24z" />
    <glyph glyph-name="G.ss02" horiz-adv-x="649" 
d="M204 45q-80 45 -125 124.5t-45 179.5t45 180t125.5 125.5t182.5 45.5q71 0 135.5 -24.5t114.5 -71.5l-67 -129q-80 85 -185 85q-62 0 -110 -26.5t-74.5 -74.5t-26.5 -109t26.5 -109t75 -74.5t110.5 -26.5q15 0 28 3v114h-132v140h272v-369q-92 -28 -168 -28
q-102 0 -182 45z" />
    <glyph glyph-name="Gbreve.ss02" horiz-adv-x="649" 
d="M204 45q-80 45 -125 124.5t-45 179.5t45 180t125.5 125.5t182.5 45.5q71 0 135.5 -24.5t114.5 -71.5l-67 -129q-80 85 -185 85q-62 0 -110 -26.5t-74.5 -74.5t-26.5 -109t26.5 -109t75 -74.5t110.5 -26.5q15 0 28 3v114h-132v140h272v-369q-92 -28 -168 -28
q-102 0 -182 45zM263 777q-42 45 -42 117h102q0 -28 14 -44.5t40 -16.5q27 0 41 16.5t14 44.5h102q0 -72 -42.5 -117t-114.5 -45t-114 45z" />
    <glyph glyph-name="Gcaron.ss02" horiz-adv-x="649" 
d="M204 45q-80 45 -125 124.5t-45 179.5t45 180t125.5 125.5t182.5 45.5q71 0 135.5 -24.5t114.5 -71.5l-67 -129q-80 85 -185 85q-62 0 -110 -26.5t-74.5 -74.5t-26.5 -109t26.5 -109t75 -74.5t110.5 -26.5q15 0 28 3v114h-132v140h272v-369q-92 -28 -168 -28
q-102 0 -182 45zM562 882l-185 -157l-185 157l69 73l116 -100l117 100z" />
    <glyph glyph-name="Gcircumflex.ss02" horiz-adv-x="649" 
d="M204 45q-80 45 -125 124.5t-45 179.5t45 180t125.5 125.5t182.5 45.5q71 0 135.5 -24.5t114.5 -71.5l-67 -129q-80 85 -185 85q-62 0 -110 -26.5t-74.5 -74.5t-26.5 -109t26.5 -109t75 -74.5t110.5 -26.5q15 0 28 3v114h-132v140h272v-369q-92 -28 -168 -28
q-102 0 -182 45zM377 813l-116 -100l-68 73l184 157l185 -157l-68 -73z" />
    <glyph glyph-name="uni0122.ss02" horiz-adv-x="649" 
d="M204 45q-80 45 -125 124.5t-45 179.5t45 180t125.5 125.5t182.5 45.5q71 0 135.5 -24.5t114.5 -71.5l-67 -129q-80 85 -185 85q-62 0 -110 -26.5t-74.5 -74.5t-26.5 -109t26.5 -109t75 -74.5t110.5 -26.5q15 0 28 3v114h-132v140h272v-369q-92 -28 -168 -28
q-102 0 -182 45zM365 -227l-53 34l34 46q-16 8 -26 24t-10 35q0 28 19.5 47t47.5 19t47.5 -19t19.5 -47q0 -18 -15 -43z" />
    <glyph glyph-name="Gdotaccent.ss02" horiz-adv-x="649" 
d="M204 45q-80 45 -125 124.5t-45 179.5t45 180t125.5 125.5t182.5 45.5q71 0 135.5 -24.5t114.5 -71.5l-67 -129q-80 85 -185 85q-62 0 -110 -26.5t-74.5 -74.5t-26.5 -109t26.5 -109t75 -74.5t110.5 -26.5q15 0 28 3v114h-132v140h272v-369q-92 -28 -168 -28
q-102 0 -182 45zM317 746q-24 24 -24 60t24 60t60 24t60.5 -24t24.5 -60t-24.5 -60t-60.5 -24t-60 24z" />
    <glyph glyph-name="R.ss03" horiz-adv-x="687" 
d="M672 0h-162l-132 211h-164v-211h-140v700h306q71 0 127.5 -31.5t88 -87t31.5 -125.5q0 -67 -29.5 -121.5t-81.5 -86.5zM214 351h76l-21 34l117 70l55 -88q22 13 34 36.5t12 52.5q0 46 -28.5 75t-78.5 29h-166v-209z" />
    <glyph glyph-name="Racute.ss03" horiz-adv-x="687" 
d="M672 0h-162l-132 211h-164v-211h-140v700h306q71 0 127.5 -31.5t88 -87t31.5 -125.5q0 -67 -29.5 -121.5t-81.5 -86.5zM214 351h76l-21 34l117 70l55 -88q22 13 34 36.5t12 52.5q0 46 -28.5 75t-78.5 29h-166v-209zM496 846l-225 -136l-59 92l225 136z" />
    <glyph glyph-name="Rcaron.ss03" horiz-adv-x="687" 
d="M672 0h-162l-132 211h-164v-211h-140v700h306q71 0 127.5 -31.5t88 -87t31.5 -125.5q0 -67 -29.5 -121.5t-81.5 -86.5zM214 351h76l-21 34l117 70l55 -88q22 13 34 36.5t12 52.5q0 46 -28.5 75t-78.5 29h-166v-209zM518 882l-185 -157l-185 157l69 73l116 -100l117 100z
" />
    <glyph glyph-name="uni0156.ss03" horiz-adv-x="687" 
d="M672 0h-162l-132 211h-164v-211h-140v700h306q71 0 127.5 -31.5t88 -87t31.5 -125.5q0 -67 -29.5 -121.5t-81.5 -86.5zM214 351h76l-21 34l117 70l55 -88q22 13 34 36.5t12 52.5q0 46 -28.5 75t-78.5 29h-166v-209zM332 -227l-53 34l34 46q-16 8 -26 24t-10 35
q0 28 19.5 47t47.5 19t47.5 -19t19.5 -47q0 -18 -15 -43z" />
    <glyph glyph-name="uni1EA1" unicode="&#x1ea1;" horiz-adv-x="538" 
d="M426 465.5q58 -46.5 58 -139.5v-327h-132v68q-25 -38 -63.5 -58.5t-89.5 -20.5q-49 0 -88 19.5t-60.5 54.5t-21.5 79q0 64 44.5 104t123.5 49l94 10q34 4 47.5 14t13.5 29q0 21 -21.5 33.5t-60.5 12.5q-51 0 -84.5 -17t-45.5 -48l-98 70q23 55 81 84.5t145 29.5
q100 0 158 -46.5zM320 124q32 32 32 82v26q-23 -14 -57 -19l-63 -8q-32 -4 -49 -18.5t-17 -37.5q0 -26 19 -41.5t53 -15.5q50 0 82 32zM208 -184q-24 24 -24 60q0 37 24 61t60 24q37 0 61 -24t24 -61q0 -36 -24 -60t-61 -24q-36 0 -60 24z" />
    <glyph glyph-name="uni1EB9" unicode="&#x1eb9;" horiz-adv-x="557" 
d="M58.5 383.5q31.5 59.5 89.5 94t135 34.5q76 0 131.5 -33t85.5 -93t30 -140v-36h-368l1 -2q11 -47 49 -71.5t85 -24.5q83 0 142 51l55 -109q-80 -66 -199 -66q-82 0 -143 34t-93 93.5t-32 134.5q0 74 31.5 133.5zM386 306q-5 42 -32.5 68t-74.5 26t-77.5 -24t-40.5 -70
h225zM217 -184q-24 24 -24 60q0 37 24 61t60 24q37 0 61 -24t24 -61q0 -36 -24 -60t-61 -24q-36 0 -60 24z" />
    <glyph glyph-name="uni1EBD" unicode="&#x1ebd;" horiz-adv-x="557" 
d="M58.5 383.5q31.5 59.5 89.5 94t135 34.5q76 0 131.5 -33t85.5 -93t30 -140v-36h-368l1 -2q11 -47 49 -71.5t85 -24.5q83 0 142 51l55 -109q-80 -66 -199 -66q-82 0 -143 34t-93 93.5t-32 134.5q0 74 31.5 133.5zM386 306q-5 42 -32.5 68t-74.5 26t-77.5 -24t-40.5 -70
h225zM313.5 558.5q-16.5 6.5 -43.5 19.5q-13 7 -26.5 12.5t-23.5 5.5q-15 0 -29.5 -10.5t-36.5 -31.5l-65 68q30 34 61.5 56t67.5 22q19 0 35.5 -6.5t43.5 -19.5q13 -7 26.5 -12.5t23.5 -5.5q15 0 29.5 10.5t36.5 31.5l65 -68q-30 -34 -61.5 -56t-67.5 -22q-19 0 -35.5 6.5z
" />
    <glyph glyph-name="uni0259" unicode="&#x259;" horiz-adv-x="557" 
d="M498.5 116.5q-31.5 -59.5 -89.5 -94t-135 -34.5q-76 0 -131.5 33t-85.5 93t-30 140v36h368l-1 2q-11 47 -49 71.5t-85 24.5q-82 0 -142 -51l-55 109q80 66 199 66q82 0 143 -34t93 -93.5t32 -134.5q0 -74 -31.5 -133.5zM171 195q5 -43 32.5 -68.5t74.5 -25.5q48 0 78 24
t40 70h-225z" />
    <glyph glyph-name="gcaron" unicode="&#x1e7;" horiz-adv-x="614" 
d="M56.5 387q29.5 59 82 92t119.5 33q52 0 95.5 -22t67.5 -60v70h132v-467q0 -120 -69.5 -183t-202.5 -63q-70 0 -124 19t-97 59l65 109q65 -63 152 -63q146 0 146 129v32q-26 -37 -67.5 -57t-93.5 -20q-70 0 -123.5 32t-82.5 90t-29 135q0 76 29.5 135zM388.5 347
q-35.5 37 -93.5 37t-95 -37.5t-37 -96.5t37 -96.5t95 -37.5t93.5 37t35.5 97t-35.5 97zM305 662l116 107l67 -71l-183 -159l-184 159l67 71z" />
    <glyph glyph-name="uni1ECB" unicode="&#x1ecb;" horiz-adv-x="264" 
d="M66 500h132v-500h-132v500zM71 583q-24 24 -24 60q0 37 24 61t60 24q37 0 61 -24t24 -61q0 -36 -24 -60t-61 -24q-36 0 -60 24zM70 -184q-24 24 -24 60q0 37 24 61t60 24q37 0 61 -24t24 -61q0 -36 -24 -60t-61 -24q-36 0 -60 24z" />
    <glyph glyph-name="uni006A0301" horiz-adv-x="278" 
d="M210 -15q0 -98 -53 -144t-156 -46q-23 0 -37 1v122h14q58 0 79 18.5t21 60.5v503h132v-515zM0 631l225 136l58 -92l-225 -136z" />
    <glyph glyph-name="uni0272" unicode="&#x272;" horiz-adv-x="585" 
d="M479 460q46 -52 46 -147v-313h-135v277q0 53 -23.5 80.5t-69.5 27.5q-52 0 -79.5 -37.5t-27.5 -108.5v-279q0 -87 -37.5 -127.5t-109.5 -40.5q-30 0 -58 8v113q16 -4 33 -4q20 0 30 11.5t10 39.5v540h128v-76q28 43 70 65.5t93 22.5q84 0 130 -52z" />
    <glyph glyph-name="uni1ECD" unicode="&#x1ecd;" horiz-adv-x="592" 
d="M62 386.5q35 59.5 96.5 92.5t137.5 33t137.5 -33t96.5 -92.5t35 -136.5t-35 -136.5t-96.5 -92.5t-137.5 -33t-137.5 33t-96.5 92.5t-35 136.5t35 136.5zM391 346q-38 37 -95 37t-95 -37t-38 -96t38 -96t95 -37t95 37t38 96t-38 96zM235 -184q-24 24 -24 60q0 37 24 61
t60 24q37 0 61 -24t24 -61q0 -36 -24 -60t-61 -24q-36 0 -60 24z" />
    <glyph glyph-name="uni01EB" unicode="&#x1eb;" horiz-adv-x="592" 
d="M364 -29.5q-12 -17.5 -12 -31.5q0 -25 28 -25q11 0 53 8v-96q-41 -11 -73 -11q-53 0 -83 25t-30 69q0 38 36 79q-74 3 -132 37t-91 92.5t-33 132.5q0 77 35 136.5t96.5 92.5t137.5 33t137.5 -33t96.5 -92.5t35 -136.5q0 -88 -45.5 -153t-121.5 -92q-22 -17 -34 -34.5z
M201 154q38 -37 95 -37t95 37t38 96t-38 96t-95 37t-95 -37t-38 -96t38 -96z" />
    <glyph glyph-name="uni1EE5" unicode="&#x1ee5;" horiz-adv-x="578" 
d="M518 500v-500h-128v76q-59 -88 -159 -88q-85 0 -129 53.5t-44 147.5v311h135v-278q0 -54 20.5 -80.5t63.5 -26.5q54 0 81 39.5t27 106.5v239h133zM228 -184q-24 24 -24 60q0 37 24 61t60 24q37 0 61 -24t24 -61q0 -36 -24 -60t-61 -24q-36 0 -60 24z" />
    <glyph glyph-name="uni0233" unicode="&#x233;" horiz-adv-x="538" 
d="M227 -200h-140l122 272l-212 428h154l127 -274l124 274h140zM119 695h300v-99h-300v99z" />
    <glyph glyph-name="uni1EF9" unicode="&#x1ef9;" horiz-adv-x="538" 
d="M227 -200h-140l122 272l-212 428h154l127 -274l124 274h140zM298.5 558.5q-16.5 6.5 -43.5 19.5q-13 7 -26.5 12.5t-23.5 5.5q-15 0 -29.5 -10.5t-36.5 -31.5l-65 68q30 34 61.5 56t67.5 22q19 0 35.5 -6.5t43.5 -19.5q13 -7 26.5 -12.5t23.5 -5.5q15 0 29.5 10.5
t36.5 31.5l65 -68q-30 -34 -61.5 -56t-67.5 -22q-19 0 -35.5 6.5z" />
    <glyph glyph-name="a.sups" horiz-adv-x="348" 
d="M52.5 419q-28.5 26 -28.5 68q0 40 26.5 65t68.5 29l81 8q15 2 15 11v2q0 10 -12 16t-35 6q-57 0 -73 -32l-65 50q17 33 54 49t86 16q68 0 101.5 -31t33.5 -96v-181h-90v40q-13 -19 -35 -32.5t-55 -13.5q-44 0 -72.5 26zM198 481.5q17 15.5 17 39.5v8l-65 -8
q-32 -5 -32 -28q0 -12 9 -19.5t27 -7.5q27 0 44 15.5z" />
    <glyph glyph-name="b.sups" horiz-adv-x="388" 
d="M174 405q-25 13 -42 36v-41h-91v420h91v-162q16 22 41.5 36t58.5 14q55 0 93 -42t38 -116t-38.5 -116t-94.5 -42q-31 0 -56 13zM249 500.5q20 18.5 20 49.5t-20 49.5t-49 18.5q-30 0 -49.5 -18.5t-19.5 -49.5t19.5 -49.5t49.5 -18.5q29 0 49 18.5z" />
    <glyph glyph-name="c.sups" horiz-adv-x="322" 
d="M71.5 436q-45.5 43 -45.5 114t45.5 114t115.5 43q36 0 65.5 -11.5t50.5 -32.5l-50 -73q-26 28 -64 28q-30 0 -50 -19t-20 -49t19.5 -49t49.5 -19q37 0 65 28l50 -74q-20 -20 -50.5 -31.5t-65.5 -11.5q-70 0 -115.5 43z" />
    <glyph glyph-name="d.sups" horiz-adv-x="388" 
d="M64 433.5q-38 41.5 -38 116.5t37.5 116.5t93.5 41.5q33 0 58.5 -14t40.5 -36v162h91v-420h-91v41q-17 -23 -42 -36t-56 -13q-56 0 -94 41.5zM237.5 500.5q19.5 18.5 19.5 49.5t-19.5 49.5t-49.5 18.5q-29 0 -49 -18.5t-20 -49.5t20 -49.5t49 -18.5q30 0 49.5 18.5z" />
    <glyph glyph-name="e.sups" horiz-adv-x="357" 
d="M69 438q-43 45 -43 113t42.5 112t113.5 44q68 0 109 -43t41 -117v-25h-213v-1q9 -22 29.5 -32.5t43.5 -10.5q46 0 81 25l36 -76q-45 -34 -120 -34q-77 0 -120 45zM232 587q-2 19 -17 31.5t-38 12.5q-47 0 -60 -44h115z" />
    <glyph glyph-name="f.sups" horiz-adv-x="273" 
d="M76 400v225h-62v75h62v14q0 55 31.5 84t82.5 29q22 0 64 -6v-84q-30 6 -48 6q-38 0 -38 -40v-3h84v-75h-84v-225h-92z" />
    <glyph glyph-name="g.sups" horiz-adv-x="392" 
d="M46 308l38 79q41 -28 87 -28q87 0 87 69v16q-15 -21 -39 -33t-54 -12q-60 0 -99.5 40t-39.5 113t39.5 114t96.5 41q31 0 56 -14t38 -36v43h92v-278q0 -67 -40.5 -108.5t-130.5 -41.5q-78 0 -131 36zM238.5 500.5q19.5 18.5 19.5 49.5t-19.5 49.5t-49.5 18.5
q-29 0 -49 -18.5t-20 -49.5t20 -49.5t49 -18.5q30 0 49.5 18.5z" />
    <glyph glyph-name="h.sups" horiz-adv-x="372" 
d="M41 400v420h91v-164q35 51 95 51q50 0 76.5 -30.5t26.5 -86.5v-190h-93v161q0 58 -48 58q-27 0 -42 -19t-15 -54v-146h-91z" />
    <glyph glyph-name="i.sups" horiz-adv-x="184" 
d="M53 746.5q-15 15.5 -15 39.5q0 23 15 38.5t39 15.5q23 0 39 -15.5t16 -38.5t-16 -39t-39 -16q-24 0 -39 15.5zM138 400h-91v300h91v-300z" />
    <glyph glyph-name="j.sups" horiz-adv-x="191" 
d="M60.5 747q-15.5 16 -15.5 39t15.5 38.5t38.5 15.5t39 -15.5t16 -38.5t-16 -39t-39 -16t-38.5 16zM-14 278v83h12q32 0 44 10t12 33v296h91v-307q0 -59 -34 -88t-94 -29q-18 0 -31 2z" />
    <glyph glyph-name="k.sups" horiz-adv-x="361" 
d="M132 400h-91v420h91v-223l97 103h120l-130 -129l129 -171h-116l-75 111l-25 -25v-86z" />
    <glyph glyph-name="l.sups" horiz-adv-x="174" 
d="M133 400h-92v420h92v-420z" />
    <glyph glyph-name="m.sups" horiz-adv-x="565" 
d="M41 400v300h89v-44q33 51 93 51q31 0 54 -13.5t36 -40.5q13 24 38 39t59 15q49 0 80.5 -32t31.5 -88v-187h-92v161q0 58 -47 58q-29 0 -42.5 -19.5t-13.5 -53.5v-146h-91v161q0 28 -12.5 43t-35.5 15q-29 0 -42.5 -19.5t-13.5 -53.5v-146h-91z" />
    <glyph glyph-name="n.sups" horiz-adv-x="373" 
d="M41 400v300h89v-44q16 23 40.5 37t56.5 14q50 0 76.5 -30.5t26.5 -86.5v-190h-93v161q0 58 -48 58q-27 0 -42 -19t-15 -54v-146h-91z" />
    <glyph glyph-name="o.sups" horiz-adv-x="377" 
d="M71.5 436.5q-45.5 43.5 -45.5 113.5q0 71 45.5 114t116.5 43t117 -43t46 -114q0 -70 -46 -113.5t-117 -43.5t-116.5 43.5zM237.5 500.5q20.5 18.5 20.5 49.5t-20.5 49.5t-49.5 18.5t-49 -18.5t-20 -49.5t20 -49.5t49 -18.5t49.5 18.5z" />
    <glyph glyph-name="p.sups" horiz-adv-x="388" 
d="M41 280v420h91v-41q17 23 42 36t56 13q56 0 94.5 -42t38.5 -116t-38 -116t-93 -42q-33 0 -58.5 14t-41.5 36v-162h-91zM249 500.5q20 18.5 20 49.5t-20 49.5t-49 18.5q-30 0 -49.5 -18.5t-19.5 -49.5t19.5 -49.5t49.5 -18.5q29 0 49 18.5z" />
    <glyph glyph-name="q.sups" horiz-adv-x="388" 
d="M256 442q-15 -22 -40.5 -36t-58.5 -14q-56 0 -93.5 41.5t-37.5 116.5t38 116.5t94 41.5q31 0 56 -13t42 -36v41h91v-420h-91v162zM237.5 500.5q19.5 18.5 19.5 49.5t-19.5 49.5t-49.5 18.5q-29 0 -49 -18.5t-20 -49.5t20 -49.5t49 -18.5q30 0 49.5 18.5z" />
    <glyph glyph-name="r.sups" horiz-adv-x="255" 
d="M41 400v300h88v-51q25 58 83 58q14 0 29 -5v-97q-18 5 -38 5q-71 0 -71 -76v-134h-91z" />
    <glyph glyph-name="s.sups" horiz-adv-x="310" 
d="M76.5 403.5q-34.5 10.5 -54.5 30.5l47 74q39 -35 97 -35q31 0 31 15q0 7 -11.5 11t-55.5 14q-94 20 -94 96q0 47 35 72.5t98 25.5q73 0 120 -36l-46 -70q-14 12 -37 18.5t-46 6.5q-29 0 -29 -13q0 -7 11 -11t58 -14q44 -9 67.5 -31t23.5 -65q0 -99 -136 -99
q-44 0 -78.5 10.5z" />
    <glyph glyph-name="t.sups" horiz-adv-x="264" 
d="M69 495v130h-52v75h52v80h91v-80h74v-75h-74v-112q0 -13 7 -18.5t21 -5.5q12 0 42 5v-87q-42 -10 -71 -10q-90 0 -90 98z" />
    <glyph glyph-name="u.sups" horiz-adv-x="369" 
d="M67.5 423.5q-26.5 30.5 -26.5 86.5v190h93v-162q0 -57 44 -57q26 0 41 19.5t15 54.5v145h91v-300h-88v46q-35 -53 -95 -53q-48 0 -74.5 30.5z" />
    <glyph glyph-name="v.sups" horiz-adv-x="351" 
d="M210 400h-69l-136 300h100l70 -168l71 168h100z" />
    <glyph glyph-name="w.sups" horiz-adv-x="527" 
d="M195 400h-69l-121 300h98l59 -161l64 161h75l64 -161l59 161h98l-121 -300h-69l-68 163z" />
    <glyph glyph-name="x.sups" horiz-adv-x="368" 
d="M122 400h-108l116 155l-109 145h108l56 -73l54 73h109l-109 -145l116 -155h-109l-62 82z" />
    <glyph glyph-name="y.sups" horiz-adv-x="346" 
d="M154 280h-96l73 164l-126 256h105l69 -149l66 149h95z" />
    <glyph glyph-name="z.sups" horiz-adv-x="321" 
d="M299 400h-276v69l144 148h-132v83h259v-69l-146 -147h151v-84z" />
    <glyph glyph-name="uni24FF" unicode="&#x24ff;" horiz-adv-x="824" 
d="M227 35.5q-83 47.5 -130 130t-47 184.5t47 184.5t130 130t185 47.5t185 -47.5t130 -130t47 -184.5t-47 -184.5t-130 -130t-185 -47.5t-185 47.5zM515 166q46 26 72.5 73.5t26.5 110.5t-26.5 110.5t-72.5 73.5t-103 26t-103 -26t-72.5 -73.5t-26.5 -110.5t26.5 -110.5
t72.5 -73.5t103 -26t103 26zM335.5 266.5q-28.5 29.5 -28.5 83.5t28.5 83.5t76.5 29.5t76.5 -29.5t28.5 -83.5t-28.5 -83.5t-76.5 -29.5t-76.5 29.5z" />
    <glyph glyph-name="uni2776" unicode="&#x2776;" horiz-adv-x="824" 
d="M227 35.5q-83 47.5 -130 130t-47 184.5t47 184.5t130 130t185 47.5t185 -47.5t130 -130t47 -184.5t-47 -184.5t-130 -130t-185 -47.5t-185 47.5zM385 421v-269h96v420h-80l-155 -151l67 -69z" />
    <glyph glyph-name="uni2777" unicode="&#x2777;" horiz-adv-x="824" 
d="M227 35.5q-83 47.5 -130 130t-47 184.5t47 184.5t130 130t185 47.5t185 -47.5t130 -130t47 -184.5t-47 -184.5t-130 -130t-185 -47.5t-185 47.5zM274 159h287v96h-130l76 71q54 50 54 117q0 61 -39.5 98.5t-105.5 37.5q-59 0 -95.5 -27t-57.5 -62l71 -58q13 21 33 35.5
t46 14.5q23 0 36.5 -12.5t13.5 -32.5q0 -27 -34 -56l-155 -147v-75z" />
    <glyph glyph-name="uni2778" unicode="&#x2778;" horiz-adv-x="824" 
d="M227 35.5q-83 47.5 -130 130t-47 184.5t47 184.5t130 130t185 47.5t185 -47.5t130 -130t47 -184.5t-47 -184.5t-130 -130t-185 -47.5t-185 47.5zM521 182q39 32 39 84q0 38 -19 62t-46 32q27 8 46 32t19 62q0 52 -39 84t-112 32q-47 0 -85 -16t-58 -41l63 -74
q29 34 81 34q53 0 53 -33q0 -15 -13 -23.5t-39 -9.5h-35v-94h35q25 0 38.5 -9t13.5 -24q0 -33 -53 -33q-52 0 -81 34l-63 -73q20 -25 57.5 -41.5t85.5 -16.5q73 0 112 32z" />
    <glyph glyph-name="uni2779" unicode="&#x2779;" horiz-adv-x="824" 
d="M227 35.5q-83 47.5 -130 130t-47 184.5t47 184.5t130 130t185 47.5t185 -47.5t130 -130t47 -184.5t-47 -184.5t-130 -130t-185 -47.5t-185 47.5zM418 218v-59h98v59h53v97h-53v264h-80l-220 -279v-82h202zM418 315h-76l76 100v-100z" />
    <glyph glyph-name="uni277A" unicode="&#x277a;" horiz-adv-x="824" 
d="M227 35.5q-83 47.5 -130 130t-47 184.5t47 184.5t130 130t185 47.5t185 -47.5t130 -130t47 -184.5t-47 -184.5t-130 -130t-185 -47.5t-185 47.5zM520.5 182q43.5 39 43.5 110q0 69 -42.5 106t-115.5 37l-15 -1v33h154v96h-251v-233q57 9 91 9q82 0 82 -50
q0 -24 -18 -36.5t-46 -12.5q-21 0 -47 7t-52 19l-38 -87q26 -14 63.5 -25t75.5 -11q72 0 115.5 39z" />
    <glyph glyph-name="uni277B" unicode="&#x277b;" horiz-adv-x="824" 
d="M227 35.5q-83 47.5 -130 130t-47 184.5t47 184.5t130 130t185 47.5t185 -47.5t130 -130t47 -184.5t-47 -184.5t-130 -130t-185 -47.5t-185 47.5zM507 191q40 40 40 106q0 65 -39 103t-97 38q-14 0 -30.5 -5t-29.5 -12v1q2 22 21.5 37t52.5 15q32 0 74 -16l35 90
q-57 23 -105 23q-94 0 -137.5 -61.5t-43.5 -160.5q0 -78 28 -130q40 -68 129 -68q62 0 102 40zM362.5 260.5q-14.5 12.5 -14.5 33.5t14.5 34t37.5 13q22 0 36 -13t14 -33q0 -22 -13.5 -34.5t-36.5 -12.5t-37.5 12.5z" />
    <glyph glyph-name="uni277C" unicode="&#x277c;" horiz-adv-x="824" 
d="M227 35.5q-83 47.5 -130 130t-47 184.5t47 184.5t130 130t185 47.5t185 -47.5t130 -130t47 -184.5t-47 -184.5t-130 -130t-185 -47.5t-185 47.5zM447 463l-152 -324h106l161 342v78h-273v-96h158z" />
    <glyph glyph-name="uni277D" unicode="&#x277d;" horiz-adv-x="824" 
d="M227 35.5q-83 47.5 -130 130t-47 184.5t47 184.5t130 130t185 47.5t185 -47.5t130 -130t47 -184.5t-47 -184.5t-130 -130t-185 -47.5t-185 47.5zM518.5 177.5q41.5 31.5 41.5 82.5q0 30 -16.5 56t-47.5 40q31 14 47.5 40t16.5 56q0 52 -41 83t-106 31q-66 0 -106.5 -31.5
t-40.5 -82.5q0 -30 16 -56t47 -40q-31 -14 -47 -39.5t-16 -56.5q0 -51 41 -82.5t106 -31.5q64 0 105.5 31.5zM376.5 413.5q-13.5 8.5 -13.5 24.5q0 14 13.5 23t36.5 9t36.5 -9t13.5 -23q0 -16 -13.5 -24.5t-36.5 -8.5t-36.5 8.5zM376.5 252q-13.5 9 -13.5 23q0 15 13.5 24
t36.5 9t36.5 -9t13.5 -24q0 -14 -13.5 -23t-36.5 -9t-36.5 9z" />
    <glyph glyph-name="uni277E" unicode="&#x277e;" horiz-adv-x="824" 
d="M227 35.5q-83 47.5 -130 130t-47 184.5t47 184.5t130 130t185 47.5t185 -47.5t130 -130t47 -184.5t-47 -184.5t-130 -130t-185 -47.5t-185 47.5zM522 208q44 59 44 162q0 97 -38 148t-112 51q-67 0 -108.5 -40t-41.5 -106q0 -65 38.5 -102.5t96.5 -37.5q19 0 31.5 4
t29.5 12v-1q-4 -22 -23 -37t-51 -15q-41 0 -77 16l-33 -88q57 -25 110 -25q90 0 134 59zM377 392q-14 13 -14 34t14 34t37 13q22 0 36.5 -13t14.5 -34q0 -20 -14.5 -33.5t-36.5 -13.5q-23 0 -37 13z" />
    <glyph glyph-name="uni24EA" unicode="&#x24ea;" horiz-adv-x="824" 
d="M97 535q47 83 129.5 130t185.5 47t185.5 -47t129.5 -130t47 -185t-47 -185t-129.5 -130t-185.5 -47t-185.5 47t-129.5 130t-47 185t47 185zM652 492.5q-35 62.5 -97.5 97.5t-142.5 35q-79 0 -141.5 -35t-97.5 -97.5t-35 -142.5t35 -142t97 -97t142 -35t142.5 35t97.5 97
t35 142t-35 142.5zM237.5 460.5q26.5 47.5 72.5 73.5t102 26q57 0 103 -26t72.5 -73.5t26.5 -110.5t-26.5 -110.5t-72.5 -73.5t-103 -26q-56 0 -102 26t-72.5 73.5t-26.5 110.5t26.5 110.5zM489 433.5q-29 29.5 -77 29.5q-47 0 -76 -30t-29 -83t29 -83t76 -30q48 0 77 29.5
t29 83.5t-29 83.5z" />
    <glyph glyph-name="uni2460" unicode="&#x2460;" horiz-adv-x="824" 
d="M97 535q47 83 129.5 130t185.5 47t185.5 -47t129.5 -130t47 -185t-47 -185t-129.5 -130t-185.5 -47t-185.5 47t-129.5 130t-47 185t47 185zM652 492.5q-35 62.5 -97.5 97.5t-142.5 35q-79 0 -141.5 -35t-97.5 -97.5t-35 -142.5t35 -142t97 -97t142 -35t142.5 35t97.5 97
t35 142t-35 142.5zM401 568h80v-420h-96v268l-72 -69l-67 70z" />
    <glyph glyph-name="uni2461" unicode="&#x2461;" horiz-adv-x="824" 
d="M226.5 35q-82.5 47 -129.5 130t-47 185t47 185t129.5 130t185.5 47t185.5 -47t129.5 -130t47 -185t-47 -185t-129.5 -130t-185.5 -47t-185.5 47zM554.5 111q62.5 35 97.5 97t35 142t-35 142.5t-97.5 97.5t-142.5 35q-79 0 -141.5 -35t-97.5 -97.5t-35 -142.5t35 -142
t97 -97t142 -35t142.5 35zM269 159v75l156 147q34 30 34 56q0 20 -14 32.5t-37 12.5q-45 0 -79 -50l-70 58q19 34 56.5 61.5t96.5 27.5q66 0 105 -37.5t39 -98.5q0 -68 -54 -117l-75 -71h129v-96h-287z" />
    <glyph glyph-name="uni2462" unicode="&#x2462;" horiz-adv-x="824" 
d="M226.5 35q-82.5 47 -129.5 130t-47 185t47 185t129.5 130t185.5 47t185.5 -47t129.5 -130t47 -185t-47 -185t-129.5 -130t-185.5 -47t-185.5 47zM554.5 111q62.5 35 97.5 97t35 142t-35 142.5t-97.5 97.5t-142.5 35q-79 0 -141.5 -35t-97.5 -97.5t-35 -142.5t35 -142
t97 -97t142 -35t142.5 35zM328.5 160q-37.5 16 -57.5 41l62 74q15 -18 37 -26.5t44 -8.5q26 0 40 8.5t14 25.5q0 15 -13.5 23.5t-39.5 9.5h-34v94h34q26 1 39.5 9.5t13.5 23.5q0 16 -14 24.5t-40 8.5q-51 0 -81 -34l-62 73q20 25 57.5 41.5t85.5 16.5q72 0 111 -32t39 -84
q0 -38 -19 -62t-45 -32q26 -8 45 -32t19 -62q0 -53 -39 -84.5t-111 -31.5q-48 0 -85.5 16z" />
    <glyph glyph-name="uni2463" unicode="&#x2463;" horiz-adv-x="824" 
d="M597.5 665q82.5 -47 129.5 -130t47 -185t-47 -185t-129.5 -130t-185.5 -47t-185.5 47t-129.5 130t-47 185t47 185t129.5 130t185.5 47t185.5 -47zM554.5 111q62.5 35 97.5 97t35 142t-35 142.5t-97.5 97.5t-142.5 35q-79 0 -141.5 -35t-97.5 -97.5t-35 -142.5t35 -142
t97 -97t142 -35t142.5 35zM436 579h80v-264h50v-97h-50v-59h-98v59h-202v82zM418 421l-81 -106h81v106z" />
    <glyph glyph-name="uni2464" unicode="&#x2464;" horiz-adv-x="824" 
d="M226.5 35q-82.5 47 -129.5 130t-47 185t47 185t129.5 130t185.5 47t185.5 -47t129.5 -130t47 -185t-47 -185t-129.5 -130t-185.5 -47t-185.5 47zM554.5 111q62.5 35 97.5 97t35 142t-35 142.5t-97.5 97.5t-142.5 35q-79 0 -141.5 -35t-97.5 -97.5t-35 -142.5t35 -142
t97 -97t142 -35t142.5 35zM329.5 147.5q-37.5 10.5 -63.5 25.5l39 87q26 -12 52 -19t47 -7q28 0 46 12t18 36q0 51 -83 51q-33 0 -90 -9v233h251v-97h-154v-33q4 2 15 2q73 0 115.5 -37t42.5 -106q0 -71 -43.5 -110t-115.5 -39q-39 0 -76.5 10.5z" />
    <glyph glyph-name="uni2465" unicode="&#x2465;" horiz-adv-x="824" 
d="M226.5 35q-82.5 47 -129.5 130t-47 185t47 185t129.5 130t185.5 47t185.5 -47t129.5 -130t47 -185t-47 -185t-129.5 -130t-185.5 -47t-185.5 47zM554.5 111q62.5 35 97.5 97t35 142t-35 142.5t-97.5 97.5t-142.5 35q-79 0 -141.5 -35t-97.5 -97.5t-35 -142.5t35 -142
t97 -97t142 -35t142.5 35zM328 160q-32 18 -51 50q-29 51 -29 130q0 99 44 160.5t138 61.5q48 0 104 -23l-34 -90q-40 17 -75 17q-32 0 -52 -16t-22 -38q13 8 30 12.5t31 4.5q58 0 97 -38t39 -103q0 -66 -40.5 -106t-102.5 -40q-45 0 -77 18zM437 251.5q14 12.5 14 34.5
q0 21 -14 33.5t-37 12.5t-37 -12.5t-14 -34.5q0 -21 14.5 -33.5t36.5 -12.5q23 0 37 12.5z" />
    <glyph glyph-name="uni2466" unicode="&#x2466;" horiz-adv-x="824" 
d="M226.5 35q-82.5 47 -129.5 130t-47 185t47 185t129.5 130t185.5 47t185.5 -47t129.5 -130t47 -185t-47 -185t-129.5 -130t-185.5 -47t-185.5 47zM554.5 111q62.5 35 97.5 97t35 142t-35 142.5t-97.5 97.5t-142.5 35q-79 0 -141.5 -35t-97.5 -97.5t-35 -142.5t35 -142
t97 -97t142 -35t142.5 35zM400 139h-106l152 324h-158v96h273v-78z" />
    <glyph glyph-name="uni2467" unicode="&#x2467;" horiz-adv-x="824" 
d="M226.5 35q-82.5 47 -129.5 130t-47 185t47 185t129.5 130t185.5 47t185.5 -47t129.5 -130t47 -185t-47 -185t-129.5 -130t-185.5 -47t-185.5 47zM554.5 111q62.5 35 97.5 97t35 142t-35 142.5t-97.5 97.5t-142.5 35q-79 0 -141.5 -35t-97.5 -97.5t-35 -142.5t35 -142
t97 -97t142 -35t142.5 35zM307 174q-41 31 -41 83q0 31 16 56.5t47 39.5q-31 13 -47 39t-16 57q0 51 40.5 82.5t106.5 31.5q65 0 106 -31t41 -83q0 -30 -16.5 -56t-47.5 -40q31 -14 47.5 -40t16.5 -56q0 -52 -41 -83t-106 -31t-106 31zM449.5 410.5q13.5 8.5 13.5 23.5
q0 14 -13.5 23t-36.5 9t-36.5 -9t-13.5 -23q0 -15 13.5 -23.5t36.5 -8.5t36.5 8.5zM449.5 249q13.5 9 13.5 23q0 15 -13.5 23.5t-36.5 8.5t-36.5 -8.5t-13.5 -23.5q0 -14 13.5 -23t36.5 -9t36.5 9z" />
    <glyph glyph-name="uni2468" unicode="&#x2468;" horiz-adv-x="824" 
d="M226.5 35q-82.5 47 -129.5 130t-47 185t47 185t129.5 130t185.5 47t185.5 -47t129.5 -130t47 -185t-47 -185t-129.5 -130t-185.5 -47t-185.5 47zM554.5 111q62.5 35 97.5 97t35 142t-35 142.5t-97.5 97.5t-142.5 35q-79 0 -141.5 -35t-97.5 -97.5t-35 -142.5t35 -142
t97 -97t142 -35t142.5 35zM285 172l33 89q39 -17 77 -17q32 0 51 15.5t23 37.5v1q-20 -9 -31.5 -13t-29.5 -4q-58 0 -96.5 37.5t-38.5 102.5q0 66 41.5 106.5t108.5 40.5q74 0 112 -52q38 -51 38 -148q0 -103 -44 -161.5t-134 -58.5q-52 0 -110 24zM458 391q14 13 14 34
t-14.5 33.5t-36.5 12.5q-23 0 -37 -12.5t-14 -34.5q0 -20 14 -33t37 -13t37 13z" />
    <glyph glyph-name="zero.ss04" horiz-adv-x="763" 
d="M212.5 44q-76.5 44 -120.5 124t-44 182t44 182t120.5 124t169.5 44t169 -44t120.5 -124t44.5 -182t-44.5 -182t-120.5 -124t-169 -44t-169.5 44zM482 165.5q44 25.5 69 73.5t25 111t-25 111t-69 73.5t-100 25.5t-100 -25.5t-69 -73.5t-25 -111t25 -111t69 -73.5
t100 -25.5t100 25.5zM324.5 292.5q-23.5 23.5 -23.5 57.5t23.5 57.5t57.5 23.5t57.5 -23.5t23.5 -57.5t-23.5 -57.5t-57.5 -23.5t-57.5 23.5z" />
    <glyph glyph-name="zero.tf.ss04" 
d="M85.5 541q35.5 79 96.5 119t138 40q76 0 137.5 -40t97 -119t35.5 -191t-35.5 -191t-96.5 -119t-138 -40t-138 40t-96.5 119t-35.5 191t35.5 191zM415 509q-35 51 -95 51t-95 -51t-35 -159q0 -109 35 -159.5t95 -50.5t95 50.5t35 159.5q0 108 -35 159zM262 407.5
q24 23.5 58 23.5t57.5 -23.5t23.5 -57.5t-23.5 -57.5t-57.5 -23.5t-58 23.5t-24 57.5t24 57.5z" />
    <glyph glyph-name="uni2080" unicode="&#x2080;" horiz-adv-x="485" 
d="M67.5 170.5q26.5 47.5 72.5 73.5t102 26q57 0 103 -26t72.5 -73.5t26.5 -110.5t-26.5 -110.5t-72.5 -73.5t-103 -26q-56 0 -102 26t-72.5 73.5t-26.5 110.5t26.5 110.5zM319 143.5q-29 29.5 -77 29.5q-47 0 -76 -30t-29 -83t29 -83t76 -30q48 0 77 29.5t29 83.5t-29 83.5
z" />
    <glyph glyph-name="uni2081" unicode="&#x2081;" horiz-adv-x="319" 
d="M173 270h80v-420h-96v268l-72 -69l-67 70z" />
    <glyph glyph-name="uni2082" unicode="&#x2082;" horiz-adv-x="367" 
d="M29 181q20 35 57 62t96 27q66 0 105 -37t39 -98q0 -67 -53 -118l-76 -70h129v-97h-286v76l155 146q17 16 25.5 28.5t8.5 28.5q0 20 -13.5 32t-36.5 12q-26 0 -46 -14.5t-33 -35.5z" />
    <glyph glyph-name="uni2083" unicode="&#x2083;" horiz-adv-x="363" 
d="M24 213q20 25 57.5 41t85.5 16q72 0 111 -32t39 -84q0 -38 -19 -62t-45 -32q26 -8 45 -32t19 -62q0 -53 -39 -84.5t-111 -31.5q-48 0 -85.5 16.5t-57.5 41.5l62 73q29 -34 81 -34q54 0 54 33q0 15 -14 24t-39 9h-34v94h34q26 1 39.5 9.5t13.5 23.5q0 33 -54 33
q-51 0 -81 -34z" />
    <glyph glyph-name="uni2084" unicode="&#x2084;" horiz-adv-x="426" 
d="M258 270h80v-265h53v-96h-53v-59h-97v59h-213v81zM241 5v95l-76 -95h76z" />
    <glyph glyph-name="uni2085" unicode="&#x2085;" horiz-adv-x="366" 
d="M323 270v-97h-173v-32l15 1q74 0 116 -38t42 -105q0 -70 -42.5 -109.5t-116.5 -39.5q-34 0 -71.5 9.5t-68.5 26.5l39 87q24 -12 50.5 -19t48.5 -7q29 0 46.5 13t17.5 35q0 51 -83 51q-46 0 -90 -9v233h270z" />
    <glyph glyph-name="uni2086" unicode="&#x2086;" horiz-adv-x="365" 
d="M59 -82q-29 49 -29 130q0 98 44 160t138 62q48 0 104 -23l-34 -90q-42 16 -75 16q-32 0 -51.5 -15t-22.5 -37v-1q14 7 30.5 12t30.5 5q58 0 97 -38.5t39 -103.5q0 -66 -40 -105.5t-102 -39.5q-89 0 -129 68zM145 27.5q-14 -12.5 -14 -34.5q0 -21 14.5 -33.5t36.5 -12.5
q23 0 37 12.5t14 33.5t-14 34t-37 13t-37 -12.5z" />
    <glyph glyph-name="uni2087" unicode="&#x2087;" horiz-adv-x="350" 
d="M32 270h289v-78l-181 -342h-108l171 323h-171v97z" />
    <glyph glyph-name="uni2088" unicode="&#x2088;" horiz-adv-x="378" 
d="M85.5 239q39.5 31 103.5 31q63 0 103 -31t40 -83q0 -30 -15.5 -56t-44.5 -40q29 -14 44.5 -40t15.5 -56q0 -52 -40 -83t-103 -31q-64 0 -103.5 31t-39.5 83q0 31 15 56.5t44 39.5q-28 13 -43.5 39.5t-15.5 56.5q0 52 39.5 83zM222.5 164q-12.5 9 -33.5 9t-33.5 -9
t-12.5 -23q0 -15 12.5 -23.5t33.5 -8.5t33.5 8.5t12.5 23.5q0 14 -12.5 23zM222.5 2.5q-12.5 8.5 -33.5 8.5t-33.5 -8.5t-12.5 -23.5q0 -14 12.5 -23t33.5 -9t33.5 9t12.5 23q0 15 -12.5 23.5z" />
    <glyph glyph-name="uni2089" unicode="&#x2089;" horiz-adv-x="370" 
d="M81.5 230q41.5 40 108.5 40q74 0 112 -51q38 -53 38 -149q0 -103 -44 -161.5t-134 -58.5q-52 0 -110 24l33 89q36 -16 78 -16q32 0 50.5 15t22.5 37v1q-20 -9 -31.5 -13t-29.5 -4q-58 0 -96.5 37.5t-38.5 102.5q0 67 41.5 107zM225 160.5q-14 12.5 -37 12.5t-37 -12.5
t-14 -33.5t14 -34t37 -13t37 13t14 34t-14 33.5z" />
    <glyph glyph-name="zero.dnom" horiz-adv-x="485" 
d="M67.5 320.5q26.5 47.5 72.5 73.5t102 26q57 0 103 -26t72.5 -73.5t26.5 -110.5t-26.5 -110.5t-72.5 -73.5t-103 -26q-56 0 -102 26t-72.5 73.5t-26.5 110.5t26.5 110.5zM319 293.5q-29 29.5 -77 29.5q-47 0 -76 -30t-29 -83t29 -83t76 -30q48 0 77 29.5t29 83.5t-29 83.5
z" />
    <glyph glyph-name="one.dnom" horiz-adv-x="319" 
d="M173 420h80v-420h-96v268l-72 -69l-67 70z" />
    <glyph glyph-name="two.dnom" horiz-adv-x="367" 
d="M29 331q20 35 57 62t96 27q66 0 105 -37t39 -98q0 -67 -53 -118l-76 -70h129v-97h-286v76l155 146q17 16 25.5 28.5t8.5 28.5q0 20 -13.5 32t-36.5 12q-26 0 -46 -14.5t-33 -35.5z" />
    <glyph glyph-name="three.dnom" horiz-adv-x="363" 
d="M24 363q20 25 57.5 41t85.5 16q72 0 111 -32t39 -84q0 -38 -19 -62t-45 -32q26 -8 45 -32t19 -62q0 -52 -39 -84t-111 -32q-48 0 -85.5 16.5t-57.5 41.5l62 73q29 -34 81 -34q54 0 54 33q0 15 -14 24t-39 9h-34v94h34q26 1 39.5 9.5t13.5 23.5q0 33 -54 33q-51 0 -81 -34
z" />
    <glyph glyph-name="four.dnom" horiz-adv-x="426" 
d="M258 420h80v-265h53v-96h-53v-59h-97v59h-213v82zM241 155v95l-76 -95h76z" />
    <glyph glyph-name="five.dnom" horiz-adv-x="366" 
d="M323 420v-97h-173v-32l15 1q73 0 115.5 -37t42.5 -106q0 -71 -43.5 -110t-115.5 -39q-38 0 -75.5 11t-64.5 25l39 87q26 -12 52 -19t47 -7q28 0 46 12.5t18 36.5q0 50 -83 50q-33 0 -90 -9v233h270z" />
    <glyph glyph-name="six.dnom" horiz-adv-x="365" 
d="M59 68q-29 51 -29 130q0 98 44 160t138 62q48 0 104 -23l-34 -90q-42 16 -75 16q-32 0 -51.5 -15t-22.5 -37v-1q14 7 30.5 12t30.5 5q58 0 97 -38t39 -103q0 -66 -40 -106t-102 -40q-89 0 -129 68zM218.5 177q-14.5 13 -36.5 13q-23 0 -37 -12.5t-14 -34.5
q0 -21 14.5 -33.5t36.5 -12.5q23 0 37 12.5t14 34.5q0 20 -14.5 33z" />
    <glyph glyph-name="seven.dnom" horiz-adv-x="350" 
d="M32 420h289v-78l-181 -342h-108l171 323h-171v97z" />
    <glyph glyph-name="eight.dnom" horiz-adv-x="378" 
d="M85.5 389q39.5 31 103.5 31q63 0 103 -31t40 -83q0 -30 -15.5 -56t-44.5 -40q29 -14 44.5 -40t15.5 -56q0 -52 -40 -83t-103 -31q-64 0 -103.5 31t-39.5 83q0 31 15 56.5t44 39.5q-28 13 -43.5 39.5t-15.5 56.5q0 52 39.5 83zM222.5 314q-12.5 9 -33.5 9t-33.5 -9
t-12.5 -23q0 -15 12.5 -23.5t33.5 -8.5t33.5 8.5t12.5 23.5q0 14 -12.5 23zM222.5 152.5q-12.5 8.5 -33.5 8.5t-33.5 -8.5t-12.5 -23.5q0 -14 12.5 -23t33.5 -9t33.5 9t12.5 23q0 15 -12.5 23.5z" />
    <glyph glyph-name="nine.dnom" horiz-adv-x="370" 
d="M81.5 380q41.5 40 108.5 40q74 0 112 -51q38 -53 38 -149q0 -103 -44 -161.5t-134 -58.5q-52 0 -110 24l33 89q36 -16 78 -16q32 0 50.5 15t22.5 37v1q-20 -9 -31.5 -13t-29.5 -4q-58 0 -96.5 37.5t-38.5 102.5q0 67 41.5 107zM225 310.5q-14 12.5 -37 12.5t-37 -12.5
t-14 -33.5t14 -34t37 -13t37 13t14 34t-14 33.5z" />
    <glyph glyph-name="zero.numr" horiz-adv-x="485" 
d="M140 306q-46 26 -72.5 73.5t-26.5 110.5t26.5 110.5t72.5 73.5t102 26q57 0 103 -26t72.5 -73.5t26.5 -110.5t-26.5 -110.5t-72.5 -73.5t-103 -26q-56 0 -102 26zM319 406.5q29 29.5 29 83.5t-29 83.5t-77 29.5q-47 0 -76 -30t-29 -83t29 -83t76 -30q48 0 77 29.5z" />
    <glyph glyph-name="one.numr" horiz-adv-x="319" 
d="M173 700h80v-420h-96v268l-72 -69l-67 70z" />
    <glyph glyph-name="two.numr" horiz-adv-x="367" 
d="M40 280v76l155 146q17 16 25.5 28.5t8.5 28.5q0 20 -13.5 32t-36.5 12q-26 0 -46 -14.5t-33 -35.5l-71 58q20 35 57 62t96 27q66 0 105 -37t39 -98q0 -67 -53 -118l-76 -70h129v-97h-286z" />
    <glyph glyph-name="three.numr" horiz-adv-x="363" 
d="M81.5 296.5q-37.5 16.5 -57.5 41.5l62 73q29 -34 81 -34q54 0 54 33q0 15 -14 24t-39 9h-34v94h34q26 1 39.5 9.5t13.5 23.5q0 33 -54 33q-51 0 -81 -34l-62 74q20 25 57.5 41t85.5 16q72 0 111 -32t39 -84q0 -38 -19 -62t-45 -32q26 -8 45 -32t19 -62q0 -52 -39 -84
t-111 -32q-48 0 -85.5 16.5z" />
    <glyph glyph-name="four.numr" horiz-adv-x="426" 
d="M338 280h-97v59h-213v82l230 279h80v-265h53v-96h-53v-59zM241 530l-76 -95h76v95z" />
    <glyph glyph-name="five.numr" horiz-adv-x="366" 
d="M88.5 290.5q-37.5 10.5 -64.5 25.5l39 87q25 -12 51 -19t48 -7q29 0 46.5 13t17.5 36q0 50 -83 50q-35 0 -90 -9v233h270v-97h-173v-32l15 1q73 0 115.5 -37t42.5 -106q0 -70 -43 -109.5t-116 -39.5q-38 0 -75.5 10.5z" />
    <glyph glyph-name="six.numr" horiz-adv-x="365" 
d="M59 348q-29 51 -29 130q0 98 44 160t138 62q48 0 104 -23l-34 -90q-42 16 -75 16q-32 0 -51.5 -15t-22.5 -37v-1q14 7 30.5 12t30.5 5q58 0 97 -38t39 -103q0 -66 -40 -106t-102 -40q-89 0 -129 68zM219 389.5q14 12.5 14 34.5q0 20 -14.5 33t-36.5 13q-23 0 -37 -12.5
t-14 -34.5q0 -21 14.5 -33.5t36.5 -12.5q23 0 37 12.5z" />
    <glyph glyph-name="seven.numr" horiz-adv-x="350" 
d="M140 280h-108l171 323h-171v97h289v-78z" />
    <glyph glyph-name="eight.numr" horiz-adv-x="378" 
d="M85.5 311q-39.5 31 -39.5 83q0 31 15 56.5t44 39.5q-28 13 -43.5 39.5t-15.5 56.5q0 52 39.5 83t103.5 31q63 0 103 -31t40 -83q0 -30 -15.5 -56t-44.5 -40q29 -14 44.5 -40t15.5 -56q0 -52 -40 -83t-103 -31q-64 0 -103.5 31zM222.5 547.5q12.5 8.5 12.5 23.5
q0 14 -12.5 23t-33.5 9t-33.5 -9t-12.5 -23q0 -15 12.5 -23.5t33.5 -8.5t33.5 8.5zM222.5 386q12.5 9 12.5 23q0 15 -12.5 23.5t-33.5 8.5t-33.5 -8.5t-12.5 -23.5q0 -14 12.5 -23t33.5 -9t33.5 9z" />
    <glyph glyph-name="nine.numr" horiz-adv-x="370" 
d="M52 304l33 89q36 -16 78 -16q32 0 50.5 15t22.5 37v1q-20 -9 -31.5 -13t-29.5 -4q-58 0 -96.5 37.5t-38.5 102.5q0 67 41.5 107t108.5 40q74 0 112 -51q38 -53 38 -149q0 -103 -44 -161.5t-134 -58.5q-52 0 -110 24zM225 523q14 13 14 34t-14 33.5t-37 12.5t-37 -12.5
t-14 -33.5t14 -34t37 -13t37 13z" />
    <glyph glyph-name="uni2070" unicode="&#x2070;" horiz-adv-x="485" 
d="M67.5 720.5q26.5 47.5 72.5 73.5t102 26q57 0 103 -26t72.5 -73.5t26.5 -110.5t-26.5 -110.5t-72.5 -73.5t-103 -26q-56 0 -102 26t-72.5 73.5t-26.5 110.5t26.5 110.5zM319 693.5q-29 29.5 -77 29.5q-47 0 -76 -30t-29 -83t29 -83t76 -30q48 0 77 29.5t29 83.5t-29 83.5
z" />
    <glyph glyph-name="uni00B9" unicode="&#xb9;" horiz-adv-x="319" 
d="M173 820h80v-420h-96v268l-72 -69l-67 70z" />
    <glyph glyph-name="uni00B2" unicode="&#xb2;" horiz-adv-x="367" 
d="M29 731q20 35 57 62t96 27q66 0 105 -37t39 -98q0 -67 -53 -118l-76 -70h129v-97h-286v76l155 146q17 16 25.5 28.5t8.5 28.5q0 20 -13.5 32t-36.5 12q-26 0 -46 -14.5t-33 -35.5z" />
    <glyph glyph-name="uni00B3" unicode="&#xb3;" horiz-adv-x="363" 
d="M24 763q20 25 57.5 41t85.5 16q72 0 111 -32t39 -84q0 -38 -19 -62t-45 -32q26 -8 45 -32t19 -62q0 -52 -39 -84t-111 -32q-48 0 -85.5 16.5t-57.5 41.5l62 73q29 -34 81 -34q54 0 54 33q0 15 -14 24t-39 9h-34v94h34q26 1 39.5 9.5t13.5 23.5q0 33 -54 33q-51 0 -81 -34
z" />
    <glyph glyph-name="uni2074" unicode="&#x2074;" horiz-adv-x="426" 
d="M258 820h80v-265h53v-96h-53v-59h-97v59h-213v82zM241 555v95l-76 -95h76z" />
    <glyph glyph-name="uni2075" unicode="&#x2075;" horiz-adv-x="366" 
d="M323 820v-97h-173v-32l15 1q74 0 116 -38t42 -105q0 -70 -42.5 -109.5t-116.5 -39.5q-34 0 -71.5 9.5t-68.5 26.5l39 87q24 -12 50.5 -19t48.5 -7q29 0 46.5 13.5t17.5 35.5q0 50 -83 50q-47 0 -90 -9v233h270z" />
    <glyph glyph-name="uni2076" unicode="&#x2076;" horiz-adv-x="365" 
d="M59 468q-29 51 -29 130q0 98 44 160t138 62q48 0 104 -23l-34 -90q-42 16 -75 16q-32 0 -51.5 -15t-22.5 -37v-1q14 7 30.5 12t30.5 5q58 0 97 -38t39 -103q0 -66 -40 -106t-102 -40q-89 0 -129 68zM145 577.5q-14 -12.5 -14 -34.5q0 -21 14.5 -33.5t36.5 -12.5
q23 0 37 12.5t14 34.5q0 20 -14.5 33t-36.5 13q-23 0 -37 -12.5z" />
    <glyph glyph-name="uni2077" unicode="&#x2077;" horiz-adv-x="350" 
d="M32 820h289v-78l-181 -342h-108l171 323h-171v97z" />
    <glyph glyph-name="uni2078" unicode="&#x2078;" horiz-adv-x="378" 
d="M85.5 789q39.5 31 103.5 31q63 0 103 -31t40 -83q0 -30 -15.5 -56t-44.5 -40q29 -14 44.5 -40t15.5 -56q0 -52 -40 -83t-103 -31q-64 0 -103.5 31t-39.5 83q0 31 15 56.5t44 39.5q-28 13 -43.5 39.5t-15.5 56.5q0 52 39.5 83zM222.5 714q-12.5 9 -33.5 9t-33.5 -9
t-12.5 -23q0 -15 12.5 -23.5t33.5 -8.5t33.5 8.5t12.5 23.5q0 14 -12.5 23zM222.5 552.5q-12.5 8.5 -33.5 8.5t-33.5 -8.5t-12.5 -23.5q0 -14 12.5 -23t33.5 -9t33.5 9t12.5 23q0 15 -12.5 23.5z" />
    <glyph glyph-name="uni2079" unicode="&#x2079;" horiz-adv-x="370" 
d="M81.5 780q41.5 40 108.5 40q74 0 112 -51q38 -53 38 -149q0 -103 -44 -161.5t-134 -58.5q-52 0 -110 24l33 89q36 -16 78 -16q32 0 50.5 15t22.5 37v1q-20 -9 -31.5 -13t-29.5 -4q-58 0 -96.5 37.5t-38.5 102.5q0 67 41.5 107zM225 710.5q-14 12.5 -37 12.5t-37 -12.5
t-14 -33.5t14 -34t37 -13t37 13t14 34t-14 33.5z" />
    <glyph glyph-name="colon.case" horiz-adv-x="325" 
d="M230.5 528.5q27.5 -27.5 27.5 -67.5t-27.5 -67.5t-68.5 -27.5q-40 0 -67 27t-27 68t27 68t67 27q41 0 68.5 -27.5zM230.5 206.5q27.5 -27.5 27.5 -67.5t-27.5 -67.5t-68.5 -27.5q-40 0 -67 27t-27 68t27 68t67 27q41 0 68.5 -27.5z" />
    <glyph glyph-name="semicolon.case" horiz-adv-x="404" 
d="M307 529q27 -27 27 -68q0 -40 -27 -67.5t-68 -27.5q-40 0 -67.5 27.5t-27.5 67.5q0 41 27.5 68t67.5 27q41 0 68 -27zM293 130l-184 -330l-103 55l184 332z" />
    <glyph glyph-name="exclamdown.case" horiz-adv-x="362" 
d="M114.5 537.5q-27.5 27.5 -27.5 67.5q0 41 27.5 68t67.5 27q41 0 68 -27t27 -68q0 -40 -27 -67.5t-68 -27.5q-40 0 -67.5 27.5zM112 0v458h140v-458h-140z" />
    <glyph glyph-name="questiondown.case" horiz-adv-x="535" 
d="M219.5 537.5q-27.5 27.5 -27.5 67.5q0 41 27.5 68t67.5 27q41 0 68 -27t27 -68q0 -40 -27 -67.5t-68 -27.5q-40 0 -67.5 27.5zM362 431q0 -49 -25.5 -82.5t-71.5 -69.5q-28 -21 -42 -37.5t-14 -37.5q0 -28 17.5 -46t52.5 -18q39 0 59.5 22t20.5 64h137q0 -108 -59 -167
t-161 -59q-64 0 -111 25t-72 69.5t-25 101.5q0 54 20.5 88t59.5 68q7 7 16 13q31 27 44.5 45t13.5 47v12h140v-38z" />
    <glyph glyph-name="periodcentered.loclCAT.case" horiz-adv-x="0" 
d="M-193 349q-26 26 -26 65t26 65t65 26t65 -26t26 -65t-26 -65t-65 -26t-65 26z" />
    <glyph glyph-name="periodcentered.loclCAT" horiz-adv-x="152" 
d="M11 310q-26 26 -26 65t26 65t65 26t65 -26t26 -65t-26 -65t-65 -26t-65 26z" />
    <glyph glyph-name="uni208D" unicode="&#x208d;" horiz-adv-x="242" 
d="M74.5 200.5q29.5 72.5 85.5 129.5l65 -57q-45 -53 -68.5 -107t-23.5 -121q0 -132 91 -243l-65 -56q-54 57 -84 138t-30 161q0 83 29.5 155.5z" />
    <glyph glyph-name="uni208E" unicode="&#x208e;" horiz-adv-x="242" 
d="M82 330q56 -57 85.5 -129.5t29.5 -155.5q0 -80 -30 -161t-84 -138l-65 56q91 111 91 243q0 67 -23.5 120.5t-67.5 107.5z" />
    <glyph glyph-name="uni207D" unicode="&#x207d;" horiz-adv-x="242" 
d="M74.5 750.5q29.5 72.5 85.5 129.5l65 -57q-45 -53 -68.5 -107t-23.5 -121q0 -132 91 -243l-65 -55q-54 56 -84 136.5t-30 161.5q0 83 29.5 155.5z" />
    <glyph glyph-name="uni207E" unicode="&#x207e;" horiz-adv-x="242" 
d="M82 880q56 -57 85.5 -129.5t29.5 -155.5q0 -81 -30 -161.5t-84 -136.5l-65 55q91 111 91 243q0 67 -23.5 120.5t-67.5 107.5z" />
    <glyph glyph-name="parenleft.case" horiz-adv-x="358" 
d="M122.5 604.5q49.5 121.5 141.5 215.5l92 -81q-76 -90 -115 -183.5t-39 -210.5q0 -228 154 -410l-93 -82q-90 94 -140 226t-50 266q0 138 49.5 259.5z" />
    <glyph glyph-name="parenright.case" horiz-adv-x="358" 
d="M94 819q93 -94 142.5 -215.5t49.5 -259.5q0 -135 -50.5 -266t-140.5 -225l-92 81q154 183 154 410q0 118 -39.5 211.5t-115.5 182.5z" />
    <glyph glyph-name="braceleft.case" horiz-adv-x="368" 
d="M368 801v-116h-46q-26 0 -42 -14t-16 -40v-160q0 -94 -80 -115q80 -21 80 -111v-169q0 -26 16 -40t42 -14h46v-116h-47q-178 0 -178 159v159q0 34 -24.5 50.5t-80.5 17.5v121q105 3 105 76v154q0 158 178 158h47z" />
    <glyph glyph-name="braceright.case" horiz-adv-x="368" 
d="M47 801q178 0 178 -158v-154q0 -73 106 -76v-121q-56 -1 -81 -17.5t-25 -50.5v-159q0 -159 -178 -159h-47v116h46q26 0 42 14t16 40v169q0 90 80 111q-80 21 -80 115v160q0 26 -16 40t-42 14h-46v116h47z" />
    <glyph glyph-name="bracketleft.case" horiz-adv-x="338" 
d="M98 791h240v-115h-119v-665h119v-115h-240v895z" />
    <glyph glyph-name="bracketright.case" horiz-adv-x="338" 
d="M0 791h241v-895h-241v115h119v665h-119v115z" />
    <glyph glyph-name="hyphen.case" horiz-adv-x="601" 
d="M68 420h466v-140h-466v140z" />
    <glyph glyph-name="endash.case" horiz-adv-x="898" 
d="M68 420h763v-140h-763v140z" />
    <glyph glyph-name="emdash.case" horiz-adv-x="1309" 
d="M68 420h1174v-140h-1174v140z" />
    <glyph glyph-name="guillemotleft.case" horiz-adv-x="646" 
d="M50 310l224 238l88 -80l-150 -158l150 -158l-88 -79zM310 310l224 238l88 -80l-150 -158l150 -158l-88 -79z" />
    <glyph glyph-name="guillemotright.case" horiz-adv-x="646" 
d="M336 310l-225 -237l-87 79l150 158l-150 158l87 80zM596 310l-225 -237l-87 79l150 158l-150 158l87 80z" />
    <glyph glyph-name="guilsinglleft.case" horiz-adv-x="386" 
d="M50 310l224 238l88 -80l-150 -158l150 -158l-88 -79z" />
    <glyph glyph-name="guilsinglright.case" horiz-adv-x="386" 
d="M336 310l-225 -237l-87 79l150 158l-150 158l87 80z" />
    <glyph glyph-name="parenleft.dnom" horiz-adv-x="242" 
d="M74.5 350.5q29.5 72.5 85.5 129.5l65 -57q-45 -53 -68.5 -107t-23.5 -121q0 -132 91 -243l-65 -56q-54 57 -84 138t-30 161q0 83 29.5 155.5z" />
    <glyph glyph-name="parenright.dnom" horiz-adv-x="242" 
d="M167 34q-30 -81 -84 -138l-65 56q91 111 91 243q0 67 -23.5 120.5t-67.5 107.5l64 57q56 -57 85.5 -129.5t29.5 -155.5q0 -80 -30 -161z" />
    <glyph glyph-name="parenleft.numr" horiz-adv-x="242" 
d="M159 177q-54 56 -84 136.5t-30 161.5q0 83 29.5 155.5t85.5 129.5l65 -57q-45 -53 -68.5 -107t-23.5 -121q0 -132 91 -243z" />
    <glyph glyph-name="parenright.numr" horiz-adv-x="242" 
d="M82 760q56 -57 85.5 -129.5t29.5 -155.5q0 -81 -30 -161.5t-84 -136.5l-65 55q91 111 91 243q0 67 -23.5 120.5t-67.5 107.5z" />
    <glyph glyph-name="uni2003" unicode="&#x2003;" horiz-adv-x="1000" 
 />
    <glyph glyph-name="uni2002" unicode="&#x2002;" horiz-adv-x="500" 
 />
    <glyph glyph-name="uni2005" unicode="&#x2005;" horiz-adv-x="250" 
 />
    <glyph glyph-name="uni200A" unicode="&#x200a;" horiz-adv-x="75" 
 />
    <glyph glyph-name="uni00A0" unicode="&#xa0;" horiz-adv-x="284" 
 />
    <glyph glyph-name="uni2009" unicode="&#x2009;" horiz-adv-x="135" 
 />
    <glyph glyph-name="uni2004" unicode="&#x2004;" horiz-adv-x="333" 
 />
    <glyph glyph-name="uni0E3F" unicode="&#xe3f;" horiz-adv-x="632" 
d="M353 0v-80h-44v80h-219v700h219v80h44v-80h20q65 0 112 -25.5t72 -70t25 -101.5q0 -54 -23 -93.5t-64 -59.5q41 -21 64 -60.5t23 -92.5q0 -57 -25 -101.5t-72 -70t-112 -25.5h-20zM230 420h79v140h-79v-140zM353 560v-140h17q32 0 52 20t20 52q0 31 -19 49.5t-53 18.5
h-17zM230 140h79v140h-79v-140zM353 280v-140h17q34 0 53 18.5t19 49.5q0 33 -20 52.5t-52 19.5h-17z" />
    <glyph glyph-name="uni20BA" unicode="&#x20ba;" horiz-adv-x="668" 
d="M288 140q60 0 108 27t75 75t27 108h140q0 -99 -45.5 -179t-125.5 -125.5t-179 -45.5h-140v285l-98 -30v75l98 30v60l-98 -30v75l98 30v205h140v-162l188 58v-74l-188 -58v-61l188 58v-74l-188 -58v-189z" />
    <glyph glyph-name="uni20BD" unicode="&#x20bd;" horiz-adv-x="675" 
d="M296 138v-138h-140v138h-85v72h85v42h-86v140h86v308h257q67 0 120 -29t82.5 -80.5t29.5 -114.5t-29.5 -114.5t-82.5 -80.5t-120 -29h-117v-42h229v-72h-229zM413 392q44 0 68 23.5t24 60.5t-24 60.5t-68 23.5h-117v-168h117z" />
    <glyph glyph-name="uni20B9" unicode="&#x20b9;" horiz-adv-x="638" 
d="M439 628q49 -50 59 -119h98l-52 -72h-45q-7 -57 -38.5 -103t-80 -72.5t-105.5 -26.5h-8l244 -235h-195l-245 234l-1 140h197q33 0 57 17t32 46h-286v72h281q-11 24 -33 37.5t-51 13.5h-197v140h538l-50 -72h-119z" />
    <glyph glyph-name="uni0E3F.tf" 
d="M332 0v-80h-44v80h-220v700h220v80h44v-80h30q65 0 112 -25.5t72 -70t25 -101.5q0 -54 -23 -93.5t-64 -59.5q41 -21 64 -60.5t23 -92.5q0 -57 -25 -101.5t-72 -70t-112 -25.5h-30zM208 420h80v140h-80v-140zM332 560v-140h27q32 0 52 20t20 52q0 31 -19 49.5t-53 18.5
h-27zM208 140h80v140h-80v-140zM332 280v-140h27q34 0 53 18.5t19 49.5q0 33 -20 52.5t-52 19.5h-27z" />
    <glyph glyph-name="uni20BA.tf" 
d="M264 140q60 0 108 27t75 75t27 108h140q0 -99 -45.5 -179t-125.5 -125.5t-179 -45.5h-140v280l-98 -31v93l98 30v62l-98 -31v93l98 30v174h140v-131l188 59v-93l-188 -58v-61l188 58v-93l-188 -58v-183z" />
    <glyph glyph-name="uni20BD.tf" 
d="M252 120v-120h-140v120h-73v90h73v42h-74v140h74v308h257q67 0 120.5 -29t83 -80.5t29.5 -114.5t-29.5 -114.5t-83 -80.5t-120.5 -29h-117v-42h223v-90h-223zM369 392q44 0 68.5 23.5t24.5 60.5t-24.5 60.5t-68.5 23.5h-117v-168h117z" />
    <glyph glyph-name="uni20B9.tf" 
d="M428 628q49 -50 59 -119h98l-52 -72h-45q-7 -57 -38.5 -103t-79.5 -72.5t-105 -26.5h-21l256 -235h-195l-260 234l-1 140h213q33 0 56.5 17t31.5 46h-301v72h296q-11 24 -32.5 37.5t-50.5 13.5h-213v140h553l-50 -72h-119z" />
    <glyph glyph-name="uni208C" unicode="&#x208c;" horiz-adv-x="440" 
d="M50 153h341v-96h-341v96zM50 8h341v-97h-341v97z" />
    <glyph glyph-name="uni207C" unicode="&#x207c;" horiz-adv-x="440" 
d="M50 703h341v-96h-341v96zM50 558h341v-97h-341v97z" />
    <glyph glyph-name="uni208B" unicode="&#x208b;" horiz-adv-x="440" 
d="M50 90h340v-96h-340v96z" />
    <glyph glyph-name="uni207B" unicode="&#x207b;" horiz-adv-x="440" 
d="M50 640h340v-96h-340v96z" />
    <glyph glyph-name="uni2126" unicode="&#x2126;" horiz-adv-x="775" 
d="M32 0v113h121q-55 52 -85 115.5t-30 144.5q0 100 45.5 177t125 119.5t179.5 42.5t179.5 -42.5t125 -119.5t45.5 -177q0 -81 -30.5 -144t-85.5 -116h122v-113h-320v113q81 51 126.5 111.5t45.5 142.5q0 63 -27.5 110.5t-74.5 72.5t-106 25t-106.5 -25t-75 -72.5
t-27.5 -110.5q0 -82 45.5 -142.5t126.5 -111.5v-113h-319z" />
    <glyph glyph-name="uni208A" unicode="&#x208a;" horiz-adv-x="440" 
d="M171 208h98v-118h117v-96h-117v-118h-98v118h-117v96h117v118z" />
    <glyph glyph-name="uni207A" unicode="&#x207a;" horiz-adv-x="440" 
d="M171 758h98v-118h117v-96h-117v-118h-98v118h-117v96h117v118z" />
    <glyph glyph-name="plus.case" 
d="M250 606h140v-199h200v-140h-200v-200h-140v200h-200v140h200v199z" />
    <glyph glyph-name="minus.case" 
d="M53 407h534v-140h-534v140z" />
    <glyph glyph-name="multiply.case" 
d="M320 434l160 162l99 -99l-161 -161l161 -160l-99 -98l-160 161l-161 -161l-98 98l161 160l-161 161l98 98z" />
    <glyph glyph-name="divide.case" 
d="M249 479q-27 27 -27 67q0 41 27 68t67 27q41 0 68 -26.5t27 -68.5q0 -40 -27 -67t-68 -27q-40 0 -67 27zM604 267h-568v140h568v-140zM249 65q-27 27 -27 67q0 41 27 68t67 27q41 0 68 -27t27 -68q0 -40 -27 -67t-68 -27q-40 0 -67 27z" />
    <glyph glyph-name="equal.case" 
d="M48 504h544v-140h-544v140zM48 271h544v-140h-544v140z" />
    <glyph glyph-name="notequal.case" 
d="M592 131h-317l-72 -127l-101 55l40 72h-94v140h173l51 93h-224v140h303l68 121l105 -54l-37 -67h105v-140h-185l-53 -93h238v-140z" />
    <glyph glyph-name="greater.case" 
d="M123 611l450 -190v-157l-450 -191l-57 137l333 133l-333 132z" />
    <glyph glyph-name="less.case" 
d="M66 421l450 190l57 -136l-333 -132l333 -133l-57 -137l-450 191v157z" />
    <glyph glyph-name="greaterequal.case" 
d="M97 655l487 -145v-156l-487 -145l-40 145l306 78l-306 78zM52 178h534v-139h-534v139z" />
    <glyph glyph-name="lessequal.case" 
d="M56 510l488 145l39 -145l-306 -78l306 -78l-39 -145l-488 145v156zM54 178h534v-139h-534v139z" />
    <glyph glyph-name="plusminus.case" 
d="M251 648h138v-110h201v-139h-201v-111h-138v111h-201v139h201v110zM50 229h540v-139h-540v139z" />
    <glyph glyph-name="approxequal.case" 
d="M34 457q46 42 88 64.5t91 22.5q34 0 64 -11t68 -31q29 -15 48 -22.5t37 -7.5q44 0 102 52l73 -106q-46 -42 -87.5 -65t-90.5 -23q-33 0 -59.5 10t-61.5 29q-30 16 -51.5 24.5t-45.5 8.5q-43 0 -102 -53zM34 217q47 42 88.5 64t90.5 22q34 0 64 -11t68 -31
q29 -15 48 -22.5t37 -7.5q43 0 102 53l73 -106q-46 -43 -87.5 -66t-90.5 -23q-33 0 -59.5 10t-61.5 29q-29 17 -51 25.5t-46 8.5q-43 0 -102 -53z" />
    <glyph glyph-name="logicalnot.case" 
d="M56 482h527v-319h-140v179h-387v140z" />
    <glyph glyph-name="arrowup" unicode="&#x2191;" horiz-adv-x="787" 
d="M69 359l325 359l325 -359l-98 -94l-160 175v-440h-134v440l-161 -175z" />
    <glyph glyph-name="uni2197" unicode="&#x2197;" horiz-adv-x="700" 
d="M481 375l-317 -317l-95 95l317 317l-238 -10l-3 135l486 25l-25 -485l-136 2z" />
    <glyph glyph-name="arrowright" unicode="&#x2192;" horiz-adv-x="863" 
d="M341 522l94 97l359 -325l-359 -325l-94 98l175 160h-447v134h447z" />
    <glyph glyph-name="uni2198" unicode="&#x2198;" horiz-adv-x="700" 
d="M69 542l95 95l317 -317l-11 238l136 2l25 -485l-486 24l3 136l238 -10z" />
    <glyph glyph-name="arrowdown" unicode="&#x2193;" horiz-adv-x="787" 
d="M327 699h134v-440l160 175l98 -94l-325 -359l-325 359l97 94l161 -175v440z" />
    <glyph glyph-name="uni2199" unicode="&#x2199;" horiz-adv-x="700" 
d="M219 320l317 317l95 -95l-317 -317l238 10l2 -136l-485 -24l25 485l135 -2z" />
    <glyph glyph-name="arrowleft" unicode="&#x2190;" horiz-adv-x="863" 
d="M69 294l359 325l94 -97l-175 -161h447v-134h-447l175 -160l-94 -98z" />
    <glyph glyph-name="uni2196" unicode="&#x2196;" horiz-adv-x="700" 
d="M631 153l-95 -95l-317 317l10 -238l-135 -2l-25 485l485 -25l-2 -135l-238 10z" />
    <glyph glyph-name="arrowboth" unicode="&#x2194;" horiz-adv-x="1281" 
d="M778 522l94 97l359 -325l-359 -325l-94 98l175 160h-625l176 -160l-94 -98l-360 325l360 325l94 -97l-176 -161h625z" />
    <glyph glyph-name="arrowupdn" unicode="&#x2195;" horiz-adv-x="750" 
d="M642 64l-272 -277l-271 277l95 97l109 -112v402l-109 -113l-95 98l271 276l272 -276l-95 -98l-109 113v-402l109 112z" />
    <glyph glyph-name="arrowup.case" horiz-adv-x="787" 
d="M69 369l325 359l325 -359l-98 -94l-160 175v-440h-134v440l-161 -175z" />
    <glyph glyph-name="uni2197.case" horiz-adv-x="699" 
d="M480 395l-317 -318l-95 95l317 318l-238 -11l-2 136l485 24l-25 -485l-135 2z" />
    <glyph glyph-name="arrowright.case" horiz-adv-x="863" 
d="M341 588l94 97l359 -324l-359 -325l-94 97l175 161h-447v134h447z" />
    <glyph glyph-name="uni2198.case" horiz-adv-x="698" 
d="M605 586l25 -485l-485 25l2 135l238 -10l-317 317l95 95l317 -317l-10 238z" />
    <glyph glyph-name="arrowdown.case" horiz-adv-x="787" 
d="M719 340l-325 -359l-325 359l97 94l161 -175v440h134v-440l160 175z" />
    <glyph glyph-name="uni2199.case" horiz-adv-x="698" 
d="M554 124l-485 -24l25 485l135 -2l-10 -238l317 317l95 -95l-317 -317l238 10z" />
    <glyph glyph-name="arrowleft.case" horiz-adv-x="863" 
d="M69 361l359 324l94 -97l-175 -160h447v-134h-447l175 -161l-94 -97z" />
    <glyph glyph-name="uni2196.case" horiz-adv-x="698" 
d="M630 161l-95 -95l-317 317l11 -238l-136 -3l-25 486l486 -25l-3 -136l-238 11z" />
    <glyph glyph-name="circle" unicode="&#x25cb;" horiz-adv-x="824" 
d="M97 535q47 83 129.5 130t185.5 47t185.5 -47t129.5 -130t47 -185t-47 -185t-129.5 -130t-185.5 -47t-185.5 47t-129.5 130t-47 185t47 185zM652 492.5q-35 62.5 -97.5 97.5t-142.5 35q-79 0 -141.5 -35t-97.5 -97.5t-35 -142.5t35 -142t97 -97t142 -35t142.5 35t97.5 97
t35 142t-35 142.5z" />
    <glyph glyph-name="at.case" horiz-adv-x="965" 
d="M270 -4.5q-96 54.5 -148 148t-52 208.5q0 113 51.5 206.5t147.5 148.5t224 55q121 0 212 -46.5t140.5 -129t49.5 -185.5q0 -78 -24.5 -137t-69 -91t-102.5 -32q-45 0 -72 19t-39 58q-22 -35 -56.5 -56t-80.5 -21q-63 0 -102.5 38.5t-39.5 94.5q0 54 37 86.5t91 38.5
l116 12q0 32 -16 46.5t-51 14.5q-31 0 -55.5 -13t-35.5 -41l-83 52q21 48 65.5 74.5t111.5 26.5q87 0 130 -44t43 -119v-120q0 -45 36 -45t56 40.5t20 109.5q0 70 -32 127.5t-95.5 92t-154.5 34.5q-95 0 -163 -39t-103 -106t-35 -150q0 -86 36 -153.5t104.5 -105.5
t161.5 -38q96 0 192 30l14 -112q-98 -32 -206 -32q-127 0 -223 54.5zM528 259q26 21 26 56v13l-95 -13q-18 -2 -29 -13t-11 -27t12 -26.5t36 -10.5q35 0 61 21z" />
    <glyph glyph-name="bar.case" horiz-adv-x="322" 
d="M100 801h122v-895h-122v895z" />
    <glyph glyph-name="brokenbar.case" horiz-adv-x="322" 
d="M100 801h122v-388h-122v388zM100 324h122v-418h-122v418z" />
    <glyph glyph-name="bar.tf" horiz-adv-x="320" 
d="M99 761h122v-895h-122v895z" />
    <glyph glyph-name="plus.dnom" horiz-adv-x="440" 
d="M171 358h98v-118h117v-96h-117v-118h-98v118h-117v96h117v118z" />
    <glyph glyph-name="minus.dnom" horiz-adv-x="440" 
d="M50 240h340v-96h-340v96z" />
    <glyph glyph-name="equal.dnom" horiz-adv-x="440" 
d="M50 303h341v-96h-341v96zM50 158h341v-97h-341v97z" />
    <glyph glyph-name="plus.numr" horiz-adv-x="440" 
d="M171 638h98v-118h117v-96h-117v-118h-98v118h-117v96h117v118z" />
    <glyph glyph-name="minus.numr" horiz-adv-x="440" 
d="M50 520h340v-96h-340v96z" />
    <glyph glyph-name="equal.numr" horiz-adv-x="440" 
d="M50 583h341v-96h-341v96zM50 438h341v-97h-341v97z" />
    <glyph glyph-name="uni0308" unicode="&#x308;" horiz-adv-x="0" 
d="M-389.5 699.5q22.5 22.5 55.5 22.5t55.5 -22.5t22.5 -55.5t-22.5 -55.5t-55.5 -22.5t-55.5 22.5t-22.5 55.5t22.5 55.5zM-183.5 699.5q22.5 22.5 55.5 22.5t55.5 -22.5t22.5 -55.5t-22.5 -55.5t-55.5 -22.5t-55.5 22.5t-22.5 55.5t22.5 55.5z" />
    <glyph glyph-name="uni0307" unicode="&#x307;" horiz-adv-x="0" 
d="M-195 583q-24 24 -24 60q0 37 24 61t60 24q37 0 61 -24t24 -61q0 -36 -24 -60t-61 -24q-36 0 -60 24z" />
    <glyph glyph-name="gravecomb" unicode="&#x300;" horiz-adv-x="0" 
d="M-333 675l59 93l224 -136l-58 -93z" />
    <glyph glyph-name="acutecomb" unicode="&#x301;" horiz-adv-x="0" 
d="M-333 631l225 136l58 -92l-225 -136z" />
    <glyph glyph-name="uni030B" unicode="&#x30b;" horiz-adv-x="0" 
d="M-429 614l127 181l88 -64l-131 -175zM-251 598l128 181l88 -63l-130 -176z" />
    <glyph glyph-name="uni0302" unicode="&#x302;" horiz-adv-x="0" 
d="M-420 611l185 157l185 -157l-69 -73l-116 100l-117 -100z" />
    <glyph glyph-name="uni030C" unicode="&#x30c;" horiz-adv-x="0" 
d="M-235 662l116 107l67 -71l-183 -159l-184 159l67 71z" />
    <glyph glyph-name="uni0306" unicode="&#x306;" horiz-adv-x="0" 
d="M-50 719q0 -72 -42.5 -117t-114.5 -45t-114 45t-42 117h102q0 -28 14 -44.5t40 -16.5q27 0 41 16.5t14 44.5h102z" />
    <glyph glyph-name="uni030A" unicode="&#x30a;" horiz-adv-x="0" 
d="M-276 777.5q38 37.5 94 37.5t94 -37.5t38 -94.5t-38 -94.5t-94 -37.5t-94 37.5t-38 94.5t38 94.5zM-145.5 719.5q-14.5 14.5 -36.5 14.5q-23 0 -37 -14t-14 -37q0 -22 14.5 -36.5t36.5 -14.5t36.5 14.5t14.5 36.5t-14.5 36.5z" />
    <glyph glyph-name="tildecomb" unicode="&#x303;" horiz-adv-x="0" 
d="M-214.5 558.5q-16.5 6.5 -43.5 19.5q-13 7 -26.5 12.5t-23.5 5.5q-15 0 -29.5 -10.5t-36.5 -31.5l-65 68q30 34 61.5 56t67.5 22q19 0 35.5 -6.5t43.5 -19.5q13 -7 26.5 -12.5t23.5 -5.5q15 0 29.5 10.5t36.5 31.5l65 -68q-30 -34 -61.5 -56t-67.5 -22q-19 0 -35.5 6.5z
" />
    <glyph glyph-name="uni0304" unicode="&#x304;" horiz-adv-x="0" 
d="M-350 695h300v-99h-300v99z" />
    <glyph glyph-name="uni0312" unicode="&#x312;" horiz-adv-x="0" 
d="M-198.5 566q-23.5 23 -23.5 56q0 25 15 45l90 143l67 -43l-52 -78q18 -10 28.5 -28t10.5 -39q0 -33 -23 -56t-56 -23t-56.5 23z" />
    <glyph glyph-name="dotbelowcomb" unicode="&#x323;" horiz-adv-x="0" 
d="M-196 -184q-24 24 -24 60q0 37 24 61t60 24q37 0 61 -24t24 -61q0 -36 -24 -60t-61 -24q-36 0 -60 24z" />
    <glyph glyph-name="uni0326" unicode="&#x326;" horiz-adv-x="0" 
d="M-146 -227l-53 34l34 46q-16 8 -26 24t-10 35q0 28 19.5 47t47.5 19t47.5 -19t19.5 -47q0 -18 -15 -43z" />
    <glyph glyph-name="uni0327" unicode="&#x327;" horiz-adv-x="0" 
d="M-110 18q60 -50 60 -108q0 -48 -31.5 -77t-84.5 -29q-36 0 -83 18v103q21 -6 38 -10.5t28 -4.5q23 0 23 22q0 36 -53 86h103z" />
    <glyph glyph-name="uni0328" unicode="&#x328;" horiz-adv-x="0" 
d="M-73 3q-27 -19 -42.5 -39.5t-15.5 -35.5q0 -25 28 -25q11 0 53 8v-96q-41 -11 -73 -11q-53 0 -83 25t-30 69q0 62 94 131z" />
    <glyph glyph-name="uni0308.case" horiz-adv-x="0" 
d="M-389.5 751q-22.5 22 -22.5 56q0 33 22.5 55.5t55.5 22.5t55.5 -22.5t22.5 -55.5q0 -34 -22.5 -56t-55.5 -22t-55.5 22zM-183.5 751q-22.5 22 -22.5 56q0 33 22.5 55.5t55.5 22.5t55.5 -22.5t22.5 -55.5q0 -34 -22.5 -56t-55.5 -22t-55.5 22z" />
    <glyph glyph-name="uni0307.case" horiz-adv-x="0" 
d="M-195 746q-24 24 -24 60t24 60t60 24t60.5 -24t24.5 -60t-24.5 -60t-60.5 -24t-60 24z" />
    <glyph glyph-name="gravecomb.case" horiz-adv-x="0" 
d="M-68 803l-59 -93l-225 137l59 92z" />
    <glyph glyph-name="acutecomb.case" horiz-adv-x="0" 
d="M-35 846l-225 -136l-59 92l225 136z" />
    <glyph glyph-name="uni030B.case" horiz-adv-x="0" 
d="M-235 857l-125 -132l-84 58l121 138zM-56 841l-124 -132l-85 58l121 137z" />
    <glyph glyph-name="uni0302.case" horiz-adv-x="0" 
d="M-242 813l-116 -100l-68 73l184 157l185 -157l-68 -73z" />
    <glyph glyph-name="uni030C.case" horiz-adv-x="0" 
d="M-56 882l-185 -157l-185 157l69 73l116 -100l117 100z" />
    <glyph glyph-name="uni0306.case" horiz-adv-x="0" 
d="M-321 777q-42 45 -42 117h102q0 -28 14 -44.5t40 -16.5q27 0 41 16.5t14 44.5h102q0 -72 -42.5 -117t-114.5 -45t-114 45z" />
    <glyph glyph-name="uni030A.case" horiz-adv-x="0" 
d="M-276 656.5q-38 37.5 -38 94.5t38 95t94 38t94 -38t38 -95t-38 -94.5t-94 -37.5t-94 37.5zM-145.5 714.5q14.5 14.5 14.5 36.5t-14.5 37t-36.5 15t-36.5 -14.5t-14.5 -37.5q0 -22 14.5 -36.5t36.5 -14.5t36.5 14.5z" />
    <glyph glyph-name="tildecomb.case" horiz-adv-x="0" 
d="M-214.5 737.5q-16.5 6.5 -43.5 19.5q-13 7 -26.5 12.5t-23.5 5.5q-15 0 -29.5 -10.5t-36.5 -31.5l-65 67q69 79 129 79q20 0 37 -6.5t42 -19.5q4 -2 20.5 -10t29.5 -8q15 0 30.5 11t35.5 31l65 -68q-31 -36 -64 -57t-64 -21q-20 0 -36.5 6.5z" />
    <glyph glyph-name="uni0304.case" horiz-adv-x="0" 
d="M-50 755h-300v99h300v-99z" />
    </font>
</defs>
</svg>
