<svg xmlns="http://www.w3.org/2000/svg">
<defs>
<font id="GTHaptikZS-Regular" horiz-adv-x="640" >
  <font-face 
    font-family="GT Haptik ZS"
    font-weight="400"
    font-stretch="normal"
    units-per-em="1000"
    panose-1="0 0 5 0 0 0 0 0 0 0"
    ascent="800"
    descent="-200"
    x-height="500"
    cap-height="700"
    bbox="-402 -251 1318 928"
    underline-thickness="50"
    underline-position="-100"
    unicode-range="U+000D-FB02"
  />
<missing-glyph horiz-adv-x="885" 
d="M80.5 702q10.5 10 26.5 10q15 0 26 -10.5t11 -25.5q0 -10 -4.5 -19.5t-13.5 -14.5v-24q42 17 90 29.5t86 12.5q42 0 73 -21.5t31 -61.5v-25q55 12 102 12q59 0 98.5 -19t39.5 -64v-48q48 12 77 12q59 0 85.5 -21.5t26.5 -57.5v-240q-52 32 -112 32q-19 0 -57 -10
q-40 -10 -61 -10q-23 0 -35.5 12t-12.5 34v86q-23 5 -49 5q-28 0 -69 -9q-5 -1 -29 -5t-46 -4t-35 12.5t-13 33.5v68h-14q-62 0 -176 -44v-327h-39v643q-8 5 -12.5 14t-4.5 19q0 16 10.5 26zM377 577q0 28 -22.5 41.5t-52.5 13.5q-35 0 -83.5 -13.5t-92.5 -31.5v-230
q110 42 176 42q44 0 75 -14v192zM297 580h34l-64 -95v-68h-30v68l-65 95h34l46 -64zM618 474q0 26 -20 44t-91 18q-39 0 -101 -12v-171q0 -12 -8.5 -18t-26.5 -12q-14 -5 -21.5 -9.5t-7.5 -12.5q0 -16 22 -16q23 0 69 8q43 9 75 9q30 0 59 -6.5t51 -18.5v197zM442.5 471.5
q22.5 22.5 56.5 22.5q36 0 58.5 -22.5t22.5 -57.5t-22.5 -58t-58.5 -23q-34 0 -56.5 23t-22.5 58t22.5 57.5zM537 450.5q-15 14.5 -38 14.5q-22 0 -36.5 -14.5t-14.5 -36.5t14.5 -37t36.5 -15q23 0 38 15t15 37t-15 36.5zM808 365q0 29 -21.5 40t-63.5 11q-29 0 -77 -12
v-167q0 -13 -9.5 -20t-25.5 -13q-14 -6 -20.5 -10.5t-6.5 -12.5q0 -7 5.5 -11.5t15.5 -4.5q20 0 58 10q37 11 61 11q42 0 84 -15v194zM696 373h29v-100h-29v100zM367 361.5q-9 4.5 -23 6.5v-32q5 3 13.5 5.5t13.5 4.5t5 6q0 5 -9 9.5zM609.5 253.5q-8.5 5.5 -25.5 10.5v-47
q6 4 15 7.5t14 6.5t5 7q0 10 -8.5 15.5zM696.5 244.5q5.5 5.5 14.5 5.5q8 0 13.5 -5.5t5.5 -13.5q0 -9 -5.5 -14.5t-13.5 -5.5q-9 0 -14.5 5.5t-5.5 14.5q0 8 5.5 13.5z" />
    <glyph glyph-name="f_f" unicode="ff" horiz-adv-x="720" 
d="M467 425h-274v-425h-86v425h-92v75h92v28q0 181 161 181q32 0 77 -7v-79q-44 7 -66 7q-47 0 -66.5 -22.5t-19.5 -79.5v-28h274v28q0 181 161 181q31 0 77 -7v-79q-44 7 -66 7q-47 0 -66.5 -22.5t-19.5 -79.5v-28h145v-75h-145v-425h-86v425z" />
    <glyph glyph-name="f_f_i" unicode="ffi" horiz-adv-x="956" 
d="M467 425h-274v-425h-86v425h-92v75h92v28q0 181 161 181q32 0 77 -7v-79q-44 7 -66 7q-47 0 -66.5 -22.5t-19.5 -79.5v-28h274v28q0 181 161 181q31 0 77 -7v-79q-44 7 -66 7q-47 0 -66.5 -22.5t-19.5 -79.5v-28h145v-75h-145v-425h-86v425zM795 500h86v-500h-86v500z
M789 595q-19 19 -19 49t19 49t49 19t49 -19t19 -49t-19 -49t-49 -19t-49 19z" />
    <glyph glyph-name="f_f_l" unicode="ffl" horiz-adv-x="948" 
d="M467 425h-274v-425h-86v425h-92v75h92v28q0 181 161 181q32 0 77 -7v-79q-44 7 -66 7q-47 0 -66.5 -22.5t-19.5 -79.5v-28h274v28q0 181 161 181q31 0 77 -7v-79q-44 7 -66 7q-47 0 -66.5 -22.5t-19.5 -79.5v-28h145v-75h-145v-425h-86v425zM790 700h88v-700h-88v700z
" />
    <glyph glyph-name="f_i" unicode="fi" horiz-adv-x="616" 
d="M213 425v-425h-86v425h-112v75h112v28q0 96 42.5 140t118.5 44q32 0 77 -7v-79q-44 7 -66 7q-46 0 -66 -24t-20 -81v-28h145v-75h-145zM455 500h86v-500h-86v500zM449 595q-19 19 -19 49t19 49t49 19t49 -19t19 -49t-19 -49t-49 -19t-49 19z" />
    <glyph glyph-name="f_l" unicode="fl" horiz-adv-x="608" 
d="M213 425v-425h-86v425h-112v75h112v28q0 96 42.5 140t118.5 44q32 0 77 -7v-79q-44 7 -66 7q-46 0 -66 -24t-20 -81v-28h145v-75h-145zM450 700h88v-700h-88v700z" />
    <glyph glyph-name=".notdef" horiz-adv-x="885" 
d="M80.5 702q10.5 10 26.5 10q15 0 26 -10.5t11 -25.5q0 -10 -4.5 -19.5t-13.5 -14.5v-24q42 17 90 29.5t86 12.5q42 0 73 -21.5t31 -61.5v-25q55 12 102 12q59 0 98.5 -19t39.5 -64v-48q48 12 77 12q59 0 85.5 -21.5t26.5 -57.5v-240q-52 32 -112 32q-19 0 -57 -10
q-40 -10 -61 -10q-23 0 -35.5 12t-12.5 34v86q-23 5 -49 5q-28 0 -69 -9q-5 -1 -29 -5t-46 -4t-35 12.5t-13 33.5v68h-14q-62 0 -176 -44v-327h-39v643q-8 5 -12.5 14t-4.5 19q0 16 10.5 26zM377 577q0 28 -22.5 41.5t-52.5 13.5q-35 0 -83.5 -13.5t-92.5 -31.5v-230
q110 42 176 42q44 0 75 -14v192zM297 580h34l-64 -95v-68h-30v68l-65 95h34l46 -64zM618 474q0 26 -20 44t-91 18q-39 0 -101 -12v-171q0 -12 -8.5 -18t-26.5 -12q-14 -5 -21.5 -9.5t-7.5 -12.5q0 -16 22 -16q23 0 69 8q43 9 75 9q30 0 59 -6.5t51 -18.5v197zM442.5 471.5
q22.5 22.5 56.5 22.5q36 0 58.5 -22.5t22.5 -57.5t-22.5 -58t-58.5 -23q-34 0 -56.5 23t-22.5 58t22.5 57.5zM537 450.5q-15 14.5 -38 14.5q-22 0 -36.5 -14.5t-14.5 -36.5t14.5 -37t36.5 -15q23 0 38 15t15 37t-15 36.5zM808 365q0 29 -21.5 40t-63.5 11q-29 0 -77 -12
v-167q0 -13 -9.5 -20t-25.5 -13q-14 -6 -20.5 -10.5t-6.5 -12.5q0 -7 5.5 -11.5t15.5 -4.5q20 0 58 10q37 11 61 11q42 0 84 -15v194zM696 373h29v-100h-29v100zM367 361.5q-9 4.5 -23 6.5v-32q5 3 13.5 5.5t13.5 4.5t5 6q0 5 -9 9.5zM609.5 253.5q-8.5 5.5 -25.5 10.5v-47
q6 4 15 7.5t14 6.5t5 7q0 10 -8.5 15.5zM696.5 244.5q5.5 5.5 14.5 5.5q8 0 13.5 -5.5t5.5 -13.5q0 -9 -5.5 -14.5t-13.5 -5.5q-9 0 -14.5 5.5t-5.5 14.5q0 8 5.5 13.5z" />
    <glyph glyph-name=".null" horiz-adv-x="0" 
 />
    <glyph glyph-name="nonmarkingreturn" unicode="&#xd;" horiz-adv-x="290" 
 />
    <glyph glyph-name="space" unicode=" " horiz-adv-x="290" 
 />
    <glyph glyph-name="A" unicode="A" horiz-adv-x="766" 
d="M756 0h-99l-62 133h-424l-62 -133h-99l326 700h94zM383 591l-171 -368h342z" />
    <glyph glyph-name="B" unicode="B" horiz-adv-x="617" 
d="M548 293.5q29 -43.5 29 -98.5q0 -57 -26 -101.5t-70.5 -69t-97.5 -24.5h-303v700h272q56 0 100.5 -24.5t70 -69t25.5 -101.5q0 -50 -22.5 -90.5t-61.5 -60.5q55 -17 84 -60.5zM170 610v-215h189q47 0 73 30.5t26 79.5q0 48 -28.5 76.5t-77.5 28.5h-182zM383 90
q46 0 75 29t29 76q0 49 -31 79.5t-86 30.5h-200v-215h213z" />
    <glyph glyph-name="C" unicode="C" horiz-adv-x="669" 
d="M96 528.5q46 79.5 126 125.5t178 46q135 0 244 -96l-41 -85q-42 42 -92 66.5t-114 24.5q-73 0 -132 -32.5t-92 -92t-33 -135.5t33 -135t91 -92t130 -33q121 0 214 89l41 -85q-103 -94 -255 -94q-94 0 -173 46t-125 126.5t-46 178.5t46 177.5z" />
    <glyph glyph-name="D" unicode="D" horiz-adv-x="709" 
d="M80 0v700h240q98 0 177.5 -45.5t125.5 -125.5t46 -179t-46 -179t-125.5 -125.5t-177.5 -45.5h-240zM320 90q74 0 133 33.5t92.5 92.5t33.5 134t-33.5 134t-92.5 92.5t-133 33.5h-150v-520h150z" />
    <glyph glyph-name="E" unicode="E" horiz-adv-x="565" 
d="M510 0h-430v700h430v-90h-340v-215h340v-90h-340v-215h340v-90z" />
    <glyph glyph-name="F" unicode="F" horiz-adv-x="550" 
d="M170 0h-90v700h430v-90h-340v-215h340v-90h-340v-305z" />
    <glyph glyph-name="G" unicode="G" horiz-adv-x="755" 
d="M85.5 528q45.5 80 126 126t180.5 46q134 0 243 -96l-41 -85q-42 42 -92 66.5t-114 24.5q-74 0 -133 -32.5t-92 -92t-33 -135.5t33 -135.5t92 -92t134 -32.5q98 0 163 54.5t76 144.5h-267v90h369v-4q0 -110 -40 -195t-115.5 -132.5t-179.5 -47.5q-102 0 -183 46
t-126.5 125.5t-45.5 178.5q0 98 45.5 178z" />
    <glyph glyph-name="H" unicode="H" horiz-adv-x="740" 
d="M170 0h-90v700h90v-305h400v305h90v-700h-90v305h-400v-305z" />
    <glyph glyph-name="I" unicode="I" horiz-adv-x="250" 
d="M170 0h-90v700h90v-700z" />
    <glyph glyph-name="J" unicode="J" horiz-adv-x="492" 
d="M105 29.5q-46 29.5 -68 75t-22 94.5l83 41q0 -66 30.5 -108t91.5 -42q57 0 84.5 36.5t27.5 94.5v479h90v-479q0 -100 -52.5 -160.5t-149.5 -60.5q-69 0 -115 29.5z" />
    <glyph glyph-name="K" unicode="K" horiz-adv-x="647" 
d="M170 0h-90v700h90v-349l345 349h127l-302 -305l302 -395h-114l-252 330l-106 -107v-223z" />
    <glyph glyph-name="L" unicode="L" horiz-adv-x="532" 
d="M517 0h-437v700h90v-610h347v-90z" />
    <glyph glyph-name="M" unicode="M" horiz-adv-x="1011" 
d="M170 0h-90v700h90l336 -584l335 584h90v-700h-90v515l-296 -515h-79l-296 515v-515z" />
    <glyph glyph-name="N" unicode="N" horiz-adv-x="787" 
d="M170 0h-90v700h90l447 -556v556h90v-700h-90l-447 555v-555z" />
    <glyph glyph-name="O" unicode="O" horiz-adv-x="780" 
d="M211 45.5q-80 45.5 -125.5 125.5t-45.5 179t45.5 179t125.5 125.5t179 45.5t179 -45.5t125.5 -125.5t45.5 -179t-45.5 -179t-125.5 -125.5t-179 -45.5t-179 45.5zM523.5 123.5q59.5 33.5 93 93t33.5 133.5t-33.5 133.5t-93 93t-133.5 33.5t-133.5 -33.5t-93 -93
t-33.5 -133.5t33.5 -133.5t93 -93t133.5 -33.5t133.5 33.5z" />
    <glyph glyph-name="P" unicode="P" horiz-adv-x="595" 
d="M80 0v700h249q67 0 121 -30.5t84.5 -84.5t30.5 -121t-30.5 -121t-84.5 -84.5t-121 -30.5h-159v-228h-90zM329 318q40 0 73.5 19t53 52t19.5 75t-19.5 75t-53 52t-73.5 19h-159v-292h159z" />
    <glyph glyph-name="Q" unicode="Q" horiz-adv-x="825" 
d="M603 68q-92 -68 -213 -68q-99 0 -179 45.5t-125.5 125.5t-45.5 179t45.5 179t125.5 125.5t179 45.5t179 -45.5t125.5 -125.5t45.5 -179q0 -63 -19 -119t-54 -101l178 -178l-63 -63zM538 133l-196 196l63 63l197 -197q48 65 48 155q0 74 -33.5 133.5t-93 93t-133.5 33.5
t-133.5 -33.5t-93 -93t-33.5 -133.5t33.5 -133.5t93 -93t133.5 -33.5q85 0 148 43z" />
    <glyph glyph-name="R" unicode="R" horiz-adv-x="608" 
d="M588 0h-115l-180 268h-123v-268h-90v700h264q65 0 115.5 -27.5t79 -77t28.5 -111.5q0 -81 -45.5 -137t-123.5 -73zM170 610v-252h174q59 0 96 35t37 91t-37 91t-96 35h-174z" />
    <glyph glyph-name="S" unicode="S" horiz-adv-x="546" 
d="M124.5 49q-68.5 49 -89.5 136l82 38q15 -66 60 -99.5t110 -33.5q63 0 98.5 27t35.5 77q0 43 -26.5 69t-84.5 40l-78 20q-80 20 -122 68t-42 118q0 87 60 139t159 52q85 0 144 -40t80 -112l-82 -38q-28 100 -142 100q-60 0 -94.5 -26.5t-34.5 -73.5q0 -35 25 -61.5
t87 -43.5l81 -22q160 -44 160 -188q0 -91 -61 -143t-163 -52q-94 0 -162.5 49z" />
    <glyph glyph-name="T" unicode="T" horiz-adv-x="651" 
d="M370 0h-90v610h-275v90h641v-90h-276v-610z" />
    <glyph glyph-name="U" unicode="U" horiz-adv-x="780" 
d="M227.5 42q-73.5 42 -115.5 115t-42 163v380h90v-380q0 -64 30.5 -117t83 -83t116.5 -30q65 0 117.5 30t82.5 82.5t30 117.5v380h90v-380q0 -90 -42 -163t-115 -115t-163 -42q-89 0 -162.5 42z" />
    <glyph glyph-name="V" unicode="V" horiz-adv-x="744" 
d="M406 0h-68l-333 700h100l268 -564l266 564h100z" />
    <glyph glyph-name="W" unicode="W" horiz-adv-x="1220" 
d="M354 0h-66l-278 700h97l217 -546l243 546h86l243 -546l217 546h97l-278 -700h-66l-256 573z" />
    <glyph glyph-name="X" unicode="X" horiz-adv-x="712" 
d="M131 0h-116l283 350l-283 350h115l226 -279l226 279h115l-283 -350l283 -350h-116l-225 278z" />
    <glyph glyph-name="Y" unicode="Y" horiz-adv-x="662" 
d="M376 0h-90v295l-281 405h110l216 -312l216 312h110l-281 -405v-295z" />
    <glyph glyph-name="Z" unicode="Z" horiz-adv-x="622" 
d="M592 0h-562v69l428 541h-428v90h562v-69l-428 -541h428v-90z" />
    <glyph glyph-name="Aacute" unicode="&#xc1;" horiz-adv-x="766" 
d="M756 0h-99l-62 133h-424l-62 -133h-99l326 700h94zM383 591l-171 -368h342zM527 844l-213 -133l-39 60l211 136z" />
    <glyph glyph-name="Abreve" unicode="&#x102;" horiz-adv-x="766" 
d="M756 0h-99l-62 133h-424l-62 -133h-99l326 700h94zM383 591l-171 -368h342zM279 770q-38 42 -38 111h73q0 -40 18 -60.5t51 -20.5t51 20.5t18 60.5h73q0 -69 -38 -111t-104 -42t-104 42z" />
    <glyph glyph-name="Acircumflex" unicode="&#xc2;" horiz-adv-x="766" 
d="M756 0h-99l-62 133h-424l-62 -133h-99l326 700h94zM383 591l-171 -368h342zM383 827l-129 -112l-47 52l176 151l176 -151l-47 -52z" />
    <glyph glyph-name="Adieresis" unicode="&#xc4;" horiz-adv-x="766" 
d="M756 0h-99l-62 133h-424l-62 -133h-99l326 700h94zM383 591l-171 -368h342zM233.5 746q-19.5 20 -19.5 48q0 29 19.5 48.5t48.5 19.5q28 0 48 -19.5t20 -48.5q0 -28 -20 -48t-48 -20q-29 0 -48.5 20zM435.5 746q-19.5 20 -19.5 48q0 29 19.5 48.5t48.5 19.5
q28 0 48 -19.5t20 -48.5q0 -28 -20 -48t-48 -20q-29 0 -48.5 20z" />
    <glyph glyph-name="AE" unicode="&#xc6;" horiz-adv-x="987" 
d="M116 0h-106l443 700h479v-90h-340v-215h340v-90h-340v-215h340v-90h-430v123h-308zM502 612l-252 -399h252v399z" />
    <glyph glyph-name="AEacute" unicode="&#x1fc;" horiz-adv-x="987" 
d="M116 0h-106l443 700h479v-90h-340v-215h340v-90h-340v-215h340v-90h-430v123h-308zM502 612l-252 -399h252v399zM852 844l-213 -133l-39 60l211 136z" />
    <glyph glyph-name="Agrave" unicode="&#xc0;" horiz-adv-x="766" 
d="M756 0h-99l-62 133h-424l-62 -133h-99l326 700h94zM383 591l-171 -368h342zM489 771l-39 -60l-213 133l41 63z" />
    <glyph glyph-name="Amacron" unicode="&#x100;" horiz-adv-x="766" 
d="M756 0h-99l-62 133h-424l-62 -133h-99l326 700h94zM383 591l-171 -368h342zM533 757h-300v70h300v-70z" />
    <glyph glyph-name="Aogonek" unicode="&#x104;" horiz-adv-x="766" 
d="M644 -98.5q10 -7.5 27 -7.5q10 0 38 6v-58q-19 -9 -51 -9q-41 0 -64 20.5t-23 57.5q0 30 18.5 55.5t59.5 51.5l-54 115h-424l-62 -133h-99l326 700h94l326 -700h-66q-25 -17 -40.5 -38t-15.5 -39q0 -14 10 -21.5zM383 591l-171 -368h342z" />
    <glyph glyph-name="Aring" unicode="&#xc5;" horiz-adv-x="766" 
d="M657 0l-62 133h-424l-62 -133h-99l309 664q-22 15 -34 38.5t-12 52.5q0 48 31 79.5t79 31.5t79 -31.5t31 -79.5q0 -29 -12 -52.5t-34 -38.5l309 -664h-99zM344.5 794.5q-14.5 -15.5 -14.5 -39.5t14.5 -39.5t38.5 -15.5t38.5 15.5t14.5 39.5t-14.5 39.5t-38.5 15.5
t-38.5 -15.5zM383 591l-171 -368h342z" />
    <glyph glyph-name="Atilde" unicode="&#xc3;" horiz-adv-x="766" 
d="M756 0h-99l-62 133h-424l-62 -133h-99l326 700h94zM383 591l-171 -368h342zM405 744q-16 7 -38 21q-11 7 -22.5 13t-20.5 6q-12 0 -25 -10t-31 -29l-48 46q58 69 106 69q19 0 35 -7t38 -21q11 -7 22.5 -13t20.5 -6q12 0 25 10t31 29l48 -46q-58 -69 -106 -69q-19 0 -35 7
z" />
    <glyph glyph-name="Cacute" unicode="&#x106;" horiz-adv-x="669" 
d="M96 528.5q46 79.5 126 125.5t178 46q135 0 244 -96l-41 -85q-42 42 -92 66.5t-114 24.5q-73 0 -132 -32.5t-92 -92t-33 -135.5t33 -135t91 -92t130 -33q121 0 214 89l41 -85q-103 -94 -255 -94q-94 0 -173 46t-125 126.5t-46 178.5t46 177.5zM549 844l-213 -133l-39 60
l211 136z" />
    <glyph glyph-name="Ccaron" unicode="&#x10c;" horiz-adv-x="669" 
d="M96 528.5q46 79.5 126 125.5t178 46q135 0 244 -96l-41 -85q-42 42 -92 66.5t-114 24.5q-73 0 -132 -32.5t-92 -92t-33 -135.5t33 -135t91 -92t130 -33q121 0 214 89l41 -85q-103 -94 -255 -94q-94 0 -173 46t-125 126.5t-46 178.5t46 177.5zM581 876l-176 -151l-176 151
l47 52l129 -112l129 112z" />
    <glyph glyph-name="Ccedilla" unicode="&#xc7;" horiz-adv-x="669" 
d="M649 94q-87 -79 -209 -92q26 -41 26 -83q0 -41 -25 -63.5t-62 -22.5q-27 0 -51 10v58q25 -7 38 -7q32 0 32 34q0 31 -25 73q-89 5 -163 52t-117 125t-43 173q0 98 46 177.5t126 125.5t178 46q135 0 244 -96l-41 -85q-42 42 -92 66.5t-114 24.5q-73 0 -132 -32.5t-92 -92
t-33 -135.5t33 -135t91 -92t130 -33q121 0 214 89z" />
    <glyph glyph-name="Ccircumflex" unicode="&#x108;" horiz-adv-x="669" 
d="M96 528.5q46 79.5 126 125.5t178 46q135 0 244 -96l-41 -85q-42 42 -92 66.5t-114 24.5q-73 0 -132 -32.5t-92 -92t-33 -135.5t33 -135t91 -92t130 -33q121 0 214 89l41 -85q-103 -94 -255 -94q-94 0 -173 46t-125 126.5t-46 178.5t46 177.5zM405 827l-129 -112l-47 52
l176 151l176 -151l-47 -52z" />
    <glyph glyph-name="Cdotaccent" unicode="&#x10a;" horiz-adv-x="669" 
d="M96 528.5q46 79.5 126 125.5t178 46q135 0 244 -96l-41 -85q-42 42 -92 66.5t-114 24.5q-73 0 -132 -32.5t-92 -92t-33 -135.5t33 -135t91 -92t130 -33q121 0 214 89l41 -85q-103 -94 -255 -94q-94 0 -173 46t-125 126.5t-46 178.5t46 177.5zM356.5 746
q-19.5 20 -19.5 48q0 29 19.5 48.5t48.5 19.5q28 0 48 -19.5t20 -48.5q0 -28 -20 -48t-48 -20q-29 0 -48.5 20z" />
    <glyph glyph-name="Dcaron" unicode="&#x10e;" horiz-adv-x="709" 
d="M80 0v700h240q98 0 177.5 -45.5t125.5 -125.5t46 -179t-46 -179t-125.5 -125.5t-177.5 -45.5h-240zM320 90q74 0 133 33.5t92.5 92.5t33.5 134t-33.5 134t-92.5 92.5t-133 33.5h-150v-520h150zM479 876l-176 -151l-176 151l47 52l129 -112l129 112z" />
    <glyph glyph-name="Dcroat" unicode="&#x110;" horiz-adv-x="709" 
d="M320 700q98 0 177.5 -45.5t125.5 -125.5t46 -179t-46 -179t-125.5 -125.5t-177.5 -45.5h-240v310h-80v90h80v300h240zM320 90q74 0 133 33.5t92.5 92.5t33.5 134t-33.5 134t-92.5 92.5t-133 33.5h-150v-210h170v-90h-170v-220h150z" />
    <glyph glyph-name="Eacute" unicode="&#xc9;" horiz-adv-x="565" 
d="M510 0h-430v700h430v-90h-340v-215h340v-90h-340v-215h340v-90zM427 844l-213 -133l-39 60l211 136z" />
    <glyph glyph-name="Ebreve" unicode="&#x114;" horiz-adv-x="565" 
d="M510 0h-430v700h430v-90h-340v-215h340v-90h-340v-215h340v-90zM179 770q-38 42 -38 111h73q0 -40 18 -60.5t51 -20.5t51 20.5t18 60.5h73q0 -69 -38 -111t-104 -42t-104 42z" />
    <glyph glyph-name="Ecaron" unicode="&#x11a;" horiz-adv-x="565" 
d="M510 0h-430v700h430v-90h-340v-215h340v-90h-340v-215h340v-90zM459 876l-176 -151l-176 151l47 52l129 -112l129 112z" />
    <glyph glyph-name="Ecircumflex" unicode="&#xca;" horiz-adv-x="565" 
d="M510 0h-430v700h430v-90h-340v-215h340v-90h-340v-215h340v-90zM283 827l-129 -112l-47 52l176 151l176 -151l-47 -52z" />
    <glyph glyph-name="Edieresis" unicode="&#xcb;" horiz-adv-x="565" 
d="M510 0h-430v700h430v-90h-340v-215h340v-90h-340v-215h340v-90zM133.5 746q-19.5 20 -19.5 48q0 29 19.5 48.5t48.5 19.5q28 0 48 -19.5t20 -48.5q0 -28 -20 -48t-48 -20q-29 0 -48.5 20zM335.5 746q-19.5 20 -19.5 48q0 29 19.5 48.5t48.5 19.5q28 0 48 -19.5t20 -48.5
q0 -28 -20 -48t-48 -20q-29 0 -48.5 20z" />
    <glyph glyph-name="Edotaccent" unicode="&#x116;" horiz-adv-x="565" 
d="M510 0h-430v700h430v-90h-340v-215h340v-90h-340v-215h340v-90zM234.5 746q-19.5 20 -19.5 48q0 29 19.5 48.5t48.5 19.5q28 0 48 -19.5t20 -48.5q0 -28 -20 -48t-48 -20q-29 0 -48.5 20z" />
    <glyph glyph-name="Egrave" unicode="&#xc8;" horiz-adv-x="565" 
d="M510 0h-430v700h430v-90h-340v-215h340v-90h-340v-215h340v-90zM389 771l-39 -60l-213 133l41 63z" />
    <glyph glyph-name="Emacron" unicode="&#x112;" horiz-adv-x="565" 
d="M510 0h-430v700h430v-90h-340v-215h340v-90h-340v-215h340v-90zM433 757h-300v70h300v-70z" />
    <glyph glyph-name="Eogonek" unicode="&#x118;" horiz-adv-x="565" 
d="M510 610h-340v-215h340v-90h-340v-215h340v-90h-35q-20 -16 -31.5 -34t-11.5 -33q0 -14 10 -21.5t27 -7.5q10 0 38 6v-58q-19 -9 -51 -9q-41 0 -64 20.5t-23 57.5q0 43 40 79h-329v700h430v-90z" />
    <glyph glyph-name="Eth" unicode="&#xd0;" horiz-adv-x="709" 
d="M320 700q98 0 177.5 -45.5t125.5 -125.5t46 -179t-46 -179t-125.5 -125.5t-177.5 -45.5h-240v310h-80v90h80v300h240zM320 90q74 0 133 33.5t92.5 92.5t33.5 134t-33.5 134t-92.5 92.5t-133 33.5h-150v-210h170v-90h-170v-220h150z" />
    <glyph glyph-name="Gbreve" unicode="&#x11e;" horiz-adv-x="755" 
d="M85.5 528q45.5 80 126 126t180.5 46q134 0 243 -96l-41 -85q-42 42 -92 66.5t-114 24.5q-74 0 -133 -32.5t-92 -92t-33 -135.5t33 -135.5t92 -92t134 -32.5q98 0 163 54.5t76 144.5h-267v90h369v-4q0 -110 -40 -195t-115.5 -132.5t-179.5 -47.5q-102 0 -183 46
t-126.5 125.5t-45.5 178.5q0 98 45.5 178zM285 770q-38 42 -38 111h73q0 -40 18 -60.5t51 -20.5t51 20.5t18 60.5h73q0 -69 -38 -111t-104 -42t-104 42z" />
    <glyph glyph-name="Gcircumflex" unicode="&#x11c;" horiz-adv-x="755" 
d="M85.5 528q45.5 80 126 126t180.5 46q134 0 243 -96l-41 -85q-42 42 -92 66.5t-114 24.5q-74 0 -133 -32.5t-92 -92t-33 -135.5t33 -135.5t92 -92t134 -32.5q98 0 163 54.5t76 144.5h-267v90h369v-4q0 -110 -40 -195t-115.5 -132.5t-179.5 -47.5q-102 0 -183 46
t-126.5 125.5t-45.5 178.5q0 98 45.5 178zM389 827l-129 -112l-47 52l176 151l176 -151l-47 -52z" />
    <glyph glyph-name="uni0122" unicode="&#x122;" horiz-adv-x="755" 
d="M85.5 528q45.5 80 126 126t180.5 46q134 0 243 -96l-41 -85q-42 42 -92 66.5t-114 24.5q-74 0 -133 -32.5t-92 -92t-33 -135.5t33 -135.5t92 -92t134 -32.5q98 0 163 54.5t76 144.5h-267v90h369v-4q0 -110 -40 -195t-115.5 -132.5t-179.5 -47.5q-102 0 -183 46
t-126.5 125.5t-45.5 178.5q0 98 45.5 178zM400 -210l-37 21l33 55q-18 5 -30.5 20.5t-12.5 34.5q0 24 16 40.5t41 16.5t41 -16.5t16 -40.5q0 -7 -4.5 -17.5t-10.5 -22.5z" />
    <glyph glyph-name="Gdotaccent" unicode="&#x120;" horiz-adv-x="755" 
d="M85.5 528q45.5 80 126 126t180.5 46q134 0 243 -96l-41 -85q-42 42 -92 66.5t-114 24.5q-74 0 -133 -32.5t-92 -92t-33 -135.5t33 -135.5t92 -92t134 -32.5q98 0 163 54.5t76 144.5h-267v90h369v-4q0 -110 -40 -195t-115.5 -132.5t-179.5 -47.5q-102 0 -183 46
t-126.5 125.5t-45.5 178.5q0 98 45.5 178zM340.5 746q-19.5 20 -19.5 48q0 29 19.5 48.5t48.5 19.5q28 0 48 -19.5t20 -48.5q0 -28 -20 -48t-48 -20q-29 0 -48.5 20z" />
    <glyph glyph-name="Hbar" unicode="&#x126;" horiz-adv-x="740" 
d="M170 305v-305h-90v497h-50v90h50v113h90v-113h400v113h90v-113h50v-90h-50v-497h-90v305h-400zM170 395h400v102h-400v-102z" />
    <glyph glyph-name="Hcircumflex" unicode="&#x124;" horiz-adv-x="740" 
d="M170 0h-90v700h90v-305h400v305h90v-700h-90v305h-400v-305zM370 827l-129 -112l-47 52l176 151l176 -151l-47 -52z" />
    <glyph glyph-name="Iacute" unicode="&#xcd;" horiz-adv-x="250" 
d="M170 0h-90v700h90v-700zM269 844l-213 -133l-39 60l211 136z" />
    <glyph glyph-name="Ibreve" unicode="&#x12c;" horiz-adv-x="250" 
d="M170 0h-90v700h90v-700zM21 770q-38 42 -38 111h73q0 -40 18 -60.5t51 -20.5t51 20.5t18 60.5h73q0 -69 -38 -111t-104 -42t-104 42z" />
    <glyph glyph-name="Icircumflex" unicode="&#xce;" horiz-adv-x="250" 
d="M170 0h-90v700h90v-700zM125 827l-129 -112l-47 52l176 151l176 -151l-47 -52z" />
    <glyph glyph-name="Idieresis" unicode="&#xcf;" horiz-adv-x="250" 
d="M170 0h-90v700h90v-700zM-24.5 746q-19.5 20 -19.5 48q0 29 19.5 48.5t48.5 19.5q28 0 48 -19.5t20 -48.5q0 -28 -20 -48t-48 -20q-29 0 -48.5 20zM177.5 746q-19.5 20 -19.5 48q0 29 19.5 48.5t48.5 19.5q28 0 48 -19.5t20 -48.5q0 -28 -20 -48t-48 -20q-29 0 -48.5 20z
" />
    <glyph glyph-name="Idotaccent" unicode="&#x130;" horiz-adv-x="250" 
d="M170 0h-90v700h90v-700zM76.5 746q-19.5 20 -19.5 48q0 29 19.5 48.5t48.5 19.5q28 0 48 -19.5t20 -48.5q0 -28 -20 -48t-48 -20q-29 0 -48.5 20z" />
    <glyph glyph-name="Igrave" unicode="&#xcc;" horiz-adv-x="250" 
d="M170 0h-90v700h90v-700zM231 771l-39 -60l-213 133l41 63z" />
    <glyph glyph-name="IJ" unicode="&#x132;" horiz-adv-x="742" 
d="M170 0h-90v700h90v-700zM355 29.5q-46 29.5 -68 75t-22 94.5l83 41q0 -66 30.5 -108t91.5 -42q57 0 84.5 36.5t27.5 94.5v479h90v-479q0 -100 -52.5 -160.5t-149.5 -60.5q-69 0 -115 29.5z" />
    <glyph glyph-name="Imacron" unicode="&#x12a;" horiz-adv-x="250" 
d="M170 0h-90v700h90v-700zM275 757h-300v70h300v-70z" />
    <glyph glyph-name="Iogonek" unicode="&#x12e;" horiz-adv-x="250" 
d="M174 -90v-58q-19 -9 -51 -9q-41 0 -64 20.5t-23 57.5q0 44 44 82v697h90v-680h2l-2 -1v-19h-28q-20 -16 -31.5 -34t-11.5 -33q0 -14 10 -21.5t27 -7.5q10 0 38 6z" />
    <glyph glyph-name="Itilde" unicode="&#x128;" horiz-adv-x="250" 
d="M170 0h-90v700h90v-700zM147 744q-16 7 -38 21q-11 7 -22.5 13t-20.5 6q-12 0 -25 -10t-31 -29l-48 46q58 69 106 69q19 0 35 -7t38 -21q11 -7 22.5 -13t20.5 -6q12 0 25 10t31 29l48 -46q-58 -69 -106 -69q-19 0 -35 7z" />
    <glyph glyph-name="Jcircumflex" unicode="&#x134;" horiz-adv-x="492" 
d="M105 29.5q-46 29.5 -68 75t-22 94.5l83 41q0 -66 30.5 -108t91.5 -42q57 0 84.5 36.5t27.5 94.5v479h90v-479q0 -100 -52.5 -160.5t-149.5 -60.5q-69 0 -115 29.5zM377 827l-129 -112l-47 52l176 151l176 -151l-47 -52z" />
    <glyph glyph-name="uni0136" unicode="&#x136;" horiz-adv-x="647" 
d="M170 0h-90v700h90v-349l345 349h127l-302 -305l302 -395h-114l-252 330l-106 -107v-223zM314 -210l-37 21l33 55q-18 5 -30.5 20.5t-12.5 34.5q0 24 16 40.5t41 16.5t41 -16.5t16 -40.5q0 -7 -4.5 -17.5t-10.5 -22.5z" />
    <glyph glyph-name="Lacute" unicode="&#x139;" horiz-adv-x="532" 
d="M517 0h-437v700h90v-610h347v-90zM269 844l-213 -133l-39 60l211 136z" />
    <glyph glyph-name="Lcaron" unicode="&#x13d;" horiz-adv-x="532" 
d="M326 548l61 204l70 -16l-61 -204zM517 0h-437v700h90v-610h347v-90z" />
    <glyph glyph-name="uni013B" unicode="&#x13b;" horiz-adv-x="532" 
d="M517 0h-437v700h90v-610h347v-90zM289 -210l-37 21l33 55q-18 5 -30.5 20.5t-12.5 34.5q0 24 16 40.5t41 16.5t41 -16.5t16 -40.5q0 -7 -4.5 -17.5t-10.5 -22.5z" />
    <glyph glyph-name="Ldot" unicode="&#x13f;" horiz-adv-x="532" 
d="M517 0h-437v700h90v-610h347v-90zM352.5 366q-19.5 20 -19.5 48q0 29 19.5 48.5t48.5 19.5q28 0 48 -19.5t20 -48.5q0 -28 -20 -48t-48 -20q-29 0 -48.5 20z" />
    <glyph glyph-name="Lslash" unicode="&#x141;" horiz-adv-x="532" 
d="M170 319v-229h347v-90h-437v280l-80 -35l-29 62l109 48v345h90v-306l140 61l29 -62z" />
    <glyph glyph-name="Nacute" unicode="&#x143;" horiz-adv-x="787" 
d="M170 0h-90v700h90l447 -556v556h90v-700h-90l-447 555v-555zM538 844l-213 -133l-39 60l211 136z" />
    <glyph glyph-name="Ncaron" unicode="&#x147;" horiz-adv-x="787" 
d="M170 0h-90v700h90l447 -556v556h90v-700h-90l-447 555v-555zM570 876l-176 -151l-176 151l47 52l129 -112l129 112z" />
    <glyph glyph-name="uni0145" unicode="&#x145;" horiz-adv-x="787" 
d="M170 0h-90v700h90l447 -556v556h90v-700h-90l-447 555v-555zM384 -210l-37 21l33 55q-18 5 -30.5 20.5t-12.5 34.5q0 24 16 40.5t41 16.5t41 -16.5t16 -40.5q0 -7 -4.5 -17.5t-10.5 -22.5z" />
    <glyph glyph-name="Ntilde" unicode="&#xd1;" horiz-adv-x="787" 
d="M170 0h-90v700h90l447 -556v556h90v-700h-90l-447 555v-555zM416 744q-16 7 -38 21q-11 7 -22.5 13t-20.5 6q-12 0 -25 -10t-31 -29l-48 46q58 69 106 69q19 0 35 -7t38 -21q11 -7 22.5 -13t20.5 -6q12 0 25 10t31 29l48 -46q-58 -69 -106 -69q-19 0 -35 7z" />
    <glyph glyph-name="Eng" unicode="&#x14a;" horiz-adv-x="787" 
d="M617 700h90v-726q0 -176 -153 -176q-21 0 -63 5v79q29 -4 52 -4q40 0 57.5 22t17.5 74v26h-1l-447 555v-555h-90v700h90l447 -556v556z" />
    <glyph glyph-name="Oacute" unicode="&#xd3;" horiz-adv-x="780" 
d="M211 45.5q-80 45.5 -125.5 125.5t-45.5 179t45.5 179t125.5 125.5t179 45.5t179 -45.5t125.5 -125.5t45.5 -179t-45.5 -179t-125.5 -125.5t-179 -45.5t-179 45.5zM523.5 123.5q59.5 33.5 93 93t33.5 133.5t-33.5 133.5t-93 93t-133.5 33.5t-133.5 -33.5t-93 -93
t-33.5 -133.5t33.5 -133.5t93 -93t133.5 -33.5t133.5 33.5zM534 844l-213 -133l-39 60l211 136z" />
    <glyph glyph-name="Obreve" unicode="&#x14e;" horiz-adv-x="780" 
d="M211 45.5q-80 45.5 -125.5 125.5t-45.5 179t45.5 179t125.5 125.5t179 45.5t179 -45.5t125.5 -125.5t45.5 -179t-45.5 -179t-125.5 -125.5t-179 -45.5t-179 45.5zM523.5 123.5q59.5 33.5 93 93t33.5 133.5t-33.5 133.5t-93 93t-133.5 33.5t-133.5 -33.5t-93 -93
t-33.5 -133.5t33.5 -133.5t93 -93t133.5 -33.5t133.5 33.5zM286 770q-38 42 -38 111h73q0 -40 18 -60.5t51 -20.5t51 20.5t18 60.5h73q0 -69 -38 -111t-104 -42t-104 42z" />
    <glyph glyph-name="Ocircumflex" unicode="&#xd4;" horiz-adv-x="780" 
d="M211 45.5q-80 45.5 -125.5 125.5t-45.5 179t45.5 179t125.5 125.5t179 45.5t179 -45.5t125.5 -125.5t45.5 -179t-45.5 -179t-125.5 -125.5t-179 -45.5t-179 45.5zM523.5 123.5q59.5 33.5 93 93t33.5 133.5t-33.5 133.5t-93 93t-133.5 33.5t-133.5 -33.5t-93 -93
t-33.5 -133.5t33.5 -133.5t93 -93t133.5 -33.5t133.5 33.5zM390 827l-129 -112l-47 52l176 151l176 -151l-47 -52z" />
    <glyph glyph-name="Odieresis" unicode="&#xd6;" horiz-adv-x="780" 
d="M211 45.5q-80 45.5 -125.5 125.5t-45.5 179t45.5 179t125.5 125.5t179 45.5t179 -45.5t125.5 -125.5t45.5 -179t-45.5 -179t-125.5 -125.5t-179 -45.5t-179 45.5zM523.5 123.5q59.5 33.5 93 93t33.5 133.5t-33.5 133.5t-93 93t-133.5 33.5t-133.5 -33.5t-93 -93
t-33.5 -133.5t33.5 -133.5t93 -93t133.5 -33.5t133.5 33.5zM240.5 746q-19.5 20 -19.5 48q0 29 19.5 48.5t48.5 19.5q28 0 48 -19.5t20 -48.5q0 -28 -20 -48t-48 -20q-29 0 -48.5 20zM442.5 746q-19.5 20 -19.5 48q0 29 19.5 48.5t48.5 19.5q28 0 48 -19.5t20 -48.5
q0 -28 -20 -48t-48 -20q-29 0 -48.5 20z" />
    <glyph glyph-name="OE" unicode="&#x152;" horiz-adv-x="875" 
d="M820 610h-340v-215h340v-90h-340v-215h340v-90h-430q-99 0 -179 45.5t-125.5 125.5t-45.5 179t45.5 179t125.5 125.5t179 45.5h430v-90zM390 610q-74 0 -133.5 -33.5t-93 -93t-33.5 -133.5t33.5 -133.5t93 -93t133.5 -33.5v520z" />
    <glyph glyph-name="Ograve" unicode="&#xd2;" horiz-adv-x="780" 
d="M211 45.5q-80 45.5 -125.5 125.5t-45.5 179t45.5 179t125.5 125.5t179 45.5t179 -45.5t125.5 -125.5t45.5 -179t-45.5 -179t-125.5 -125.5t-179 -45.5t-179 45.5zM523.5 123.5q59.5 33.5 93 93t33.5 133.5t-33.5 133.5t-93 93t-133.5 33.5t-133.5 -33.5t-93 -93
t-33.5 -133.5t33.5 -133.5t93 -93t133.5 -33.5t133.5 33.5zM496 771l-39 -60l-213 133l41 63z" />
    <glyph glyph-name="Ohungarumlaut" unicode="&#x150;" horiz-adv-x="780" 
d="M211 45.5q-80 45.5 -125.5 125.5t-45.5 179t45.5 179t125.5 125.5t179 45.5t179 -45.5t125.5 -125.5t45.5 -179t-45.5 -179t-125.5 -125.5t-179 -45.5t-179 45.5zM523.5 123.5q59.5 33.5 93 93t33.5 133.5t-33.5 133.5t-93 93t-133.5 33.5t-133.5 -33.5t-93 -93
t-33.5 -133.5t33.5 -133.5t93 -93t133.5 -33.5t133.5 33.5zM426 847l-113 -123l-59 39l111 125zM579 837l-113 -123l-59 39l111 125z" />
    <glyph glyph-name="Omacron" unicode="&#x14c;" horiz-adv-x="780" 
d="M211 45.5q-80 45.5 -125.5 125.5t-45.5 179t45.5 179t125.5 125.5t179 45.5t179 -45.5t125.5 -125.5t45.5 -179t-45.5 -179t-125.5 -125.5t-179 -45.5t-179 45.5zM523.5 123.5q59.5 33.5 93 93t33.5 133.5t-33.5 133.5t-93 93t-133.5 33.5t-133.5 -33.5t-93 -93
t-33.5 -133.5t33.5 -133.5t93 -93t133.5 -33.5t133.5 33.5zM540 757h-300v70h300v-70z" />
    <glyph glyph-name="Oslash" unicode="&#xd8;" horiz-adv-x="780" 
d="M650 590q43 -47 66.5 -108.5t23.5 -131.5q0 -99 -45.5 -179t-125.5 -125.5t-179 -45.5q-108 0 -194 55l-60 -71l-54 45l59 70q-48 47 -74.5 111.5t-26.5 139.5q0 99 45.5 179t125.5 125.5t179 45.5q118 0 207 -64l68 80l53 -46zM148 249.5q18 -46.5 52 -81.5l339 399
q-67 43 -149 43q-74 0 -133.5 -33.5t-93 -93t-33.5 -133.5q0 -54 18 -100.5zM523.5 123.5q59.5 33.5 93 93t33.5 133.5q0 98 -59 170l-336 -396q60 -34 135 -34q74 0 133.5 33.5z" />
    <glyph glyph-name="Oslashacute" unicode="&#x1fe;" horiz-adv-x="780" 
d="M650 590q43 -47 66.5 -108.5t23.5 -131.5q0 -99 -45.5 -179t-125.5 -125.5t-179 -45.5q-108 0 -194 55l-60 -71l-54 45l59 70q-48 47 -74.5 111.5t-26.5 139.5q0 99 45.5 179t125.5 125.5t179 45.5q118 0 207 -64l68 80l53 -46zM148 249.5q18 -46.5 52 -81.5l339 399
q-67 43 -149 43q-74 0 -133.5 -33.5t-93 -93t-33.5 -133.5q0 -54 18 -100.5zM523.5 123.5q59.5 33.5 93 93t33.5 133.5q0 98 -59 170l-336 -396q60 -34 135 -34q74 0 133.5 33.5zM544 844l-213 -133l-39 60l211 136z" />
    <glyph glyph-name="Otilde" unicode="&#xd5;" horiz-adv-x="780" 
d="M211 45.5q-80 45.5 -125.5 125.5t-45.5 179t45.5 179t125.5 125.5t179 45.5t179 -45.5t125.5 -125.5t45.5 -179t-45.5 -179t-125.5 -125.5t-179 -45.5t-179 45.5zM523.5 123.5q59.5 33.5 93 93t33.5 133.5t-33.5 133.5t-93 93t-133.5 33.5t-133.5 -33.5t-93 -93
t-33.5 -133.5t33.5 -133.5t93 -93t133.5 -33.5t133.5 33.5zM412 744q-16 7 -38 21q-11 7 -22.5 13t-20.5 6q-12 0 -25 -10t-31 -29l-48 46q58 69 106 69q19 0 35 -7t38 -21q11 -7 22.5 -13t20.5 -6q12 0 25 10t31 29l48 -46q-58 -69 -106 -69q-19 0 -35 7z" />
    <glyph glyph-name="Racute" unicode="&#x154;" horiz-adv-x="608" 
d="M588 0h-115l-180 268h-123v-268h-90v700h264q65 0 115.5 -27.5t79 -77t28.5 -111.5q0 -81 -45.5 -137t-123.5 -73zM170 610v-252h174q59 0 96 35t37 91t-37 91t-96 35h-174zM425 844l-213 -133l-39 60l211 136z" />
    <glyph glyph-name="Rcaron" unicode="&#x158;" horiz-adv-x="608" 
d="M588 0h-115l-180 268h-123v-268h-90v700h264q65 0 115.5 -27.5t79 -77t28.5 -111.5q0 -81 -45.5 -137t-123.5 -73zM170 610v-252h174q59 0 96 35t37 91t-37 91t-96 35h-174zM457 876l-176 -151l-176 151l47 52l129 -112l129 112z" />
    <glyph glyph-name="uni0156" unicode="&#x156;" horiz-adv-x="608" 
d="M588 0h-115l-180 268h-123v-268h-90v700h264q65 0 115.5 -27.5t79 -77t28.5 -111.5q0 -81 -45.5 -137t-123.5 -73zM170 610v-252h174q59 0 96 35t37 91t-37 91t-96 35h-174zM299 -210l-37 21l33 55q-18 5 -30.5 20.5t-12.5 34.5q0 24 16 40.5t41 16.5t41 -16.5t16 -40.5
q0 -7 -4.5 -17.5t-10.5 -22.5z" />
    <glyph glyph-name="Sacute" unicode="&#x15a;" horiz-adv-x="546" 
d="M124.5 49q-68.5 49 -89.5 136l82 38q15 -66 60 -99.5t110 -33.5q63 0 98.5 27t35.5 77q0 43 -26.5 69t-84.5 40l-78 20q-80 20 -122 68t-42 118q0 87 60 139t159 52q85 0 144 -40t80 -112l-82 -38q-28 100 -142 100q-60 0 -94.5 -26.5t-34.5 -73.5q0 -35 25 -61.5
t87 -43.5l81 -22q160 -44 160 -188q0 -91 -61 -143t-163 -52q-94 0 -162.5 49zM417 844l-213 -133l-39 60l211 136z" />
    <glyph glyph-name="Scaron" unicode="&#x160;" horiz-adv-x="546" 
d="M124.5 49q-68.5 49 -89.5 136l82 38q15 -66 60 -99.5t110 -33.5q63 0 98.5 27t35.5 77q0 43 -26.5 69t-84.5 40l-78 20q-80 20 -122 68t-42 118q0 87 60 139t159 52q85 0 144 -40t80 -112l-82 -38q-28 100 -142 100q-60 0 -94.5 -26.5t-34.5 -73.5q0 -35 25 -61.5
t87 -43.5l81 -22q160 -44 160 -188q0 -91 -61 -143t-163 -52q-94 0 -162.5 49zM449 876l-176 -151l-176 151l47 52l129 -112l129 112z" />
    <glyph glyph-name="Scedilla" unicode="&#x15e;" horiz-adv-x="546" 
d="M351 383q160 -44 160 -188q0 -83 -52 -134.5t-141 -59.5q25 -42 25 -82q0 -41 -25 -63.5t-62 -22.5q-27 0 -51 10v58q25 -7 38 -7q32 0 32 34q0 16 -7 35.5t-19 38.5q-81 10 -138.5 58t-75.5 125l82 38q15 -66 60 -99.5t110 -33.5q63 0 98.5 27t35.5 77q0 43 -26.5 69
t-84.5 40l-78 20q-80 20 -122 68t-42 118q0 87 60 139t159 52q85 0 144 -40t80 -112l-82 -38q-28 100 -142 100q-60 0 -94.5 -26.5t-34.5 -73.5q0 -35 25 -61.5t87 -43.5z" />
    <glyph glyph-name="Scircumflex" unicode="&#x15c;" horiz-adv-x="546" 
d="M124.5 49q-68.5 49 -89.5 136l82 38q15 -66 60 -99.5t110 -33.5q63 0 98.5 27t35.5 77q0 43 -26.5 69t-84.5 40l-78 20q-80 20 -122 68t-42 118q0 87 60 139t159 52q85 0 144 -40t80 -112l-82 -38q-28 100 -142 100q-60 0 -94.5 -26.5t-34.5 -73.5q0 -35 25 -61.5
t87 -43.5l81 -22q160 -44 160 -188q0 -91 -61 -143t-163 -52q-94 0 -162.5 49zM273 827l-129 -112l-47 52l176 151l176 -151l-47 -52z" />
    <glyph glyph-name="uni0218" unicode="&#x218;" horiz-adv-x="546" 
d="M124.5 49q-68.5 49 -89.5 136l82 38q15 -66 60 -99.5t110 -33.5q63 0 98.5 27t35.5 77q0 43 -26.5 69t-84.5 40l-78 20q-80 20 -122 68t-42 118q0 87 60 139t159 52q85 0 144 -40t80 -112l-82 -38q-28 100 -142 100q-60 0 -94.5 -26.5t-34.5 -73.5q0 -35 25 -61.5
t87 -43.5l81 -22q160 -44 160 -188q0 -91 -61 -143t-163 -52q-94 0 -162.5 49zM272 -210l-37 21l33 55q-18 5 -30.5 20.5t-12.5 34.5q0 24 16 40.5t41 16.5t41 -16.5t16 -40.5q0 -7 -4.5 -17.5t-10.5 -22.5z" />
    <glyph glyph-name="Tbar" unicode="&#x166;" horiz-adv-x="651" 
d="M646 700v-90h-276v-190h126v-90h-126v-330h-90v330h-124v90h124v190h-275v90h641z" />
    <glyph glyph-name="Tcaron" unicode="&#x164;" horiz-adv-x="651" 
d="M370 0h-90v610h-275v90h641v-90h-276v-610zM502 876l-176 -151l-176 151l47 52l129 -112l129 112z" />
    <glyph glyph-name="uni0162" unicode="&#x162;" horiz-adv-x="651" 
d="M370 610v-610h-7q24 -40 24 -81t-25 -63.5t-62 -22.5q-27 0 -51 10v58q25 -7 38 -7q32 0 32 34q0 32 -24 72h-15v610h-275v90h641v-90h-276z" />
    <glyph glyph-name="uni021A" unicode="&#x21a;" horiz-adv-x="651" 
d="M370 0h-90v610h-275v90h641v-90h-276v-610zM316 -210l-37 21l33 55q-18 5 -30.5 20.5t-12.5 34.5q0 24 16 40.5t41 16.5t41 -16.5t16 -40.5q0 -7 -4.5 -17.5t-10.5 -22.5z" />
    <glyph glyph-name="Thorn" unicode="&#xde;" horiz-adv-x="594" 
d="M170 124v-124h-90v700h90v-124h133q66 0 118.5 -29.5t82.5 -81t30 -115.5t-30 -115.5t-82.5 -81t-118.5 -29.5h-133zM170 486v-272h133q38 0 70 17.5t50.5 48.5t18.5 70t-18.5 70t-50.5 48.5t-70 17.5h-133z" />
    <glyph glyph-name="Uacute" unicode="&#xda;" horiz-adv-x="780" 
d="M227.5 42q-73.5 42 -115.5 115t-42 163v380h90v-380q0 -64 30.5 -117t83 -83t116.5 -30q65 0 117.5 30t82.5 82.5t30 117.5v380h90v-380q0 -90 -42 -163t-115 -115t-163 -42q-89 0 -162.5 42zM534 844l-213 -133l-39 60l211 136z" />
    <glyph glyph-name="Ubreve" unicode="&#x16c;" horiz-adv-x="780" 
d="M227.5 42q-73.5 42 -115.5 115t-42 163v380h90v-380q0 -64 30.5 -117t83 -83t116.5 -30q65 0 117.5 30t82.5 82.5t30 117.5v380h90v-380q0 -90 -42 -163t-115 -115t-163 -42q-89 0 -162.5 42zM286 770q-38 42 -38 111h73q0 -40 18 -60.5t51 -20.5t51 20.5t18 60.5h73
q0 -69 -38 -111t-104 -42t-104 42z" />
    <glyph glyph-name="Ucircumflex" unicode="&#xdb;" horiz-adv-x="780" 
d="M227.5 42q-73.5 42 -115.5 115t-42 163v380h90v-380q0 -64 30.5 -117t83 -83t116.5 -30q65 0 117.5 30t82.5 82.5t30 117.5v380h90v-380q0 -90 -42 -163t-115 -115t-163 -42q-89 0 -162.5 42zM390 827l-129 -112l-47 52l176 151l176 -151l-47 -52z" />
    <glyph glyph-name="Udieresis" unicode="&#xdc;" horiz-adv-x="780" 
d="M227.5 42q-73.5 42 -115.5 115t-42 163v380h90v-380q0 -64 30.5 -117t83 -83t116.5 -30q65 0 117.5 30t82.5 82.5t30 117.5v380h90v-380q0 -90 -42 -163t-115 -115t-163 -42q-89 0 -162.5 42zM240.5 746q-19.5 20 -19.5 48q0 29 19.5 48.5t48.5 19.5q28 0 48 -19.5
t20 -48.5q0 -28 -20 -48t-48 -20q-29 0 -48.5 20zM442.5 746q-19.5 20 -19.5 48q0 29 19.5 48.5t48.5 19.5q28 0 48 -19.5t20 -48.5q0 -28 -20 -48t-48 -20q-29 0 -48.5 20z" />
    <glyph glyph-name="Ugrave" unicode="&#xd9;" horiz-adv-x="780" 
d="M227.5 42q-73.5 42 -115.5 115t-42 163v380h90v-380q0 -64 30.5 -117t83 -83t116.5 -30q65 0 117.5 30t82.5 82.5t30 117.5v380h90v-380q0 -90 -42 -163t-115 -115t-163 -42q-89 0 -162.5 42zM496 771l-39 -60l-213 133l41 63z" />
    <glyph glyph-name="Uhungarumlaut" unicode="&#x170;" horiz-adv-x="780" 
d="M227.5 42q-73.5 42 -115.5 115t-42 163v380h90v-380q0 -64 30.5 -117t83 -83t116.5 -30q65 0 117.5 30t82.5 82.5t30 117.5v380h90v-380q0 -90 -42 -163t-115 -115t-163 -42q-89 0 -162.5 42zM426 847l-113 -123l-59 39l111 125zM579 837l-113 -123l-59 39l111 125z" />
    <glyph glyph-name="Umacron" unicode="&#x16a;" horiz-adv-x="780" 
d="M227.5 42q-73.5 42 -115.5 115t-42 163v380h90v-380q0 -64 30.5 -117t83 -83t116.5 -30q65 0 117.5 30t82.5 82.5t30 117.5v380h90v-380q0 -90 -42 -163t-115 -115t-163 -42q-89 0 -162.5 42zM540 757h-300v70h300v-70z" />
    <glyph glyph-name="Uogonek" unicode="&#x172;" horiz-adv-x="780" 
d="M620 700h90v-380q0 -83 -36.5 -152.5t-100.5 -113t-145 -52.5q-20 -16 -32.5 -34.5t-12.5 -34.5q0 -14 10 -21.5t27 -7.5q10 0 38 6v-58q-20 -9 -51 -9q-41 0 -64 20.5t-23 57.5q0 43 41 80q-82 7 -148.5 50.5t-104.5 113.5t-38 155v380h90v-380q0 -64 30.5 -117t83 -83
t116.5 -30q65 0 117.5 30t82.5 82.5t30 117.5v380z" />
    <glyph glyph-name="Uring" unicode="&#x16e;" horiz-adv-x="780" 
d="M227.5 42q-73.5 42 -115.5 115t-42 163v380h90v-380q0 -64 30.5 -117t83 -83t116.5 -30q65 0 117.5 30t82.5 82.5t30 117.5v380h90v-380q0 -90 -42 -163t-115 -115t-163 -42q-89 0 -162.5 42zM311 676q-31 31 -31 79t31 79.5t79 31.5t79 -31.5t31 -79.5t-31 -79t-79 -31
t-79 31zM428.5 715.5q14.5 15.5 14.5 39.5t-14.5 39.5t-38.5 15.5t-38.5 -15.5t-14.5 -39.5t14.5 -39.5t38.5 -15.5t38.5 15.5z" />
    <glyph glyph-name="Utilde" unicode="&#x168;" horiz-adv-x="780" 
d="M227.5 42q-73.5 42 -115.5 115t-42 163v380h90v-380q0 -64 30.5 -117t83 -83t116.5 -30q65 0 117.5 30t82.5 82.5t30 117.5v380h90v-380q0 -90 -42 -163t-115 -115t-163 -42q-89 0 -162.5 42zM412 744q-16 7 -38 21q-11 7 -22.5 13t-20.5 6q-12 0 -25 -10t-31 -29l-48 46
q58 69 106 69q19 0 35 -7t38 -21q11 -7 22.5 -13t20.5 -6q12 0 25 10t31 29l48 -46q-58 -69 -106 -69q-19 0 -35 7z" />
    <glyph glyph-name="Wacute" unicode="&#x1e82;" horiz-adv-x="1220" 
d="M354 0h-66l-278 700h97l217 -546l243 546h86l243 -546l217 546h97l-278 -700h-66l-256 573zM754 844l-213 -133l-39 60l211 136z" />
    <glyph glyph-name="Wcircumflex" unicode="&#x174;" horiz-adv-x="1220" 
d="M354 0h-66l-278 700h97l217 -546l243 546h86l243 -546l217 546h97l-278 -700h-66l-256 573zM610 827l-129 -112l-47 52l176 151l176 -151l-47 -52z" />
    <glyph glyph-name="Wdieresis" unicode="&#x1e84;" horiz-adv-x="1220" 
d="M354 0h-66l-278 700h97l217 -546l243 546h86l243 -546l217 546h97l-278 -700h-66l-256 573zM460.5 746q-19.5 20 -19.5 48q0 29 19.5 48.5t48.5 19.5q28 0 48 -19.5t20 -48.5q0 -28 -20 -48t-48 -20q-29 0 -48.5 20zM662.5 746q-19.5 20 -19.5 48q0 29 19.5 48.5
t48.5 19.5q28 0 48 -19.5t20 -48.5q0 -28 -20 -48t-48 -20q-29 0 -48.5 20z" />
    <glyph glyph-name="Wgrave" unicode="&#x1e80;" horiz-adv-x="1220" 
d="M354 0h-66l-278 700h97l217 -546l243 546h86l243 -546l217 546h97l-278 -700h-66l-256 573zM716 771l-39 -60l-213 133l41 63z" />
    <glyph glyph-name="Yacute" unicode="&#xdd;" horiz-adv-x="662" 
d="M376 0h-90v295l-281 405h110l216 -312l216 312h110l-281 -405v-295zM475 844l-213 -133l-39 60l211 136z" />
    <glyph glyph-name="Ycircumflex" unicode="&#x176;" horiz-adv-x="662" 
d="M376 0h-90v295l-281 405h110l216 -312l216 312h110l-281 -405v-295zM331 827l-129 -112l-47 52l176 151l176 -151l-47 -52z" />
    <glyph glyph-name="Ydieresis" unicode="&#x178;" horiz-adv-x="662" 
d="M376 0h-90v295l-281 405h110l216 -312l216 312h110l-281 -405v-295zM181.5 746q-19.5 20 -19.5 48q0 29 19.5 48.5t48.5 19.5q28 0 48 -19.5t20 -48.5q0 -28 -20 -48t-48 -20q-29 0 -48.5 20zM383.5 746q-19.5 20 -19.5 48q0 29 19.5 48.5t48.5 19.5q28 0 48 -19.5
t20 -48.5q0 -28 -20 -48t-48 -20q-29 0 -48.5 20z" />
    <glyph glyph-name="Ygrave" unicode="&#x1ef2;" horiz-adv-x="662" 
d="M376 0h-90v295l-281 405h110l216 -312l216 312h110l-281 -405v-295zM437 771l-39 -60l-213 133l41 63z" />
    <glyph glyph-name="Zacute" unicode="&#x179;" horiz-adv-x="622" 
d="M592 0h-562v69l428 541h-428v90h562v-69l-428 -541h428v-90zM455 844l-213 -133l-39 60l211 136z" />
    <glyph glyph-name="Zcaron" unicode="&#x17d;" horiz-adv-x="622" 
d="M592 0h-562v69l428 541h-428v90h562v-69l-428 -541h428v-90zM487 876l-176 -151l-176 151l47 52l129 -112l129 112z" />
    <glyph glyph-name="Zdotaccent" unicode="&#x17b;" horiz-adv-x="622" 
d="M592 0h-562v69l428 541h-428v90h562v-69l-428 -541h428v-90zM262.5 746q-19.5 20 -19.5 48q0 29 19.5 48.5t48.5 19.5q28 0 48 -19.5t20 -48.5q0 -28 -20 -48t-48 -20q-29 0 -48.5 20z" />
    <glyph glyph-name="a" unicode="a" horiz-adv-x="515" 
d="M413.5 470.5q51.5 -41.5 51.5 -130.5v-340h-86v71q-27 -41 -66.5 -62t-96.5 -21q-77 0 -124 40.5t-47 105.5t43 104.5t122 49.5l74 9q51 6 73 22t22 45q0 33 -28.5 52t-81.5 19q-55 0 -88.5 -23t-41.5 -67l-76 41q16 62 68 94t139 32q92 0 143.5 -41.5zM338 107
q41 41 41 105v44q-28 -23 -87 -32l-66 -9q-91 -12 -91 -78q0 -32 26 -51.5t70 -19.5q66 0 107 41z" />
    <glyph glyph-name="b" unicode="b" horiz-adv-x="603" 
d="M156 427q70 85 176 85q70 0 125 -33.5t85.5 -93t30.5 -135.5t-30.5 -135.5t-85.5 -93t-125 -33.5q-56 0 -100.5 21.5t-75.5 62.5v-72h-86v700h86v-273zM438.5 382.5q-45.5 49.5 -121.5 49.5t-121.5 -49.5t-45.5 -132.5t45.5 -132.5t121.5 -49.5t121.5 49.5t45.5 132.5
t-45.5 132.5z" />
    <glyph glyph-name="c" unicode="c" horiz-adv-x="498" 
d="M63.5 385.5q33.5 59.5 93.5 93t136 33.5q109 0 182 -73l-56 -66q-62 56 -131 56q-76 0 -122.5 -49.5t-46.5 -129.5q0 -52 21.5 -92.5t59.5 -63.5t87 -23q74 0 139 59l52 -67q-37 -37 -85.5 -56t-104.5 -19q-76 0 -134.5 33t-91 92t-32.5 136t33.5 136.5z" />
    <glyph glyph-name="d" unicode="d" horiz-adv-x="603" 
d="M533 700v-700h-86v72q-31 -41 -75.5 -62.5t-100.5 -21.5q-70 0 -125 33.5t-85.5 93t-30.5 135.5t30.5 135.5t85.5 93t125 33.5q106 0 176 -85v273h86zM164.5 382.5q-45.5 -49.5 -45.5 -132.5t45.5 -132.5t121.5 -49.5t121.5 49.5t45.5 132.5t-45.5 132.5t-121.5 49.5
t-121.5 -49.5z" />
    <glyph glyph-name="e" unicode="e" horiz-adv-x="547" 
d="M60.5 380.5q30.5 60.5 86.5 96t130 35.5q76 0 130.5 -34t82 -93.5t27.5 -134.5v-26h-400v-1q4 -73 50.5 -114t113.5 -41q93 0 159 77l45 -67q-34 -39 -85 -64.5t-115 -25.5q-75 0 -133 31.5t-90 90t-32 136.5q0 74 30.5 134.5zM423 293q-6 65 -43 102t-102 37
q-68 0 -108 -37t-49 -102h302z" />
    <glyph glyph-name="f" unicode="f" horiz-adv-x="380" 
d="M213 425v-425h-86v425h-112v75h112v28q0 96 42.5 140t118.5 44q32 0 77 -7v-79q-44 7 -66 7q-46 0 -66 -24t-20 -81v-28h145v-75h-145z" />
    <glyph glyph-name="g" unicode="g" horiz-adv-x="603" 
d="M61 385.5q31 59.5 86.5 93t126.5 33.5q56 0 102 -21.5t71 -58.5v68h86v-473q0 -118 -61.5 -179t-179.5 -61q-83 0 -138.5 30t-88.5 93l67 53q51 -100 167 -100q151 0 151 164v41q-25 -37 -72 -58.5t-103 -21.5q-74 0 -129.5 32.5t-85.5 91.5t-30 138q0 76 31 135.5z
M409 383q-44 49 -120 49t-123 -50t-47 -132t47 -132t123 -50t120 49t44 133t-44 133z" />
    <glyph glyph-name="h" unicode="h" horiz-adv-x="577" 
d="M156 424q54 88 163 88q90 0 139 -57t49 -161v-294h-88v298q0 63 -31 98.5t-86 35.5q-74 0 -110 -49t-36 -150v-233h-86v700h86v-276z" />
    <glyph glyph-name="i" unicode="i" horiz-adv-x="236" 
d="M75 500h86v-500h-86v500zM69 595q-19 19 -19 49t19 49t49 19t49 -19t19 -49t-19 -49t-49 -19t-49 19z" />
    <glyph glyph-name="j" unicode="j" horiz-adv-x="255" 
d="M175 -24q0 -93 -45.5 -136.5t-155.5 -43.5h-4v83h4q68 0 91.5 23.5t23.5 73.5v524h86v-524zM83 595q-19 19 -19 49t19 49t49 19t49 -19t19 -49t-19 -49t-49 -19t-49 19z" />
    <glyph glyph-name="k" unicode="k" horiz-adv-x="515" 
d="M393 0l-162 223l-75 -76v-147h-86v700h86v-442l228 242h121l-216 -218l216 -282h-112z" />
    <glyph glyph-name="l" unicode="l" horiz-adv-x="228" 
d="M70 700h88v-700h-88v700z" />
    <glyph glyph-name="m" unicode="m" horiz-adv-x="926" 
d="M555 488q45 24 107 24q96 0 145 -56.5t49 -167.5v-288h-87v299q0 65 -29.5 99t-86.5 34q-148 0 -148 -199v-233h-86v299q0 65 -30 99t-88 34q-145 0 -145 -199v-233h-86v500h83v-80q47 92 159 92q58 0 99.5 -25t64.5 -74q34 51 79 75z" />
    <glyph glyph-name="n" unicode="n" horiz-adv-x="577" 
d="M70 0v500h83v-77q27 45 70 67t97 22q88 0 137.5 -55.5t49.5 -155.5v-301h-88v298q0 65 -32 99.5t-91 34.5q-140 0 -140 -199v-233h-86z" />
    <glyph glyph-name="o" unicode="o" horiz-adv-x="584" 
d="M64 384q34 60 94 94t134 34t134 -34t94 -94t34 -134t-34 -134t-94 -94t-134 -34t-134 34t-94 94t-34 134t34 134zM417 379q-48 50 -125 50t-125 -50t-48 -129t48 -129t125 -50t125 50t48 129t-48 129z" />
    <glyph glyph-name="p" unicode="p" horiz-adv-x="603" 
d="M70 -200v700h86v-72q31 41 75.5 62.5t100.5 21.5q70 0 125 -33.5t85.5 -93t30.5 -135.5t-30.5 -135.5t-85.5 -93t-125 -33.5q-106 0 -176 85v-273h-86zM438.5 117.5q45.5 49.5 45.5 132.5t-45.5 132.5t-121.5 49.5t-121.5 -49.5t-45.5 -132.5t45.5 -132.5t121.5 -49.5
t121.5 49.5z" />
    <glyph glyph-name="q" unicode="q" horiz-adv-x="603" 
d="M447 73q-70 -85 -176 -85q-70 0 -125 33.5t-85.5 93t-30.5 135.5t30.5 135.5t85.5 93t125 33.5q56 0 100.5 -21.5t75.5 -62.5v72h86v-700h-86v273zM164.5 117.5q45.5 -49.5 121.5 -49.5t121.5 49.5t45.5 132.5t-45.5 132.5t-121.5 49.5t-121.5 -49.5t-45.5 -132.5
t45.5 -132.5z" />
    <glyph glyph-name="r" unicode="r" horiz-adv-x="373" 
d="M153 425q49 87 151 87q22 0 49 -5v-91q-25 6 -50 6q-80 0 -113.5 -49t-33.5 -140v-233h-86v500h83v-75z" />
    <glyph glyph-name="s" unicode="s" horiz-adv-x="463" 
d="M103.5 472q50.5 40 137.5 40q137 0 197 -108l-71 -45q-38 73 -130 73q-44 0 -71 -17t-27 -48q0 -21 13 -33.5t36 -20t70 -19.5q64 -16 100 -30.5t58 -43t22 -76.5q0 -74 -50.5 -115t-141.5 -41q-78 0 -136 30.5t-85 86.5l71 45q20 -40 59 -61t94 -21q50 0 76.5 18
t26.5 52q0 23 -12 36t-33.5 20.5t-65.5 17.5q-60 14 -98 29t-64 44.5t-26 78.5q0 68 50.5 108z" />
    <glyph glyph-name="t" unicode="t" horiz-adv-x="363" 
d="M338 7q-45 -12 -86 -12q-70 0 -104 33.5t-34 111.5v285h-99v75h99v134h86v-134h137v-75h-137v-290q0 -30 13.5 -45t43.5 -15q38 0 81 8v-76z" />
    <glyph glyph-name="u" unicode="u" horiz-adv-x="570" 
d="M500 500v-500h-83v72q-30 -43 -67.5 -63.5t-92.5 -20.5q-187 0 -187 216v296h88v-296q0 -65 25 -100.5t89 -35.5q79 0 110.5 54.5t31.5 144.5v233h86z" />
    <glyph glyph-name="v" unicode="v" horiz-adv-x="528" 
d="M298 0h-68l-220 500h101l153 -382l154 382h100z" />
    <glyph glyph-name="w" unicode="w" horiz-adv-x="866" 
d="M281 0h-66l-205 500h98l142 -371l152 371h62l152 -371l142 371h98l-205 -500h-66l-152 359z" />
    <glyph glyph-name="x" unicode="x" horiz-adv-x="520" 
d="M404 0l-144 183l-144 -183h-106l197 250l-197 250h106l144 -183l144 183h106l-197 -250l197 -250h-106z" />
    <glyph glyph-name="y" unicode="y" horiz-adv-x="525" 
d="M197 -200h-93l124 266l-218 434h104l160 -334l155 334h91z" />
    <glyph glyph-name="z" unicode="z" horiz-adv-x="454" 
d="M39 500h375v-77l-278 -343h288v-80h-394v77l278 343h-269v80z" />
    <glyph glyph-name="aacute" unicode="&#xe1;" horiz-adv-x="515" 
d="M413.5 470.5q51.5 -41.5 51.5 -130.5v-340h-86v71q-27 -41 -66.5 -62t-96.5 -21q-77 0 -124 40.5t-47 105.5t43 104.5t122 49.5l74 9q51 6 73 22t22 45q0 33 -28.5 52t-81.5 19q-55 0 -88.5 -23t-41.5 -67l-76 41q16 62 68 94t139 32q92 0 143.5 -41.5zM338 107
q41 41 41 105v44q-28 -23 -87 -32l-66 -9q-91 -12 -91 -78q0 -32 26 -51.5t70 -19.5q66 0 107 41zM142 631l211 136l41 -63l-213 -133z" />
    <glyph glyph-name="abreve" unicode="&#x103;" horiz-adv-x="515" 
d="M413.5 470.5q51.5 -41.5 51.5 -130.5v-340h-86v71q-27 -41 -66.5 -62t-96.5 -21q-77 0 -124 40.5t-47 105.5t43 104.5t122 49.5l74 9q51 6 73 22t22 45q0 33 -28.5 52t-81.5 19q-55 0 -88.5 -23t-41.5 -67l-76 41q16 62 68 94t139 32q92 0 143.5 -41.5zM338 107
q41 41 41 105v44q-28 -23 -87 -32l-66 -9q-91 -12 -91 -78q0 -32 26 -51.5t70 -19.5q66 0 107 41zM400 731q0 -69 -38 -111t-104 -42t-104 42t-38 111h73q0 -40 18 -60.5t51 -20.5t51 20.5t18 60.5h73z" />
    <glyph glyph-name="acircumflex" unicode="&#xe2;" horiz-adv-x="515" 
d="M413.5 470.5q51.5 -41.5 51.5 -130.5v-340h-86v71q-27 -41 -66.5 -62t-96.5 -21q-77 0 -124 40.5t-47 105.5t43 104.5t122 49.5l74 9q51 6 73 22t22 45q0 33 -28.5 52t-81.5 19q-55 0 -88.5 -23t-41.5 -67l-76 41q16 62 68 94t139 32q92 0 143.5 -41.5zM338 107
q41 41 41 105v44q-28 -23 -87 -32l-66 -9q-91 -12 -91 -78q0 -32 26 -51.5t70 -19.5q66 0 107 41zM82 617l176 151l176 -151l-47 -52l-129 112l-129 -112z" />
    <glyph glyph-name="adieresis" unicode="&#xe4;" horiz-adv-x="515" 
d="M413.5 470.5q51.5 -41.5 51.5 -130.5v-340h-86v71q-27 -41 -66.5 -62t-96.5 -21q-77 0 -124 40.5t-47 105.5t43 104.5t122 49.5l74 9q51 6 73 22t22 45q0 33 -28.5 52t-81.5 19q-55 0 -88.5 -23t-41.5 -67l-76 41q16 62 68 94t139 32q92 0 143.5 -41.5zM338 107
q41 41 41 105v44q-28 -23 -87 -32l-66 -9q-91 -12 -91 -78q0 -32 26 -51.5t70 -19.5q66 0 107 41zM108.5 692.5q19.5 19.5 48.5 19.5q28 0 48 -19.5t20 -48.5q0 -28 -20 -48t-48 -20q-29 0 -48.5 20t-19.5 48q0 29 19.5 48.5zM310.5 692.5q19.5 19.5 48.5 19.5
q28 0 48 -19.5t20 -48.5q0 -28 -20 -48t-48 -20q-29 0 -48.5 20t-19.5 48q0 29 19.5 48.5z" />
    <glyph glyph-name="ae" unicode="&#xe6;" horiz-adv-x="896" 
d="M506.5 17q-53.5 29 -83.5 83q-34 -51 -89 -80.5t-119 -29.5q-79 0 -124.5 43.5t-45.5 111.5q0 67 44.5 107t116.5 47l141 14q17 1 24.5 7.5t7.5 19.5v13q0 38 -28.5 60t-82.5 22q-53 0 -87 -22.5t-42 -67.5l-76 41q15 58 64.5 92t133.5 34q132 0 178 -90q31 43 78.5 66.5
t109.5 23.5q75 0 129 -34t82 -93.5t28 -134.5v-26h-400v-1q4 -74 50.5 -114.5t114.5 -40.5q50 0 89.5 21.5t68.5 55.5l45 -67q-37 -40 -85 -65t-117 -25q-72 0 -125.5 29zM772 293q-6 65 -42.5 102t-103.5 37t-107 -37.5t-49 -101.5h302zM307.5 90q34.5 19 53 49.5
t18.5 62.5v37l-163 -20q-40 -5 -60.5 -25.5t-20.5 -49.5q0 -33 24.5 -53t69.5 -20q44 0 78.5 19z" />
    <glyph glyph-name="aeacute" unicode="&#x1fd;" horiz-adv-x="896" 
d="M506.5 17q-53.5 29 -83.5 83q-34 -51 -89 -80.5t-119 -29.5q-79 0 -124.5 43.5t-45.5 111.5q0 67 44.5 107t116.5 47l141 14q17 1 24.5 7.5t7.5 19.5v13q0 38 -28.5 60t-82.5 22q-53 0 -87 -22.5t-42 -67.5l-76 41q15 58 64.5 92t133.5 34q132 0 178 -90q31 43 78.5 66.5
t109.5 23.5q75 0 129 -34t82 -93.5t28 -134.5v-26h-400v-1q4 -74 50.5 -114.5t114.5 -40.5q50 0 89.5 21.5t68.5 55.5l45 -67q-37 -40 -85 -65t-117 -25q-72 0 -125.5 29zM772 293q-6 65 -42.5 102t-103.5 37t-107 -37.5t-49 -101.5h302zM307.5 90q34.5 19 53 49.5
t18.5 62.5v37l-163 -20q-40 -5 -60.5 -25.5t-20.5 -49.5q0 -33 24.5 -53t69.5 -20q44 0 78.5 19zM330 631l211 136l41 -63l-213 -133z" />
    <glyph glyph-name="agrave" unicode="&#xe0;" horiz-adv-x="515" 
d="M413.5 470.5q51.5 -41.5 51.5 -130.5v-340h-86v71q-27 -41 -66.5 -62t-96.5 -21q-77 0 -124 40.5t-47 105.5t43 104.5t122 49.5l74 9q51 6 73 22t22 45q0 33 -28.5 52t-81.5 19q-55 0 -88.5 -23t-41.5 -67l-76 41q16 62 68 94t139 32q92 0 143.5 -41.5zM338 107
q41 41 41 105v44q-28 -23 -87 -32l-66 -9q-91 -12 -91 -78q0 -32 26 -51.5t70 -19.5q66 0 107 41zM132 704l41 63l211 -136l-39 -60z" />
    <glyph glyph-name="amacron" unicode="&#x101;" horiz-adv-x="515" 
d="M413.5 470.5q51.5 -41.5 51.5 -130.5v-340h-86v71q-27 -41 -66.5 -62t-96.5 -21q-77 0 -124 40.5t-47 105.5t43 104.5t122 49.5l74 9q51 6 73 22t22 45q0 33 -28.5 52t-81.5 19q-55 0 -88.5 -23t-41.5 -67l-76 41q16 62 68 94t139 32q92 0 143.5 -41.5zM338 107
q41 41 41 105v44q-28 -23 -87 -32l-66 -9q-91 -12 -91 -78q0 -32 26 -51.5t70 -19.5q66 0 107 41zM108 687h300v-70h-300v70z" />
    <glyph glyph-name="aogonek" unicode="&#x105;" horiz-adv-x="515" 
d="M421 0q-20 -16 -31.5 -34t-11.5 -33q0 -14 10 -21.5t27 -7.5q10 0 38 6v-58q-19 -9 -51 -9q-41 0 -64 20.5t-23 57.5q0 27 15.5 51t48.5 47v52q-27 -41 -66.5 -62t-96.5 -21q-77 0 -124 40.5t-47 105.5t43 104.5t122 49.5l74 9q51 6 73 22t22 45q0 33 -28.5 52t-81.5 19
q-55 0 -88.5 -23t-41.5 -67l-76 41q16 62 68 94t139 32q92 0 143.5 -41.5t51.5 -130.5v-340h-44zM338 107q41 41 41 105v44q-28 -23 -87 -32l-66 -9q-91 -12 -91 -78q0 -32 26 -51.5t70 -19.5q66 0 107 41z" />
    <glyph glyph-name="aring" unicode="&#xe5;" horiz-adv-x="515" 
d="M413.5 470.5q51.5 -41.5 51.5 -130.5v-340h-86v71q-27 -41 -66.5 -62t-96.5 -21q-77 0 -124 40.5t-47 105.5t43 104.5t122 49.5l74 9q51 6 73 22t22 45q0 33 -28.5 52t-81.5 19q-55 0 -88.5 -23t-41.5 -67l-76 41q16 62 68 94t139 32q92 0 143.5 -41.5zM338 107
q41 41 41 105v44q-28 -23 -87 -32l-66 -9q-91 -12 -91 -78q0 -32 26 -51.5t70 -19.5q66 0 107 41zM179 762.5q31 31.5 79 31.5t79 -31.5t31 -79.5t-31 -79t-79 -31t-79 31t-31 79t31 79.5zM296.5 722.5q-14.5 15.5 -38.5 15.5t-38.5 -15.5t-14.5 -39.5t14.5 -39.5
t38.5 -15.5t38.5 15.5t14.5 39.5t-14.5 39.5z" />
    <glyph glyph-name="atilde" unicode="&#xe3;" horiz-adv-x="515" 
d="M413.5 470.5q51.5 -41.5 51.5 -130.5v-340h-86v71q-27 -41 -66.5 -62t-96.5 -21q-77 0 -124 40.5t-47 105.5t43 104.5t122 49.5l74 9q51 6 73 22t22 45q0 33 -28.5 52t-81.5 19q-55 0 -88.5 -23t-41.5 -67l-76 41q16 62 68 94t139 32q92 0 143.5 -41.5zM338 107
q41 41 41 105v44q-28 -23 -87 -32l-66 -9q-91 -12 -91 -78q0 -32 26 -51.5t70 -19.5q66 0 107 41zM280 584q-16 7 -38 21q-11 7 -22.5 13t-20.5 6q-12 0 -25 -10t-31 -29l-48 46q58 69 106 69q19 0 35 -7t38 -21q11 -7 22.5 -13t20.5 -6q12 0 25 10t31 29l48 -46
q-58 -69 -106 -69q-19 0 -35 7z" />
    <glyph glyph-name="cacute" unicode="&#x107;" horiz-adv-x="498" 
d="M63.5 385.5q33.5 59.5 93.5 93t136 33.5q109 0 182 -73l-56 -66q-62 56 -131 56q-76 0 -122.5 -49.5t-46.5 -129.5q0 -52 21.5 -92.5t59.5 -63.5t87 -23q74 0 139 59l52 -67q-37 -37 -85.5 -56t-104.5 -19q-76 0 -134.5 33t-91 92t-32.5 136t33.5 136.5zM173 631l211 136
l41 -63l-213 -133z" />
    <glyph glyph-name="ccaron" unicode="&#x10d;" horiz-adv-x="498" 
d="M63.5 385.5q33.5 59.5 93.5 93t136 33.5q109 0 182 -73l-56 -66q-62 56 -131 56q-76 0 -122.5 -49.5t-46.5 -129.5q0 -52 21.5 -92.5t59.5 -63.5t87 -23q74 0 139 59l52 -67q-37 -37 -85.5 -56t-104.5 -19q-76 0 -134.5 33t-91 92t-32.5 136t33.5 136.5zM289 646l129 112
l47 -52l-176 -151l-176 151l47 52z" />
    <glyph glyph-name="ccedilla" unicode="&#xe7;" horiz-adv-x="498" 
d="M478 63q-64 -64 -157 -73q19 -35 19 -71q0 -41 -25 -63.5t-62 -22.5q-27 0 -51 10v58q25 -7 38 -7q32 0 32 34q0 27 -19 62q-67 7 -117.5 41.5t-78 90.5t-27.5 127q0 77 33.5 136.5t93.5 93t136 33.5q109 0 182 -73l-56 -66q-62 56 -131 56q-76 0 -122.5 -49.5
t-46.5 -129.5q0 -52 21.5 -92.5t59.5 -63.5t87 -23q74 0 139 59z" />
    <glyph glyph-name="ccircumflex" unicode="&#x109;" horiz-adv-x="498" 
d="M63.5 385.5q33.5 59.5 93.5 93t136 33.5q109 0 182 -73l-56 -66q-62 56 -131 56q-76 0 -122.5 -49.5t-46.5 -129.5q0 -52 21.5 -92.5t59.5 -63.5t87 -23q74 0 139 59l52 -67q-37 -37 -85.5 -56t-104.5 -19q-76 0 -134.5 33t-91 92t-32.5 136t33.5 136.5zM113 617l176 151
l176 -151l-47 -52l-129 112l-129 -112z" />
    <glyph glyph-name="cdotaccent" unicode="&#x10b;" horiz-adv-x="498" 
d="M63.5 385.5q33.5 59.5 93.5 93t136 33.5q109 0 182 -73l-56 -66q-62 56 -131 56q-76 0 -122.5 -49.5t-46.5 -129.5q0 -52 21.5 -92.5t59.5 -63.5t87 -23q74 0 139 59l52 -67q-37 -37 -85.5 -56t-104.5 -19q-76 0 -134.5 33t-91 92t-32.5 136t33.5 136.5zM240 595
q-19 19 -19 49t19 49t49 19t49 -19t19 -49t-19 -49t-49 -19t-49 19z" />
    <glyph glyph-name="dcaron" unicode="&#x10f;" horiz-adv-x="603" 
d="M590 548l61 204l70 -16l-61 -204zM533 700v-700h-86v72q-31 -41 -75.5 -62.5t-100.5 -21.5q-70 0 -125 33.5t-85.5 93t-30.5 135.5t30.5 135.5t85.5 93t125 33.5q106 0 176 -85v273h86zM164.5 382.5q-45.5 -49.5 -45.5 -132.5t45.5 -132.5t121.5 -49.5t121.5 49.5
t45.5 132.5t-45.5 132.5t-121.5 49.5t-121.5 -49.5z" />
    <glyph glyph-name="dcroat" unicode="&#x111;" horiz-adv-x="604" 
d="M599 652v-67h-66v-585h-86v72q-31 -41 -75.5 -62.5t-100.5 -21.5q-70 0 -125 33.5t-85.5 93t-30.5 135.5t30.5 135.5t85.5 93t125 33.5q106 0 176 -85v158h-118v67h118v48h86v-48h66zM407.5 117.5q45.5 49.5 45.5 132.5t-45.5 132.5t-121.5 49.5t-121.5 -49.5
t-45.5 -132.5t45.5 -132.5t121.5 -49.5t121.5 49.5z" />
    <glyph glyph-name="eacute" unicode="&#xe9;" horiz-adv-x="547" 
d="M60.5 380.5q30.5 60.5 86.5 96t130 35.5q76 0 130.5 -34t82 -93.5t27.5 -134.5v-26h-400v-1q4 -73 50.5 -114t113.5 -41q93 0 159 77l45 -67q-34 -39 -85 -64.5t-115 -25.5q-75 0 -133 31.5t-90 90t-32 136.5q0 74 30.5 134.5zM423 293q-6 65 -43 102t-102 37
q-68 0 -108 -37t-49 -102h302zM155 631l211 136l41 -63l-213 -133z" />
    <glyph glyph-name="ebreve" unicode="&#x115;" horiz-adv-x="547" 
d="M60.5 380.5q30.5 60.5 86.5 96t130 35.5q76 0 130.5 -34t82 -93.5t27.5 -134.5v-26h-400v-1q4 -73 50.5 -114t113.5 -41q93 0 159 77l45 -67q-34 -39 -85 -64.5t-115 -25.5q-75 0 -133 31.5t-90 90t-32 136.5q0 74 30.5 134.5zM423 293q-6 65 -43 102t-102 37
q-68 0 -108 -37t-49 -102h302zM413 731q0 -69 -38 -111t-104 -42t-104 42t-38 111h73q0 -40 18 -60.5t51 -20.5t51 20.5t18 60.5h73z" />
    <glyph glyph-name="ecaron" unicode="&#x11b;" horiz-adv-x="547" 
d="M60.5 380.5q30.5 60.5 86.5 96t130 35.5q76 0 130.5 -34t82 -93.5t27.5 -134.5v-26h-400v-1q4 -73 50.5 -114t113.5 -41q93 0 159 77l45 -67q-34 -39 -85 -64.5t-115 -25.5q-75 0 -133 31.5t-90 90t-32 136.5q0 74 30.5 134.5zM423 293q-6 65 -43 102t-102 37
q-68 0 -108 -37t-49 -102h302zM271 646l129 112l47 -52l-176 -151l-176 151l47 52z" />
    <glyph glyph-name="ecircumflex" unicode="&#xea;" horiz-adv-x="547" 
d="M60.5 380.5q30.5 60.5 86.5 96t130 35.5q76 0 130.5 -34t82 -93.5t27.5 -134.5v-26h-400v-1q4 -73 50.5 -114t113.5 -41q93 0 159 77l45 -67q-34 -39 -85 -64.5t-115 -25.5q-75 0 -133 31.5t-90 90t-32 136.5q0 74 30.5 134.5zM423 293q-6 65 -43 102t-102 37
q-68 0 -108 -37t-49 -102h302zM95 617l176 151l176 -151l-47 -52l-129 112l-129 -112z" />
    <glyph glyph-name="edieresis" unicode="&#xeb;" horiz-adv-x="547" 
d="M60.5 380.5q30.5 60.5 86.5 96t130 35.5q76 0 130.5 -34t82 -93.5t27.5 -134.5v-26h-400v-1q4 -73 50.5 -114t113.5 -41q93 0 159 77l45 -67q-34 -39 -85 -64.5t-115 -25.5q-75 0 -133 31.5t-90 90t-32 136.5q0 74 30.5 134.5zM423 293q-6 65 -43 102t-102 37
q-68 0 -108 -37t-49 -102h302zM121.5 692.5q19.5 19.5 48.5 19.5q28 0 48 -19.5t20 -48.5q0 -28 -20 -48t-48 -20q-29 0 -48.5 20t-19.5 48q0 29 19.5 48.5zM323.5 692.5q19.5 19.5 48.5 19.5q28 0 48 -19.5t20 -48.5q0 -28 -20 -48t-48 -20q-29 0 -48.5 20t-19.5 48
q0 29 19.5 48.5z" />
    <glyph glyph-name="edotaccent" unicode="&#x117;" horiz-adv-x="547" 
d="M60.5 380.5q30.5 60.5 86.5 96t130 35.5q76 0 130.5 -34t82 -93.5t27.5 -134.5v-26h-400v-1q4 -73 50.5 -114t113.5 -41q93 0 159 77l45 -67q-34 -39 -85 -64.5t-115 -25.5q-75 0 -133 31.5t-90 90t-32 136.5q0 74 30.5 134.5zM423 293q-6 65 -43 102t-102 37
q-68 0 -108 -37t-49 -102h302zM222 595q-19 19 -19 49t19 49t49 19t49 -19t19 -49t-19 -49t-49 -19t-49 19z" />
    <glyph glyph-name="egrave" unicode="&#xe8;" horiz-adv-x="547" 
d="M60.5 380.5q30.5 60.5 86.5 96t130 35.5q76 0 130.5 -34t82 -93.5t27.5 -134.5v-26h-400v-1q4 -73 50.5 -114t113.5 -41q93 0 159 77l45 -67q-34 -39 -85 -64.5t-115 -25.5q-75 0 -133 31.5t-90 90t-32 136.5q0 74 30.5 134.5zM423 293q-6 65 -43 102t-102 37
q-68 0 -108 -37t-49 -102h302zM145 704l41 63l211 -136l-39 -60z" />
    <glyph glyph-name="emacron" unicode="&#x113;" horiz-adv-x="547" 
d="M60.5 380.5q30.5 60.5 86.5 96t130 35.5q76 0 130.5 -34t82 -93.5t27.5 -134.5v-26h-400v-1q4 -73 50.5 -114t113.5 -41q93 0 159 77l45 -67q-34 -39 -85 -64.5t-115 -25.5q-75 0 -133 31.5t-90 90t-32 136.5q0 74 30.5 134.5zM423 293q-6 65 -43 102t-102 37
q-68 0 -108 -37t-49 -102h302zM121 687h300v-70h-300v70z" />
    <glyph glyph-name="eogonek" unicode="&#x119;" horiz-adv-x="547" 
d="M517 224h-400v-1q4 -73 50.5 -114t113.5 -41q93 0 159 77l45 -67q-43 -48 -101 -71q-30 -17 -48.5 -40.5t-18.5 -43.5q0 -14 10 -21.5t27 -7.5q10 0 38 6v-58q-20 -9 -51 -9q-41 0 -64 20.5t-23 57.5q0 42 38 77h-7q-75 0 -133 31.5t-90 90t-32 136.5q0 74 30.5 134.5
t86.5 96t130 35.5q76 0 130.5 -34t82 -93.5t27.5 -134.5v-26zM170 395q-40 -37 -49 -102h302q-6 65 -43 102t-102 37q-68 0 -108 -37z" />
    <glyph glyph-name="gbreve" unicode="&#x11f;" horiz-adv-x="603" 
d="M61 385.5q31 59.5 86.5 93t126.5 33.5q56 0 102 -21.5t71 -58.5v68h86v-473q0 -118 -61.5 -179t-179.5 -61q-83 0 -138.5 30t-88.5 93l67 53q51 -100 167 -100q151 0 151 164v41q-25 -37 -72 -58.5t-103 -21.5q-74 0 -129.5 32.5t-85.5 91.5t-30 138q0 76 31 135.5z
M409 383q-44 49 -120 49t-123 -50t-47 -132t47 -132t123 -50t120 49t44 133t-44 133zM439 731q0 -69 -38 -111t-104 -42t-104 42t-38 111h73q0 -40 18 -60.5t51 -20.5t51 20.5t18 60.5h73z" />
    <glyph glyph-name="gcircumflex" unicode="&#x11d;" horiz-adv-x="603" 
d="M61 385.5q31 59.5 86.5 93t126.5 33.5q56 0 102 -21.5t71 -58.5v68h86v-473q0 -118 -61.5 -179t-179.5 -61q-83 0 -138.5 30t-88.5 93l67 53q51 -100 167 -100q151 0 151 164v41q-25 -37 -72 -58.5t-103 -21.5q-74 0 -129.5 32.5t-85.5 91.5t-30 138q0 76 31 135.5z
M409 383q-44 49 -120 49t-123 -50t-47 -132t47 -132t123 -50t120 49t44 133t-44 133zM121 617l176 151l176 -151l-47 -52l-129 112l-129 -112z" />
    <glyph glyph-name="uni0123" unicode="&#x123;" horiz-adv-x="603" 
d="M61 385.5q31 59.5 86.5 93t126.5 33.5q56 0 102 -21.5t71 -58.5v68h86v-473q0 -118 -61.5 -179t-179.5 -61q-83 0 -138.5 30t-88.5 93l67 53q51 -100 167 -100q151 0 151 164v41q-25 -37 -72 -58.5t-103 -21.5q-74 0 -129.5 32.5t-85.5 91.5t-30 138q0 76 31 135.5z
M409 383q-44 49 -120 49t-123 -50t-47 -132t47 -132t123 -50t120 49t44 133t-44 133zM253 578.5q-18 18.5 -18 43.5q0 15 9 31l73 129l41 -23l-46 -77q21 -5 34 -22t13 -38q0 -25 -18.5 -43.5t-43.5 -18.5q-26 0 -44 18.5z" />
    <glyph glyph-name="gdotaccent" unicode="&#x121;" horiz-adv-x="603" 
d="M61 385.5q31 59.5 86.5 93t126.5 33.5q56 0 102 -21.5t71 -58.5v68h86v-473q0 -118 -61.5 -179t-179.5 -61q-83 0 -138.5 30t-88.5 93l67 53q51 -100 167 -100q151 0 151 164v41q-25 -37 -72 -58.5t-103 -21.5q-74 0 -129.5 32.5t-85.5 91.5t-30 138q0 76 31 135.5z
M409 383q-44 49 -120 49t-123 -50t-47 -132t47 -132t123 -50t120 49t44 133t-44 133zM248 595q-19 19 -19 49t19 49t49 19t49 -19t19 -49t-19 -49t-49 -19t-49 19z" />
    <glyph glyph-name="hbar" unicode="&#x127;" horiz-adv-x="577" 
d="M458 455q49 -57 49 -161v-294h-88v298q0 63 -31 98.5t-86 35.5q-74 0 -110 -49t-36 -150v-233h-86v585h-68v67h68v48h86v-48h108v-67h-108v-161q54 88 163 88q90 0 139 -57z" />
    <glyph glyph-name="hcircumflex" unicode="&#x125;" horiz-adv-x="577" 
d="M156 424q54 88 163 88q90 0 139 -57t49 -161v-294h-88v298q0 63 -31 98.5t-86 35.5q-74 0 -110 -49t-36 -150v-233h-86v700h86v-276zM113 827l-129 -112l-47 52l176 151l176 -151l-47 -52z" />
    <glyph glyph-name="iacute" unicode="&#xed;" horiz-adv-x="236" 
d="M75 500h86v-500h-86v500zM2 631l211 136l41 -63l-213 -133z" />
    <glyph glyph-name="ibreve" unicode="&#x12d;" horiz-adv-x="236" 
d="M75 500h86v-500h-86v500zM260 731q0 -69 -38 -111t-104 -42t-104 42t-38 111h73q0 -40 18 -60.5t51 -20.5t51 20.5t18 60.5h73z" />
    <glyph glyph-name="icircumflex" unicode="&#xee;" horiz-adv-x="236" 
d="M75 500h86v-500h-86v500zM-58 617l176 151l176 -151l-47 -52l-129 112l-129 -112z" />
    <glyph glyph-name="idieresis" unicode="&#xef;" horiz-adv-x="236" 
d="M75 500h86v-500h-86v500zM-31.5 692.5q19.5 19.5 48.5 19.5q28 0 48 -19.5t20 -48.5q0 -28 -20 -48t-48 -20q-29 0 -48.5 20t-19.5 48q0 29 19.5 48.5zM170.5 692.5q19.5 19.5 48.5 19.5q28 0 48 -19.5t20 -48.5q0 -28 -20 -48t-48 -20q-29 0 -48.5 20t-19.5 48
q0 29 19.5 48.5z" />
    <glyph glyph-name="i.loclTRK" horiz-adv-x="236" 
d="M75 500h86v-500h-86v500zM69 595q-19 19 -19 49t19 49t49 19t49 -19t19 -49t-19 -49t-49 -19t-49 19z" />
    <glyph glyph-name="dotlessi" unicode="&#x131;" horiz-adv-x="236" 
d="M75 500h86v-500h-86v500z" />
    <glyph glyph-name="igrave" unicode="&#xec;" horiz-adv-x="236" 
d="M75 500h86v-500h-86v500zM-8 704l41 63l211 -136l-39 -60z" />
    <glyph glyph-name="ij" unicode="&#x133;" horiz-adv-x="491" 
d="M75 500h86v-500h-86v500zM69 595q-19 19 -19 49t19 49t49 19t49 -19t19 -49t-19 -49t-49 -19t-49 19zM411 -24q0 -93 -45.5 -136.5t-155.5 -43.5h-4v83h4q68 0 91.5 23.5t23.5 73.5v524h86v-524zM319 595q-19 19 -19 49t19 49t49 19t49 -19t19 -49t-19 -49t-49 -19
t-49 19z" />
    <glyph glyph-name="imacron" unicode="&#x12b;" horiz-adv-x="236" 
d="M75 500h86v-500h-86v500zM-32 687h300v-70h-300v70z" />
    <glyph glyph-name="iogonek" unicode="&#x12f;" horiz-adv-x="236" 
d="M167 693q19 -19 19 -49t-19 -49t-49 -19t-49 19t-19 49t19 49t49 19t49 -19zM75 500h86v-500h-32q-20 -16 -31.5 -34t-11.5 -33q0 -14 10 -21.5t27 -7.5q10 0 38 6v-58q-19 -9 -51 -9q-41 0 -64 20.5t-23 57.5q0 49 52 89v490z" />
    <glyph glyph-name="itilde" unicode="&#x129;" horiz-adv-x="236" 
d="M75 500h86v-500h-86v500zM140 584q-16 7 -38 21q-11 7 -22.5 13t-20.5 6q-12 0 -25 -10t-31 -29l-48 46q58 69 106 69q19 0 35 -7t38 -21q11 -7 22.5 -13t20.5 -6q12 0 25 10t31 29l48 -46q-58 -69 -106 -69q-19 0 -35 7z" />
    <glyph glyph-name="jcircumflex" unicode="&#x135;" horiz-adv-x="255" 
d="M175 -24q0 -93 -45.5 -136.5t-155.5 -43.5h-4v83h4q68 0 91.5 23.5t23.5 73.5v524h86v-524zM-44 617l176 151l176 -151l-47 -52l-129 112l-129 -112z" />
    <glyph glyph-name="uni0237" unicode="&#x237;" horiz-adv-x="255" 
d="M175 -24q0 -93 -45.5 -136.5t-155.5 -43.5h-4v83h4q68 0 91.5 23.5t23.5 73.5v524h86v-524z" />
    <glyph glyph-name="uni0137" unicode="&#x137;" horiz-adv-x="515" 
d="M393 0l-162 223l-75 -76v-147h-86v700h86v-442l228 242h121l-216 -218l216 -282h-112zM248 -210l-37 21l33 55q-18 5 -30.5 20.5t-12.5 34.5q0 24 16 40.5t41 16.5t41 -16.5t16 -40.5q0 -7 -4.5 -17.5t-10.5 -22.5z" />
    <glyph glyph-name="kgreenlandic" unicode="&#x138;" horiz-adv-x="515" 
d="M393 0l-162 223l-75 -76v-147h-86v500h86v-242l228 242h121l-216 -218l216 -282h-112z" />
    <glyph glyph-name="lacute" unicode="&#x13a;" horiz-adv-x="228" 
d="M70 700h88v-700h-88v700zM258 844l-213 -133l-39 60l211 136z" />
    <glyph glyph-name="lcaron" unicode="&#x13e;" horiz-adv-x="228" 
d="M225 548l61 204l70 -16l-61 -204zM70 700h88v-700h-88v700z" />
    <glyph glyph-name="uni013C" unicode="&#x13c;" horiz-adv-x="228" 
d="M70 700h88v-700h-88v700zM104 -210l-37 21l33 55q-18 5 -30.5 20.5t-12.5 34.5q0 24 16 40.5t41 16.5t41 -16.5t16 -40.5q0 -7 -4.5 -17.5t-10.5 -22.5z" />
    <glyph glyph-name="ldot" unicode="&#x140;" horiz-adv-x="404" 
d="M70 700h88v-700h-88v700zM228 328q-20 20 -20 48q0 29 20 48.5t48 19.5q29 0 48.5 -19.5t19.5 -48.5q0 -28 -19.5 -48t-48.5 -20q-28 0 -48 20z" />
    <glyph glyph-name="lslash" unicode="&#x142;" horiz-adv-x="338" 
d="M324 510l29 -62l-140 -61v-387h-88v348l-111 -48l-29 62l140 61v277h88v-238z" />
    <glyph glyph-name="nacute" unicode="&#x144;" horiz-adv-x="577" 
d="M70 0v500h83v-77q27 45 70 67t97 22q88 0 137.5 -55.5t49.5 -155.5v-301h-88v298q0 65 -32 99.5t-91 34.5q-140 0 -140 -199v-233h-86zM173 631l211 136l41 -63l-213 -133z" />
    <glyph glyph-name="napostrophe" unicode="&#x149;" horiz-adv-x="577" 
d="M-9 548l61 204l70 -16l-61 -204zM70 0v500h83v-77q27 45 70 67t97 22q88 0 137.5 -55.5t49.5 -155.5v-301h-88v298q0 65 -32 99.5t-91 34.5q-140 0 -140 -199v-233h-86z" />
    <glyph glyph-name="ncaron" unicode="&#x148;" horiz-adv-x="577" 
d="M70 0v500h83v-77q27 45 70 67t97 22q88 0 137.5 -55.5t49.5 -155.5v-301h-88v298q0 65 -32 99.5t-91 34.5q-140 0 -140 -199v-233h-86zM289 646l129 112l47 -52l-176 -151l-176 151l47 52z" />
    <glyph glyph-name="uni0146" unicode="&#x146;" horiz-adv-x="577" 
d="M70 0v500h83v-77q27 45 70 67t97 22q88 0 137.5 -55.5t49.5 -155.5v-301h-88v298q0 65 -32 99.5t-91 34.5q-140 0 -140 -199v-233h-86zM279 -210l-37 21l33 55q-18 5 -30.5 20.5t-12.5 34.5q0 24 16 40.5t41 16.5t41 -16.5t16 -40.5q0 -7 -4.5 -17.5t-10.5 -22.5z" />
    <glyph glyph-name="ntilde" unicode="&#xf1;" horiz-adv-x="577" 
d="M70 0v500h83v-77q27 45 70 67t97 22q88 0 137.5 -55.5t49.5 -155.5v-301h-88v298q0 65 -32 99.5t-91 34.5q-140 0 -140 -199v-233h-86zM311 584q-16 7 -38 21q-11 7 -22.5 13t-20.5 6q-12 0 -25 -10t-31 -29l-48 46q58 69 106 69q19 0 35 -7t38 -21q11 -7 22.5 -13
t20.5 -6q12 0 25 10t31 29l48 -46q-58 -69 -106 -69q-19 0 -35 7z" />
    <glyph glyph-name="eng" unicode="&#x14b;" horiz-adv-x="577" 
d="M301 -197v78q38 -3 52 -3q34 0 50 20t16 71v329q0 64 -32 99t-86 35q-80 0 -112.5 -53t-32.5 -146v-233h-86v500h83v-67q29 40 72 59.5t94 19.5q93 0 140.5 -59t47.5 -159v-325q0 -171 -143 -171q-23 0 -63 5z" />
    <glyph glyph-name="oacute" unicode="&#xf3;" horiz-adv-x="584" 
d="M64 384q34 60 94 94t134 34t134 -34t94 -94t34 -134t-34 -134t-94 -94t-134 -34t-134 34t-94 94t-34 134t34 134zM417 379q-48 50 -125 50t-125 -50t-48 -129t48 -129t125 -50t125 50t48 129t-48 129zM176 631l211 136l41 -63l-213 -133z" />
    <glyph glyph-name="obreve" unicode="&#x14f;" horiz-adv-x="584" 
d="M64 384q34 60 94 94t134 34t134 -34t94 -94t34 -134t-34 -134t-94 -94t-134 -34t-134 34t-94 94t-34 134t34 134zM417 379q-48 50 -125 50t-125 -50t-48 -129t48 -129t125 -50t125 50t48 129t-48 129zM434 731q0 -69 -38 -111t-104 -42t-104 42t-38 111h73
q0 -40 18 -60.5t51 -20.5t51 20.5t18 60.5h73z" />
    <glyph glyph-name="ocircumflex" unicode="&#xf4;" horiz-adv-x="584" 
d="M64 384q34 60 94 94t134 34t134 -34t94 -94t34 -134t-34 -134t-94 -94t-134 -34t-134 34t-94 94t-34 134t34 134zM417 379q-48 50 -125 50t-125 -50t-48 -129t48 -129t125 -50t125 50t48 129t-48 129zM116 617l176 151l176 -151l-47 -52l-129 112l-129 -112z" />
    <glyph glyph-name="odieresis" unicode="&#xf6;" horiz-adv-x="584" 
d="M64 384q34 60 94 94t134 34t134 -34t94 -94t34 -134t-34 -134t-94 -94t-134 -34t-134 34t-94 94t-34 134t34 134zM417 379q-48 50 -125 50t-125 -50t-48 -129t48 -129t125 -50t125 50t48 129t-48 129zM142.5 692.5q19.5 19.5 48.5 19.5q28 0 48 -19.5t20 -48.5
q0 -28 -20 -48t-48 -20q-29 0 -48.5 20t-19.5 48q0 29 19.5 48.5zM344.5 692.5q19.5 19.5 48.5 19.5q28 0 48 -19.5t20 -48.5q0 -28 -20 -48t-48 -20q-29 0 -48.5 20t-19.5 48q0 29 19.5 48.5z" />
    <glyph glyph-name="oe" unicode="&#x153;" horiz-adv-x="982" 
d="M591 18q-54 30 -84 86q-32 -55 -87.5 -85.5t-127.5 -30.5q-74 0 -134 34t-94 94t-34 134t34 134t94 94t134 34q73 0 129 -31.5t87 -87.5q30 56 81.5 87.5t122.5 31.5q76 0 130.5 -34t82 -93.5t27.5 -134.5v-26h-400v-1q4 -73 50.5 -114t113.5 -41q93 0 159 77l45 -67
q-34 -39 -85 -64.5t-115 -25.5q-75 0 -129 30zM858 293q-6 65 -43 102t-102 37q-68 0 -108 -37t-49 -102h302zM417 379q-48 50 -125 50t-125 -50t-48 -129t48 -129t125 -50t125 50t48 129t-48 129z" />
    <glyph glyph-name="ograve" unicode="&#xf2;" horiz-adv-x="584" 
d="M64 384q34 60 94 94t134 34t134 -34t94 -94t34 -134t-34 -134t-94 -94t-134 -34t-134 34t-94 94t-34 134t34 134zM417 379q-48 50 -125 50t-125 -50t-48 -129t48 -129t125 -50t125 50t48 129t-48 129zM166 704l41 63l211 -136l-39 -60z" />
    <glyph glyph-name="ohungarumlaut" unicode="&#x151;" horiz-adv-x="584" 
d="M64 384q34 60 94 94t134 34t134 -34t94 -94t34 -134t-34 -134t-94 -94t-134 -34t-134 34t-94 94t-34 134t34 134zM417 379q-48 50 -125 50t-125 -50t-48 -129t48 -129t125 -50t125 50t48 129t-48 129zM168 613l111 165l61 -41l-113 -163zM321 603l111 165l61 -41
l-113 -163z" />
    <glyph glyph-name="omacron" unicode="&#x14d;" horiz-adv-x="584" 
d="M64 384q34 60 94 94t134 34t134 -34t94 -94t34 -134t-34 -134t-94 -94t-134 -34t-134 34t-94 94t-34 134t34 134zM417 379q-48 50 -125 50t-125 -50t-48 -129t48 -129t125 -50t125 50t48 129t-48 129zM142 687h300v-70h-300v70z" />
    <glyph glyph-name="ordfeminine" unicode="&#xaa;" horiz-adv-x="441" 
d="M87.5 356.5q-37.5 34.5 -37.5 89.5q0 54 36 85t83 34l144 12q0 44 -18.5 63t-63.5 19q-41 0 -65.5 -15.5t-33.5 -50.5l-70 37q31 99 163 99q166 0 166 -154v-245h-78v54q-19 -29 -51.5 -45.5t-74.5 -16.5q-62 0 -99.5 34.5zM256 409.5q26 13.5 41.5 35t15.5 45.5v19
l-132 -14q-25 -4 -38 -17.5t-13 -32.5q0 -22 18 -35.5t50 -13.5t58 13.5z" />
    <glyph glyph-name="ordmasculine" unicode="&#xba;" horiz-adv-x="518" 
d="M78 627.5q28 46.5 76 74t105 27.5t105 -27.5t76 -74t28 -102.5t-28 -102.5t-76 -74t-105 -27.5t-105 27.5t-76 74t-28 102.5t28 102.5zM348.5 614.5q-35.5 36.5 -89.5 36.5q-53 0 -88.5 -36.5t-35.5 -89.5t35.5 -89.5t88.5 -36.5q54 0 89.5 36.5t35.5 89.5t-35.5 89.5z
" />
    <glyph glyph-name="oslash" unicode="&#xf8;" horiz-adv-x="584" 
d="M489 427q31 -35 48 -80t17 -97q0 -74 -34 -134t-94 -94t-134 -34q-80 0 -142 39l-37 -43l-54 45l37 43q-32 35 -49 80.5t-17 97.5q0 74 34 134t94 94t134 34q81 0 144 -40l37 44l53 -46zM152 139l228 268q-39 22 -88 22q-77 0 -125 -50t-48 -129q0 -64 33 -111zM417 121
q48 50 48 129q0 62 -32 110l-228 -268q40 -21 87 -21q77 0 125 50z" />
    <glyph glyph-name="oslashacute" unicode="&#x1ff;" horiz-adv-x="584" 
d="M489 427q31 -35 48 -80t17 -97q0 -74 -34 -134t-94 -94t-134 -34q-80 0 -142 39l-37 -43l-54 45l37 43q-32 35 -49 80.5t-17 97.5q0 74 34 134t94 94t134 34q81 0 144 -40l37 44l53 -46zM152 139l228 268q-39 22 -88 22q-77 0 -125 -50t-48 -129q0 -64 33 -111zM417 121
q48 50 48 129q0 62 -32 110l-228 -268q40 -21 87 -21q77 0 125 50zM176 631l211 136l41 -63l-213 -133z" />
    <glyph glyph-name="otilde" unicode="&#xf5;" horiz-adv-x="584" 
d="M64 384q34 60 94 94t134 34t134 -34t94 -94t34 -134t-34 -134t-94 -94t-134 -34t-134 34t-94 94t-34 134t34 134zM417 379q-48 50 -125 50t-125 -50t-48 -129t48 -129t125 -50t125 50t48 129t-48 129zM314 584q-16 7 -38 21q-11 7 -22.5 13t-20.5 6q-12 0 -25 -10
t-31 -29l-48 46q58 69 106 69q19 0 35 -7t38 -21q11 -7 22.5 -13t20.5 -6q12 0 25 10t31 29l48 -46q-58 -69 -106 -69q-19 0 -35 7z" />
    <glyph glyph-name="racute" unicode="&#x155;" horiz-adv-x="373" 
d="M153 425q49 87 151 87q22 0 49 -5v-91q-25 6 -50 6q-80 0 -113.5 -49t-33.5 -140v-233h-86v500h83v-75zM111 631l211 136l41 -63l-213 -133z" />
    <glyph glyph-name="rcaron" unicode="&#x159;" horiz-adv-x="373" 
d="M153 425q49 87 151 87q22 0 49 -5v-91q-25 6 -50 6q-80 0 -113.5 -49t-33.5 -140v-233h-86v500h83v-75zM227 646l129 112l47 -52l-176 -151l-176 151l47 52z" />
    <glyph glyph-name="uni0157" unicode="&#x157;" horiz-adv-x="373" 
d="M153 425q49 87 151 87q22 0 49 -5v-91q-25 6 -50 6q-80 0 -113.5 -49t-33.5 -140v-233h-86v500h83v-75zM103 -210l-37 21l33 55q-18 5 -30.5 20.5t-12.5 34.5q0 24 16 40.5t41 16.5t41 -16.5t16 -40.5q0 -7 -4.5 -17.5t-10.5 -22.5z" />
    <glyph glyph-name="sacute" unicode="&#x15b;" horiz-adv-x="463" 
d="M103.5 472q50.5 40 137.5 40q137 0 197 -108l-71 -45q-38 73 -130 73q-44 0 -71 -17t-27 -48q0 -21 13 -33.5t36 -20t70 -19.5q64 -16 100 -30.5t58 -43t22 -76.5q0 -74 -50.5 -115t-141.5 -41q-78 0 -136 30.5t-85 86.5l71 45q20 -40 59 -61t94 -21q50 0 76.5 18
t26.5 52q0 23 -12 36t-33.5 20.5t-65.5 17.5q-60 14 -98 29t-64 44.5t-26 78.5q0 68 50.5 108zM125 631l211 136l41 -63l-213 -133z" />
    <glyph glyph-name="scaron" unicode="&#x161;" horiz-adv-x="463" 
d="M103.5 472q50.5 40 137.5 40q137 0 197 -108l-71 -45q-38 73 -130 73q-44 0 -71 -17t-27 -48q0 -21 13 -33.5t36 -20t70 -19.5q64 -16 100 -30.5t58 -43t22 -76.5q0 -74 -50.5 -115t-141.5 -41q-78 0 -136 30.5t-85 86.5l71 45q20 -40 59 -61t94 -21q50 0 76.5 18
t26.5 52q0 23 -12 36t-33.5 20.5t-65.5 17.5q-60 14 -98 29t-64 44.5t-26 78.5q0 68 50.5 108zM241 646l129 112l47 -52l-176 -151l-176 151l47 52z" />
    <glyph glyph-name="scedilla" unicode="&#x15f;" horiz-adv-x="463" 
d="M358 263.5q36 -14.5 58 -43t22 -76.5q0 -65 -40 -105.5t-114 -48.5q19 -35 19 -71q0 -41 -25 -63.5t-62 -22.5q-27 0 -51 10v58q25 -7 38 -7q32 0 32 34q0 27 -18 61q-68 6 -117.5 36t-74.5 80l71 45q20 -40 59 -61t94 -21q50 0 76.5 18t26.5 52q0 23 -12 36t-33.5 20.5
t-65.5 17.5q-60 14 -98 29t-64 44.5t-26 78.5q0 68 50.5 108t137.5 40q137 0 197 -108l-71 -45q-38 73 -130 73q-44 0 -71 -17t-27 -48q0 -21 13 -33.5t36 -20t70 -19.5q64 -16 100 -30.5z" />
    <glyph glyph-name="scircumflex" unicode="&#x15d;" horiz-adv-x="463" 
d="M103.5 472q50.5 40 137.5 40q137 0 197 -108l-71 -45q-38 73 -130 73q-44 0 -71 -17t-27 -48q0 -21 13 -33.5t36 -20t70 -19.5q64 -16 100 -30.5t58 -43t22 -76.5q0 -74 -50.5 -115t-141.5 -41q-78 0 -136 30.5t-85 86.5l71 45q20 -40 59 -61t94 -21q50 0 76.5 18
t26.5 52q0 23 -12 36t-33.5 20.5t-65.5 17.5q-60 14 -98 29t-64 44.5t-26 78.5q0 68 50.5 108zM65 617l176 151l176 -151l-47 -52l-129 112l-129 -112z" />
    <glyph glyph-name="uni0219" unicode="&#x219;" horiz-adv-x="463" 
d="M103.5 472q50.5 40 137.5 40q137 0 197 -108l-71 -45q-38 73 -130 73q-44 0 -71 -17t-27 -48q0 -21 13 -33.5t36 -20t70 -19.5q64 -16 100 -30.5t58 -43t22 -76.5q0 -74 -50.5 -115t-141.5 -41q-78 0 -136 30.5t-85 86.5l71 45q20 -40 59 -61t94 -21q50 0 76.5 18
t26.5 52q0 23 -12 36t-33.5 20.5t-65.5 17.5q-60 14 -98 29t-64 44.5t-26 78.5q0 68 50.5 108zM232 -210l-37 21l33 55q-18 5 -30.5 20.5t-12.5 34.5q0 24 16 40.5t41 16.5t41 -16.5t16 -40.5q0 -7 -4.5 -17.5t-10.5 -22.5z" />
    <glyph glyph-name="tbar" unicode="&#x167;" horiz-adv-x="363" 
d="M338 7q-45 -12 -86 -12q-70 0 -104 33.5t-34 111.5v108h-81v77h81v100h-99v75h99v134h86v-134h137v-75h-137v-100h119v-77h-119v-113q0 -30 13.5 -45t43.5 -15q38 0 81 8v-76z" />
    <glyph glyph-name="tcaron" unicode="&#x165;" horiz-adv-x="373" 
d="M247 548l61 204l70 -16l-61 -204zM338 7q-45 -12 -86 -12q-70 0 -104 33.5t-34 111.5v285h-99v75h99v134h86v-134h137v-75h-137v-290q0 -30 13.5 -45t43.5 -15q38 0 81 8v-76z" />
    <glyph glyph-name="uni0163" unicode="&#x163;" horiz-adv-x="363" 
d="M338 7q-34 -10 -67 -11q22 -38 22 -77q0 -41 -25 -63.5t-62 -22.5q-27 0 -51 10v58q25 -7 38 -7q32 0 32 34t-25 72q-43 11 -64.5 44.5t-21.5 95.5v285h-99v75h99v134h86v-134h137v-75h-137v-290q0 -30 13.5 -45t43.5 -15q38 0 81 8v-76z" />
    <glyph glyph-name="uni021B" unicode="&#x21b;" horiz-adv-x="363" 
d="M338 7q-45 -12 -86 -12q-70 0 -104 33.5t-34 111.5v285h-99v75h99v134h86v-134h137v-75h-137v-290q0 -30 13.5 -45t43.5 -15q38 0 81 8v-76zM222 -210l-37 21l33 55q-18 5 -30.5 20.5t-12.5 34.5q0 24 16 40.5t41 16.5t41 -16.5t16 -40.5q0 -7 -4.5 -17.5t-10.5 -22.5z
" />
    <glyph glyph-name="thorn" unicode="&#xfe;" horiz-adv-x="603" 
d="M70 -200v900h86v-272q29 39 73.5 61.5t102.5 22.5q68 0 123 -32.5t86.5 -92t31.5 -137.5t-31.5 -137.5t-86.5 -92t-123 -32.5q-106 0 -176 85v-273h-86zM439 118.5q45 50.5 45 131.5t-45 131.5t-122 50.5q-76 0 -121.5 -49.5t-45.5 -132.5t45.5 -132.5t121.5 -49.5
q77 0 122 50.5z" />
    <glyph glyph-name="uacute" unicode="&#xfa;" horiz-adv-x="570" 
d="M500 500v-500h-83v72q-30 -43 -67.5 -63.5t-92.5 -20.5q-187 0 -187 216v296h88v-296q0 -65 25 -100.5t89 -35.5q79 0 110.5 54.5t31.5 144.5v233h86zM169 631l211 136l41 -63l-213 -133z" />
    <glyph glyph-name="ubreve" unicode="&#x16d;" horiz-adv-x="570" 
d="M500 500v-500h-83v72q-30 -43 -67.5 -63.5t-92.5 -20.5q-187 0 -187 216v296h88v-296q0 -65 25 -100.5t89 -35.5q79 0 110.5 54.5t31.5 144.5v233h86zM427 731q0 -69 -38 -111t-104 -42t-104 42t-38 111h73q0 -40 18 -60.5t51 -20.5t51 20.5t18 60.5h73z" />
    <glyph glyph-name="ucircumflex" unicode="&#xfb;" horiz-adv-x="570" 
d="M500 500v-500h-83v72q-30 -43 -67.5 -63.5t-92.5 -20.5q-187 0 -187 216v296h88v-296q0 -65 25 -100.5t89 -35.5q79 0 110.5 54.5t31.5 144.5v233h86zM109 617l176 151l176 -151l-47 -52l-129 112l-129 -112z" />
    <glyph glyph-name="udieresis" unicode="&#xfc;" horiz-adv-x="570" 
d="M500 500v-500h-83v72q-30 -43 -67.5 -63.5t-92.5 -20.5q-187 0 -187 216v296h88v-296q0 -65 25 -100.5t89 -35.5q79 0 110.5 54.5t31.5 144.5v233h86zM135.5 692.5q19.5 19.5 48.5 19.5q28 0 48 -19.5t20 -48.5q0 -28 -20 -48t-48 -20q-29 0 -48.5 20t-19.5 48
q0 29 19.5 48.5zM337.5 692.5q19.5 19.5 48.5 19.5q28 0 48 -19.5t20 -48.5q0 -28 -20 -48t-48 -20q-29 0 -48.5 20t-19.5 48q0 29 19.5 48.5z" />
    <glyph glyph-name="ugrave" unicode="&#xf9;" horiz-adv-x="570" 
d="M500 500v-500h-83v72q-30 -43 -67.5 -63.5t-92.5 -20.5q-187 0 -187 216v296h88v-296q0 -65 25 -100.5t89 -35.5q79 0 110.5 54.5t31.5 144.5v233h86zM159 704l41 63l211 -136l-39 -60z" />
    <glyph glyph-name="uhungarumlaut" unicode="&#x171;" horiz-adv-x="570" 
d="M500 500v-500h-83v72q-30 -43 -67.5 -63.5t-92.5 -20.5q-187 0 -187 216v296h88v-296q0 -65 25 -100.5t89 -35.5q79 0 110.5 54.5t31.5 144.5v233h86zM161 613l111 165l61 -41l-113 -163zM314 603l111 165l61 -41l-113 -163z" />
    <glyph glyph-name="umacron" unicode="&#x16b;" horiz-adv-x="570" 
d="M500 500v-500h-83v72q-30 -43 -67.5 -63.5t-92.5 -20.5q-187 0 -187 216v296h88v-296q0 -65 25 -100.5t89 -35.5q79 0 110.5 54.5t31.5 144.5v233h86zM135 687h300v-70h-300v70z" />
    <glyph glyph-name="uogonek" unicode="&#x173;" horiz-adv-x="570" 
d="M461 0q-20 -16 -31.5 -34t-11.5 -33q0 -14 10 -21.5t27 -7.5q10 0 38 6v-58q-19 -9 -51 -9q-41 0 -64 20.5t-23 57.5q0 27 15 50.5t47 46.5v54q-30 -43 -67.5 -63.5t-92.5 -20.5q-187 0 -187 216v296h88v-296q0 -65 25 -100.5t89 -35.5q79 0 110.5 54.5t31.5 144.5v233
h86v-500h-39z" />
    <glyph glyph-name="uring" unicode="&#x16f;" horiz-adv-x="570" 
d="M500 500v-500h-83v72q-30 -43 -67.5 -63.5t-92.5 -20.5q-187 0 -187 216v296h88v-296q0 -65 25 -100.5t89 -35.5q79 0 110.5 54.5t31.5 144.5v233h86zM206 762.5q31 31.5 79 31.5t79 -31.5t31 -79.5t-31 -79t-79 -31t-79 31t-31 79t31 79.5zM323.5 722.5
q-14.5 15.5 -38.5 15.5t-38.5 -15.5t-14.5 -39.5t14.5 -39.5t38.5 -15.5t38.5 15.5t14.5 39.5t-14.5 39.5z" />
    <glyph glyph-name="utilde" unicode="&#x169;" horiz-adv-x="570" 
d="M500 500v-500h-83v72q-30 -43 -67.5 -63.5t-92.5 -20.5q-187 0 -187 216v296h88v-296q0 -65 25 -100.5t89 -35.5q79 0 110.5 54.5t31.5 144.5v233h86zM307 584q-16 7 -38 21q-11 7 -22.5 13t-20.5 6q-12 0 -25 -10t-31 -29l-48 46q58 69 106 69q19 0 35 -7t38 -21
q11 -7 22.5 -13t20.5 -6q12 0 25 10t31 29l48 -46q-58 -69 -106 -69q-19 0 -35 7z" />
    <glyph glyph-name="wacute" unicode="&#x1e83;" horiz-adv-x="866" 
d="M281 0h-66l-205 500h98l142 -371l152 371h62l152 -371l142 371h98l-205 -500h-66l-152 359zM317 631l211 136l41 -63l-213 -133z" />
    <glyph glyph-name="wcircumflex" unicode="&#x175;" horiz-adv-x="866" 
d="M281 0h-66l-205 500h98l142 -371l152 371h62l152 -371l142 371h98l-205 -500h-66l-152 359zM257 617l176 151l176 -151l-47 -52l-129 112l-129 -112z" />
    <glyph glyph-name="wdieresis" unicode="&#x1e85;" horiz-adv-x="866" 
d="M281 0h-66l-205 500h98l142 -371l152 371h62l152 -371l142 371h98l-205 -500h-66l-152 359zM283.5 692.5q19.5 19.5 48.5 19.5q28 0 48 -19.5t20 -48.5q0 -28 -20 -48t-48 -20q-29 0 -48.5 20t-19.5 48q0 29 19.5 48.5zM485.5 692.5q19.5 19.5 48.5 19.5q28 0 48 -19.5
t20 -48.5q0 -28 -20 -48t-48 -20q-29 0 -48.5 20t-19.5 48q0 29 19.5 48.5z" />
    <glyph glyph-name="wgrave" unicode="&#x1e81;" horiz-adv-x="866" 
d="M281 0h-66l-205 500h98l142 -371l152 371h62l152 -371l142 371h98l-205 -500h-66l-152 359zM307 704l41 63l211 -136l-39 -60z" />
    <glyph glyph-name="yacute" unicode="&#xfd;" horiz-adv-x="525" 
d="M197 -200h-93l124 266l-218 434h104l160 -334l155 334h91zM147 631l211 136l41 -63l-213 -133z" />
    <glyph glyph-name="ycircumflex" unicode="&#x177;" horiz-adv-x="525" 
d="M197 -200h-93l124 266l-218 434h104l160 -334l155 334h91zM87 617l176 151l176 -151l-47 -52l-129 112l-129 -112z" />
    <glyph glyph-name="ydieresis" unicode="&#xff;" horiz-adv-x="525" 
d="M197 -200h-93l124 266l-218 434h104l160 -334l155 334h91zM113.5 692.5q19.5 19.5 48.5 19.5q28 0 48 -19.5t20 -48.5q0 -28 -20 -48t-48 -20q-29 0 -48.5 20t-19.5 48q0 29 19.5 48.5zM315.5 692.5q19.5 19.5 48.5 19.5q28 0 48 -19.5t20 -48.5q0 -28 -20 -48t-48 -20
q-29 0 -48.5 20t-19.5 48q0 29 19.5 48.5z" />
    <glyph glyph-name="ygrave" unicode="&#x1ef3;" horiz-adv-x="525" 
d="M197 -200h-93l124 266l-218 434h104l160 -334l155 334h91zM137 704l41 63l211 -136l-39 -60z" />
    <glyph glyph-name="zacute" unicode="&#x17a;" horiz-adv-x="454" 
d="M39 500h375v-77l-278 -343h288v-80h-394v77l278 343h-269v80zM111 631l211 136l41 -63l-213 -133z" />
    <glyph glyph-name="zcaron" unicode="&#x17e;" horiz-adv-x="454" 
d="M39 500h375v-77l-278 -343h288v-80h-394v77l278 343h-269v80zM227 646l129 112l47 -52l-176 -151l-176 151l47 52z" />
    <glyph glyph-name="zdotaccent" unicode="&#x17c;" horiz-adv-x="454" 
d="M39 500h375v-77l-278 -343h288v-80h-394v77l278 343h-269v80zM178 595q-19 19 -19 49t19 49t49 19t49 -19t19 -49t-19 -49t-49 -19t-49 19z" />
    <glyph glyph-name="germandbls" unicode="&#xdf;" horiz-adv-x="573" 
d="M70 482q0 105 53.5 167.5t160.5 62.5q100 0 152 -50t52 -126q0 -50 -28.5 -91.5t-75.5 -53.5q69 -9 114 -58.5t45 -128.5q0 -100 -64 -155.5t-172 -55.5q-30 0 -63 3v79q28 -2 54 -2q72 0 115.5 33t43.5 98q0 67 -49 103t-125 36h-33v80h33q57 0 88 30t31 83
q0 43 -33 69.5t-89 26.5q-58 0 -91 -39t-33 -111v-557h-86v557z" />
    <glyph glyph-name="eth" unicode="&#xf0;" horiz-adv-x="594" 
d="M153 21.5q-58 33.5 -90.5 92.5t-32.5 135q0 75 32.5 135t89.5 94t129 34q63 0 113.5 -26.5t80.5 -75.5q-18 135 -141 231l-114 -77l-40 55l92 62q-40 24 -108 47l30 68q88 -28 149 -66l80 54l40 -56l-60 -41q59 -47 99 -120q57 -107 57 -259q0 -76 -20 -137t-58 -103
q-35 -39 -85 -59.5t-111 -20.5q-74 0 -132 33.5zM412.5 379.5q-47.5 49.5 -124.5 49.5q-76 0 -122.5 -48.5t-46.5 -128.5q0 -53 21.5 -94t60.5 -64t88 -23q76 0 123.5 49.5t47.5 128.5q0 81 -47.5 130.5z" />
    <glyph glyph-name="grave" unicode="`" horiz-adv-x="352" 
d="M50 704l41 63l211 -136l-39 -60z" />
    <glyph glyph-name="acute" unicode="&#xb4;" horiz-adv-x="352" 
d="M50 631l211 136l41 -63l-213 -133z" />
    <glyph glyph-name="circumflex" unicode="&#x2c6;" horiz-adv-x="452" 
d="M50 617l176 151l176 -151l-47 -52l-129 112l-129 -112z" />
    <glyph glyph-name="tilde" unicode="&#x2dc;" horiz-adv-x="426" 
d="M235 584q-16 7 -38 21q-11 7 -22.5 13t-20.5 6q-12 0 -25 -10t-31 -29l-48 46q58 69 106 69q19 0 35 -7t38 -21q11 -7 22.5 -13t20.5 -6q12 0 25 10t31 29l48 -46q-58 -69 -106 -69q-19 0 -35 7z" />
    <glyph glyph-name="caron" unicode="&#x2c7;" horiz-adv-x="452" 
d="M226 646l129 112l47 -52l-176 -151l-176 151l47 52z" />
    <glyph glyph-name="dieresis" unicode="&#xa8;" horiz-adv-x="438" 
d="M69.5 692.5q19.5 19.5 48.5 19.5q28 0 48 -19.5t20 -48.5q0 -28 -20 -48t-48 -20q-29 0 -48.5 20t-19.5 48q0 29 19.5 48.5zM271.5 692.5q19.5 19.5 48.5 19.5q28 0 48 -19.5t20 -48.5q0 -28 -20 -48t-48 -20q-29 0 -48.5 20t-19.5 48q0 29 19.5 48.5z" />
    <glyph glyph-name="macron" unicode="&#xaf;" horiz-adv-x="400" 
d="M50 687h300v-70h-300v70z" />
    <glyph glyph-name="breve" unicode="&#x2d8;" horiz-adv-x="384" 
d="M334 731q0 -69 -38 -111t-104 -42t-104 42t-38 111h73q0 -40 18 -60.5t51 -20.5t51 20.5t18 60.5h73z" />
    <glyph glyph-name="ring" unicode="&#x2da;" horiz-adv-x="320" 
d="M81 762.5q31 31.5 79 31.5t79 -31.5t31 -79.5t-31 -79t-79 -31t-79 31t-31 79t31 79.5zM198.5 722.5q-14.5 15.5 -38.5 15.5t-38.5 -15.5t-14.5 -39.5t14.5 -39.5t38.5 -15.5t38.5 15.5t14.5 39.5t-14.5 39.5z" />
    <glyph glyph-name="hungarumlaut" unicode="&#x2dd;" horiz-adv-x="425" 
d="M50 613l111 165l61 -41l-113 -163zM203 603l111 165l61 -41l-113 -163z" />
    <glyph glyph-name="dotaccent" unicode="&#x2d9;" horiz-adv-x="236" 
d="M69 595q-19 19 -19 49t19 49t49 19t49 -19t19 -49t-19 -49t-49 -19t-49 19z" />
    <glyph glyph-name="cedilla" unicode="&#xb8;" horiz-adv-x="238" 
d="M155 13q33 -46 33 -94q0 -41 -25 -63.5t-62 -22.5q-27 0 -51 10v58q24 -7 38 -7q32 0 32 34q0 18 -9 41t-24 44h68z" />
    <glyph glyph-name="ogonek" unicode="&#x2db;" horiz-adv-x="238" 
d="M186 10q-31 -16 -52 -41t-21 -46q0 -14 10 -21.5t27 -7.5q10 0 38 6v-58q-20 -9 -51 -9q-41 0 -64 20.5t-23 57.5q0 30 19 56t60 52z" />
    <glyph glyph-name="comma" unicode="," horiz-adv-x="330" 
d="M15 -162l174 312l71 -40l-175 -310z" />
    <glyph glyph-name="semicolon" unicode=";" horiz-adv-x="366" 
d="M161.5 377.5q-22.5 22.5 -22.5 55.5t22.5 56t55.5 23t56 -23t23 -56t-23 -55.5t-56 -22.5t-55.5 22.5zM260 110l-175 -310l-70 38l174 312z" />
    <glyph glyph-name="colon" unicode=":" horiz-adv-x="317" 
d="M214 489q23 -23 23 -56t-23 -55.5t-56 -22.5t-55.5 22.5t-22.5 55.5t22.5 56t55.5 23t56 -23zM214 134q23 -23 23 -56t-23 -55.5t-56 -22.5t-55.5 22.5t-22.5 55.5t22.5 56t55.5 23t56 -23z" />
    <glyph glyph-name="period" unicode="." horiz-adv-x="317" 
d="M214 134q23 -23 23 -56t-23 -55.5t-56 -22.5t-55.5 22.5t-22.5 55.5t22.5 56t55.5 23t56 -23z" />
    <glyph glyph-name="ellipsis" unicode="&#x2026;" horiz-adv-x="969" 
d="M122.5 22.5q-22.5 22.5 -22.5 55.5t22.5 56t55.5 23t56 -23t23 -56t-23 -55.5t-56 -22.5t-55.5 22.5zM428.5 22.5q-22.5 22.5 -22.5 55.5t22.5 56t55.5 23t56 -23t23 -56t-23 -55.5t-56 -22.5t-55.5 22.5zM734.5 22.5q-22.5 22.5 -22.5 55.5t22.5 56t55.5 23t56 -23
t23 -56t-23 -55.5t-56 -22.5t-55.5 22.5z" />
    <glyph glyph-name="hyphen" unicode="-" horiz-adv-x="628" 
d="M80 354h468v-90h-468v90z" />
    <glyph glyph-name="exclam" unicode="!" horiz-adv-x="317" 
d="M203 220h-90v480h90v-480zM214 134q23 -23 23 -56t-23 -55.5t-56 -22.5t-55.5 22.5t-22.5 55.5t22.5 56t55.5 23t56 -23z" />
    <glyph glyph-name="exclamdown" unicode="&#xa1;" horiz-adv-x="317" 
d="M102.5 366q-22.5 23 -22.5 56t22.5 55.5t55.5 22.5t56 -22.5t23 -55.5t-23 -56t-56 -23t-55.5 23zM113 -200v480h90v-480h-90z" />
    <glyph glyph-name="question" unicode="?" horiz-adv-x="551" 
d="M223 222q0 60 26 100t72 80q29 25 44.5 47t15.5 56q0 44 -29.5 74.5t-84.5 30.5q-60 0 -94.5 -37.5t-34.5 -104.5h-88q0 67 26 119.5t75.5 82.5t116.5 30q60 0 106 -24t71.5 -67.5t25.5 -100.5t-24 -95t-73 -83q-33 -30 -47 -51.5t-14 -56.5v-25h-90v25zM325 134
q23 -23 23 -56t-23 -55.5t-56 -22.5t-55.5 22.5t-22.5 55.5t22.5 56t55.5 23t56 -23z" />
    <glyph glyph-name="questiondown" unicode="&#xbf;" horiz-adv-x="551" 
d="M226 366q-23 23 -23 56t23 55.5t56 22.5t55.5 -22.5t22.5 -55.5t-22.5 -56t-55.5 -23t-56 23zM328 278q0 -60 -26 -100t-72 -80q-29 -25 -44.5 -47t-15.5 -56q0 -44 29.5 -74.5t84.5 -30.5q60 0 94.5 37.5t34.5 104.5h88q0 -67 -26 -119.5t-75.5 -82.5t-116.5 -30
q-60 0 -106 24t-71.5 67.5t-25.5 100.5t24 95t73 83q33 30 47 51.5t14 56.5v25h90v-25z" />
    <glyph glyph-name="quoteleft" unicode="&#x2018;" horiz-adv-x="243" 
d="M152 712l50 -28l-71 -122q25 -7 40.5 -27t15.5 -45q0 -31 -21.5 -52.5t-52.5 -21.5q-32 0 -53 21t-21 53q0 20 9 35z" />
    <glyph glyph-name="quoteright" unicode="&#x2019;" horiz-adv-x="243" 
d="M90 416l-50 28l71 122q-25 7 -40.5 27t-15.5 45q0 31 21.5 52.5t52.5 21.5q32 0 53 -21t21 -53q0 -20 -9 -35z" />
    <glyph glyph-name="quotedblleft" unicode="&#x201c;" horiz-adv-x="430" 
d="M153 712l50 -28l-71 -122q25 -7 40.5 -27t15.5 -45q0 -31 -21.5 -52.5t-52.5 -21.5q-32 0 -53 21t-21 53q0 20 9 35zM340 712l50 -28l-71 -122q25 -7 40.5 -27t15.5 -45q0 -31 -21.5 -52.5t-52.5 -21.5q-32 0 -53 21t-21 53q0 20 9 35z" />
    <glyph glyph-name="quotedblright" unicode="&#x201d;" horiz-adv-x="430" 
d="M277 416l-50 28l71 122q-25 7 -40.5 27t-15.5 45q0 31 21.5 52.5t52.5 21.5q32 0 53 -21t21 -53q0 -20 -9 -35zM90 416l-50 28l71 122q-25 7 -40.5 27t-15.5 45q0 31 21.5 52.5t52.5 21.5q32 0 53 -21t21 -53q0 -20 -9 -35z" />
    <glyph glyph-name="quotesinglbase" unicode="&#x201a;" horiz-adv-x="243" 
d="M90 -148l-50 28l71 122q-25 7 -40.5 27t-15.5 45q0 31 21.5 52.5t52.5 21.5q32 0 53 -21t21 -53q0 -20 -9 -35z" />
    <glyph glyph-name="quotedblbase" unicode="&#x201e;" horiz-adv-x="430" 
d="M277 -148l-50 28l71 122q-25 7 -40.5 27t-15.5 45q0 31 21.5 52.5t52.5 21.5q32 0 53 -21t21 -53q0 -20 -9 -35zM90 -148l-50 28l71 122q-25 7 -40.5 27t-15.5 45q0 31 21.5 52.5t52.5 21.5q32 0 53 -21t21 -53q0 -20 -9 -35z" />
    <glyph glyph-name="guilsinglleft" unicode="&#x2039;" horiz-adv-x="322" 
d="M50 260l185 210l57 -52l-143 -158l143 -159l-57 -51z" />
    <glyph glyph-name="guilsinglright" unicode="&#x203a;" horiz-adv-x="322" 
d="M272 260l-185 -210l-57 51l143 159l-143 158l57 52z" />
    <glyph glyph-name="periodcentered" unicode="&#xb7;" horiz-adv-x="357" 
d="M131 298q-20 20 -20 48q0 29 20 48.5t48 19.5q29 0 48.5 -19.5t19.5 -48.5q0 -28 -19.5 -48t-48.5 -20q-28 0 -48 20z" />
    <glyph glyph-name="slash" unicode="/" horiz-adv-x="592" 
d="M10 -5l510 755l62 -45l-510 -755z" />
    <glyph glyph-name="bar" unicode="|" horiz-adv-x="275" 
d="M100 761h75v-895h-75v895z" />
    <glyph glyph-name="endash" unicode="&#x2013;" horiz-adv-x="948" 
d="M80 354h788v-90h-788v90z" />
    <glyph glyph-name="emdash" unicode="&#x2014;" horiz-adv-x="1398" 
d="M80 354h1238v-90h-1238v90z" />
    <glyph glyph-name="bullet" unicode="&#x2022;" horiz-adv-x="428" 
d="M125.5 231.5q-35.5 35.5 -35.5 88.5t35.5 88.5t88.5 35.5t88.5 -35.5t35.5 -88.5t-35.5 -88.5t-88.5 -35.5t-88.5 35.5z" />
    <glyph glyph-name="parenleft" unicode="(" horiz-adv-x="312" 
d="M109.5 573.5q49.5 123.5 140.5 216.5l57 -52q-82 -92 -122.5 -193.5t-40.5 -231.5q0 -129 40.5 -231t122.5 -194l-57 -52q-91 93 -140.5 216.5t-49.5 260.5t49.5 260.5z" />
    <glyph glyph-name="parenright" unicode=")" horiz-adv-x="312" 
d="M62 790q91 -93 140.5 -216.5t49.5 -260.5t-49.5 -260.5t-140.5 -216.5l-57 52q82 92 122.5 194t40.5 231q0 130 -40.5 231.5t-122.5 193.5z" />
    <glyph glyph-name="bracketleft" unicode="[" horiz-adv-x="310" 
d="M110 761h200v-74h-120v-747h120v-74h-200v895z" />
    <glyph glyph-name="bracketright" unicode="]" horiz-adv-x="310" 
d="M0 761h200v-895h-200v74h120v747h-120v74z" />
    <glyph glyph-name="braceleft" unicode="{" horiz-adv-x="348" 
d="M348 761v-75h-32q-35 0 -57.5 -20t-22.5 -56v-167q0 -47 -18.5 -77t-61.5 -47q43 -17 61.5 -46.5t18.5 -75.5v-180q0 -36 22.5 -56t57.5 -20h32v-75h-27q-77 0 -120 37.5t-43 118.5v165q0 41 -29 64.5t-79 26.5v74q50 3 79 27.5t29 65.5v160q0 81 43 118.5t120 37.5h27z
" />
    <glyph glyph-name="braceright" unicode="}" horiz-adv-x="348" 
d="M27 761q77 0 120 -37.5t43 -118.5v-160q0 -41 29 -65.5t79 -27.5v-74q-50 -3 -79 -26.5t-29 -64.5v-165q0 -81 -43 -118.5t-120 -37.5h-27v75h32q35 0 57.5 20t22.5 56v180q0 46 18.5 75.5t61.5 46.5q-43 17 -61.5 47t-18.5 77v167q0 36 -22.5 56t-57.5 20h-32v75h27z
" />
    <glyph glyph-name="uni00AD" unicode="&#xad;" horiz-adv-x="528" 
d="M80 354h368v-90h-368v90z" />
    <glyph glyph-name="guillemotleft" unicode="&#xab;" horiz-adv-x="524" 
d="M50 260l185 210l57 -52l-143 -158l143 -159l-57 -51zM252 260l185 210l57 -52l-143 -158l143 -159l-57 -51z" />
    <glyph glyph-name="guillemotright" unicode="&#xbb;" horiz-adv-x="524" 
d="M272 260l-185 -210l-57 51l143 159l-143 158l57 52zM474 260l-185 -210l-57 51l143 159l-143 158l57 52z" />
    <glyph glyph-name="asterisk" unicode="*" horiz-adv-x="437" 
d="M186 700h64v-121l115 38l22 -62l-117 -37l71 -97l-50 -39l-73 98l-72 -98l-51 39l71 97l-116 37l22 62l114 -38v121z" />
    <glyph glyph-name="asciitilde" unicode="~" horiz-adv-x="683" 
d="M70 307q85 81 163 81q32 0 61 -11t69 -33q33 -17 51.5 -25t37.5 -8q27 0 55.5 16.5t53.5 41.5l52 -54q-41 -39 -80.5 -62t-83.5 -23q-31 0 -58.5 11t-68.5 32q-32 17 -52 25.5t-39 8.5q-27 0 -55.5 -16.5t-53.5 -41.5z" />
    <glyph glyph-name="brokenbar" unicode="&#xa6;" horiz-adv-x="275" 
d="M100 761h75v-388h-75v388zM100 284h75v-418h-75v418z" />
    <glyph glyph-name="backslash" unicode="\" horiz-adv-x="592" 
d="M10 705l62 45l510 -755l-62 -45z" />
    <glyph glyph-name="underscore" unicode="_" horiz-adv-x="520" 
d="M0 -115h520v-85h-520v85z" />
    <glyph glyph-name="quotesingle" unicode="'" horiz-adv-x="213" 
d="M70 700h73v-255h-73v255z" />
    <glyph glyph-name="quotedbl" unicode="&#x22;" horiz-adv-x="355" 
d="M70 700h73v-255h-73v255zM212 700h73v-255h-73v255z" />
    <glyph glyph-name="uni02BC" unicode="&#x2bc;" horiz-adv-x="243" 
d="M90 416l-50 28l71 122q-25 7 -40.5 27t-15.5 45q0 31 21.5 52.5t52.5 21.5q32 0 53 -21t21 -53q0 -20 -9 -35z" />
    <glyph glyph-name="ampersand" unicode="&#x26;" horiz-adv-x="690" 
d="M173 14.5q-49 26.5 -73.5 71.5t-24.5 101q0 71 36 116.5t103 90.5l-25 28q-27 30 -42.5 62t-15.5 71q0 44 20 79.5t56.5 56.5t85.5 21t85.5 -21t56.5 -57t20 -80q0 -56 -30 -97t-82 -78l132 -149q13 43 22 96l81 -16q-14 -90 -40 -151l87 -98l-68 -60l-67 76
q-73 -89 -198 -89q-70 0 -119 26.5zM287 442q37 26 57.5 52t20.5 59q0 34 -20.5 54t-50.5 20q-31 0 -52 -20.5t-21 -51.5q0 -21 10 -40t28 -41zM434 142l-164 188q-56 -38 -80.5 -68.5t-24.5 -72.5q0 -50 32.5 -83t96.5 -33q90 0 140 69z" />
    <glyph glyph-name="at" unicode="@" horiz-adv-x="939" 
d="M265.5 -55.5q-91.5 53.5 -143.5 147.5t-52 211t53.5 210.5t147 146t208.5 52.5q113 0 202 -44t138.5 -125t49.5 -188q0 -123 -45 -192.5t-133 -69.5q-43 0 -68.5 16t-37.5 53q-47 -71 -137 -71q-66 0 -105.5 36.5t-39.5 93.5t37.5 90.5t89.5 37.5l135 11q0 46 -17.5 64.5
t-60.5 18.5q-40 0 -70 -17.5t-36 -53.5l-68 32q13 53 55 83t113 30q83 0 123.5 -42t40.5 -115v-131q0 -31 13.5 -47.5t37.5 -16.5q89 0 89 188q0 82 -38.5 145t-108 98.5t-159.5 35.5q-92 0 -166 -42t-116.5 -117.5t-42.5 -169.5q0 -95 40.5 -170.5t112.5 -118.5t164 -43
q126 0 228 46l16 -78q-56 -23 -113 -35.5t-131 -12.5q-114 0 -205.5 53.5zM512 179.5q25 14.5 39 37.5t14 48v24l-127 -14q-25 -3 -38.5 -18.5t-13.5 -35.5q0 -24 17.5 -40t51.5 -16q32 0 57 14.5z" />
    <glyph glyph-name="copyright" unicode="&#xa9;" horiz-adv-x="824" 
d="M97 534.5q47 82.5 130 130t185 47.5t185 -47.5t130 -130t47 -184.5t-47 -184.5t-130 -130t-185 -47.5t-185 47.5t-130 130t-47 184.5t47 184.5zM666.5 499.5q-37.5 66.5 -104.5 104.5t-150 38t-150 -38t-104.5 -104.5t-37.5 -149.5t37.5 -149.5t104.5 -104.5t150 -38
t150 38t104.5 104.5t37.5 149.5t-37.5 149.5zM240 454q26 45 71 71t100 26q81 0 144 -63l-29 -63q-48 58 -116 58q-56 0 -92 -35.5t-36 -93.5t36.5 -94.5t93.5 -36.5q31 0 60.5 14t53.5 40l29 -63q-63 -58 -143 -58q-56 0 -101 26t-71 71t-26 101q0 55 26 100z" />
    <glyph glyph-name="registered" unicode="&#xae;" horiz-adv-x="824" 
d="M597 664.5q83 -47.5 130 -130t47 -184.5t-47 -184.5t-130 -130t-185 -47.5t-185 47.5t-130 130t-47 184.5t47 184.5t130 130t185 47.5t185 -47.5zM562 96q67 38 104.5 104.5t37.5 149.5t-37.5 149.5t-104.5 104.5t-150 38t-150 -38t-104.5 -104.5t-37.5 -149.5
t37.5 -149.5t104.5 -104.5t150 -38t150 38zM542.5 350q-22.5 -30 -65.5 -40l87 -142h-74l-80 137h-59v-137h-62v379h148q56 0 92 -34.5t36 -86.5q0 -46 -22.5 -76zM437 366q30 0 48 14.5t18 45.5q0 26 -18 43t-48 17h-86v-120h86z" />
    <glyph glyph-name="trademark" unicode="&#x2122;" horiz-adv-x="971" 
d="M50 700h358v-70h-144v-319h-70v319h-144v70zM853 700h68v-389h-70v243l-138 -243h-54l-138 243v-243h-70v389h67l169 -295z" />
    <glyph glyph-name="paragraph" unicode="&#xb6;" horiz-adv-x="506" 
d="M476 700v-834h-78v759h-104v-759h-78v462q-52 0 -94.5 24.5t-67 67t-24.5 94.5t24.5 94.5t67 67t94.5 24.5h260z" />
    <glyph glyph-name="section" unicode="&#xa7;" horiz-adv-x="516" 
d="M375 685q46 -27 72 -81l-71 -45q-15 35 -44.5 54t-65.5 19q-42 0 -66.5 -22.5t-24.5 -57.5q0 -38 29.5 -59.5t91.5 -46.5q54 -22 88 -41t58 -52.5t24 -85.5q0 -51 -24 -89.5t-69 -61.5q54 -46 54 -118q0 -48 -22 -86t-62.5 -60t-95.5 -22q-60 0 -105.5 27t-72.5 81l71 45
q15 -35 44.5 -54t64.5 -19q43 0 67.5 23t24.5 60q0 39 -30.5 61t-92.5 46q-55 22 -88 40.5t-56.5 51.5t-23.5 84q0 52 25.5 90.5t69.5 60.5q-56 46 -56 120q0 75 51 120t130 45q59 0 105 -27zM159 342.5q-24 -25.5 -24 -59.5q0 -27 16.5 -46t40.5 -31.5t66 -29.5
q24 -8 40 -16q37 15 60 40.5t23 58.5q0 27 -16 46.5t-40 32t-67 30.5l-37 15q-38 -15 -62 -40.5z" />
    <glyph glyph-name="asciicircum" unicode="^" horiz-adv-x="388" 
d="M156 738h76l136 -237l-65 -34l-109 193l-109 -193l-65 34z" />
    <glyph glyph-name="dagger" unicode="&#x2020;" horiz-adv-x="487" 
d="M472 420h-190v-514h-77v514h-190v80h190v241h77v-241h190v-80z" />
    <glyph glyph-name="daggerdbl" unicode="&#x2021;" horiz-adv-x="487" 
d="M472 147h-190v-241h-77v241h-190v80h190v223h-190v80h190v211h77v-211h190v-80h-190v-223h190v-80z" />
    <glyph glyph-name="emptyset" unicode="&#x2205;" 
d="M484 406q26 -29 40.5 -67t14.5 -81q0 -62 -28.5 -112t-78.5 -78.5t-112 -28.5q-66 0 -119 33l-29 -34l-45 37l29 34q-55 61 -55 149q0 62 28.5 112t78.5 78.5t112 28.5q67 0 121 -34l29 35l43 -38zM205 166l187 220q-31 18 -72 18q-63 0 -104.5 -42t-41.5 -104
q0 -53 31 -92zM424.5 154q41.5 42 41.5 104q0 52 -30 91l-187 -220q32 -17 71 -17q63 0 104.5 42z" />
    <glyph glyph-name="uni2206" unicode="&#x2206;" horiz-adv-x="708" 
d="M329 745h50l309 -745h-668zM563 65l-208 517l-208 -517h416z" />
    <glyph glyph-name="uni00B5" unicode="&#xb5;" 
d="M105 -200v700h88v-296q0 -65 25 -100.5t89 -35.5q79 0 110.5 54.5t31.5 144.5v233h86v-500h-83v72q-30 -43 -67.5 -63.5t-92.5 -20.5q-62 0 -102 23v-211h-85z" />
    <glyph glyph-name="uniF8FF" unicode="&#xf8ff;" horiz-adv-x="865" 
d="M60.5 702q10.5 10 26.5 10q15 0 26 -10.5t11 -25.5q0 -10 -4.5 -19.5t-13.5 -14.5v-24q42 17 90 29.5t86 12.5q42 0 73 -21.5t31 -61.5v-25q55 12 102 12q59 0 98.5 -19t39.5 -64v-48q48 12 77 12q59 0 85.5 -21.5t26.5 -57.5v-240q-52 32 -112 32q-19 0 -57 -10
q-40 -10 -61 -10q-23 0 -35.5 12t-12.5 34v86q-23 5 -49 5q-28 0 -69 -9q-5 -1 -29 -5t-46 -4t-35 12.5t-13 33.5v68h-14q-62 0 -176 -44v-327h-39v643q-8 5 -12.5 14t-4.5 19q0 16 10.5 26zM357 577q0 28 -22.5 41.5t-52.5 13.5q-35 0 -83.5 -13.5t-92.5 -31.5v-230
q110 42 176 42q44 0 75 -14v192zM277 580h34l-64 -95v-68h-30v68l-65 95h34l46 -64zM598 474q0 26 -20 44t-91 18q-40 0 -101 -12v-171q0 -12 -8.5 -18t-26.5 -12q-14 -5 -21.5 -9.5t-7.5 -12.5q0 -16 22 -16q23 0 69 8q43 9 75 9q30 0 59 -6.5t51 -18.5v197zM422.5 471.5
q22.5 22.5 56.5 22.5q36 0 58.5 -22.5t22.5 -57.5t-22.5 -58t-58.5 -23q-34 0 -56.5 23t-22.5 58t22.5 57.5zM517 450.5q-15 14.5 -38 14.5q-22 0 -36.5 -14.5t-14.5 -36.5t14.5 -37t36.5 -15q23 0 38 15t15 37t-15 36.5zM788 365q0 29 -21.5 40t-63.5 11q-29 0 -77 -12
v-167q0 -13 -9.5 -20t-25.5 -13q-14 -6 -20.5 -10.5t-6.5 -12.5q0 -7 5.5 -11.5t15.5 -4.5q20 0 58 10q37 11 61 11q42 0 84 -15v194zM676 373h29v-100h-29v100zM347 361.5q-9 4.5 -23 6.5v-32q5 3 13.5 5.5t13.5 4.5t5 6q0 5 -9 9.5zM589.5 253.5q-8.5 5.5 -25.5 10.5v-47
q6 4 15 7.5t14 6.5t5 7q0 10 -8.5 15.5zM676.5 244.5q5.5 5.5 14.5 5.5q8 0 13.5 -5.5t5.5 -13.5q0 -9 -5.5 -14.5t-13.5 -5.5q-9 0 -14.5 5.5t-5.5 14.5q0 8 5.5 13.5z" />
    <glyph glyph-name="uni2113" unicode="&#x2113;" horiz-adv-x="485" 
d="M161 28.5q-42 40.5 -42 126.5v27q-22 -19 -51 -41l-38 49q51 39 89 76v321q0 89 39 135t98 46q60 0 94.5 -42t34.5 -110q0 -94 -55 -187.5t-136 -176.5v-74q0 -60 19.5 -86t63.5 -26q38 0 61 20.5t39 66.5l58 -36q-26 -65 -65 -97t-97 -32q-70 0 -112 40.5zM194 348
q115 141 115 268q0 40 -14 61t-40 21q-30 0 -45.5 -27t-15.5 -78v-245z" />
    <glyph glyph-name="estimated" unicode="&#x212e;" horiz-adv-x="773" 
d="M82 462.5q47 72.5 128 115t176 42.5q96 0 177 -42.5t128 -115t47 -158.5v-9h-574v-140q0 -70 52 -104q68 -45 172 -45q73 0 138.5 27.5t109.5 77.5h29q-48 -57 -121.5 -90t-157.5 -33q-95 0 -176 42.5t-128 115t-47 158.5t47 158.5zM388 602q-106 0 -172 -46
q-22 -15 -37 -34.5t-15 -50.5v-158h445v152q0 34 -12.5 53.5t-31.5 33.5q-65 50 -177 50z" />
    <glyph glyph-name="dollar" unicode="$" horiz-adv-x="539" 
d="M362 383q160 -44 160 -188q0 -90 -60 -142t-160 -53v-80h-65v86q-73 15 -123.5 61.5t-67.5 117.5l82 38q11 -49 39 -80.5t70 -43.5v226q-77 20 -117.5 67.5t-40.5 116.5q0 72 42.5 121t115.5 64v86h65v-80q84 -1 141.5 -40.5t78.5 -111.5l-82 -38q-28 98 -138 100v-211z
M184.5 459.5q15.5 -22.5 52.5 -39.5v181q-33 -11 -50.5 -34.5t-17.5 -56.5q0 -28 15.5 -50.5zM302 90q62 1 96 27.5t34 76.5q0 43 -26.5 69t-84.5 40l-19 5v-218z" />
    <glyph glyph-name="cent" unicode="&#xa2;" horiz-adv-x="498" 
d="M478 63q-66 -66 -166 -74v-86h-65v88q-99 13 -158 83t-59 175q0 69 27 124t76.5 90.5t113.5 45.5v90h65v-88q95 -4 163 -72l-56 -66q-53 47 -107 54v-354q58 7 114 57zM154 135.5q35 -47.5 93 -60.5v350q-59 -13 -93.5 -59.5t-34.5 -115.5q0 -67 35 -114.5z" />
    <glyph glyph-name="sterling" unicode="&#xa3;" horiz-adv-x="613" 
d="M593 91q-32 -43 -79 -67t-118 -24h-326v82q42 5 65 31t23 72v135h-98v75h98v105q0 89 49 144.5t143 55.5q65 0 110.5 -32.5t66.5 -79.5l-76 -54q-12 36 -39.5 58.5t-61.5 22.5q-48 0 -75 -29.5t-27 -85.5v-105h195v-75h-195v-135q0 -40 -14.5 -65.5t-32.5 -34.5h195
q50 0 89 24t62 62z" />
    <glyph glyph-name="florin" unicode="&#x192;" horiz-adv-x="411" 
d="M15 -198v78q39 -3 52 -3q34 0 50 20t16 71v457h-92v75h92v28q0 181 161 181q32 0 77 -7v-78q-35 5 -66 5q-45 0 -65.5 -22t-20.5 -79v-28h145v-75h-145v-457q0 -171 -141 -171q-23 0 -63 5z" />
    <glyph glyph-name="yen" unicode="&#xa5;" horiz-adv-x="662" 
d="M547 700h110l-248 -358h155v-70h-188v-69h188v-70h-188v-133h-90v133h-188v70h188v69h-188v70h155l-248 358h110l216 -312z" />
    <glyph glyph-name="Euro" unicode="&#x20ac;" horiz-adv-x="681" 
d="M544.5 109q42.5 19 78.5 52l38 -86q-91 -75 -214 -75q-120 0 -203 66t-111 176h-103l32 70h60q-2 24 -2 38q0 21 1 32h-81l32 70h60q27 112 110 180t205 68q123 0 214 -75l-38 -86q-36 33 -78.5 52t-99.5 19q-86 0 -142.5 -41.5t-78.5 -116.5h365l-32 -70h-346
q-1 -10 -1 -32q0 -14 2 -38h311l-32 -70h-265q23 -72 78.5 -112t140.5 -40q57 0 99.5 19z" />
    <glyph glyph-name="currency" unicode="&#xa4;" horiz-adv-x="544" 
d="M64 99l-44 44l83 84q-41 54 -41 123q0 70 41 125l-76 75l47 44l74 -75q55 41 124 41t124 -41l74 75l46 -44l-76 -75q42 -54 42 -125q0 -67 -40 -123l82 -84l-44 -44l-83 83q-55 -41 -125 -41q-68 0 -124 40zM334 243q29 17 46 45.5t17 61.5q0 34 -17 62.5t-46 45.5
t-62 17t-62 -17t-46 -45.5t-17 -62.5q0 -33 17 -61.5t46 -45.5t62 -17t62 17z" />
    <glyph glyph-name="zero" unicode="0" horiz-adv-x="778" 
d="M223 45.5q-75 45.5 -119 125.5t-44 179q0 98 44 178t119.5 126t165.5 46t165.5 -46t119.5 -126t44 -178q0 -99 -44 -179t-119 -125.5t-166 -45.5t-166 45.5zM510.5 124q54.5 34 86 93.5t31.5 132.5q0 72 -31.5 131.5t-86 94t-121.5 34.5t-121.5 -34.5t-86 -94
t-31.5 -131.5q0 -73 31.5 -132.5t86 -93.5t121.5 -34t121.5 34z" />
    <glyph glyph-name="one" unicode="1" horiz-adv-x="468" 
d="M275 700h83v-700h-90v567l-166 -166l-62 64z" />
    <glyph glyph-name="two" unicode="2" horiz-adv-x="540" 
d="M35 545q34 68 91 111.5t133 43.5q61 0 111.5 -28t80 -77.5t29.5 -110.5q0 -50 -19 -94.5t-49 -75.5l-218 -224h286v-90h-421v79l290 298q19 20 30 47t11 56q0 57 -37 93.5t-90 36.5q-51 0 -92 -35.5t-63 -92.5z" />
    <glyph glyph-name="three" unicode="3" horiz-adv-x="523" 
d="M51 544q21 67 77.5 111.5t131.5 44.5q55 0 101.5 -25.5t74 -70.5t27.5 -102q0 -49 -20 -88t-54 -63q36 -25 55 -64.5t19 -89.5q0 -60 -26.5 -105t-72.5 -68.5t-102 -23.5q-78 0 -135 45t-77 117l78 60q11 -60 47 -96t88 -36q47 0 78.5 29.5t31.5 79.5q0 48 -30 76.5
t-74 30.5h-42v90h42q44 2 74 31t30 75q0 48 -32.5 78t-77.5 30q-49 0 -85.5 -36t-49.5 -92z" />
    <glyph glyph-name="four" unicode="4" horiz-adv-x="670" 
d="M431 700h75v-468h139v-90h-139v-142h-90v142h-386v83zM416 232v310l-260 -310h260z" />
    <glyph glyph-name="five" unicode="5" horiz-adv-x="541" 
d="M150.5 18q-51.5 18 -90.5 52l46 80q70 -60 151 -60q64 0 106 37.5t42 107.5q0 67 -40 104.5t-107 37.5q-36 0 -78 -11t-80 -30v364h396v-90h-306v-152q33 9 73 9q69 0 122 -29.5t82 -83t29 -121.5q0 -74 -33.5 -127t-88.5 -79.5t-119 -26.5q-53 0 -104.5 18z" />
    <glyph glyph-name="six" unicode="6" horiz-adv-x="585" 
d="M196.5 24.5q-48.5 24.5 -79.5 70.5q-47 72 -47 211q0 118 32.5 207.5t92.5 138t139 48.5q91 0 161 -54l-49 -74q-30 20 -57 29t-58 9q-67 0 -111.5 -55t-48.5 -144q29 23 64 35.5t72 12.5q66 0 118 -29t81 -80.5t29 -116.5q0 -66 -30 -119.5t-82.5 -83.5t-118.5 -30
q-59 0 -107.5 24.5zM406 129.5q39 39.5 39 102.5q0 61 -38.5 99t-100.5 38t-101.5 -39.5t-39.5 -101.5q0 -60 39.5 -99t100.5 -39q62 0 101 39.5z" />
    <glyph glyph-name="seven" unicode="7" horiz-adv-x="543" 
d="M186 0h-101l314 610h-359v90h463v-86z" />
    <glyph glyph-name="eight" unicode="8" horiz-adv-x="536" 
d="M160.5 24q-47.5 24 -74 68.5t-26.5 103.5q0 100 79 154q-79 54 -79 154q0 59 26.5 103.5t74 68.5t107.5 24t107.5 -24t74 -68t26.5 -102q0 -97 -83 -156q83 -59 83 -156q0 -58 -26.5 -102t-74 -68t-107.5 -24t-107.5 24zM351.5 424.5q34.5 29.5 34.5 79.5q0 48 -32 77
t-85 29t-86 -29t-33 -77q0 -50 35 -79.5t84 -29.5q48 0 82.5 29.5zM354 119q32 29 32 77q0 50 -34.5 79.5t-82.5 29.5q-49 0 -84 -29.5t-35 -79.5q0 -48 33 -77t86 -29t85 29z" />
    <glyph glyph-name="nine" unicode="9" horiz-adv-x="568" 
d="M163.5 10q-37.5 10 -80.5 33l38 82q66 -35 125 -35q75 0 121 55.5t46 145.5q-59 -50 -135 -50q-66 0 -118 29t-81 80.5t-29 116.5q0 66 30 119t82.5 83.5t117.5 30.5q58 0 106 -24.5t80 -70.5q25 -38 36 -89.5t11 -129.5q0 -190 -68.5 -288t-201.5 -98q-42 0 -79.5 10z
M380.5 370.5q39.5 39.5 39.5 101.5q0 61 -39.5 99.5t-101.5 38.5q-61 0 -100 -40t-39 -102q0 -61 38 -99t100 -38q63 0 102.5 39.5z" />
    <glyph glyph-name="zero.zero" horiz-adv-x="778" 
d="M596 624q57 -48 89.5 -119t32.5 -155q0 -99 -44 -179t-119 -125.5t-166 -45.5q-97 0 -177 53l-44 -65l-36 23l46 68q-55 48 -86.5 118.5t-31.5 152.5q0 98 44 178t119.5 126t165.5 46q95 0 173 -50l43 63l35 -24zM171 241q21 -51 58 -87l283 421q-57 35 -123 35
q-67 0 -121.5 -34.5t-86 -94t-31.5 -131.5q0 -58 21 -109zM510.5 124q54.5 34 86 93.5t31.5 132.5q0 60 -22 111.5t-60 87.5l-284 -421q59 -38 127 -38q67 0 121.5 34z" />
    <glyph glyph-name="fi" unicode="&#xfb01;" horiz-adv-x="616" 
d="M213 425v-425h-86v425h-112v75h112v28q0 96 42.5 140t118.5 44q32 0 77 -7v-79q-44 7 -66 7q-46 0 -66 -24t-20 -81v-28h145v-75h-145zM455 500h86v-500h-86v500zM449 595q-19 19 -19 49t19 49t49 19t49 -19t19 -49t-19 -49t-49 -19t-49 19z" />
    <glyph glyph-name="fl" unicode="&#xfb02;" horiz-adv-x="608" 
d="M213 425v-425h-86v425h-112v75h112v28q0 96 42.5 140t118.5 44q32 0 77 -7v-79q-44 7 -66 7q-46 0 -66 -24t-20 -81v-28h145v-75h-145zM450 700h88v-700h-88v700z" />
    <glyph glyph-name="fraction" unicode="&#x2044;" horiz-adv-x="133" 
d="M-220 41l523 659l50 -40l-523 -660z" />
    <glyph glyph-name="onequarter" unicode="&#xbc;" horiz-adv-x="871" 
d="M263 280h-75v304l-86 -84l-52 54l148 146h65v-420zM154 41l523 659l50 -40l-523 -660zM753 147h68v-75h-68v-72h-76v72h-222v66l235 282h63v-273zM677 287l-116 -140h116v140z" />
    <glyph glyph-name="onehalf" unicode="&#xbd;" horiz-adv-x="839" 
d="M263 280h-75v304l-86 -84l-52 54l148 146h65v-420zM701 660l-523 -660l-50 41l523 659zM519 0v62l165 162q29 27 29 59q0 27 -18 44t-45 17q-28 0 -50.5 -18t-35.5 -45l-57 48q20 38 55.5 64.5t88.5 26.5q61 0 99.5 -37t38.5 -96q0 -65 -47 -109l-103 -102h150v-76h-270z
" />
    <glyph glyph-name="threequarters" unicode="&#xbe;" horiz-adv-x="864" 
d="M284 312q-37 -32 -99 -32q-48 0 -83.5 21.5t-51.5 55.5l55 55q11 -27 32.5 -41.5t48.5 -14.5t43 13t16 36q0 22 -15.5 34.5t-41.5 13.5h-30v75h30q26 1 41.5 13.5t15.5 34.5t-16.5 35t-42.5 13t-47.5 -15t-33.5 -40l-55 56q17 32 52.5 53.5t81.5 21.5q62 0 99.5 -32.5
t37.5 -84.5q0 -34 -16 -57.5t-39 -35.5q24 -11 39.5 -35t15.5 -58q0 -53 -37 -85zM172 41l523 659l50 -40l-523 -660zM746 147h68v-75h-68v-72h-76v72h-222v66l235 282h63v-273zM670 287l-116 -140h116v140z" />
    <glyph glyph-name="percent" unicode="%" horiz-adv-x="823" 
d="M279 678.5q37 -21.5 58.5 -58.5t21.5 -82t-21.5 -82t-58.5 -58.5t-82 -21.5t-82 21.5t-58.5 58.5t-21.5 82t21.5 82t58.5 58.5t82 21.5t82 -21.5zM126 41l523 659l50 -40l-523 -660zM266 607q-27 27 -69 27t-69 -27t-27 -69t27 -69t69 -27t69 27t27 69t-27 69zM485.5 244
q21.5 37 58.5 58.5t82 21.5t82 -21.5t58.5 -58.5t21.5 -82t-21.5 -82t-58.5 -58.5t-82 -21.5t-82 21.5t-58.5 58.5t-21.5 82t21.5 82zM557 231q-27 -27 -27 -69t27 -69t69 -27t69 27t27 69t-27 69t-69 27t-69 -27z" />
    <glyph glyph-name="perthousand" unicode="&#x2030;" horiz-adv-x="1093" 
d="M55 624.5q20 35.5 55.5 55.5t78.5 20t78.5 -20t55.5 -55.5t20 -78.5t-20 -78.5t-55.5 -55.5t-78.5 -20t-78.5 20t-55.5 55.5t-20 78.5t20 78.5zM73 41l523 659l50 -40l-523 -660zM252.5 609.5q-24.5 24.5 -63.5 24.5t-63.5 -24.5t-24.5 -63.5t24.5 -63.5t63.5 -24.5
t63.5 24.5t24.5 63.5t-24.5 63.5zM393 232.5q20 35.5 55.5 55.5t78.5 20t78.5 -20t55.5 -55.5t20 -78.5t-20 -78.5t-55.5 -55.5t-78.5 -20t-78.5 20t-55.5 55.5t-20 78.5t20 78.5zM770 232.5q20 35.5 55.5 55.5t78.5 20t78.5 -20t55.5 -55.5t20 -78.5t-20 -78.5t-55.5 -55.5
t-78.5 -20t-78.5 20t-55.5 55.5t-20 78.5t20 78.5zM590.5 217.5q-24.5 24.5 -63.5 24.5t-63.5 -24.5t-24.5 -63.5t24.5 -63.5t63.5 -24.5t63.5 24.5t24.5 63.5t-24.5 63.5zM967.5 217.5q-24.5 24.5 -63.5 24.5t-63.5 -24.5t-24.5 -63.5t24.5 -63.5t63.5 -24.5t63.5 24.5
t24.5 63.5t-24.5 63.5z" />
    <glyph glyph-name="uni03BC" unicode="&#x3bc;" 
d="M190 11v-211h-85v700h88v-296q0 -65 25 -100.5t89 -35.5q79 0 110.5 54.5t31.5 144.5v233h86v-500h-83v72q-30 -43 -67.5 -63.5t-92.5 -20.5q-62 0 -102 23z" />
    <glyph glyph-name="numbersign" unicode="#" horiz-adv-x="569" 
d="M299 0l30 213h-127l-30 -213h-68l30 213h-104l8 65h105l19 144h-104l9 65h104l30 213h69l-30 -213h126l30 213h69l-30 -213h104l-8 -65h-105l-20 -144h104l-9 -65h-104l-30 -213h-68zM338 278l19 144h-126l-20 -144h127z" />
    <glyph glyph-name="uni2116" unicode="&#x2116;" horiz-adv-x="1310" 
d="M180 0h-90v700h90l447 -556v556h90v-700h-90l-447 555v-555zM1239 293q-31 -53 -84.5 -84t-116.5 -31t-116.5 31t-84.5 84t-31 116t31 116.5t84.5 84.5t116.5 31t116.5 -31t84.5 -84.5t31 -116.5t-31 -116zM1165 486q-19 35 -52 55t-75 20q-41 0 -74.5 -20t-52.5 -55
t-19 -77t19 -76.5t52.5 -54.5t74.5 -20q42 0 75 20t52 54.5t19 76.5t-19 77zM832 80h413v-80h-413v80z" />
    <glyph glyph-name="uni0394" unicode="&#x394;" horiz-adv-x="708" 
d="M329 745h50l309 -745h-668zM563 65l-208 517l-208 -517h416z" />
    <glyph glyph-name="uni03A9" unicode="&#x3a9;" horiz-adv-x="740" 
d="M34 0v80h130q-144 110 -144 284q0 101 45.5 180t125.5 123.5t179 44.5t179 -44.5t125.5 -123.5t45.5 -180q0 -174 -144 -284h130v-80h-286v80q96 52 150.5 120t54.5 164q0 74 -33 133t-91 92t-131 33t-131 -33t-91 -92t-33 -133q0 -96 54.5 -164t150.5 -120v-80h-286z
" />
    <glyph glyph-name="pi" unicode="&#x3c0;" 
d="M596 500v-90h-89v-410h-88v410h-149l-87 -410h-92l87 410q-77 0 -135 -14v74q23 12 59 21t81 9h413z" />
    <glyph glyph-name="plus" unicode="+" 
d="M275 572h90v-209h209v-90h-209v-209h-90v209h-209v90h209v209z" />
    <glyph glyph-name="minus" unicode="&#x2212;" 
d="M91 363h458v-90h-458v90z" />
    <glyph glyph-name="plusminus" unicode="&#xb1;" 
d="M277 580h86v-139h193v-88h-193v-139h-86v139h-193v88h193v139zM84 173h472v-88h-472v88z" />
    <glyph glyph-name="multiply" unicode="&#xd7;" 
d="M319 378l177 177l60 -61l-176 -177l176 -176l-60 -61l-177 177l-176 -176l-60 60l176 176l-176 177l60 60z" />
    <glyph glyph-name="divide" unicode="&#xf7;" 
d="M254.5 441.5q-22.5 22.5 -22.5 55.5t22.5 56t55.5 23t56 -23t23 -56t-23 -55.5t-56 -22.5t-55.5 22.5zM594 269h-548v90h548v-90zM254.5 74.5q-22.5 22.5 -22.5 55.5t22.5 56t55.5 23t56 -23t23 -56t-23 -55.5t-56 -22.5t-55.5 22.5z" />
    <glyph glyph-name="equal" unicode="=" 
d="M77 443h486v-90h-486v90zM77 228h486v-90h-486v90z" />
    <glyph glyph-name="less" unicode="&#x3c;" 
d="M85 320l433 193l37 -79l-348 -154l348 -154l-37 -79l-433 193v80z" />
    <glyph glyph-name="greater" unicode="&#x3e;" 
d="M122 513l433 -193v-80l-433 -193l-37 79l348 154l-348 154z" />
    <glyph glyph-name="degree" unicode="&#xb0;" horiz-adv-x="370" 
d="M88.5 683q38.5 37 96.5 37t96.5 -37t38.5 -93t-38.5 -93t-96.5 -37t-96.5 37t-38.5 93t38.5 93zM241 645.5q-21 21.5 -56 21.5t-56 -21.5t-21 -55.5t21 -55.5t56 -21.5t56 21.5t21 55.5t-21 55.5z" />
    <glyph glyph-name="approxequal" unicode="&#x2248;" 
d="M51 407q81 79 158 79q33 0 61.5 -11.5t67.5 -32.5q36 -19 54.5 -26.5t38.5 -7.5q48 0 110 58l48 -69q-86 -84 -158 -84q-34 0 -63.5 11.5t-69.5 33.5q-31 17 -50.5 25.5t-38.5 8.5q-48 0 -111 -59zM51 194q81 79 158 79q33 0 61.5 -11.5t67.5 -32.5q36 -19 54.5 -26.5
t38.5 -7.5q48 0 110 58l48 -69q-86 -84 -158 -84q-34 0 -63.5 11.5t-69.5 33.5q-31 17 -50.5 25.5t-38.5 8.5q-48 0 -111 -59z" />
    <glyph glyph-name="greaterequal" unicode="&#x2265;" 
d="M119 539l433 -138v-70l-433 -138l-24 83l298 90l-298 90zM88 142h457v-88h-457v88z" />
    <glyph glyph-name="infinity" unicode="&#x221e;" horiz-adv-x="734" 
d="M451.5 434.5q42.5 28.5 94.5 28.5q45 0 83.5 -21.5t61.5 -59t23 -83.5t-23 -83t-61.5 -58.5t-83.5 -21.5q-52 0 -94 28t-85 78q-43 -50 -85 -78t-94 -28q-45 0 -83.5 21.5t-61.5 58.5t-23 83t23 83.5t61.5 59t83.5 21.5q52 0 94.5 -28.5t84.5 -78.5q42 50 84.5 78.5z
M253 370.5q-30 24.5 -65 24.5q-38 0 -65 -27.5t-27 -68.5q0 -40 27.5 -67.5t64.5 -27.5q35 0 64.5 24t68.5 71q-38 47 -68 71.5zM611 367.5q-27 27.5 -65 27.5q-35 0 -65 -24.5t-68 -71.5q39 -47 68.5 -71t64.5 -24q38 0 65 27.5t27 67.5q0 41 -27 68.5z" />
    <glyph glyph-name="lessequal" unicode="&#x2264;" 
d="M88 401l433 138l24 -83l-298 -90l298 -90l-24 -83l-433 138v70zM95 142h457v-88h-457v88z" />
    <glyph glyph-name="logicalnot" unicode="&#xac;" 
d="M91 374h458v-254h-91v164h-367v90z" />
    <glyph glyph-name="notequal" unicode="&#x2260;" 
d="M563 138h-301l-59 -110l-67 33l41 77h-100v90h148l66 125h-214v90h262l59 110l67 -35l-40 -75h138v-90h-186l-67 -125h253v-90z" />
    <glyph glyph-name="integral" unicode="&#x222b;" 
d="M275 733q0 60 30 92t76 32q34 0 79 -10v-84q-34 6 -56 6q-39 0 -39 -45v-803q0 -60 -30 -92t-76 -32q-34 0 -79 10v84q35 -6 56 -6q39 0 39 45v803z" />
    <glyph glyph-name="partialdiff" unicode="&#x2202;" 
d="M183 16.5q-49 28.5 -76 80t-27 117.5q0 71 30 125.5t82 84.5t116 30q42 0 83.5 -16.5t75.5 -45.5q-4 121 -52.5 187t-131.5 66q-69 0 -146 -51l-41 76q38 28 88.5 44t99.5 16q84 0 146.5 -44t96 -125.5t33.5 -192.5q0 -115 -32.5 -201t-92.5 -132.5t-141 -46.5
q-62 0 -111 28.5zM408 129q42 56 54 158q-26 37 -67.5 59.5t-80.5 22.5q-61 0 -101 -43t-40 -114q0 -61 35.5 -100t91.5 -39q66 0 108 56z" />
    <glyph glyph-name="product" unicode="&#x220f;" horiz-adv-x="683" 
d="M20 712h643v-85h-111v-716h-90v716h-241v-716h-90v716h-111v85z" />
    <glyph glyph-name="radical" unicode="&#x221a;" 
d="M414 -12h-72l-178 395l-76 -33l-28 64l152 64l156 -355l138 589h73z" />
    <glyph glyph-name="summation" unicode="&#x2211;" 
d="M88 700h461v-88h-324l209 -302l-223 -322h352v-88h-487v60l246 350l-234 333v57z" />
    <glyph glyph-name="lozenge" unicode="&#x25ca;" 
d="M285 753h70l207 -422l-207 -421h-70l-207 421zM477 331l-157 333l-157 -333l157 -332z" />
    <glyph glyph-name="zero.tf" 
d="M95 543.5q34 78.5 92.5 117.5t132.5 39t132.5 -39.5t92.5 -118t34 -192.5t-34 -193t-92.5 -118t-132.5 -39t-132.5 39t-92.5 118t-34 193q0 115 34 193.5zM442.5 545.5q-46.5 64.5 -122.5 64.5t-122.5 -64.5t-46.5 -195.5t46.5 -195.5t122.5 -64.5t122.5 64.5t46.5 195.5
t-46.5 195.5z" />
    <glyph glyph-name="one.tf" 
d="M581 0h-493v90h219v477l-176 -166l-62 64l245 235h83v-610h184v-90z" />
    <glyph glyph-name="two.tf" 
d="M80 545q38 70 100 112.5t145 42.5q66 0 117.5 -27.5t79.5 -75.5t28 -105q0 -54 -26 -107t-81 -109l-187 -186h296v-90h-431v79l270 271q69 72 69 140q0 51 -36.5 85.5t-94.5 34.5q-57 0 -104 -35t-72 -93z" />
    <glyph glyph-name="three.tf" 
d="M94 541q23 71 86 115t146 44q60 0 107.5 -24t75 -68.5t27.5 -104.5q0 -50 -19.5 -89t-54.5 -64q35 -25 54.5 -64t19.5 -89q0 -60 -27.5 -104.5t-75 -68.5t-107.5 -24q-83 0 -146 44t-86 115l74 61q14 -58 58 -94t103 -36q52 0 84.5 29t32.5 79q0 49 -32.5 78t-88.5 29
h-45v90h45q56 0 88.5 29t32.5 78q0 50 -32.5 79t-85.5 29q-59 0 -103 -36.5t-58 -93.5z" />
    <glyph glyph-name="four.tf" 
d="M401 700h75v-468h109v-90h-109v-142h-90v142h-334v83zM386 232v300l-218 -300h218z" />
    <glyph glyph-name="five.tf" 
d="M538 700v-90h-306v-152q40 9 73 9q69 0 122 -29.5t82 -82.5t29 -122q0 -68 -29.5 -121t-82.5 -82.5t-122 -29.5q-55 0 -107.5 17t-94.5 49l46 80q77 -56 158 -56q65 0 103 39t38 106q0 66 -39.5 104t-107.5 38q-66 0 -158 -37v360h396z" />
    <glyph glyph-name="six.tf" 
d="M112 492q25 89 84 148.5t155 59.5q54 0 91.5 -14.5t69.5 -39.5l-49 -74q-26 18 -53 28t-62 10q-47 0 -82.5 -26.5t-54.5 -71t-20 -96.5q64 43 133 43q64 0 116 -28.5t82 -80t30 -117.5q0 -67 -30.5 -120t-83 -83t-117.5 -30q-62 0 -110 26t-77 69q-24 37 -35.5 88.5
t-11.5 122.5q0 97 25 186zM423.5 331.5q-38.5 37.5 -100.5 37.5t-101.5 -39t-39.5 -102t41 -100.5t99 -37.5q61 0 100.5 39.5t39.5 102.5q0 62 -38.5 99.5z" />
    <glyph glyph-name="seven.tf" 
d="M88 700h463v-86l-317 -614h-101l314 610h-359v90z" />
    <glyph glyph-name="eight.tf" 
d="M130 608q28 44 77.5 68t112.5 24t112.5 -24t77.5 -68t28 -102q0 -100 -91 -156q91 -56 91 -156q0 -58 -28 -102t-77.5 -68t-112.5 -24t-112.5 24t-77.5 68t-28 102q0 100 91 156q-91 56 -91 156q0 58 28 102zM412.5 581q-35.5 29 -92.5 29t-92.5 -29t-35.5 -77
q0 -50 38 -79.5t90 -29.5t90 29.5t38 79.5q0 48 -35.5 77zM410 275.5q-38 29.5 -90 29.5t-90 -29.5t-38 -79.5q0 -48 35.5 -77t92.5 -29t92.5 29t35.5 77q0 50 -38 79.5z" />
    <glyph glyph-name="nine.tf" 
d="M118 587q30 53 83 83t117 30q61 0 108.5 -25.5t77.5 -69.5q26 -39 36.5 -91.5t10.5 -127.5q0 -165 -56.5 -275.5t-213.5 -110.5q-46 0 -84 10.5t-76 32.5l38 82q66 -35 125 -35q55 0 92.5 28t55 72.5t15.5 92.5q-60 -42 -131 -42q-64 0 -116 28.5t-82 80t-30 117.5
q0 67 30 120zM417 573q-41 37 -100 37q-61 0 -100 -39.5t-39 -102.5q0 -62 38.5 -99.5t99.5 -37.5q63 0 102.5 39t39.5 102q0 64 -41 101z" />
    <glyph glyph-name="zero.tf.zero" 
d="M515 600q65 -94 65 -250q0 -114 -34 -193t-92.5 -118t-132.5 -39q-48 0 -90 16.5t-75 49.5l-53 -78l-36 23l60 89q-65 94 -65 250q0 115 34 193.5t92.5 117.5t132.5 39q48 0 90 -17t75 -50l54 80l35 -24zM182 182l253 375q-44 53 -114 53q-76 0 -122.5 -64.5
t-46.5 -195.5q0 -103 30 -168zM443.5 154.5q46.5 64.5 46.5 195.5q0 103 -31 167l-252 -374q44 -53 114 -53q76 0 122.5 64.5z" />
    <glyph glyph-name="dollar.tf" 
d="M351 390q91 -28 140 -73t49 -126q0 -88 -51.5 -135.5t-137.5 -54.5v-81h-65v82q-68 9 -121 48t-75 117l79 42q26 -100 117 -116v221q-188 56 -188 202q0 80 51 127t137 56v81h65v-82q74 -8 125.5 -51.5t72.5 -114.5l-85 -34q-27 95 -113 109v-217zM213 452.5
q25 -24.5 73 -42.5v198q-98 -11 -98 -93q0 -38 25 -62.5zM351 91q99 11 99 97q0 43 -26.5 68t-72.5 40v-205z" />
    <glyph glyph-name="cent.tf" 
d="M559 54q-72 -59 -186 -65v-86h-65v89q-67 9 -118.5 44t-80 90.5t-28.5 124.5t28.5 124.5t80 90.5t118.5 44v89h65v-86q113 -6 186 -64l-42 -76q-35 26 -69 39.5t-75 16.5v-356q41 3 75.5 16.5t68.5 40.5zM207.5 135q37.5 -47 100.5 -59v350q-63 -12 -100.5 -59
t-37.5 -116t37.5 -116z" />
    <glyph glyph-name="sterling.tf" 
d="M596 91q-32 -43 -79 -67t-118 -24h-346v82q42 5 65 31t23 72v135h-97v75h97v105q0 88 54 144t154 56q76 0 126.5 -32t74.5 -80l-76 -54q-17 38 -48.5 59.5t-76.5 21.5q-54 0 -86 -30t-32 -85v-105h215v-75h-215v-135q0 -40 -14.5 -65.5t-32.5 -34.5h215q50 0 89 24t62 62
z" />
    <glyph glyph-name="florin.tf" 
d="M106 -198v78l23 -1q58 -2 68 -2q34 0 50 20t16 71v457h-131v75h131v28q0 181 161 181q4 0 64 -4l43 -3v-78q-72 5 -96 5q-45 0 -65.5 -22t-20.5 -79v-28h185v-75h-185v-457q0 -171 -141 -171q-35 0 -102 5z" />
    <glyph glyph-name="yen.tf" 
d="M526 700h110l-240 -358h157v-70h-188v-69h188v-70h-188v-133h-90v133h-188v70h188v69h-188v70h157l-240 358h110l206 -312z" />
    <glyph glyph-name="Euro.tf" 
d="M539 29q-42 -16 -70 -22.5t-58 -6.5q-105 0 -184 64t-105 178h-94l32 70h51q-1 12 -1 37q0 22 1 33h-73l32 70h51q17 78 59.5 134t102 85t128.5 29q109 0 201 -80l-38 -85q-32 36 -75 55.5t-90 19.5q-70 0 -121 -43t-73 -115h331l-32 -70h-313q-1 -11 -1 -33q0 -13 2 -37
h278l-32 -70h-232q22 -70 72.5 -111t119.5 -41q53 0 116 31z" />
    <glyph glyph-name="uni1EA0" unicode="&#x1ea0;" horiz-adv-x="766" 
d="M756 0h-99l-62 133h-424l-62 -133h-99l326 700h94zM383 591l-171 -368h342zM334 -179q-19 19 -19 49t19 49t49 19t49 -19t19 -49t-19 -49t-49 -19t-49 19z" />
    <glyph glyph-name="uni1EB8" unicode="&#x1eb8;" horiz-adv-x="565" 
d="M510 0h-430v700h430v-90h-340v-215h340v-90h-340v-215h340v-90zM234 -179q-19 19 -19 49t19 49t49 19t49 -19t19 -49t-19 -49t-49 -19t-49 19z" />
    <glyph glyph-name="uni1EBC" unicode="&#x1ebc;" horiz-adv-x="565" 
d="M510 0h-430v700h430v-90h-340v-215h340v-90h-340v-215h340v-90zM305 744q-16 7 -38 21q-11 7 -22.5 13t-20.5 6q-12 0 -25 -10t-31 -29l-48 46q58 69 106 69q19 0 35 -7t38 -21q11 -7 22.5 -13t20.5 -6q12 0 25 10t31 29l48 -46q-58 -69 -106 -69q-19 0 -35 7z" />
    <glyph glyph-name="Gcaron" unicode="&#x1e6;" horiz-adv-x="755" 
d="M85.5 528q45.5 80 126 126t180.5 46q134 0 243 -96l-41 -85q-42 42 -92 66.5t-114 24.5q-74 0 -133 -32.5t-92 -92t-33 -135.5t33 -135.5t92 -92t134 -32.5q98 0 163 54.5t76 144.5h-267v90h369v-4q0 -110 -40 -195t-115.5 -132.5t-179.5 -47.5q-102 0 -183 46
t-126.5 125.5t-45.5 178.5q0 98 45.5 178zM565 876l-176 -151l-176 151l47 52l129 -112l129 112z" />
    <glyph glyph-name="uni1ECA" unicode="&#x1eca;" horiz-adv-x="250" 
d="M170 0h-90v700h90v-700zM76 -179q-19 19 -19 49t19 49t49 19t49 -19t19 -49t-19 -49t-49 -19t-49 19z" />
    <glyph glyph-name="uni004A0301" horiz-adv-x="492" 
d="M105 29.5q-46 29.5 -68 75t-22 94.5l83 41q0 -66 30.5 -108t91.5 -42q57 0 84.5 36.5t27.5 94.5v479h90v-479q0 -100 -52.5 -160.5t-149.5 -60.5q-69 0 -115 29.5zM521 844l-213 -133l-39 60l211 136z" />
    <glyph glyph-name="uni019D" unicode="&#x19d;" horiz-adv-x="787" 
d="M617 700h90v-700h-90l-447 555v-611q0 -146 -124 -146q-15 0 -43 5v79q19 -4 32 -4q24 0 34.5 15.5t10.5 50.5v756h90l447 -556v556z" />
    <glyph glyph-name="uni1ECC" unicode="&#x1ecc;" horiz-adv-x="780" 
d="M211 45.5q-80 45.5 -125.5 125.5t-45.5 179t45.5 179t125.5 125.5t179 45.5t179 -45.5t125.5 -125.5t45.5 -179t-45.5 -179t-125.5 -125.5t-179 -45.5t-179 45.5zM523.5 123.5q59.5 33.5 93 93t33.5 133.5t-33.5 133.5t-93 93t-133.5 33.5t-133.5 -33.5t-93 -93
t-33.5 -133.5t33.5 -133.5t93 -93t133.5 -33.5t133.5 33.5zM341 -179q-19 19 -19 49t19 49t49 19t49 -19t19 -49t-19 -49t-49 -19t-49 19z" />
    <glyph glyph-name="uni01EA" unicode="&#x1ea;" horiz-adv-x="780" 
d="M452.5 -24.5q-18.5 -23.5 -18.5 -42.5q0 -14 10 -21.5t27 -7.5q10 0 38 6v-58q-20 -9 -51 -9q-41 0 -64 20.5t-23 57.5q0 42 41 80q-7 -1 -22 -1q-99 0 -179 45.5t-125.5 125.5t-45.5 179t45.5 179t125.5 125.5t179 45.5t179 -45.5t125.5 -125.5t45.5 -179
q0 -79 -30 -147t-84.5 -116.5t-125.5 -70.5q-29 -17 -47.5 -40.5zM163.5 216.5q33.5 -59.5 93 -93t133.5 -33.5t133.5 33.5t93 93t33.5 133.5t-33.5 133.5t-93 93t-133.5 33.5t-133.5 -33.5t-93 -93t-33.5 -133.5t33.5 -133.5z" />
    <glyph glyph-name="uni1E9E" unicode="&#x1e9e;" horiz-adv-x="652" 
d="M413 395q99 0 147 -57t48 -140q0 -93 -57.5 -145.5t-161.5 -52.5h-118v85h118q70 0 99.5 27t29.5 86q0 53 -24.5 80t-79.5 27h-133v90l170 215h-281v-610h-90v700h489v-90l-178 -215h22z" />
    <glyph glyph-name="uni018F" unicode="&#x18f;" horiz-adv-x="780" 
d="M566 655q81 -45 127.5 -125t46.5 -179q0 -100 -46 -180t-126.5 -125.5t-181.5 -45.5q-105 0 -183.5 47t-120.5 127t-42 176v31h609q-10 106 -81.5 168t-182.5 62q-62 0 -112 -22.5t-95 -66.5l-54 72q108 106 261 106q100 0 181 -45zM562 148q70 59 85 156h-509
q9 -96 75 -155.5t177 -59.5q102 0 172 59z" />
    <glyph glyph-name="uni1EE4" unicode="&#x1ee4;" horiz-adv-x="780" 
d="M227.5 42q-73.5 42 -115.5 115t-42 163v380h90v-380q0 -64 30.5 -117t83 -83t116.5 -30q65 0 117.5 30t82.5 82.5t30 117.5v380h90v-380q0 -90 -42 -163t-115 -115t-163 -42q-89 0 -162.5 42zM341 -179q-19 19 -19 49t19 49t49 19t49 -19t19 -49t-19 -49t-49 -19t-49 19z
" />
    <glyph glyph-name="uni0232" unicode="&#x232;" horiz-adv-x="662" 
d="M376 0h-90v295l-281 405h110l216 -312l216 312h110l-281 -405v-295zM481 757h-300v70h300v-70z" />
    <glyph glyph-name="uni1EF8" unicode="&#x1ef8;" horiz-adv-x="662" 
d="M376 0h-90v295l-281 405h110l216 -312l216 312h110l-281 -405v-295zM353 744q-16 7 -38 21q-11 7 -22.5 13t-20.5 6q-12 0 -25 -10t-31 -29l-48 46q58 69 106 69q19 0 35 -7t38 -21q11 -7 22.5 -13t20.5 -6q12 0 25 10t31 29l48 -46q-58 -69 -106 -69q-19 0 -35 7z" />
    <glyph glyph-name="C.ss02" horiz-adv-x="649" 
d="M211 46q-79 46 -125 126t-46 178t46 178t125.5 126t176.5 46q139 0 246 -99l-41 -85q-89 94 -209 94q-72 0 -130 -33t-91 -92t-33 -135t33 -135t91 -92t130 -33q66 0 129 29l16 -90q-43 -15 -76.5 -22t-68.5 -7q-94 0 -173 46z" />
    <glyph glyph-name="Cacute.ss02" horiz-adv-x="649" 
d="M211 46q-79 46 -125 126t-46 178t46 178t125.5 126t176.5 46q139 0 246 -99l-41 -85q-89 94 -209 94q-72 0 -130 -33t-91 -92t-33 -135t33 -135t91 -92t130 -33q66 0 129 29l16 -90q-43 -15 -76.5 -22t-68.5 -7q-94 0 -173 46zM518 844l-213 -133l-39 60l211 136z" />
    <glyph glyph-name="Ccaron.ss02" horiz-adv-x="649" 
d="M211 46q-79 46 -125 126t-46 178t46 178t125.5 126t176.5 46q139 0 246 -99l-41 -85q-89 94 -209 94q-72 0 -130 -33t-91 -92t-33 -135t33 -135t91 -92t130 -33q66 0 129 29l16 -90q-43 -15 -76.5 -22t-68.5 -7q-94 0 -173 46zM550 876l-176 -151l-176 151l47 52
l129 -112l129 112z" />
    <glyph glyph-name="Ccedilla.ss02" horiz-adv-x="649" 
d="M634 601l-41 -85q-89 94 -209 94q-72 0 -130 -33t-91 -92t-33 -135t33 -135t91 -92t130 -33q66 0 129 29l16 -90q-64 -22 -113 -28q25 -42 25 -82q0 -41 -25 -63.5t-62 -22.5q-27 0 -51 10v58q25 -7 38 -7q32 0 32 34q0 16 -7 35.5t-19 38.5q-85 9 -155.5 56.5t-111 124
t-40.5 167.5q0 98 46 178t125.5 126t176.5 46q139 0 246 -99z" />
    <glyph glyph-name="Ccircumflex.ss02" horiz-adv-x="649" 
d="M211 46q-79 46 -125 126t-46 178t46 178t125.5 126t176.5 46q139 0 246 -99l-41 -85q-89 94 -209 94q-72 0 -130 -33t-91 -92t-33 -135t33 -135t91 -92t130 -33q66 0 129 29l16 -90q-43 -15 -76.5 -22t-68.5 -7q-94 0 -173 46zM374 827l-129 -112l-47 52l176 151
l176 -151l-47 -52z" />
    <glyph glyph-name="Cdotaccent.ss02" horiz-adv-x="649" 
d="M211 46q-79 46 -125 126t-46 178t46 178t125.5 126t176.5 46q139 0 246 -99l-41 -85q-89 94 -209 94q-72 0 -130 -33t-91 -92t-33 -135t33 -135t91 -92t130 -33q66 0 129 29l16 -90q-43 -15 -76.5 -22t-68.5 -7q-94 0 -173 46zM325.5 746q-19.5 20 -19.5 48
q0 29 19.5 48.5t48.5 19.5q28 0 48 -19.5t20 -48.5q0 -28 -20 -48t-48 -20q-29 0 -48.5 20z" />
    <glyph glyph-name="G.ss02" horiz-adv-x="649" 
d="M211 46q-79 46 -125 126.5t-46 178.5q0 97 46 177t125.5 126t176.5 46q139 0 246 -100l-41 -85q-88 95 -209 95q-72 0 -130 -33t-91 -92t-33 -135t33 -135t91 -92t131 -33q29 0 63 8v181h-161v90h251v-337q-81 -32 -155 -32q-93 0 -172 46z" />
    <glyph glyph-name="Gbreve.ss02" horiz-adv-x="649" 
d="M211 46q-79 46 -125 126.5t-46 178.5q0 97 46 177t125.5 126t176.5 46q139 0 246 -100l-41 -85q-88 95 -209 95q-72 0 -130 -33t-91 -92t-33 -135t33 -135t91 -92t131 -33q29 0 63 8v181h-161v90h251v-337q-81 -32 -155 -32q-93 0 -172 46zM276 770q-38 42 -38 111h73
q0 -40 18 -60.5t51 -20.5t51 20.5t18 60.5h73q0 -69 -38 -111t-104 -42t-104 42z" />
    <glyph glyph-name="Gcaron.ss02" horiz-adv-x="649" 
d="M211 46q-79 46 -125 126.5t-46 178.5q0 97 46 177t125.5 126t176.5 46q139 0 246 -100l-41 -85q-88 95 -209 95q-72 0 -130 -33t-91 -92t-33 -135t33 -135t91 -92t131 -33q29 0 63 8v181h-161v90h251v-337q-81 -32 -155 -32q-93 0 -172 46zM556 876l-176 -151l-176 151
l47 52l129 -112l129 112z" />
    <glyph glyph-name="Gcircumflex.ss02" horiz-adv-x="649" 
d="M211 46q-79 46 -125 126.5t-46 178.5q0 97 46 177t125.5 126t176.5 46q139 0 246 -100l-41 -85q-88 95 -209 95q-72 0 -130 -33t-91 -92t-33 -135t33 -135t91 -92t131 -33q29 0 63 8v181h-161v90h251v-337q-81 -32 -155 -32q-93 0 -172 46zM380 827l-129 -112l-47 52
l176 151l176 -151l-47 -52z" />
    <glyph glyph-name="uni0122.ss02" horiz-adv-x="649" 
d="M211 46q-79 46 -125 126.5t-46 178.5q0 97 46 177t125.5 126t176.5 46q139 0 246 -100l-41 -85q-88 95 -209 95q-72 0 -130 -33t-91 -92t-33 -135t33 -135t91 -92t131 -33q29 0 63 8v181h-161v90h251v-337q-81 -32 -155 -32q-93 0 -172 46zM350 -210l-37 21l33 55
q-18 5 -30.5 20.5t-12.5 34.5q0 24 16 40.5t41 16.5t41 -16.5t16 -40.5q0 -7 -4.5 -17.5t-10.5 -22.5z" />
    <glyph glyph-name="Gdotaccent.ss02" horiz-adv-x="649" 
d="M211 46q-79 46 -125 126.5t-46 178.5q0 97 46 177t125.5 126t176.5 46q139 0 246 -100l-41 -85q-88 95 -209 95q-72 0 -130 -33t-91 -92t-33 -135t33 -135t91 -92t131 -33q29 0 63 8v181h-161v90h251v-337q-81 -32 -155 -32q-93 0 -172 46zM331.5 746q-19.5 20 -19.5 48
q0 29 19.5 48.5t48.5 19.5q28 0 48 -19.5t20 -48.5q0 -28 -20 -48t-48 -20q-29 0 -48.5 20z" />
    <glyph glyph-name="R.ss03" horiz-adv-x="673" 
d="M668 0h-118l-185 230h-16h-179v-230h-90v700h269q67 0 121 -30.5t84.5 -84t30.5 -120.5q0 -70 -33.5 -125.5t-90.5 -83.5zM170 320h123l-40 50l70 56l79 -97q42 15 67.5 51.5t25.5 84.5q0 42 -19.5 75t-53 51.5t-73.5 18.5h-179v-290z" />
    <glyph glyph-name="Racute.ss03" horiz-adv-x="673" 
d="M668 0h-118l-185 230h-16h-179v-230h-90v700h269q67 0 121 -30.5t84.5 -84t30.5 -120.5q0 -70 -33.5 -125.5t-90.5 -83.5zM170 320h123l-40 50l70 56l79 -97q42 15 67.5 51.5t25.5 84.5q0 42 -19.5 75t-53 51.5t-73.5 18.5h-179v-290zM451 844l-213 -133l-39 60l211 136z
" />
    <glyph glyph-name="Rcaron.ss03" horiz-adv-x="673" 
d="M668 0h-118l-185 230h-16h-179v-230h-90v700h269q67 0 121 -30.5t84.5 -84t30.5 -120.5q0 -70 -33.5 -125.5t-90.5 -83.5zM170 320h123l-40 50l70 56l79 -97q42 15 67.5 51.5t25.5 84.5q0 42 -19.5 75t-53 51.5t-73.5 18.5h-179v-290zM483 876l-176 -151l-176 151l47 52
l129 -112l129 112z" />
    <glyph glyph-name="uni0156.ss03" horiz-adv-x="673" 
d="M668 0h-118l-185 230h-16h-179v-230h-90v700h269q67 0 121 -30.5t84.5 -84t30.5 -120.5q0 -70 -33.5 -125.5t-90.5 -83.5zM170 320h123l-40 50l70 56l79 -97q42 15 67.5 51.5t25.5 84.5q0 42 -19.5 75t-53 51.5t-73.5 18.5h-179v-290zM327 -210l-37 21l33 55
q-18 5 -30.5 20.5t-12.5 34.5q0 24 16 40.5t41 16.5t41 -16.5t16 -40.5q0 -7 -4.5 -17.5t-10.5 -22.5z" />
    <glyph glyph-name="uni1EA1" unicode="&#x1ea1;" horiz-adv-x="515" 
d="M413.5 470.5q51.5 -41.5 51.5 -130.5v-340h-86v71q-27 -41 -66.5 -62t-96.5 -21q-77 0 -124 40.5t-47 105.5t43 104.5t122 49.5l74 9q51 6 73 22t22 45q0 33 -28.5 52t-81.5 19q-55 0 -88.5 -23t-41.5 -67l-76 41q16 62 68 94t139 32q92 0 143.5 -41.5zM338 107
q41 41 41 105v44q-28 -23 -87 -32l-66 -9q-91 -12 -91 -78q0 -32 26 -51.5t70 -19.5q66 0 107 41zM209 -179q-19 19 -19 49t19 49t49 19t49 -19t19 -49t-19 -49t-49 -19t-49 19z" />
    <glyph glyph-name="uni1EB9" unicode="&#x1eb9;" horiz-adv-x="547" 
d="M60.5 380.5q30.5 60.5 86.5 96t130 35.5q76 0 130.5 -34t82 -93.5t27.5 -134.5v-26h-400v-1q4 -73 50.5 -114t113.5 -41q93 0 159 77l45 -67q-34 -39 -85 -64.5t-115 -25.5q-75 0 -133 31.5t-90 90t-32 136.5q0 74 30.5 134.5zM423 293q-6 65 -43 102t-102 37
q-68 0 -108 -37t-49 -102h302zM222 -179q-19 19 -19 49t19 49t49 19t49 -19t19 -49t-19 -49t-49 -19t-49 19z" />
    <glyph glyph-name="uni1EBD" unicode="&#x1ebd;" horiz-adv-x="547" 
d="M60.5 380.5q30.5 60.5 86.5 96t130 35.5q76 0 130.5 -34t82 -93.5t27.5 -134.5v-26h-400v-1q4 -73 50.5 -114t113.5 -41q93 0 159 77l45 -67q-34 -39 -85 -64.5t-115 -25.5q-75 0 -133 31.5t-90 90t-32 136.5q0 74 30.5 134.5zM423 293q-6 65 -43 102t-102 37
q-68 0 -108 -37t-49 -102h302zM293 584q-16 7 -38 21q-11 7 -22.5 13t-20.5 6q-12 0 -25 -10t-31 -29l-48 46q58 69 106 69q19 0 35 -7t38 -21q11 -7 22.5 -13t20.5 -6q12 0 25 10t31 29l48 -46q-58 -69 -106 -69q-19 0 -35 7z" />
    <glyph glyph-name="uni0259" unicode="&#x259;" horiz-adv-x="547" 
d="M486.5 119.5q-30.5 -60.5 -86.5 -96t-130 -35.5q-76 0 -130.5 34t-82 93.5t-27.5 134.5v26h400v1q-4 73 -50.5 114t-113.5 41q-93 0 -159 -77l-45 67q34 39 85 64.5t115 25.5q75 0 133 -31.5t90 -90t32 -136.5q0 -74 -30.5 -134.5zM124 207q6 -65 43 -102t102 -37
q68 0 108 37t49 102h-302z" />
    <glyph glyph-name="gcaron" unicode="&#x1e7;" horiz-adv-x="603" 
d="M61 385.5q31 59.5 86.5 93t126.5 33.5q56 0 102 -21.5t71 -58.5v68h86v-473q0 -118 -61.5 -179t-179.5 -61q-83 0 -138.5 30t-88.5 93l67 53q51 -100 167 -100q151 0 151 164v41q-25 -37 -72 -58.5t-103 -21.5q-74 0 -129.5 32.5t-85.5 91.5t-30 138q0 76 31 135.5z
M409 383q-44 49 -120 49t-123 -50t-47 -132t47 -132t123 -50t120 49t44 133t-44 133zM297 646l129 112l47 -52l-176 -151l-176 151l47 52z" />
    <glyph glyph-name="uni1ECB" unicode="&#x1ecb;" horiz-adv-x="236" 
d="M75 500h86v-500h-86v500zM69 595q-19 19 -19 49t19 49t49 19t49 -19t19 -49t-19 -49t-49 -19t-49 19zM69 -179q-19 19 -19 49t19 49t49 19t49 -19t19 -49t-19 -49t-49 -19t-49 19z" />
    <glyph glyph-name="uni006A0301" horiz-adv-x="255" 
d="M175 -24q0 -93 -45.5 -136.5t-155.5 -43.5h-4v83h4q68 0 91.5 23.5t23.5 73.5v524h86v-524zM16 631l211 136l41 -63l-213 -133z" />
    <glyph glyph-name="uni0272" unicode="&#x272;" horiz-adv-x="577" 
d="M457.5 456.5q49.5 -55.5 49.5 -155.5v-301h-88v298q0 65 -32 99.5t-91 34.5q-140 0 -140 -199v-289q0 -146 -120 -146q-15 0 -43 5v76q19 -4 32 -4q24 0 34.5 15.5t10.5 50.5v559h83v-77q27 45 70 67t97 22q88 0 137.5 -55.5z" />
    <glyph glyph-name="uni1ECD" unicode="&#x1ecd;" horiz-adv-x="584" 
d="M64 384q34 60 94 94t134 34t134 -34t94 -94t34 -134t-34 -134t-94 -94t-134 -34t-134 34t-94 94t-34 134t34 134zM417 379q-48 50 -125 50t-125 -50t-48 -129t48 -129t125 -50t125 50t48 129t-48 129zM243 -179q-19 19 -19 49t19 49t49 19t49 -19t19 -49t-19 -49t-49 -19
t-49 19z" />
    <glyph glyph-name="uni01EB" unicode="&#x1eb;" horiz-adv-x="584" 
d="M357.5 -29q-14.5 -21 -14.5 -38q0 -14 10 -21.5t27 -7.5q10 0 38 6v-58q-20 -9 -51 -9q-41 0 -64 20.5t-23 57.5q0 36 28 67h-16q-74 0 -134 34t-94 94t-34 134t34 134t94 94t134 34t134 -34t94 -94t34 -134q0 -84 -43 -148.5t-115 -93.5q-24 -16 -38.5 -37zM167 121
q48 -50 125 -50t125 50t48 129t-48 129t-125 50t-125 -50t-48 -129t48 -129z" />
    <glyph glyph-name="uni1EE5" unicode="&#x1ee5;" horiz-adv-x="570" 
d="M500 500v-500h-83v72q-30 -43 -67.5 -63.5t-92.5 -20.5q-187 0 -187 216v296h88v-296q0 -65 25 -100.5t89 -35.5q79 0 110.5 54.5t31.5 144.5v233h86zM236 -179q-19 19 -19 49t19 49t49 19t49 -19t19 -49t-19 -49t-49 -19t-49 19z" />
    <glyph glyph-name="uni0233" unicode="&#x233;" horiz-adv-x="525" 
d="M197 -200h-93l124 266l-218 434h104l160 -334l155 334h91zM113 687h300v-70h-300v70z" />
    <glyph glyph-name="uni1EF9" unicode="&#x1ef9;" horiz-adv-x="525" 
d="M197 -200h-93l124 266l-218 434h104l160 -334l155 334h91zM285 584q-16 7 -38 21q-11 7 -22.5 13t-20.5 6q-12 0 -25 -10t-31 -29l-48 46q58 69 106 69q19 0 35 -7t38 -21q11 -7 22.5 -13t20.5 -6q12 0 25 10t31 29l48 -46q-58 -69 -106 -69q-19 0 -35 7z" />
    <glyph glyph-name="a.sups" horiz-adv-x="339" 
d="M58 420q-28 26 -28 67q0 40 26.5 64.5t69.5 28.5l83 8q17 3 17 14v5q0 16 -14.5 25.5t-42.5 9.5q-27 0 -47.5 -10.5t-27.5 -32.5l-55 38q13 33 46.5 51.5t83.5 18.5q128 0 128 -120v-187h-71v41q-14 -21 -37.5 -34t-56.5 -13q-46 0 -74 26zM205 474q21 20 21 47v15
l-81 -10q-20 -2 -30 -12t-10 -24q0 -16 11.5 -26t34.5 -10q33 0 54 20z" />
    <glyph glyph-name="b.sups" horiz-adv-x="385" 
d="M118 442v-42h-71v420h71v-163q38 50 103 50q58 0 97.5 -42t39.5 -115t-39.5 -115t-98.5 -42q-66 0 -102 49zM261.5 486q23.5 24 23.5 64t-23.5 64t-61.5 24q-37 0 -60.5 -24t-23.5 -64t23.5 -64t60.5 -24q38 0 61.5 24z" />
    <glyph glyph-name="c.sups" horiz-adv-x="320" 
d="M71 436.5q-44 43.5 -44 113.5t44.5 113.5t114.5 43.5q69 0 113 -44l-42 -56q-32 30 -71 30q-37 0 -61.5 -24t-24.5 -63t24 -63t61 -24q41 0 74 31l41 -57q-46 -44 -115 -44q-70 0 -114 43.5z" />
    <glyph glyph-name="d.sups" horiz-adv-x="385" 
d="M66.5 435q-39.5 42 -39.5 115t39.5 115t98.5 42q64 0 102 -50v163h71v-420h-71v42q-36 -49 -102 -49q-59 0 -98.5 42zM245.5 486q23.5 24 23.5 64t-23.5 64t-60.5 24q-38 0 -61.5 -24t-23.5 -64t23.5 -64t61.5 -24q37 0 60.5 24z" />
    <glyph glyph-name="e.sups" horiz-adv-x="351" 
d="M70 436.5q-43 43.5 -43 112.5q0 68 42 113t110 45t107.5 -43.5t39.5 -115.5v-20h-226v-1q6 -33 30 -50t55 -17q51 0 88 35l32 -58q-46 -44 -120 -44q-72 0 -115 43.5zM248 581q-3 29 -21.5 46.5t-49.5 17.5q-32 0 -51.5 -16.5t-25.5 -47.5h148z" />
    <glyph glyph-name="f.sups" horiz-adv-x="255" 
d="M75 400v240h-59v60h59v15q0 57 28.5 84t77.5 27q23 0 55 -5v-66q-30 5 -44 5q-25 0 -35 -12t-10 -39v-9h86v-60h-86v-240h-72z" />
    <glyph glyph-name="g.sups" horiz-adv-x="390" 
d="M105.5 286q-32.5 14 -55.5 41l40 56q35 -44 93 -44q89 0 89 83v20q-15 -21 -41 -33.5t-58 -12.5q-63 0 -103 41.5t-40 113.5t40.5 114t100.5 42q34 0 59.5 -13.5t39.5 -35.5v42h72v-281q0 -65 -36.5 -106t-121.5 -41q-46 0 -78.5 14zM249.5 486q23.5 24 23.5 64t-23.5 64
t-60.5 24q-38 0 -61.5 -24t-23.5 -64t23.5 -64t61.5 -24q37 0 60.5 24z" />
    <glyph glyph-name="h.sups" horiz-adv-x="366" 
d="M47 400v420h71v-162q34 49 96 49q53 0 80.5 -33t27.5 -91v-183h-73v170q0 34 -15 51.5t-44 17.5q-72 0 -72 -96v-143h-71z" />
    <glyph glyph-name="i.sups" horiz-adv-x="173" 
d="M52.5 752q-13.5 14 -13.5 34t13.5 34t33.5 14q21 0 34.5 -14t13.5 -34t-13.5 -34t-34.5 -14q-20 0 -33.5 14zM122 400h-71v300h71v-300z" />
    <glyph glyph-name="j.sups" horiz-adv-x="182" 
d="M60.5 752q-13.5 14 -13.5 34t13.5 34t33.5 14t34 -14t14 -34t-14 -34t-34 -14t-33.5 14zM-11 278v66h7q36 0 49.5 12.5t13.5 38.5v305h71v-311q0 -57 -30.5 -84.5t-93.5 -27.5q-10 0 -17 1z" />
    <glyph glyph-name="k.sups" horiz-adv-x="345" 
d="M118 400h-71v420h71v-245l117 125h96l-130 -130l130 -170h-92l-86 122l-35 -35v-87z" />
    <glyph glyph-name="l.sups" horiz-adv-x="165" 
d="M119 400h-72v420h72v-420z" />
    <glyph glyph-name="m.sups" horiz-adv-x="570" 
d="M47 400v300h69v-43q31 50 94 50q68 0 95 -57q33 57 104 57q55 0 84.5 -33.5t29.5 -93.5v-180h-72v170q0 69 -59 69q-72 0 -72 -96v-143h-72v170q0 69 -59 69q-71 0 -71 -96v-143h-71z" />
    <glyph glyph-name="n.sups" horiz-adv-x="370" 
d="M47 400v300h69v-42q17 23 42 36t56 13q53 0 80.5 -33t27.5 -91v-183h-73v170q0 34 -15.5 51.5t-43.5 17.5q-72 0 -72 -96v-143h-71z" />
    <glyph glyph-name="o.sups" horiz-adv-x="374" 
d="M72.5 437q-45.5 44 -45.5 113t45.5 113t114.5 44q45 0 81.5 -20t57.5 -55.5t21 -81.5t-21 -81.5t-57.5 -55.5t-81.5 -20q-69 0 -114.5 44zM249 487q24 24 24 63t-24 63t-62 24t-62.5 -24t-24.5 -63t24.5 -63t62.5 -24t62 24z" />
    <glyph glyph-name="p.sups" horiz-adv-x="385" 
d="M47 280v420h71v-42q36 49 102 49q59 0 98.5 -42t39.5 -115t-39.5 -115t-97.5 -42q-65 0 -103 50v-163h-71zM261.5 486q23.5 24 23.5 64t-23.5 64t-61.5 24q-37 0 -60.5 -24t-23.5 -64t23.5 -64t60.5 -24q38 0 61.5 24z" />
    <glyph glyph-name="q.sups" horiz-adv-x="385" 
d="M267 443q-38 -50 -102 -50q-59 0 -98.5 42t-39.5 115t39.5 115t98.5 42q66 0 102 -49v42h71v-420h-71v163zM245.5 486q23.5 24 23.5 64t-23.5 64t-60.5 24q-38 0 -61.5 -24t-23.5 -64t23.5 -64t61.5 -24q37 0 60.5 24z" />
    <glyph glyph-name="r.sups" horiz-adv-x="249" 
d="M47 400v300h69v-48q28 55 86 55q17 0 30 -4v-76q-15 4 -35 4q-79 0 -79 -94v-137h-71z" />
    <glyph glyph-name="s.sups" horiz-adv-x="304" 
d="M77 406.5q-35 13.5 -54 41.5l45 51q15 -21 39.5 -31.5t54.5 -10.5q22 0 34.5 7t12.5 21t-14 20.5t-53 14.5q-45 9 -74 29.5t-29 64.5q0 43 32.5 68t89.5 25q77 0 120 -50l-44 -49q-12 15 -33.5 24.5t-46.5 9.5q-21 0 -33 -6.5t-12 -18.5q0 -13 14.5 -19.5t56.5 -15.5
q47 -10 73 -29.5t26 -63.5q0 -49 -33.5 -72.5t-92.5 -23.5q-44 0 -79 13.5z" />
    <glyph glyph-name="t.sups" horiz-adv-x="251" 
d="M95.5 419q-21.5 22 -21.5 71v150h-56v60h56v80h71v-80h78v-60h-78v-143q0 -30 31 -30q12 0 45 5v-66q-30 -9 -61 -9q-43 0 -64.5 22z" />
    <glyph glyph-name="u.sups" horiz-adv-x="366" 
d="M73 425.5q-26 32.5 -26 90.5v184h73v-170q0 -34 13 -51.5t42 -17.5q36 0 53.5 26.5t17.5 70.5v142h72v-300h-70v45q-34 -52 -95 -52q-54 0 -80 32.5z" />
    <glyph glyph-name="v.sups" horiz-adv-x="344" 
d="M199 400h-55l-133 300h80l81 -198l81 198h80z" />
    <glyph glyph-name="w.sups" horiz-adv-x="533" 
d="M187 400h-54l-122 300h78l72 -191l77 191h57l77 -191l72 191h79l-122 -300h-55l-79 189z" />
    <glyph glyph-name="x.sups" horiz-adv-x="350" 
d="M101 400h-86l117 152l-114 148h87l71 -92l70 92h86l-113 -147l117 -153h-87l-74 96z" />
    <glyph glyph-name="y.sups" horiz-adv-x="340" 
d="M141 280h-76l74 162l-128 258h83l83 -175l79 175h75z" />
    <glyph glyph-name="z.sups" horiz-adv-x="307" 
d="M282 400h-257v58l156 176h-147v66h242v-58l-156 -176h162v-66z" />
    <glyph glyph-name="uni24FF" unicode="&#x24ff;" horiz-adv-x="824" 
d="M227 35.5q-83 47.5 -130 130t-47 184.5t47 184.5t130 130t185 47.5t185 -47.5t130 -130t47 -184.5t-47 -184.5t-130 -130t-185 -47.5t-185 47.5zM512.5 167q45.5 27 72 74.5t26.5 108.5t-26.5 108.5t-72 74.5t-100.5 27q-56 0 -101.5 -26.5t-72 -74.5t-26.5 -109
t26.5 -109t72 -74.5t101.5 -26.5q55 0 100.5 27zM323 253q-35 37 -35 97q0 59 35 96.5t89 37.5t89 -37.5t35 -96.5q0 -60 -35 -97t-89 -37t-89 37z" />
    <glyph glyph-name="uni2776" unicode="&#x2776;" horiz-adv-x="824" 
d="M227 35.5q-83 47.5 -130 130t-47 184.5t47 184.5t130 130t185 47.5t185 -47.5t130 -130t47 -184.5t-47 -184.5t-130 -130t-185 -47.5t-185 47.5zM398 450v-304h75v420h-65l-148 -146l52 -54z" />
    <glyph glyph-name="uni2777" unicode="&#x2777;" horiz-adv-x="824" 
d="M227 35.5q-83 47.5 -130 130t-47 184.5t47 184.5t130 130t185 47.5t185 -47.5t130 -130t47 -184.5t-47 -184.5t-130 -130t-185 -47.5t-185 47.5zM283 153h270v76h-150l103 102q47 44 47 109q0 59 -38.5 96t-99.5 37q-53 0 -88.5 -26.5t-55.5 -64.5l57 -48q13 27 35.5 45
t50.5 18q27 0 45 -17t18 -44q0 -32 -29 -59l-165 -162v-62z" />
    <glyph glyph-name="uni2778" unicode="&#x2778;" horiz-adv-x="824" 
d="M227 35.5q-83 47.5 -130 130t-47 184.5t47 184.5t130 130t185 47.5t185 -47.5t130 -130t47 -184.5t-47 -184.5t-130 -130t-185 -47.5t-185 47.5zM504 177q37 32 37 85q0 34 -15.5 58t-39.5 35q23 12 39 35.5t16 57.5q0 52 -37.5 84.5t-99.5 32.5q-46 0 -81.5 -21.5
t-52.5 -53.5l55 -56q12 25 33.5 40t47.5 15t42.5 -13t16.5 -35t-15.5 -34.5t-41.5 -13.5h-30v-75h30q26 -1 41.5 -13.5t15.5 -34.5q0 -23 -16 -36t-43 -13t-48.5 14.5t-32.5 41.5l-55 -55q16 -34 51.5 -55.5t83.5 -21.5q62 0 99 32z" />
    <glyph glyph-name="uni2779" unicode="&#x2779;" horiz-adv-x="824" 
d="M227 35.5q-83 47.5 -130 130t-47 184.5t47 184.5t130 130t185 47.5t185 -47.5t130 -130t47 -184.5t-47 -184.5t-130 -130t-185 -47.5t-185 47.5zM429 232v-72h76v72h68v75h-68v273h-63l-225 -282v-66h212zM429 307h-105l105 140v-140z" />
    <glyph glyph-name="uni277A" unicode="&#x277a;" horiz-adv-x="824" 
d="M227 35.5q-83 47.5 -130 130t-47 184.5t47 184.5t130 130t185 47.5t185 -47.5t130 -130t47 -184.5t-47 -184.5t-130 -130t-185 -47.5t-185 47.5zM507.5 178q42.5 38 42.5 106q0 66 -40.5 104t-108.5 38q-17 0 -29 -3v61h178v76h-254v-226q53 17 93 17q42 0 63.5 -18
t21.5 -50t-21.5 -49.5t-54.5 -17.5q-48 0 -95 31l-33 -68q24 -17 59 -28t70 -11q66 0 108.5 38z" />
    <glyph glyph-name="uni277B" unicode="&#x277b;" horiz-adv-x="824" 
d="M227 35.5q-83 47.5 -130 130t-47 184.5t47 184.5t130 130t185 47.5t185 -47.5t130 -130t47 -184.5t-47 -184.5t-130 -130t-185 -47.5t-185 47.5zM509.5 185.5q39.5 39.5 39.5 103.5q0 62 -39 100t-97 38q-17 0 -35.5 -5.5t-34.5 -15.5v1q2 34 24.5 58.5t59.5 24.5
q34 0 72 -19l32 67q-27 14 -50.5 21t-50.5 7q-88 0 -129 -66.5t-41 -162.5q0 -81 28 -128q19 -30 49.5 -46.5t71.5 -16.5q61 0 100.5 39.5zM358.5 239.5q-19.5 17.5 -19.5 46.5t19 47t49 18t48.5 -17.5t18.5 -46.5t-19 -47t-48 -18t-48.5 17.5z" />
    <glyph glyph-name="uni277C" unicode="&#x277c;" horiz-adv-x="824" 
d="M227 35.5q-83 47.5 -130 130t-47 184.5t47 184.5t130 130t185 47.5t185 -47.5t130 -130t47 -184.5t-47 -184.5t-130 -130t-185 -47.5t-185 47.5zM472 485l-160 -344h85l165 355v65h-273v-76h183z" />
    <glyph glyph-name="uni277D" unicode="&#x277d;" horiz-adv-x="824" 
d="M227 35.5q-83 47.5 -130 130t-47 184.5t47 184.5t130 130t185 47.5t185 -47.5t130 -130t47 -184.5t-47 -184.5t-130 -130t-185 -47.5t-185 47.5zM515.5 174.5q40.5 31.5 40.5 82.5q0 31 -16.5 56t-48.5 40q32 15 48.5 40t16.5 56q0 51 -40.5 82.5t-103.5 31.5
q-64 0 -104 -31.5t-40 -83.5q0 -32 16.5 -56.5t46.5 -38.5q-31 -15 -47 -39.5t-16 -55.5q0 -52 40.5 -83.5t103.5 -31.5t103.5 31.5zM363.5 404q-19.5 13 -19.5 36q0 21 18.5 34t49.5 13t49.5 -13t18.5 -34q0 -23 -19 -36t-49 -13q-29 0 -48.5 13zM362.5 232
q-18.5 13 -18.5 34q0 23 19.5 36t48.5 13q30 0 49 -13t19 -36q0 -21 -18.5 -34t-49.5 -13t-49.5 13z" />
    <glyph glyph-name="uni277E" unicode="&#x277e;" horiz-adv-x="824" 
d="M227 35.5q-83 47.5 -130 130t-47 184.5t47 184.5t130 130t185 47.5t185 -47.5t130 -130t47 -184.5t-47 -184.5t-130 -130t-185 -47.5t-185 47.5zM519 213q39 63 39 163q0 93 -33 140q-39 54 -112 54q-63 0 -103.5 -40t-40.5 -103t38.5 -100.5t97.5 -37.5q35 0 69 21v-1
q-1 -33 -23 -58t-62 -25q-37 0 -76 18l-28 -69q53 -25 103 -25q92 0 131 63zM363.5 382.5q-18.5 17.5 -18.5 46.5t19 47t48 18t48 -17.5t19 -46.5t-19 -47t-49 -18q-29 0 -47.5 17.5z" />
    <glyph glyph-name="uni24EA" unicode="&#x24ea;" horiz-adv-x="824" 
d="M97 534.5q47 82.5 130 130t185 47.5t185 -47.5t130 -130t47 -184.5t-47 -184.5t-130 -130t-185 -47.5t-185 47.5t-130 130t-47 184.5t47 184.5zM666.5 499.5q-37.5 66.5 -104.5 104.5t-150 38t-150 -38t-104.5 -104.5t-37.5 -149.5t37.5 -149.5t104.5 -104.5t150 -38
t150 38t104.5 104.5t37.5 149.5t-37.5 149.5zM239.5 459q26.5 48 72 74.5t101.5 26.5q55 0 100.5 -27t72 -74.5t26.5 -108.5t-26.5 -108.5t-72 -74.5t-100.5 -27q-56 0 -101.5 26.5t-72 74.5t-26.5 109t26.5 109zM502 446.5q-35 37.5 -89 37.5t-89 -37.5t-35 -96.5
q0 -60 35 -97t89 -37t89 37t35 97q0 59 -35 96.5z" />
    <glyph glyph-name="uni2460" unicode="&#x2460;" horiz-adv-x="824" 
d="M97 534.5q47 82.5 130 130t185 47.5t185 -47.5t130 -130t47 -184.5t-47 -184.5t-130 -130t-185 -47.5t-185 47.5t-130 130t-47 184.5t47 184.5zM666.5 499.5q-37.5 66.5 -104.5 104.5t-150 38t-150 -38t-104.5 -104.5t-37.5 -149.5t37.5 -149.5t104.5 -104.5t150 -38
t150 38t104.5 104.5t37.5 149.5t-37.5 149.5zM404 568h65v-420h-75v304l-86 -84l-52 54z" />
    <glyph glyph-name="uni2461" unicode="&#x2461;" horiz-adv-x="824" 
d="M227 35.5q-83 47.5 -130 130t-47 184.5t47 184.5t130 130t185 47.5t185 -47.5t130 -130t47 -184.5t-47 -184.5t-130 -130t-185 -47.5t-185 47.5zM562 96q67 38 104.5 104.5t37.5 149.5t-37.5 149.5t-104.5 104.5t-150 38t-150 -38t-104.5 -104.5t-37.5 -149.5
t37.5 -149.5t104.5 -104.5t150 -38t150 38zM283 158v62l165 162q29 27 29 59q0 27 -18 44t-45 17q-28 0 -50.5 -18t-35.5 -45l-57 48q20 38 55.5 64.5t88.5 26.5q61 0 99.5 -37t38.5 -96q0 -65 -47 -109l-103 -102h150v-76h-270z" />
    <glyph glyph-name="uni2462" unicode="&#x2462;" horiz-adv-x="824" 
d="M227 35.5q-83 47.5 -130 130t-47 184.5t47 184.5t130 130t185 47.5t185 -47.5t130 -130t47 -184.5t-47 -184.5t-130 -130t-185 -47.5t-185 47.5zM562 96q67 38 104.5 104.5t37.5 149.5t-37.5 149.5t-104.5 104.5t-150 38t-150 -38t-104.5 -104.5t-37.5 -149.5
t37.5 -149.5t104.5 -104.5t150 -38t150 38zM325.5 166.5q-35.5 21.5 -51.5 55.5l55 55q11 -27 32.5 -41.5t48.5 -14.5t43 13t16 36q0 22 -15.5 34.5t-41.5 13.5h-30v75h30q26 1 41.5 13.5t15.5 34.5t-16.5 35t-42.5 13t-47.5 -15t-33.5 -40l-55 56q17 32 52.5 53.5
t81.5 21.5q62 0 99.5 -32.5t37.5 -84.5q0 -34 -16 -57.5t-39 -35.5q24 -11 39.5 -35t15.5 -58q0 -53 -37 -85t-99 -32q-48 0 -83.5 21.5z" />
    <glyph glyph-name="uni2463" unicode="&#x2463;" horiz-adv-x="824" 
d="M597 664.5q83 -47.5 130 -130t47 -184.5t-47 -184.5t-130 -130t-185 -47.5t-185 47.5t-130 130t-47 184.5t47 184.5t130 130t185 47.5t185 -47.5zM562 96q67 38 104.5 104.5t37.5 149.5t-37.5 149.5t-104.5 104.5t-150 38t-150 -38t-104.5 -104.5t-37.5 -149.5
t37.5 -149.5t104.5 -104.5t150 -38t150 38zM442 580h63v-273h68v-75h-68v-72h-76v72h-212v66zM429 447l-105 -140h105v140z" />
    <glyph glyph-name="uni2464" unicode="&#x2464;" horiz-adv-x="824" 
d="M227 35.5q-83 47.5 -130 130t-47 184.5t47 184.5t130 130t185 47.5t185 -47.5t130 -130t47 -184.5t-47 -184.5t-130 -130t-185 -47.5t-185 47.5zM562 96q67 38 104.5 104.5t37.5 149.5t-37.5 149.5t-104.5 104.5t-150 38t-150 -38t-104.5 -104.5t-37.5 -149.5
t37.5 -149.5t104.5 -104.5t150 -38t150 38zM331 151q-35 11 -59 28l33 68q47 -31 95 -31q33 0 54.5 17.5t21.5 49.5t-21.5 50t-63.5 18q-40 0 -93 -17v226h254v-76h-178v-61q12 3 29 3q68 0 108.5 -38t40.5 -104q0 -68 -42.5 -106t-108.5 -38q-35 0 -70 11z" />
    <glyph glyph-name="uni2465" unicode="&#x2465;" horiz-adv-x="824" 
d="M227 35.5q-83 47.5 -130 130t-47 184.5t47 184.5t130 130t185 47.5t185 -47.5t130 -130t47 -184.5t-47 -184.5t-130 -130t-185 -47.5t-185 47.5zM562 96q67 38 104.5 104.5t37.5 149.5t-37.5 149.5t-104.5 104.5t-150 38t-150 -38t-104.5 -104.5t-37.5 -149.5
t37.5 -149.5t104.5 -104.5t150 -38t150 38zM330.5 162.5q-30.5 16.5 -49.5 46.5q-28 47 -28 128q0 96 41 162.5t129 66.5q27 0 50.5 -7t50.5 -21l-32 -67q-38 19 -72 19q-37 0 -59.5 -24.5t-24.5 -59.5q16 10 34.5 15.5t35.5 5.5q58 0 97 -38t39 -100q0 -64 -39.5 -103.5
t-100.5 -39.5q-41 0 -71.5 16.5zM448 240q19 18 19 47t-18.5 46.5t-48.5 17.5t-49 -18t-19 -47t19.5 -46.5t48.5 -17.5t48 18z" />
    <glyph glyph-name="uni2466" unicode="&#x2466;" horiz-adv-x="824" 
d="M227 35.5q-83 47.5 -130 130t-47 184.5t47 184.5t130 130t185 47.5t185 -47.5t130 -130t47 -184.5t-47 -184.5t-130 -130t-185 -47.5t-185 47.5zM562 96q67 38 104.5 104.5t37.5 149.5t-37.5 149.5t-104.5 104.5t-150 38t-150 -38t-104.5 -104.5t-37.5 -149.5
t37.5 -149.5t104.5 -104.5t150 -38t150 38zM396 141h-85l160 344h-183v76h273v-65z" />
    <glyph glyph-name="uni2467" unicode="&#x2467;" horiz-adv-x="824" 
d="M227 35.5q-83 47.5 -130 130t-47 184.5t47 184.5t130 130t185 47.5t185 -47.5t130 -130t47 -184.5t-47 -184.5t-130 -130t-185 -47.5t-185 47.5zM562 96q67 38 104.5 104.5t37.5 149.5t-37.5 149.5t-104.5 104.5t-150 38t-150 -38t-104.5 -104.5t-37.5 -149.5
t37.5 -149.5t104.5 -104.5t150 -38t150 38zM308.5 174.5q-40.5 31.5 -40.5 83.5q0 31 16 55.5t47 39.5q-30 14 -46.5 38.5t-16.5 56.5q0 52 40 83.5t104 31.5q63 0 103.5 -31.5t40.5 -82.5q0 -31 -16.5 -56t-48.5 -40q32 -15 48.5 -40t16.5 -56q0 -51 -40.5 -82.5
t-103.5 -31.5t-103.5 31.5zM461 404q19 13 19 36q0 21 -18.5 34t-49.5 13t-49.5 -13t-18.5 -34q0 -23 19.5 -36t48.5 -13q30 0 49 13zM461.5 232q18.5 13 18.5 34q0 23 -19 36t-49 13q-29 0 -48.5 -13t-19.5 -36q0 -21 18.5 -34t49.5 -13t49.5 13z" />
    <glyph glyph-name="uni2468" unicode="&#x2468;" horiz-adv-x="824" 
d="M227 35.5q-83 47.5 -130 130t-47 184.5t47 184.5t130 130t185 47.5t185 -47.5t130 -130t47 -184.5t-47 -184.5t-130 -130t-185 -47.5t-185 47.5zM562 96q67 38 104.5 104.5t37.5 149.5t-37.5 149.5t-104.5 104.5t-150 38t-150 -38t-104.5 -104.5t-37.5 -149.5
t37.5 -149.5t104.5 -104.5t150 -38t150 38zM287 174l28 69q39 -18 76 -18q40 0 62 25t23 58v1q-34 -21 -69 -21q-59 0 -97.5 37.5t-38.5 100.5t40.5 103t103.5 40q73 0 112 -54q33 -47 33 -140q0 -100 -39 -163t-131 -63q-50 0 -103 25zM462 382q19 18 19 47t-19 46.5
t-48 17.5t-48 -18t-19 -47t18.5 -46.5t47.5 -17.5q30 0 49 18z" />
    <glyph glyph-name="zero.ss04" horiz-adv-x="778" 
d="M223 45.5q-75 45.5 -119 125.5t-44 179q0 98 44 178t119.5 126t165.5 46t165.5 -46t119.5 -126t44 -178q0 -99 -44 -179t-119 -125.5t-166 -45.5t-166 45.5zM510.5 124q54.5 34 86 93.5t31.5 132.5q0 72 -31.5 131.5t-86 94t-121.5 34.5t-121.5 -34.5t-86 -94
t-31.5 -131.5q0 -73 31.5 -132.5t86 -93.5t121.5 -34t121.5 34zM326.5 287.5q-25.5 25.5 -25.5 62.5q0 38 25.5 63t62.5 25q38 0 63 -25t25 -63q0 -37 -25 -62.5t-63 -25.5q-37 0 -62.5 25.5z" />
    <glyph glyph-name="zero.tf.ss04" 
d="M95 543.5q34 78.5 92.5 117.5t132.5 39t132.5 -39.5t92.5 -118t34 -192.5t-34 -193t-92.5 -118t-132.5 -39t-132.5 39t-92.5 118t-34 193q0 115 34 193.5zM442.5 545.5q-46.5 64.5 -122.5 64.5t-122.5 -64.5t-46.5 -195.5t46.5 -195.5t122.5 -64.5t122.5 64.5t46.5 195.5
t-46.5 195.5zM255.5 412.5q26.5 25.5 64.5 25.5t63 -25t25 -63q0 -37 -25 -62.5t-63 -25.5t-64.5 25.5t-26.5 62.5t26.5 62.5z" />
    <glyph glyph-name="uni2080" unicode="&#x2080;" horiz-adv-x="486" 
d="M69.5 169q26.5 48 72 74.5t101.5 26.5q55 0 100.5 -27t72 -74.5t26.5 -108.5t-26.5 -108.5t-72 -74.5t-100.5 -27q-56 0 -101.5 26.5t-72 74.5t-26.5 109t26.5 109zM332 156.5q-35 37.5 -89 37.5t-89 -37.5t-35 -96.5q0 -60 35 -97t89 -37t89 37t35 97q0 59 -35 96.5z
" />
    <glyph glyph-name="uni2081" unicode="&#x2081;" horiz-adv-x="310" 
d="M174 270h65v-420h-75v304l-86 -84l-52 54z" />
    <glyph glyph-name="uni2082" unicode="&#x2082;" horiz-adv-x="356" 
d="M30 179q20 38 55.5 64.5t88.5 26.5q61 0 99.5 -37t38.5 -96q0 -65 -47 -109l-103 -102h150v-76h-270v62l165 162q29 27 29 59q0 27 -18 44t-45 17q-28 0 -50.5 -18t-35.5 -45z" />
    <glyph glyph-name="uni2083" unicode="&#x2083;" horiz-adv-x="349" 
d="M32 195q17 32 52.5 53.5t81.5 21.5q62 0 99.5 -32.5t37.5 -84.5q0 -34 -16 -57.5t-39 -35.5q24 -11 39.5 -35t15.5 -58q0 -53 -37 -85t-99 -32q-48 0 -83.5 21.5t-51.5 55.5l55 55q11 -27 32.5 -41.5t48.5 -14.5t43 13t16 36q0 22 -15.5 34.5t-41.5 13.5h-30v75h30
q26 1 41.5 13.5t15.5 34.5t-16.5 35t-42.5 13t-47.5 -15t-33.5 -40z" />
    <glyph glyph-name="uni2084" unicode="&#x2084;" horiz-adv-x="430" 
d="M263 270h63v-273h68v-75h-68v-72h-76v72h-222v66zM250 -3v140l-115 -140h115z" />
    <glyph glyph-name="uni2085" unicode="&#x2085;" horiz-adv-x="358" 
d="M315 270v-76h-178v-61q15 3 29 3q69 0 109 -38.5t40 -103.5t-41.5 -104.5t-109.5 -39.5q-34 0 -69 10.5t-60 28.5l33 68q47 -31 95 -31q35 0 55.5 18t20.5 49q0 33 -22 50.5t-63 17.5q-44 0 -93 -17v226h254z" />
    <glyph glyph-name="uni2086" unicode="&#x2086;" horiz-adv-x="368" 
d="M118.5 -133.5q-30.5 16.5 -49.5 46.5q-28 47 -28 128q0 96 41 162.5t129 66.5q27 0 50.5 -7t50.5 -21l-32 -67q-38 19 -72 19q-37 0 -59.5 -24.5t-24.5 -58.5v-1q16 10 34.5 15.5t35.5 5.5q58 0 97 -38t39 -100q0 -64 -39.5 -103.5t-100.5 -39.5q-41 0 -71.5 16.5z
M139 37q-19 -18 -19 -47t19.5 -46.5t48.5 -17.5t48 18t19 47t-18.5 46.5t-48.5 17.5t-49 -18z" />
    <glyph glyph-name="uni2087" unicode="&#x2087;" horiz-adv-x="348" 
d="M33 270h283v-65l-185 -355h-85l180 344h-193v76z" />
    <glyph glyph-name="uni2088" unicode="&#x2088;" horiz-adv-x="360" 
d="M83.5 238.5q37.5 31.5 96.5 31.5t96.5 -31.5t37.5 -83.5q0 -30 -14 -55t-41 -40q27 -15 41 -40t14 -55q0 -52 -37.5 -83.5t-96.5 -31.5t-96.5 31.5t-37.5 84.5q0 30 13.5 54.5t39.5 39.5q-25 14 -39 38.5t-14 55.5q0 53 37.5 84.5zM222.5 181q-15.5 13 -42.5 13
q-26 0 -42 -13t-16 -34q0 -23 16.5 -36t41.5 -13t41.5 13t16.5 36q0 21 -15.5 34zM221.5 9q-16.5 13 -41.5 13t-41.5 -13t-16.5 -36q0 -21 16 -34t42 -13q27 0 42.5 13t15.5 34q0 23 -16.5 36z" />
    <glyph glyph-name="uni2089" unicode="&#x2089;" horiz-adv-x="365" 
d="M80.5 230q40.5 40 103.5 40q73 0 112 -54q33 -47 33 -140q0 -100 -39 -163t-131 -63q-50 0 -103 25l28 69q39 -18 76 -18q40 0 62 25t23 58v1q-34 -21 -69 -21q-59 0 -97.5 37.5t-38.5 100.5t40.5 103zM231 176.5q-19 17.5 -48 17.5t-48 -18t-19 -47t18.5 -46.5
t47.5 -17.5q30 0 49 18t19 47t-19 46.5z" />
    <glyph glyph-name="zero.dnom" horiz-adv-x="486" 
d="M69.5 319q26.5 48 72 74.5t101.5 26.5q55 0 100.5 -27t72 -74.5t26.5 -108.5t-26.5 -108.5t-72 -74.5t-100.5 -27q-56 0 -101.5 26.5t-72 74.5t-26.5 109t26.5 109zM332 306.5q-35 37.5 -89 37.5t-89 -37.5t-35 -96.5q0 -60 35 -97t89 -37t89 37t35 97q0 59 -35 96.5z
" />
    <glyph glyph-name="one.dnom" horiz-adv-x="310" 
d="M174 420h65v-420h-75v304l-86 -84l-52 54z" />
    <glyph glyph-name="two.dnom" horiz-adv-x="356" 
d="M30 329q20 38 55.5 64.5t88.5 26.5q61 0 99.5 -37t38.5 -96q0 -65 -47 -109l-103 -102h150v-76h-270v62l165 162q29 27 29 59q0 27 -18 44t-45 17q-28 0 -50.5 -18t-35.5 -45z" />
    <glyph glyph-name="three.dnom" horiz-adv-x="349" 
d="M32 345q17 32 52.5 53.5t81.5 21.5q62 0 99.5 -32.5t37.5 -84.5q0 -34 -16 -57.5t-39 -35.5q24 -11 39.5 -35t15.5 -58q0 -53 -37 -85t-99 -32q-48 0 -83.5 21.5t-51.5 55.5l55 55q11 -27 32.5 -41.5t48.5 -14.5t43 13t16 36q0 22 -15.5 34.5t-41.5 13.5h-30v75h30
q26 1 41.5 13.5t15.5 34.5t-16.5 35t-42.5 13t-47.5 -15t-33.5 -40z" />
    <glyph glyph-name="four.dnom" horiz-adv-x="430" 
d="M263 420h63v-273h68v-75h-68v-72h-76v72h-222v66zM250 147v140l-115 -140h115z" />
    <glyph glyph-name="five.dnom" horiz-adv-x="358" 
d="M315 420v-76h-178v-61q12 3 29 3q68 0 108.5 -38t40.5 -104q0 -68 -42.5 -106t-108.5 -38q-35 0 -70 11t-59 28l33 68q47 -31 95 -31q33 0 54.5 17.5t21.5 49.5t-21.5 50t-63.5 18q-40 0 -93 -17v226h254z" />
    <glyph glyph-name="six.dnom" horiz-adv-x="368" 
d="M118.5 16.5q-30.5 16.5 -49.5 46.5q-28 47 -28 128q0 96 41 162.5t129 66.5q27 0 50.5 -7t50.5 -21l-32 -67q-38 19 -72 19q-37 0 -59.5 -24.5t-24.5 -58.5v-1q16 10 34.5 15.5t35.5 5.5q58 0 97 -38t39 -100q0 -64 -39.5 -103.5t-100.5 -39.5q-41 0 -71.5 16.5z
M236.5 187.5q-18.5 17.5 -48.5 17.5t-49 -18t-19 -47t19.5 -46.5t48.5 -17.5t48 18t19 47t-18.5 46.5z" />
    <glyph glyph-name="seven.dnom" horiz-adv-x="348" 
d="M33 420h283v-65l-185 -355h-85l180 344h-193v76z" />
    <glyph glyph-name="eight.dnom" horiz-adv-x="360" 
d="M83.5 388.5q37.5 31.5 96.5 31.5t96.5 -31.5t37.5 -83.5q0 -30 -14 -55t-41 -40q27 -15 41 -40t14 -55q0 -52 -37.5 -83.5t-96.5 -31.5t-96.5 31.5t-37.5 84.5q0 30 13.5 54.5t39.5 39.5q-25 14 -39 38.5t-14 55.5q0 53 37.5 84.5zM222.5 331q-15.5 13 -42.5 13
q-26 0 -42 -13t-16 -34q0 -23 16.5 -36t41.5 -13t41.5 13t16.5 36q0 21 -15.5 34zM221.5 159q-16.5 13 -41.5 13t-41.5 -13t-16.5 -36q0 -21 16 -34t42 -13q27 0 42.5 13t15.5 34q0 23 -16.5 36z" />
    <glyph glyph-name="nine.dnom" horiz-adv-x="365" 
d="M80.5 380q40.5 40 103.5 40q73 0 112 -54q33 -47 33 -140q0 -100 -39 -163t-131 -63q-50 0 -103 25l28 69q39 -18 76 -18q40 0 62 25t23 58v1q-34 -21 -69 -21q-59 0 -97.5 37.5t-38.5 100.5t40.5 103zM231 326.5q-19 17.5 -48 17.5t-48 -18t-19 -47t18.5 -46.5
t47.5 -17.5q30 0 49 18t19 47t-19 46.5z" />
    <glyph glyph-name="zero.numr" horiz-adv-x="486" 
d="M141.5 306.5q-45.5 26.5 -72 74.5t-26.5 109t26.5 109t72 74.5t101.5 26.5q55 0 100.5 -27t72 -74.5t26.5 -108.5t-26.5 -108.5t-72 -74.5t-100.5 -27q-56 0 -101.5 26.5zM332 393q35 37 35 97q0 59 -35 96.5t-89 37.5t-89 -37.5t-35 -96.5q0 -60 35 -97t89 -37t89 37z
" />
    <glyph glyph-name="one.numr" horiz-adv-x="310" 
d="M174 700h65v-420h-75v304l-86 -84l-52 54z" />
    <glyph glyph-name="two.numr" horiz-adv-x="356" 
d="M42 280v62l165 162q29 27 29 59q0 27 -18 44t-45 17q-28 0 -50.5 -18t-35.5 -45l-57 48q20 38 55.5 64.5t88.5 26.5q61 0 99.5 -37t38.5 -96q0 -65 -47 -109l-103 -102h150v-76h-270z" />
    <glyph glyph-name="three.numr" horiz-adv-x="349" 
d="M83.5 301.5q-35.5 21.5 -51.5 55.5l55 55q11 -27 32.5 -41.5t48.5 -14.5t43 13t16 36q0 22 -15.5 34.5t-41.5 13.5h-30v75h30q26 1 41.5 13.5t15.5 34.5t-16.5 35t-42.5 13t-47.5 -15t-33.5 -40l-55 56q17 32 52.5 53.5t81.5 21.5q62 0 99.5 -32.5t37.5 -84.5
q0 -34 -16 -57.5t-39 -35.5q24 -11 39.5 -35t15.5 -58q0 -53 -37 -85t-99 -32q-48 0 -83.5 21.5z" />
    <glyph glyph-name="four.numr" horiz-adv-x="430" 
d="M326 280h-76v72h-222v66l235 282h63v-273h68v-75h-68v-72zM250 567l-115 -140h115v140z" />
    <glyph glyph-name="five.numr" horiz-adv-x="358" 
d="M95 290.5q-35 10.5 -60 28.5l33 68q46 -31 95 -31q35 0 55.5 18t20.5 49q0 33 -22 50.5t-63 17.5q-44 0 -93 -17v226h254v-76h-178v-61q15 3 29 3q69 0 109 -38.5t40 -103.5t-41.5 -104.5t-109.5 -39.5q-34 0 -69 10.5z" />
    <glyph glyph-name="six.numr" horiz-adv-x="368" 
d="M118.5 296.5q-30.5 16.5 -49.5 46.5q-28 47 -28 128q0 96 41 162.5t129 66.5q27 0 50.5 -7t50.5 -21l-32 -67q-38 19 -72 19q-37 0 -59.5 -24.5t-24.5 -58.5v-1q16 10 34.5 15.5t35.5 5.5q58 0 97 -38t39 -100q0 -64 -39.5 -103.5t-100.5 -39.5q-41 0 -71.5 16.5z
M236 374q19 18 19 47t-18.5 46.5t-48.5 17.5t-49 -18t-19 -47t19.5 -46.5t48.5 -17.5t48 18z" />
    <glyph glyph-name="seven.numr" horiz-adv-x="348" 
d="M131 280h-85l180 344h-193v76h283v-65z" />
    <glyph glyph-name="eight.numr" horiz-adv-x="360" 
d="M83.5 311.5q-37.5 31.5 -37.5 84.5q0 30 13.5 54.5t39.5 39.5q-25 14 -39 38.5t-14 55.5q0 53 37.5 84.5t96.5 31.5t96.5 -31.5t37.5 -83.5q0 -30 -14 -55t-41 -40q27 -15 41 -40t14 -55q0 -52 -37.5 -83.5t-96.5 -31.5t-96.5 31.5zM221.5 541q16.5 13 16.5 36
q0 21 -15.5 34t-42.5 13q-26 0 -42 -13t-16 -34q0 -23 16.5 -36t41.5 -13t41.5 13zM222.5 369q15.5 13 15.5 34q0 23 -16.5 36t-41.5 13t-41.5 -13t-16.5 -36q0 -21 16 -34t42 -13q27 0 42.5 13z" />
    <glyph glyph-name="nine.numr" horiz-adv-x="365" 
d="M56 305l28 69q39 -18 76 -18q40 0 62 25t23 58v1q-34 -21 -69 -21q-59 0 -97.5 37.5t-38.5 100.5t40.5 103t103.5 40q73 0 112 -54q33 -47 33 -140q0 -100 -39 -163t-131 -63q-50 0 -103 25zM231 513q19 18 19 47t-19 46.5t-48 17.5t-48 -18t-19 -47t18.5 -46.5
t47.5 -17.5q30 0 49 18z" />
    <glyph glyph-name="uni2070" unicode="&#x2070;" horiz-adv-x="486" 
d="M69.5 719q26.5 48 72 74.5t101.5 26.5q55 0 100.5 -27t72 -74.5t26.5 -108.5t-26.5 -108.5t-72 -74.5t-100.5 -27q-56 0 -101.5 26.5t-72 74.5t-26.5 109t26.5 109zM332 706.5q-35 37.5 -89 37.5t-89 -37.5t-35 -96.5q0 -60 35 -97t89 -37t89 37t35 97q0 59 -35 96.5z
" />
    <glyph glyph-name="uni00B9" unicode="&#xb9;" horiz-adv-x="310" 
d="M174 820h65v-420h-75v304l-86 -84l-52 54z" />
    <glyph glyph-name="uni00B2" unicode="&#xb2;" horiz-adv-x="356" 
d="M30 729q20 38 55.5 64.5t88.5 26.5q61 0 99.5 -37t38.5 -96q0 -65 -47 -109l-103 -102h150v-76h-270v62l165 162q29 27 29 59q0 27 -18 44t-45 17q-28 0 -50.5 -18t-35.5 -45z" />
    <glyph glyph-name="uni00B3" unicode="&#xb3;" horiz-adv-x="349" 
d="M32 745q17 32 52.5 53.5t81.5 21.5q62 0 99.5 -32.5t37.5 -84.5q0 -34 -16 -57.5t-39 -35.5q24 -11 39.5 -35t15.5 -58q0 -53 -37 -85t-99 -32q-48 0 -83.5 21.5t-51.5 55.5l55 55q11 -27 32.5 -41.5t48.5 -14.5t43 13t16 36q0 22 -15.5 34.5t-41.5 13.5h-30v75h30
q26 1 41.5 13.5t15.5 34.5t-16.5 35t-42.5 13t-47.5 -15t-33.5 -40z" />
    <glyph glyph-name="uni2074" unicode="&#x2074;" horiz-adv-x="430" 
d="M263 820h63v-273h68v-75h-68v-72h-76v72h-222v66zM250 547v140l-115 -140h115z" />
    <glyph glyph-name="uni2075" unicode="&#x2075;" horiz-adv-x="358" 
d="M315 820v-76h-178v-61q15 3 29 3q69 0 109 -38.5t40 -103.5t-41.5 -104.5t-109.5 -39.5q-34 0 -69 10.5t-60 28.5l33 68q47 -31 95 -31q35 0 55.5 18t20.5 49q0 33 -22 50.5t-63 17.5q-44 0 -93 -17v226h254z" />
    <glyph glyph-name="uni2076" unicode="&#x2076;" horiz-adv-x="368" 
d="M118.5 416.5q-30.5 16.5 -49.5 46.5q-28 47 -28 128q0 96 41 162.5t129 66.5q27 0 50.5 -7t50.5 -21l-32 -67q-38 19 -72 19q-37 0 -59.5 -24.5t-24.5 -58.5v-1q16 10 34.5 15.5t35.5 5.5q58 0 97 -38t39 -100q0 -64 -39.5 -103.5t-100.5 -39.5q-41 0 -71.5 16.5z
M139 587q-19 -18 -19 -47t19.5 -46.5t48.5 -17.5t48 18t19 47t-18.5 46.5t-48.5 17.5t-49 -18z" />
    <glyph glyph-name="uni2077" unicode="&#x2077;" horiz-adv-x="348" 
d="M33 820h283v-65l-185 -355h-85l180 344h-193v76z" />
    <glyph glyph-name="uni2078" unicode="&#x2078;" horiz-adv-x="360" 
d="M83.5 788.5q37.5 31.5 96.5 31.5t96.5 -31.5t37.5 -83.5q0 -30 -14 -55t-41 -40q27 -15 41 -40t14 -55q0 -52 -37.5 -83.5t-96.5 -31.5t-96.5 31.5t-37.5 84.5q0 30 13.5 54.5t39.5 39.5q-25 14 -39 38.5t-14 55.5q0 53 37.5 84.5zM222.5 731q-15.5 13 -42.5 13
q-26 0 -42 -13t-16 -34q0 -23 16.5 -36t41.5 -13t41.5 13t16.5 36q0 21 -15.5 34zM221.5 559q-16.5 13 -41.5 13t-41.5 -13t-16.5 -36q0 -21 16 -34t42 -13q27 0 42.5 13t15.5 34q0 23 -16.5 36z" />
    <glyph glyph-name="uni2079" unicode="&#x2079;" horiz-adv-x="365" 
d="M80.5 780q40.5 40 103.5 40q73 0 112 -54q33 -47 33 -140q0 -100 -39 -163t-131 -63q-50 0 -103 25l28 69q39 -18 76 -18q40 0 62 25t23 58v1q-34 -21 -69 -21q-59 0 -97.5 37.5t-38.5 100.5t40.5 103zM231 726.5q-19 17.5 -48 17.5t-48 -18t-19 -47t18.5 -46.5
t47.5 -17.5q30 0 49 18t19 47t-19 46.5z" />
    <glyph glyph-name="colon.case" horiz-adv-x="317" 
d="M214 539q23 -23 23 -56t-23 -55.5t-56 -22.5t-55.5 22.5t-22.5 55.5t22.5 56t55.5 23t56 -23zM214 184q23 -23 23 -56t-23 -55.5t-56 -22.5t-55.5 22.5t-22.5 55.5t22.5 56t55.5 23t56 -23z" />
    <glyph glyph-name="semicolon.case" horiz-adv-x="366" 
d="M273 539q23 -23 23 -56t-23 -55.5t-56 -22.5t-55.5 22.5t-22.5 55.5t22.5 56t55.5 23t56 -23zM260 110l-175 -310l-70 38l174 312z" />
    <glyph glyph-name="exclamdown.case" horiz-adv-x="316" 
d="M102.5 566q-22.5 23 -22.5 56t22.5 55.5t55.5 22.5t56 -22.5t23 -55.5t-23 -56t-56 -23t-55.5 23zM113 0v480h90v-480h-90z" />
    <glyph glyph-name="questiondown.case" horiz-adv-x="491" 
d="M196 566q-23 23 -23 56t23 55.5t56 22.5t55.5 -22.5t22.5 -55.5t-22.5 -56t-55.5 -23t-56 23zM298 478q0 -60 -26 -100t-72 -80q-29 -25 -44.5 -47t-15.5 -56q0 -44 29.5 -74.5t84.5 -30.5q60 0 94.5 37.5t34.5 104.5h88q0 -67 -26 -119.5t-75.5 -82.5t-116.5 -30
q-60 0 -106 24t-71.5 67.5t-25.5 100.5t24 95t73 83q33 30 47 51.5t14 56.5v25h90v-25z" />
    <glyph glyph-name="periodcentered.loclCAT.case" horiz-adv-x="0" 
d="M-179.5 366q-19.5 20 -19.5 48q0 29 19.5 48.5t48.5 19.5q28 0 48 -19.5t20 -48.5q0 -28 -20 -48t-48 -20q-29 0 -48.5 20z" />
    <glyph glyph-name="periodcentered.loclCAT" horiz-adv-x="96" 
d="M0 328q-20 20 -20 48q0 29 20 48.5t48 19.5q29 0 48.5 -19.5t19.5 -48.5q0 -28 -19.5 -48t-48.5 -20q-28 0 -48 20z" />
    <glyph glyph-name="uni208D" unicode="&#x208d;" horiz-adv-x="228" 
d="M69 196.5q30 73.5 85 130.5l50 -44q-47 -54 -71 -111.5t-24 -130.5q0 -140 94 -248l-49 -44q-54 56 -84.5 133.5t-30.5 158.5q0 82 30 155.5z" />
    <glyph glyph-name="uni208E" unicode="&#x208e;" horiz-adv-x="226" 
d="M74 327q55 -57 84.5 -130t29.5 -156q0 -81 -30 -158.5t-84 -133.5l-49 44q94 110 94 248q0 72 -24 130t-71 112z" />
    <glyph glyph-name="uni207D" unicode="&#x207d;" horiz-adv-x="228" 
d="M69 746.5q30 73.5 85 130.5l50 -44q-47 -54 -71 -111.5t-24 -130.5q0 -140 94 -248l-49 -44q-54 56 -84.5 133.5t-30.5 158.5q0 82 30 155.5z" />
    <glyph glyph-name="uni207E" unicode="&#x207e;" horiz-adv-x="226" 
d="M74 877q55 -57 84.5 -130t29.5 -156q0 -81 -30 -158.5t-84 -133.5l-49 44q94 110 94 248q0 72 -24 130t-71 112z" />
    <glyph glyph-name="parenleft.case" horiz-adv-x="312" 
d="M109.5 603.5q49.5 123.5 140.5 216.5l57 -52q-82 -92 -122.5 -193.5t-40.5 -231.5q0 -129 40.5 -231t122.5 -194l-57 -52q-91 93 -140.5 216.5t-49.5 260.5t49.5 260.5z" />
    <glyph glyph-name="parenright.case" horiz-adv-x="312" 
d="M62 820q91 -93 140.5 -216.5t49.5 -260.5t-49.5 -260.5t-140.5 -216.5l-57 52q82 92 122.5 194t40.5 231q0 130 -40.5 231.5t-122.5 193.5z" />
    <glyph glyph-name="braceleft.case" horiz-adv-x="348" 
d="M348 801v-75h-32q-35 0 -57.5 -20t-22.5 -56v-167q0 -47 -18.5 -77t-61.5 -47q43 -17 61.5 -46.5t18.5 -75.5v-180q0 -36 22.5 -56t57.5 -20h32v-75h-27q-77 0 -120 37.5t-43 118.5v165q0 41 -29 64.5t-79 26.5v74q50 3 79 27.5t29 65.5v160q0 81 43 118.5t120 37.5h27z
" />
    <glyph glyph-name="braceright.case" horiz-adv-x="348" 
d="M27 801q77 0 120 -37.5t43 -118.5v-160q0 -41 29 -65.5t79 -27.5v-74q-50 -3 -79 -26.5t-29 -64.5v-165q0 -81 -43 -118.5t-120 -37.5h-27v75h32q35 0 57.5 20t22.5 56v180q0 46 18.5 75.5t61.5 46.5q-43 17 -61.5 47t-18.5 77v167q0 36 -22.5 56t-57.5 20h-32v75h27z
" />
    <glyph glyph-name="bracketleft.case" horiz-adv-x="310" 
d="M110 791h200v-74h-120v-747h120v-74h-200v895z" />
    <glyph glyph-name="bracketright.case" horiz-adv-x="310" 
d="M0 791h200v-895h-200v74h120v747h-120v74z" />
    <glyph glyph-name="hyphen.case" horiz-adv-x="628" 
d="M80 404h468v-90h-468v90z" />
    <glyph glyph-name="endash.case" horiz-adv-x="948" 
d="M80 404h788v-90h-788v90z" />
    <glyph glyph-name="emdash.case" horiz-adv-x="1398" 
d="M80 404h1238v-90h-1238v90z" />
    <glyph glyph-name="guillemotleft.case" horiz-adv-x="524" 
d="M50 310l185 210l57 -52l-143 -158l143 -159l-57 -51zM252 310l185 210l57 -52l-143 -158l143 -159l-57 -51z" />
    <glyph glyph-name="guillemotright.case" horiz-adv-x="524" 
d="M272 310l-185 -210l-57 51l143 159l-143 158l57 52zM474 310l-185 -210l-57 51l143 159l-143 158l57 52z" />
    <glyph glyph-name="guilsinglleft.case" horiz-adv-x="322" 
d="M50 310l185 210l57 -52l-143 -158l143 -159l-57 -51z" />
    <glyph glyph-name="guilsinglright.case" horiz-adv-x="322" 
d="M272 310l-185 -210l-57 51l143 159l-143 158l57 52z" />
    <glyph glyph-name="parenleft.dnom" horiz-adv-x="228" 
d="M69 346.5q30 73.5 85 130.5l50 -44q-47 -54 -71 -111.5t-24 -130.5q0 -140 94 -248l-49 -44q-54 56 -84.5 133.5t-30.5 158.5q0 82 30 155.5z" />
    <glyph glyph-name="parenright.dnom" horiz-adv-x="226" 
d="M158 32.5q-30 -77.5 -84 -133.5l-49 44q94 110 94 248q0 72 -24 130t-71 112l50 44q55 -57 84.5 -130t29.5 -156q0 -81 -30 -158.5z" />
    <glyph glyph-name="parenleft.numr" horiz-adv-x="228" 
d="M154 179q-54 56 -84.5 133.5t-30.5 158.5q0 82 30 155.5t85 130.5l50 -44q-47 -54 -71 -111.5t-24 -130.5q0 -140 94 -248z" />
    <glyph glyph-name="parenright.numr" horiz-adv-x="226" 
d="M74 757q55 -57 84.5 -130t29.5 -156q0 -81 -30 -158.5t-84 -133.5l-49 44q94 110 94 248q0 72 -24 130t-71 112z" />
    <glyph glyph-name="uni2003" unicode="&#x2003;" horiz-adv-x="1000" 
 />
    <glyph glyph-name="uni2002" unicode="&#x2002;" horiz-adv-x="500" 
 />
    <glyph glyph-name="uni2005" unicode="&#x2005;" horiz-adv-x="250" 
 />
    <glyph glyph-name="uni200A" unicode="&#x200a;" horiz-adv-x="75" 
 />
    <glyph glyph-name="uni00A0" unicode="&#xa0;" horiz-adv-x="290" 
 />
    <glyph glyph-name="uni2009" unicode="&#x2009;" horiz-adv-x="135" 
 />
    <glyph glyph-name="uni2004" unicode="&#x2004;" horiz-adv-x="333" 
 />
    <glyph glyph-name="uni0E3F" unicode="&#xe3f;" horiz-adv-x="587" 
d="M330 0v-80h-50v80h-190v700h190v80h50v-80h13q53 0 97.5 -24.5t70.5 -69t26 -101.5q0 -49 -23 -90.5t-62 -64.5q39 -24 62 -64.5t23 -90.5q0 -57 -26 -101.5t-70.5 -69t-97.5 -24.5h-13zM180 395h100v215h-100v-215zM330 610v-215h18q43 0 71 31.5t28 78.5t-29 76t-75 29
h-13zM180 90h100v215h-100v-215zM330 305v-215h13q46 0 75 29t29 76t-28 78.5t-71 31.5h-18z" />
    <glyph glyph-name="uni20BA" unicode="&#x20ba;" horiz-adv-x="621" 
d="M241 90q74 0 133.5 33.5t93 93t33.5 133.5h90q0 -99 -45.5 -179t-125.5 -125.5t-179 -45.5h-90v286l-101 -31v82l101 31v78l-101 -31v82l101 31v172h90v-145l202 62v-82l-202 -62v-78l202 62v-82l-202 -62v-223z" />
    <glyph glyph-name="uni20BD" unicode="&#x20bd;" horiz-adv-x="596" 
d="M222 149v-149h-90v149h-62v75h62v49h-62v90h62v337h219q63 0 112 -28t76 -77t27 -109q0 -61 -27 -109.5t-76 -76t-112 -27.5h-129v-49h269v-75h-269zM351 363q55 0 90 34.5t35 88.5q0 53 -35 88.5t-90 35.5h-129v-247h129z" />
    <glyph glyph-name="uni20B9" unicode="&#x20b9;" horiz-adv-x="533" 
d="M365 625q34 -40 44 -92h94l-50 -75h-40q-9 -84 -69 -136.5t-150 -53.5l254 -268h-128l-250 268v90h121q51 0 86 27.5t43 72.5h-250v75h243q-14 36 -46 56.5t-76 20.5h-121v90h433l-50 -75h-88z" />
    <glyph glyph-name="uni0E3F.tf" 
d="M330 0v-80h-50v80h-199v700h199v80h50v-80h34q53 0 97.5 -24.5t70.5 -69t26 -101.5q0 -49 -23 -90.5t-62 -64.5q39 -24 62 -64.5t23 -90.5q0 -57 -26 -101.5t-70.5 -69t-97.5 -24.5h-34zM171 395h109v215h-109v-215zM330 610v-215h39q43 0 71 31.5t28 78.5t-29 76t-75 29
h-34zM171 90h109v215h-109v-215zM330 305v-215h34q46 0 75 29t29 76t-28 78.5t-71 31.5h-39z" />
    <glyph glyph-name="uni20BA.tf" 
d="M240 90q74 0 133.5 33.5t93 93t33.5 133.5h90q0 -99 -45.5 -179t-125.5 -125.5t-179 -45.5h-90v286l-101 -31v82l101 31v78l-101 -31v82l101 31v172h90v-145l202 62v-82l-202 -62v-78l202 62v-82l-202 -62v-223z" />
    <glyph glyph-name="uni20BD.tf" 
d="M214 149v-149h-90v149h-62v75h62v49h-62v90h62v337h239q63 0 112 -28t76 -77t27 -109q0 -61 -27 -109.5t-76 -76t-112 -27.5h-149v-49h289v-75h-289zM363 363q55 0 90 34.5t35 88.5q0 53 -35 88.5t-90 35.5h-149v-247h149z" />
    <glyph glyph-name="uni20B9.tf" 
d="M418 625q34 -40 44 -92h94l-50 -75h-40q-9 -84 -69.5 -137t-152.5 -53h-33l290 -268h-128l-290 268v90h161q51 0 86 27.5t43 72.5h-290v75h283q-14 36 -46 56.5t-76 20.5h-161v90h473l-50 -75h-88z" />
    <glyph glyph-name="uni208C" unicode="&#x208c;" horiz-adv-x="440" 
d="M62 135h316v-76h-316v76zM62 -2h316v-76h-316v76z" />
    <glyph glyph-name="uni207C" unicode="&#x207c;" horiz-adv-x="440" 
d="M62 685h316v-76h-316v76zM62 548h316v-76h-316v76z" />
    <glyph glyph-name="uni208B" unicode="&#x208b;" horiz-adv-x="440" 
d="M66 79h308v-75h-308v75z" />
    <glyph glyph-name="uni207B" unicode="&#x207b;" horiz-adv-x="440" 
d="M66 629h308v-75h-308v75z" />
    <glyph glyph-name="uni2126" unicode="&#x2126;" horiz-adv-x="740" 
d="M34 0v80h130q-144 110 -144 284q0 101 45.5 180t125.5 123.5t179 44.5t179 -44.5t125.5 -123.5t45.5 -180q0 -174 -144 -284h130v-80h-286v80q96 52 150.5 120t54.5 164q0 74 -33 133t-91 92t-131 33t-131 -33t-91 -92t-33 -133q0 -96 54.5 -164t150.5 -120v-80h-286z
" />
    <glyph glyph-name="uni208A" unicode="&#x208a;" horiz-adv-x="440" 
d="M182 200h76v-121h121v-75h-121v-122h-76v122h-121v75h121v121z" />
    <glyph glyph-name="uni207A" unicode="&#x207a;" horiz-adv-x="440" 
d="M182 750h76v-121h121v-75h-121v-122h-76v122h-121v75h121v121z" />
    <glyph glyph-name="plus.case" 
d="M275 602h90v-209h209v-90h-209v-209h-90v209h-209v90h209v209z" />
    <glyph glyph-name="minus.case" 
d="M91 393h458v-90h-458v90z" />
    <glyph glyph-name="multiply.case" 
d="M319 408l177 177l60 -61l-176 -177l176 -176l-60 -61l-177 177l-176 -176l-60 60l176 176l-176 177l60 60z" />
    <glyph glyph-name="divide.case" 
d="M254.5 471.5q-22.5 22.5 -22.5 55.5t22.5 56t55.5 23t56 -23t23 -56t-23 -55.5t-56 -22.5t-55.5 22.5zM594 299h-548v90h548v-90zM254.5 104.5q-22.5 22.5 -22.5 55.5t22.5 56t55.5 23t56 -23t23 -56t-23 -55.5t-56 -22.5t-55.5 22.5z" />
    <glyph glyph-name="equal.case" 
d="M77 473h486v-90h-486v90zM77 258h486v-90h-486v90z" />
    <glyph glyph-name="notequal.case" 
d="M563 168h-301l-59 -110l-67 33l41 77h-100v90h148l66 125h-214v90h262l59 110l67 -35l-40 -75h138v-90h-186l-67 -125h253v-90z" />
    <glyph glyph-name="greater.case" 
d="M122 543l433 -193v-80l-433 -193l-37 79l348 154l-348 154z" />
    <glyph glyph-name="less.case" 
d="M85 350l433 193l37 -79l-348 -154l348 -154l-37 -79l-433 193v80z" />
    <glyph glyph-name="greaterequal.case" 
d="M119 559l433 -138v-70l-433 -138l-24 83l298 90l-298 90zM88 162h457v-88h-457v88z" />
    <glyph glyph-name="lessequal.case" 
d="M88 421l433 138l24 -83l-298 -90l298 -90l-24 -83l-433 138v70zM95 162h457v-88h-457v88z" />
    <glyph glyph-name="plusminus.case" 
d="M277 610h86v-139h193v-88h-193v-139h-86v139h-193v88h193v139zM84 203h472v-88h-472v88z" />
    <glyph glyph-name="approxequal.case" 
d="M51 437q81 79 158 79q33 0 61.5 -11.5t67.5 -32.5q36 -19 54.5 -26.5t38.5 -7.5q48 0 110 58l48 -69q-86 -84 -158 -84q-34 0 -63.5 11.5t-69.5 33.5q-31 17 -50.5 25.5t-38.5 8.5q-48 0 -111 -59zM51 224q81 79 158 79q33 0 61.5 -11.5t67.5 -32.5q36 -19 54.5 -26.5
t38.5 -7.5q48 0 110 58l48 -69q-86 -84 -158 -84q-34 0 -63.5 11.5t-69.5 33.5q-31 17 -50.5 25.5t-38.5 8.5q-48 0 -111 -59z" />
    <glyph glyph-name="logicalnot.case" 
d="M91 424h458v-254h-91v164h-367v90z" />
    <glyph glyph-name="arrowup" unicode="&#x2191;" horiz-adv-x="766" 
d="M100 391l283 327l283 -327l-59 -54l-182 207v-544h-84v544l-182 -207z" />
    <glyph glyph-name="uni2197" unicode="&#x2197;" horiz-adv-x="752" 
d="M559 462l-399 -399l-60 60l399 399l-275 -18l-3 80l431 31l-31 -431l-80 3z" />
    <glyph glyph-name="arrowright" unicode="&#x2192;" horiz-adv-x="938" 
d="M457 577l54 59l327 -283l-327 -283l-54 59l207 182h-564v84h564z" />
    <glyph glyph-name="uni2198" unicode="&#x2198;" horiz-adv-x="752" 
d="M100 566l60 60l399 -399l-18 275l80 3l31 -431l-431 31l3 80l275 -18z" />
    <glyph glyph-name="arrowdown" unicode="&#x2193;" horiz-adv-x="766" 
d="M341 697h84v-544l182 207l59 -54l-283 -327l-283 327l59 54l182 -207v544z" />
    <glyph glyph-name="uni2199" unicode="&#x2199;" horiz-adv-x="752" 
d="M193 227l399 399l60 -60l-399 -399l275 18l3 -80l-431 -31l31 431l80 -3z" />
    <glyph glyph-name="arrowleft" unicode="&#x2190;" horiz-adv-x="938" 
d="M100 353l327 283l54 -59l-207 -182h564v-84h-564l207 -182l-54 -59z" />
    <glyph glyph-name="uni2196" unicode="&#x2196;" horiz-adv-x="752" 
d="M652 123l-60 -60l-399 399l18 -275l-80 -3l-31 431l431 -31l-3 -80l-275 18z" />
    <glyph glyph-name="arrowboth" unicode="&#x2194;" horiz-adv-x="1237" 
d="M806 577l54 59l327 -283l-327 -283l-54 59l207 182h-789l207 -182l-54 -59l-327 283l327 283l54 -59l-207 -182h789z" />
    <glyph glyph-name="arrowupdn" unicode="&#x2195;" horiz-adv-x="666" 
d="M579 71l-246 -284l-246 284l58 56l146 -166v577l-146 -166l-58 56l246 284l246 -284l-58 -56l-146 166v-577l146 166z" />
    <glyph glyph-name="arrowup.case" horiz-adv-x="766" 
d="M100 401l283 327l283 -327l-59 -54l-182 207v-544h-84v544l-182 -207z" />
    <glyph glyph-name="uni2197.case" horiz-adv-x="752" 
d="M559 462l-399 -399l-60 60l399 399l-275 -18l-3 80l431 31l-31 -431l-80 3z" />
    <glyph glyph-name="arrowright.case" horiz-adv-x="938" 
d="M457 587l54 59l327 -283l-327 -283l-54 59l207 182h-564v84h564z" />
    <glyph glyph-name="uni2198.case" horiz-adv-x="752" 
d="M621 505l31 -431l-431 31l3 80l275 -18l-399 399l60 60l399 -399l-18 275z" />
    <glyph glyph-name="arrowdown.case" horiz-adv-x="766" 
d="M666 289l-283 -327l-283 327l59 54l182 -207v544h84v-544l182 207z" />
    <glyph glyph-name="uni2199.case" horiz-adv-x="752" 
d="M531 105l-431 -31l31 431l80 -3l-18 -275l399 399l60 -60l-399 -399l275 18z" />
    <glyph glyph-name="arrowleft.case" horiz-adv-x="938" 
d="M100 363l327 283l54 -59l-207 -182h564v-84h-564l207 -182l-54 -59z" />
    <glyph glyph-name="uni2196.case" horiz-adv-x="752" 
d="M652 123l-60 -60l-399 399l18 -275l-80 -3l-31 431l431 -31l-3 -80l-275 18z" />
    <glyph glyph-name="circle" unicode="&#x25cb;" horiz-adv-x="824" 
d="M97 534.5q47 82.5 130 130t185 47.5t185 -47.5t130 -130t47 -184.5t-47 -184.5t-130 -130t-185 -47.5t-185 47.5t-130 130t-47 184.5t47 184.5zM666.5 499.5q-37.5 66.5 -104.5 104.5t-150 38t-150 -38t-104.5 -104.5t-37.5 -149.5t37.5 -149.5t104.5 -104.5t150 -38
t150 38t104.5 104.5t37.5 149.5t-37.5 149.5z" />
    <glyph glyph-name="at.case" horiz-adv-x="939" 
d="M265.5 -5.5q-91.5 53.5 -143.5 147.5t-52 211t53.5 210.5t147 146t208.5 52.5q113 0 202 -44t138.5 -125t49.5 -188q0 -123 -45 -192.5t-133 -69.5q-43 0 -68.5 16t-37.5 53q-47 -71 -137 -71q-66 0 -105.5 36.5t-39.5 93.5t37.5 90.5t89.5 37.5l135 11q0 46 -17.5 64.5
t-60.5 18.5q-40 0 -70 -17.5t-36 -53.5l-68 32q13 53 55 83t113 30q83 0 123.5 -42t40.5 -115v-131q0 -31 13.5 -47.5t37.5 -16.5q89 0 89 188q0 82 -38.5 145t-108 98.5t-159.5 35.5q-92 0 -166 -42t-116.5 -117.5t-42.5 -169.5q0 -95 40.5 -170.5t112.5 -118.5t164 -43
q126 0 228 46l16 -78q-56 -23 -113 -35.5t-131 -12.5q-114 0 -205.5 53.5zM512 229.5q25 14.5 39 37.5t14 48v24l-127 -14q-25 -3 -38.5 -18.5t-13.5 -35.5q0 -24 17.5 -40t51.5 -16q32 0 57 14.5z" />
    <glyph glyph-name="bar.case" horiz-adv-x="275" 
d="M100 801h75v-895h-75v895z" />
    <glyph glyph-name="brokenbar.case" horiz-adv-x="275" 
d="M100 801h75v-388h-75v388zM100 324h75v-418h-75v418z" />
    <glyph glyph-name="bar.tf" horiz-adv-x="320" 
d="M122 761h75v-895h-75v895z" />
    <glyph glyph-name="plus.dnom" horiz-adv-x="440" 
d="M182 350h76v-121h121v-75h-121v-122h-76v122h-121v75h121v121z" />
    <glyph glyph-name="minus.dnom" horiz-adv-x="440" 
d="M66 229h308v-75h-308v75z" />
    <glyph glyph-name="equal.dnom" horiz-adv-x="440" 
d="M62 285h316v-76h-316v76zM62 148h316v-76h-316v76z" />
    <glyph glyph-name="plus.numr" horiz-adv-x="440" 
d="M182 630h76v-121h121v-75h-121v-122h-76v122h-121v75h121v121z" />
    <glyph glyph-name="minus.numr" horiz-adv-x="440" 
d="M66 509h308v-75h-308v75z" />
    <glyph glyph-name="equal.numr" horiz-adv-x="440" 
d="M62 565h316v-76h-316v76zM62 428h316v-76h-316v76z" />
    <glyph glyph-name="uni0308" unicode="&#x308;" horiz-adv-x="0" 
d="M-368.5 692.5q19.5 19.5 48.5 19.5q28 0 48 -19.5t20 -48.5q0 -28 -20 -48t-48 -20q-29 0 -48.5 20t-19.5 48q0 29 19.5 48.5zM-166.5 692.5q19.5 19.5 48.5 19.5q28 0 48 -19.5t20 -48.5q0 -28 -20 -48t-48 -20q-29 0 -48.5 20t-19.5 48q0 29 19.5 48.5z" />
    <glyph glyph-name="uni0307" unicode="&#x307;" horiz-adv-x="0" 
d="M-167 595q-19 19 -19 49t19 49t49 19t49 -19t19 -49t-19 -49t-49 -19t-49 19z" />
    <glyph glyph-name="gravecomb" unicode="&#x300;" horiz-adv-x="0" 
d="M-302 704l41 63l211 -136l-39 -60z" />
    <glyph glyph-name="acutecomb" unicode="&#x301;" horiz-adv-x="0" 
d="M-302 631l211 136l41 -63l-213 -133z" />
    <glyph glyph-name="uni030B" unicode="&#x30b;" horiz-adv-x="0" 
d="M-336 613l111 165l61 -41l-113 -163zM-183 603l111 165l61 -41l-113 -163z" />
    <glyph glyph-name="uni0302" unicode="&#x302;" horiz-adv-x="0" 
d="M-402 617l176 151l176 -151l-47 -52l-129 112l-129 -112z" />
    <glyph glyph-name="uni030C" unicode="&#x30c;" horiz-adv-x="0" 
d="M-226 646l129 112l47 -52l-176 -151l-176 151l47 52z" />
    <glyph glyph-name="uni0306" unicode="&#x306;" horiz-adv-x="0" 
d="M-50 731q0 -69 -38 -111t-104 -42t-104 42t-38 111h73q0 -40 18 -60.5t51 -20.5t51 20.5t18 60.5h73z" />
    <glyph glyph-name="uni030A" unicode="&#x30a;" horiz-adv-x="0" 
d="M-239 762.5q31 31.5 79 31.5t79 -31.5t31 -79.5t-31 -79t-79 -31t-79 31t-31 79t31 79.5zM-121.5 722.5q-14.5 15.5 -38.5 15.5t-38.5 -15.5t-14.5 -39.5t14.5 -39.5t38.5 -15.5t38.5 15.5t14.5 39.5t-14.5 39.5z" />
    <glyph glyph-name="tildecomb" unicode="&#x303;" horiz-adv-x="0" 
d="M-191 584q-16 7 -38 21q-11 7 -22.5 13t-20.5 6q-12 0 -25 -10t-31 -29l-48 46q58 69 106 69q19 0 35 -7t38 -21q11 -7 22.5 -13t20.5 -6q12 0 25 10t31 29l48 -46q-58 -69 -106 -69q-19 0 -35 7z" />
    <glyph glyph-name="uni0304" unicode="&#x304;" horiz-adv-x="0" 
d="M-350 687h300v-70h-300v70z" />
    <glyph glyph-name="uni0312" unicode="&#x312;" horiz-adv-x="0" 
d="M-156 578.5q-18 18.5 -18 43.5q0 15 9 31l73 129l41 -23l-46 -77q21 -5 34 -22t13 -38q0 -25 -18.5 -43.5t-43.5 -18.5q-26 0 -44 18.5z" />
    <glyph glyph-name="dotbelowcomb" unicode="&#x323;" horiz-adv-x="0" 
d="M-167 -179q-19 19 -19 49t19 49t49 19t49 -19t19 -49t-19 -49t-49 -19t-49 19z" />
    <glyph glyph-name="uni0326" unicode="&#x326;" horiz-adv-x="0" 
d="M-122 -210l-37 21l33 55q-18 5 -30.5 20.5t-12.5 34.5q0 24 16 40.5t41 16.5t41 -16.5t16 -40.5q0 -7 -4.5 -17.5t-10.5 -22.5z" />
    <glyph glyph-name="uni0327" unicode="&#x327;" horiz-adv-x="0" 
d="M-83 13q33 -46 33 -94q0 -41 -25 -63.5t-62 -22.5q-27 0 -51 10v58q24 -7 38 -7q32 0 32 34q0 18 -9 41t-24 44h68z" />
    <glyph glyph-name="uni0328" unicode="&#x328;" horiz-adv-x="0" 
d="M-54 10q-31 -16 -52 -41t-21 -46q0 -14 10 -21.5t27 -7.5q10 0 38 6v-58q-20 -9 -51 -9q-41 0 -64 20.5t-23 57.5q0 30 19 56t60 52z" />
    <glyph glyph-name="uni0308.case" horiz-adv-x="0" 
d="M-368.5 746q-19.5 20 -19.5 48q0 29 19.5 48.5t48.5 19.5q28 0 48 -19.5t20 -48.5q0 -28 -20 -48t-48 -20q-29 0 -48.5 20zM-166.5 746q-19.5 20 -19.5 48q0 29 19.5 48.5t48.5 19.5q28 0 48 -19.5t20 -48.5q0 -28 -20 -48t-48 -20q-29 0 -48.5 20z" />
    <glyph glyph-name="uni0307.case" horiz-adv-x="0" 
d="M-166.5 746q-19.5 20 -19.5 48q0 29 19.5 48.5t48.5 19.5q28 0 48 -19.5t20 -48.5q0 -28 -20 -48t-48 -20q-29 0 -48.5 20z" />
    <glyph glyph-name="gravecomb.case" horiz-adv-x="0" 
d="M-70 771l-39 -60l-213 133l41 63z" />
    <glyph glyph-name="acutecomb.case" horiz-adv-x="0" 
d="M-32 844l-213 -133l-39 60l211 136z" />
    <glyph glyph-name="uni030B.case" horiz-adv-x="0" 
d="M-203 847l-113 -123l-59 39l111 125zM-50 837l-113 -123l-59 39l111 125z" />
    <glyph glyph-name="uni0302.case" horiz-adv-x="0" 
d="M-226 827l-129 -112l-47 52l176 151l176 -151l-47 -52z" />
    <glyph glyph-name="uni030C.case" horiz-adv-x="0" 
d="M-50 876l-176 -151l-176 151l47 52l129 -112l129 112z" />
    <glyph glyph-name="uni0306.case" horiz-adv-x="0" 
d="M-296 770q-38 42 -38 111h73q0 -40 18 -60.5t51 -20.5t51 20.5t18 60.5h73q0 -69 -38 -111t-104 -42t-104 42z" />
    <glyph glyph-name="uni030A.case" horiz-adv-x="0" 
d="M-239 676q-31 31 -31 79t31 79.5t79 31.5t79 -31.5t31 -79.5t-31 -79t-79 -31t-79 31zM-121.5 715.5q14.5 15.5 14.5 39.5t-14.5 39.5t-38.5 15.5t-38.5 -15.5t-14.5 -39.5t14.5 -39.5t38.5 -15.5t38.5 15.5z" />
    <glyph glyph-name="tildecomb.case" horiz-adv-x="0" 
d="M-191 744q-16 7 -38 21q-11 7 -22.5 13t-20.5 6q-12 0 -25 -10t-31 -29l-48 46q58 69 106 69q19 0 35 -7t38 -21q11 -7 22.5 -13t20.5 -6q12 0 25 10t31 29l48 -46q-58 -69 -106 -69q-19 0 -35 7z" />
    <glyph glyph-name="uni0304.case" horiz-adv-x="0" 
d="M-50 757h-300v70h300v-70z" />
    </font>
</defs>
</svg>
